<svg id="Layer_1" data-name="Layer 1" xmlns="http://www.w3.org/2000/svg" xmlns:xlink="http://www.w3.org/1999/xlink" viewBox="0 0 64 64"><defs><style>.cls-1{fill:url(#linear-gradient);}.cls-2{fill:url(#linear-gradient-2);}.cls-3{fill:url(#linear-gradient-3);}.cls-4{fill:url(#linear-gradient-4);}.cls-5{fill:url(#linear-gradient-5);}.cls-6{fill:url(#linear-gradient-6);}.cls-7{fill:url(#linear-gradient-7);}.cls-8{fill:url(#linear-gradient-8);}.cls-9{fill:url(#linear-gradient-9);}.cls-10{fill:url(#linear-gradient-10);}.cls-11{fill:url(#linear-gradient-11);}.cls-12{fill:url(#linear-gradient-12);}.cls-13{fill:url(#linear-gradient-13);}.cls-14{fill:url(#linear-gradient-14);}.cls-15{fill:#cc7833;}.cls-16{fill:url(#linear-gradient-15);}.cls-17{fill:url(#linear-gradient-16);}.cls-18{fill:#f9aa8f;}.cls-19{fill:url(#linear-gradient-17);}.cls-20{fill:url(#linear-gradient-18);}.cls-21{fill:#80634e;}.cls-22{fill:url(#linear-gradient-19);}.cls-23{fill:#6b3500;}.cls-24{fill:url(#linear-gradient-20);}.cls-25{fill:url(#linear-gradient-21);}.cls-26{fill:#0d123b;}.cls-27{fill:url(#linear-gradient-22);}.cls-28{fill:url(#linear-gradient-23);}.cls-29{fill:url(#linear-gradient-24);}.cls-30{fill:url(#linear-gradient-25);}.cls-31{fill:url(#linear-gradient-26);}</style><linearGradient id="linear-gradient" x1="32" y1="97.25" x2="32" y2="9.14" gradientUnits="userSpaceOnUse"><stop offset="0" stop-color="#d1efe7"/><stop offset="0.53" stop-color="#97efe7"/><stop offset="1" stop-color="#3ccbe3"/></linearGradient><linearGradient id="linear-gradient-2" x1="30.32" y1="19.2" x2="30.32" y2="-9.5" xlink:href="#linear-gradient"/><linearGradient id="linear-gradient-3" x1="48.86" y1="46.12" x2="32.9" y2="16.11" xlink:href="#linear-gradient"/><linearGradient id="linear-gradient-4" x1="30.66" y1="44.52" x2="24.15" y2="10.85" xlink:href="#linear-gradient"/><linearGradient id="linear-gradient-5" x1="26.65" y1="69.39" x2="26.65" y2="59.92" gradientUnits="userSpaceOnUse"><stop offset="0" stop-color="#caf1d8"/><stop offset="0.51" stop-color="#7defa4"/><stop offset="1" stop-color="#2fbca4"/></linearGradient><linearGradient id="linear-gradient-6" x1="41.67" y1="69.04" x2="41.67" y2="59.72" xlink:href="#linear-gradient-5"/><linearGradient id="linear-gradient-7" x1="19.37" y1="24.01" x2="19.37" y2="-12.25" gradientUnits="userSpaceOnUse"><stop offset="0" stop-color="#fff"/><stop offset="0.84" stop-color="#cddfec"/></linearGradient><linearGradient id="linear-gradient-8" x1="13.78" y1="24.35" x2="13.78" y2="-8.58" xlink:href="#linear-gradient-7"/><linearGradient id="linear-gradient-9" x1="983.51" y1="29.88" x2="983.51" y2="-31.66" gradientTransform="translate(-940.22)" xlink:href="#linear-gradient-7"/><linearGradient id="linear-gradient-10" x1="978.75" y1="29.88" x2="978.75" y2="-31.66" gradientTransform="translate(-940.22)" xlink:href="#linear-gradient-7"/><linearGradient id="linear-gradient-11" x1="51.74" y1="29.88" x2="51.74" y2="-31.66" xlink:href="#linear-gradient-7"/><linearGradient id="linear-gradient-12" x1="967.1" y1="29.88" x2="967.1" y2="-31.66" gradientTransform="translate(-940.22)" xlink:href="#linear-gradient-7"/><linearGradient id="linear-gradient-13" x1="965.44" y1="29.88" x2="965.44" y2="-31.66" gradientTransform="translate(-940.22)" xlink:href="#linear-gradient-7"/><linearGradient id="linear-gradient-14" x1="977.85" y1="29.88" x2="977.85" y2="-31.66" gradientTransform="translate(-940.22)" xlink:href="#linear-gradient-7"/><linearGradient id="linear-gradient-15" x1="16.98" y1="32.73" x2="27.77" y2="32.73" gradientUnits="userSpaceOnUse"><stop offset="0" stop-color="#cc7833"/><stop offset="1" stop-color="#b5621d"/></linearGradient><linearGradient id="linear-gradient-16" x1="18.82" y1="20.21" x2="31.02" y2="20.21" xlink:href="#linear-gradient-15"/><linearGradient id="linear-gradient-17" x1="41.47" y1="19.33" x2="63.22" y2="26.58" gradientUnits="userSpaceOnUse"><stop offset="0" stop-color="#7ff1a4"/><stop offset="0.52" stop-color="#2fbca4"/><stop offset="1" stop-color="#2f7da4"/></linearGradient><linearGradient id="linear-gradient-18" x1="64.74" y1="31.84" x2="52.93" y2="24.09" xlink:href="#linear-gradient-17"/><linearGradient id="linear-gradient-19" x1="35.54" y1="25.1" x2="54.56" y2="25.1" gradientUnits="userSpaceOnUse"><stop offset="0" stop-color="#634732"/><stop offset="1" stop-color="#80634e"/></linearGradient><linearGradient id="linear-gradient-20" x1="31.24" y1="31.03" x2="27.74" y2="76.28" gradientUnits="userSpaceOnUse"><stop offset="0"/><stop offset="1" stop-color="#6b3500"/></linearGradient><linearGradient id="linear-gradient-21" x1="10.39" y1="50.01" x2="40.65" y2="50.01" xlink:href="#linear-gradient-20"/><linearGradient id="linear-gradient-22" x1="18.2" y1="30.3" x2="33.09" y2="30.3" xlink:href="#linear-gradient-19"/><linearGradient id="linear-gradient-23" x1="38.92" y1="13.76" x2="35.71" y2="7.31" gradientUnits="userSpaceOnUse"><stop offset="0" stop-color="#f78e6b"/><stop offset="1" stop-color="#f9aa8f"/></linearGradient><linearGradient id="linear-gradient-24" x1="31.25" y1="12.92" x2="43.16" y2="12.92" gradientUnits="userSpaceOnUse"><stop offset="0" stop-color="#0d123b"/><stop offset="1" stop-color="#050a2b"/></linearGradient><linearGradient id="linear-gradient-25" x1="28.59" y1="23.5" x2="28.76" y2="37.24" gradientTransform="translate(5.14 -4.73) rotate(10.38)" xlink:href="#linear-gradient-19"/><linearGradient id="linear-gradient-26" x1="26.08" y1="22.68" x2="34.97" y2="22.68" xlink:href="#linear-gradient-15"/></defs><title>hiker</title><circle class="cls-1" cx="32" cy="32" r="28"/><path class="cls-2" d="M44.27,35.14a1.71,1.71,0,0,0-2.32,0L37.77,39a1.47,1.47,0,0,1-2,0L19.31,24.36a2.35,2.35,0,0,0-3.29.17L4.47,37.1a28,28,0,0,0,51.69,9Z"/><path class="cls-3" d="M56.16,46.15l-11.89-11h0a.73.73,0,0,0-1.21.55v.2a4.72,4.72,0,0,0,1.24,3.18,3.31,3.31,0,0,1,.07,4.38l-2.59,3,5.82,8.8A28.14,28.14,0,0,0,56.16,46.15Z"/><path class="cls-4" d="M50.92,52.64l-15.56-14-16-14.27h0a1,1,0,0,0-1.62.75,9.88,9.88,0,0,1-1.92,5.85l-4.2,5.72a3.37,3.37,0,0,0,.52,4.56,14.58,14.58,0,0,1,2.32,2.51l8,11L32.4,60A27.89,27.89,0,0,0,50.92,52.64Z"/><path class="cls-5" d="M35.31,57.72l-.71-1.28a.21.21,0,0,0,.07-.28l-.56-1a.15.15,0,0,0,.07-.21l-.43-.77h0a.11.11,0,0,0,.07-.16L33,52.49a.05.05,0,0,0-.09,0L32,54a.11.11,0,0,0,.07.16h0l-.43.77a.15.15,0,0,0,.07.21l-.3.54-.26-.47a.26.26,0,0,0,.11-.36l-.74-1.33h0a.19.19,0,0,0,.12-.27l-1.45-2.61a.09.09,0,0,0-.16,0l-1.45,2.61a.19.19,0,0,0,.12.27h0l-.27.48L27,53.16a.26.26,0,0,0,.11-.36l-.74-1.33h0a.19.19,0,0,0,.12-.27L25,48.58a.09.09,0,0,0-.16,0L23.43,51.2a.19.19,0,0,0,.12.27h0l-.74,1.33a.26.26,0,0,0,.11.36l-.83,1.5L21.7,54h0a.19.19,0,0,0,.12-.27l-1.45-2.61a.09.09,0,0,0-.16,0l-1.45,2.61a.19.19,0,0,0,.12.27h0l-.57,1-.3-.54h0a.11.11,0,0,0,.07-.16l-.84-1.52a.05.05,0,0,0-.09,0l-.84,1.52a.11.11,0,0,0,.07.16h0l-.32.58a27.88,27.88,0,0,0,7.59,3.72l0,0a16.83,16.83,0,0,0,1.89,0l-.24.43a28,28,0,0,0,11.94.32l-2.11-1.36A.29.29,0,0,0,35.31,57.72Z"/><path class="cls-6" d="M49.49,53.53h0a.19.19,0,0,0,.12-.27l-1.45-2.61a.09.09,0,0,0-.16,0l-1.45,2.61a.19.19,0,0,0,.12.27h0l-.27.48-.47-.84a.26.26,0,0,0,.11-.36l-.74-1.33h0a.19.19,0,0,0,.12-.27L44,48.58a.09.09,0,0,0-.16,0L42.37,51.2a.19.19,0,0,0,.12.27h0l-.74,1.33a.26.26,0,0,0,.11.36L41,54.66l-.39-.7h0a.19.19,0,0,0,.12-.27l-1.45-2.61a.09.09,0,0,0-.16,0L37.7,53.69a.19.19,0,0,0,.12.27h0l-.57,1-.3-.54h0a.11.11,0,0,0,.07-.16l-.84-1.52a.05.05,0,0,0-.09,0l-.84,1.52a.11.11,0,0,0,.07.16h0l-.43.77a.15.15,0,0,0,.07.21l-.56,1a.21.21,0,0,0,.07.28L33.75,58a.29.29,0,0,0,.19.42,9.78,9.78,0,0,0,2,.25l-.63,1.13a27.86,27.86,0,0,0,14.35-6Z"/><path class="cls-7" d="M25.55,15.58C20.77,14,16.7,11.5,15.11,9.67c-.66.5-1.3,1-1.91,1.59C20.23,14.08,25.55,15.58,25.55,15.58Z"/><path class="cls-8" d="M8.85,16.25A72.94,72.94,0,0,0,18.72,18c-2.77-.39-5.23-1.38-6-2.19A7.06,7.06,0,0,0,10,14.73C9.58,15.22,9.21,15.73,8.85,16.25Z"/><path class="cls-9" d="M31.53,19s4.61.86,7.29.29,4.09.61,5.9-.19a3.2,3.2,0,0,1,3.88,1c.51.76,1.87,0,2.9.68s3.57.62,3.57.62S47.29,23.84,31.53,19Z"/><path class="cls-10" d="M32,13.36a11.24,11.24,0,0,0,4.07.22c1.54-.38,2.26.42,3.32-.12a1.53,1.53,0,0,1,2.12.69c.24.52,1.05,0,1.59.47a3.86,3.86,0,0,0,2,.43S40.56,16.71,32,13.36Z"/><path class="cls-11" d="M55.12,16.2l-.54-.76a3,3,0,0,1-.3-.21c-.6-.5-.86.42-1.39-.1a2.2,2.2,0,0,0-2.44.05,6.06,6.06,0,0,1-2.08.7C50.18,16.68,53.56,16.39,55.12,16.2Z"/><path class="cls-12" d="M24.7,9.18s3,1,4.37.73a4.47,4.47,0,0,1-1.18-.57A1.51,1.51,0,0,0,26.49,9c-.32.2-.44-.28-.8-.1A3.58,3.58,0,0,1,24.7,9.18Z"/><path class="cls-13" d="M23,18s3,1,4.37.73a4.47,4.47,0,0,1-1.18-.57,1.51,1.51,0,0,0-1.4-.29c-.32.2-.44-.28-.8-.1A3.58,3.58,0,0,1,23,18Z"/><path class="cls-14" d="M39.21,9.8a9.36,9.36,0,0,1-3.15-.75A3.27,3.27,0,0,0,37,9a1.1,1.1,0,0,1,1,.2c.16.22.38-.07.57.16A2.62,2.62,0,0,0,39.21,9.8Z"/><path class="cls-15" d="M18.27,22s-3.19,7.78-1.63,15.91,12.21,10.07,11,4.72.1-22.73.1-22.73"/><path class="cls-16" d="M18.27,22A29.11,29.11,0,0,0,17,26.31h0s4.42-.78,3.57,5.27-.75,7.72,1.43,9.91.53,3.67-.33,3.17c3.25,1.72,6.7,1.1,6-2.07-1.18-5.35.1-22.73.1-22.73Z"/><path class="cls-15" d="M28.15,14.79S22,14.43,19,18.16s-4,9.65-1,7.8c2-1.22,4.83,1,6.72-1.83S31,15.6,31,15.6"/><path class="cls-17" d="M28.15,14.79a15.5,15.5,0,0,0-4.15.44c1-.21,1.92.08,1.59.95s-2,1.4-2.53,5-4.24,4.44-4.24,4.44h0c1.87-.38,4.24.92,5.87-1.5C26.58,21.33,31,15.6,31,15.6Z"/><path class="cls-18" d="M52.89,22.48s.8-2.78,2.61-2.85"/><path class="cls-19" d="M53.7,22.86s1.32-5.06.64-7.14a.28.28,0,0,1,.32-.36,3.42,3.42,0,0,1,3.05,3.73c-.07,3,1.45,3.61,2.06,3.74a.28.28,0,0,1,.22.31c-.15,1.09-.82,5.14-2.78,7.51a2.56,2.56,0,0,1-1.83.92c-1.63.09-4.72,0-5.32-1.87"/><path class="cls-20" d="M59.78,22.82c-.6-.13-2.08-.74-2.06-3.6h0s-.52,4.67-1.89,5.46-1.63-.23-1.63-.23L50.25,30.1c.9,1.47,3.64,1.54,5.14,1.46a2.56,2.56,0,0,0,1.83-.92c2-2.37,2.63-6.41,2.78-7.51A.28.28,0,0,0,59.78,22.82Z"/><path class="cls-18" d="M52.87,23.83a1.93,1.93,0,0,1,.37-1.89C54,21.15,55,19.81,55,21a1.31,1.31,0,0,1-.35.57,1,1,0,0,0-.06,1.19,2,2,0,0,1,0,2.48"/><path class="cls-21" d="M35.54,15.3a28.5,28.5,0,0,1,6.24,11c1.48,4.95,8.32,4.22,11.09-2.47,0,0,1.75.39,1.69,1.37,0,0-7,17.63-18.71,5.36"/><path class="cls-22" d="M35.54,15.3a28.5,28.5,0,0,1,6.24,11c1.48,4.95,8.32,4.22,11.09-2.47,0,0,1.75.39,1.69,1.37,0,0-7,17.63-18.71,5.36"/><path class="cls-15" d="M33.8,15a3.81,3.81,0,0,0-2.61,1.49,3.23,3.23,0,0,0-.53,1,1.25,1.25,0,0,0,.57,1.6s1.2-2.48,4-.41,2,7.55,2.12,8.7,1.18.89,2.1-2.78C40.09,22.1,38.25,14.52,33.8,15Z"/><path class="cls-23" d="M23.23,58c0,.18,0,.36-.05.54A28,28,0,0,0,32,60l.93,0a27,27,0,0,0,2.61-5.52L24.24,42.59Z"/><path class="cls-24" d="M23.23,58c0,.18,0,.36-.05.54A28,28,0,0,0,32,60l.93,0a27,27,0,0,0,2.61-5.52L24.24,42.59Z"/><path class="cls-23" d="M36.68,44.62,24.21,38.24S22.05,53.92,37.59,59.17c.14,0,.28.12.42.17a27.81,27.81,0,0,0,8.1-3.16A25.32,25.32,0,0,0,36.68,44.62Z"/><path class="cls-25" d="M40.66,57.91c-1,.08-2.26-2-3.41-5.32s.4-7.23.4-7.23L24.12,40.68c.1,4.62,1.74,14.53,13.47,18.49.14,0,.28.12.42.17A27.79,27.79,0,0,0,44.61,57a20.46,20.46,0,0,1,.93-2.07q-.44-.92-1-1.82C43.51,54.76,41.39,57.85,40.66,57.91Z"/><path class="cls-26" d="M47,45,40.24,58.76a27.8,27.8,0,0,0,2.66-1l6.42-12.5-.26-1.15Z"/><path id="_Path_" data-name="&lt;Path&gt;" class="cls-18" d="M34,19.53s-4.65-2.2-4.65-4.49c0,0,2.86-2.92,2.52-4.48s-.56-7.08,5.17-5.27c1.7.54,4,5.15,2.56,5.83a.74.74,0,0,0-.41.64,2.33,2.33,0,0,1-2.57,2.41C33.68,14.17,33.21,17.78,34,19.53Z"/><path class="cls-21" d="M39.2,29.1c.88-10-5.6-13.51-5.6-13.51H29.7S25,18.66,24,29.57c-.6,6.76-.46,10.18-.26,11.8a2.5,2.5,0,0,0,1.35,1.93,22.35,22.35,0,0,0,12.56,2.05h0a.44.44,0,0,0,.38-.52C37.57,42.37,38.65,35.37,39.2,29.1Z"/><path class="cls-27" d="M25.29,43.4l0,0,.18.09h0A21.14,21.14,0,0,0,30,45c-3.61-1.33-4.24-4-1.59-5.34s9.34,2.83,9.34,2.83h0a15.59,15.59,0,0,1,.48-3.92c.07-.74.15-1.5.24-2.29,0-.11,0-.22,0-.33-1-1-.26-1.66-.26-8.65,0-4.85-1.62-6.29-1.62-6.29L32.47,15.6H29.7S25,18.66,24,29.57c-.17,1.9-.28,3.54-.35,4.94q0,.47,0,.9c0,1-.05,1.9,0,2.66a29.05,29.05,0,0,0,.17,3.29,2.51,2.51,0,0,0,.62,1.37l.22.21a2.47,2.47,0,0,0,.51.34Z"/><path class="cls-15" d="M34,27.46s-4,7.89-10.85,12.14a4.25,4.25,0,0,1,0-1.09s5.23-3.57,6.16-6.83a11.38,11.38,0,0,1,3.87-5.37"/><path class="cls-28" d="M39.12,8.47a1.18,1.18,0,0,0,.37-.37,9,9,0,0,0-.66-1.16l-2.66.79L35.53,12v1.71l2.72-.38.14-1.14s-.18.3-1,.22,0-.79-.35-1.73S38,9,38.65,9.43s.13,2.25.13,2.25l.44,0a.73.73,0,0,1,.39-.53.68.68,0,0,0,.16-.11c-.1.07-.45.27-.24-.75C39.77,9.09,38.86,8.61,39.12,8.47Z"/><path class="cls-26" d="M39.61,11.13A4.37,4.37,0,0,0,38,12.56c-.54.91-2.06.67-1.73-.48a5.7,5.7,0,0,0,.06-2.21.67.67,0,0,1,.47-.74c.84-.26,2.33-.83,2.65-1.69.45-1.21.7-3.18-2.15-3.42s-6.54,1.3-6.45,4.63a8.27,8.27,0,0,1-.4,3,2.91,2.91,0,0,1-2.53,2h-.15c-.91,0-1.91,2.24,1.45,2.33S32,19.67,33.64,21s4.93-.7,6.16-3.42S39.61,11.13,39.61,11.13Z"/><path class="cls-29" d="M39.2,11.37A4,4,0,0,0,38,12.56c-.54.91-2.06.67-1.73-.48a5.71,5.71,0,0,0,.06-2.21.67.67,0,0,1,.47-.74l.32-.1c-.08,0-2.27.7-1.87-.39s-.23-.79-2.63-.52S31.43,6.5,31.54,6.31a3.82,3.82,0,0,0-.69,2.34,10.42,10.42,0,0,1,0,1.18h0c.72-2.58,3.57,2.64,1,4.86s-4.44.83-4.57.74a3.23,3.23,0,0,0,1.92.51c2.44.07,2.81,2,3.45,3.58a2.36,2.36,0,0,1,2.86-3c1.82.45,2.76-.11,2.49-2A3.66,3.66,0,0,1,39.2,11.37Z"/><path class="cls-18" d="M44.4,42.26a8.77,8.77,0,0,0,3.39,0c1.27-.41,2.67,2.62,2.4,3.07-.15.25-.54.12-.87,0A2.49,2.49,0,0,0,48.14,45c-1.2,0-3.69-.09-5.32-1.38"/><path class="cls-21" d="M26.46,19.87s-9.92,17.44,17.2,24.56a1.12,1.12,0,0,0,1.27-.56,2.49,2.49,0,0,0,.3-.9,1.09,1.09,0,0,0-.63-1.09c-2.31-1.11-12.53-6.47-11.74-14.26C33.64,20,29.32,14,26.46,19.87Z"/><rect class="cls-30" x="26.95" y="24.85" width="3.35" height="2.22" rx="0.7" ry="0.7" transform="translate(-4.21 5.58) rotate(-10.38)"/><path class="cls-15" d="M29.3,15.26a3.81,3.81,0,0,0-2.61,1.49,3.23,3.23,0,0,0-.53,1,1.25,1.25,0,0,0,.57,1.6s1.2-2.48,4-.41,2,7.55,2.12,8.7,1.18.89,2.1-2.78C35.59,22.37,33.75,14.79,29.3,15.26Z"/><path class="cls-31" d="M33.73,26.12c-.72-.42.38-2.07-.85-5.58s-5-3.88-6-3c-.54.47-.75.55-.78.45a1.22,1.22,0,0,0,.63,1.39s1.2-2.48,4-.41,2,7.55,2.12,8.7,1.18.89,2.1-2.78C35,24.85,34.45,26.54,33.73,26.12Z"/></svg>