<svg xmlns="http://www.w3.org/2000/svg" xmlns:xlink="http://www.w3.org/1999/xlink" viewBox="0 0 64 64"><defs><style>.cls-1{isolation:isolate;}.cls-2{fill:url(#linear-gradient);}.cls-3{fill:url(#linear-gradient-2);}.cls-4{fill:url(#linear-gradient-3);}.cls-5{fill:url(#linear-gradient-4);}.cls-6{fill:url(#linear-gradient-5);}.cls-7{fill:url(#linear-gradient-6);}.cls-8{fill:url(#linear-gradient-7);}.cls-9{fill:url(#linear-gradient-8);}.cls-10{fill:url(#linear-gradient-9);}.cls-11{fill:url(#linear-gradient-10);}.cls-12{fill:url(#linear-gradient-11);}.cls-13{fill:url(#linear-gradient-12);}.cls-14{fill:url(#linear-gradient-13);}.cls-15{fill:url(#linear-gradient-14);}.cls-16{fill:#f59180;}.cls-17{fill:#f9aa8f;}.cls-18{fill:url(#linear-gradient-15);}.cls-19{fill:url(#linear-gradient-16);}.cls-20{fill:#bdd2ec;}.cls-21{opacity:0.49;}.cls-21,.cls-38{mix-blend-mode:color-burn;}.cls-22{fill:url(#linear-gradient-17);}.cls-23{fill:#f29b83;}.cls-24{fill:url(#linear-gradient-18);}.cls-25{fill:#d84035;}.cls-26{fill:#ef513d;}.cls-27{fill:url(#linear-gradient-19);}.cls-28{fill:url(#linear-gradient-20);}.cls-29{fill:#d3d2cd;}.cls-30{fill:url(#linear-gradient-21);}.cls-31{fill:url(#linear-gradient-22);}.cls-32{fill:url(#linear-gradient-23);}.cls-33{fill:url(#linear-gradient-24);}.cls-34{fill:url(#linear-gradient-25);}.cls-35{fill:url(#linear-gradient-26);}.cls-36{fill:#7f7f93;}.cls-37{fill:#9d9da5;}.cls-38{fill:url(#linear-gradient-27);}.cls-39{fill:url(#linear-gradient-28);}.cls-40{fill:#bdbdc1;}.cls-41{fill:url(#linear-gradient-29);}.cls-42{fill:url(#linear-gradient-30);}.cls-43{fill:#633a30;}.cls-44{fill:#9b673d;}.cls-45{fill:#dd4531;}.cls-46{fill:url(#linear-gradient-31);}.cls-47{fill:url(#linear-gradient-32);}</style><linearGradient id="linear-gradient" x1="32" y1="52" x2="32" y2="-16.26" gradientUnits="userSpaceOnUse"><stop offset="0.02" stop-color="#97efe7"/><stop offset="0.52" stop-color="#3db6d3"/><stop offset="1" stop-color="#3d6fd3"/></linearGradient><linearGradient id="linear-gradient-2" x1="30.32" y1="19.2" x2="30.32" y2="-9.5" gradientUnits="userSpaceOnUse"><stop offset="0" stop-color="#d1efe7"/><stop offset="0.53" stop-color="#97efe7"/><stop offset="1" stop-color="#3ccbe3"/></linearGradient><linearGradient id="linear-gradient-3" x1="48.86" y1="46.12" x2="32.9" y2="16.11" xlink:href="#linear-gradient-2"/><linearGradient id="linear-gradient-4" x1="30.66" y1="44.52" x2="24.15" y2="10.85" xlink:href="#linear-gradient-2"/><linearGradient id="linear-gradient-5" x1="26.65" y1="69.39" x2="26.65" y2="59.92" gradientUnits="userSpaceOnUse"><stop offset="0" stop-color="#caf1d8"/><stop offset="0.51" stop-color="#7defa4"/><stop offset="1" stop-color="#2fbca4"/></linearGradient><linearGradient id="linear-gradient-6" x1="41.67" y1="69.04" x2="41.67" y2="59.72" xlink:href="#linear-gradient-5"/><linearGradient id="linear-gradient-7" x1="19.37" y1="24.01" x2="19.37" y2="-12.25" xlink:href="#linear-gradient"/><linearGradient id="linear-gradient-8" x1="13.78" y1="24.35" x2="13.78" y2="-8.58" xlink:href="#linear-gradient"/><linearGradient id="linear-gradient-9" x1="983.51" y1="29.88" x2="983.51" y2="-31.66" gradientTransform="translate(-940.22)" xlink:href="#linear-gradient"/><linearGradient id="linear-gradient-10" x1="978.75" y1="29.88" x2="978.75" y2="-31.66" gradientTransform="translate(-940.22)" xlink:href="#linear-gradient"/><linearGradient id="linear-gradient-11" x1="992.38" y1="29.88" x2="992.38" y2="-31.66" gradientTransform="translate(-940.22)" xlink:href="#linear-gradient"/><linearGradient id="linear-gradient-12" x1="967.1" y1="29.88" x2="967.1" y2="-31.66" gradientTransform="translate(-940.22)" xlink:href="#linear-gradient"/><linearGradient id="linear-gradient-13" x1="965.44" y1="29.88" x2="965.44" y2="-31.66" gradientTransform="translate(-940.22)" xlink:href="#linear-gradient"/><linearGradient id="linear-gradient-14" x1="977.85" y1="29.88" x2="977.85" y2="-31.66" gradientTransform="translate(-940.22)" xlink:href="#linear-gradient"/><linearGradient id="linear-gradient-15" x1="26.03" y1="16.09" x2="18.74" y2="-0.45" gradientUnits="userSpaceOnUse"><stop offset="0" stop-color="#f9aa8f"/><stop offset="1" stop-color="#f78e6b"/></linearGradient><linearGradient id="linear-gradient-16" x1="16.44" y1="43.95" x2="23.84" y2="43.95" gradientUnits="userSpaceOnUse"><stop offset="0" stop-color="#9fb5d9"/><stop offset="1" stop-color="#bdd2ec"/></linearGradient><linearGradient id="linear-gradient-17" x1="17.19" y1="44.82" x2="17.19" y2="29.19" xlink:href="#linear-gradient-16"/><linearGradient id="linear-gradient-18" x1="32.47" y1="31.23" x2="48.56" y2="31.23" gradientUnits="userSpaceOnUse"><stop offset="0" stop-color="#fff"/><stop offset="0.84" stop-color="#cddfec"/></linearGradient><linearGradient id="linear-gradient-19" x1="9.91" y1="31.84" x2="26.89" y2="15.64" gradientUnits="userSpaceOnUse"><stop offset="0" stop-color="#f16c52"/><stop offset="0.03" stop-color="#f16850"/><stop offset="0.23" stop-color="#ef5140"/><stop offset="0.45" stop-color="#ed4036"/><stop offset="0.7" stop-color="#ec362f"/><stop offset="1" stop-color="#ec332d"/></linearGradient><linearGradient id="linear-gradient-20" x1="42.46" y1="30.65" x2="45.66" y2="30.65" gradientUnits="userSpaceOnUse"><stop offset="0" stop-color="#744239"/><stop offset="1" stop-color="#af6556"/></linearGradient><linearGradient id="linear-gradient-21" x1="38.04" y1="27.96" x2="38.08" y2="31.05" xlink:href="#linear-gradient-18"/><linearGradient id="linear-gradient-22" x1="37.91" y1="30.26" x2="42.41" y2="30.26" xlink:href="#linear-gradient-20"/><linearGradient id="linear-gradient-23" x1="41.89" y1="30.76" x2="43.12" y2="26.46" xlink:href="#linear-gradient-20"/><linearGradient id="linear-gradient-24" x1="41.44" y1="33.49" x2="43.41" y2="29.78" xlink:href="#linear-gradient-20"/><linearGradient id="linear-gradient-25" x1="36.09" y1="28.82" x2="36.13" y2="31.9" xlink:href="#linear-gradient-18"/><linearGradient id="linear-gradient-26" x1="38.54" y1="29.79" x2="39.78" y2="25.49" xlink:href="#linear-gradient-20"/><linearGradient id="linear-gradient-27" x1="41.36" y1="43.1" x2="41.36" y2="36.24" gradientUnits="userSpaceOnUse"><stop offset="0.22" stop-color="#fff" stop-opacity="0"/><stop offset="1"/></linearGradient><linearGradient id="linear-gradient-28" x1="41.36" y1="41.85" x2="41.36" y2="40.64" gradientUnits="userSpaceOnUse"><stop offset="0" stop-color="#fbb040"/><stop offset="1" stop-color="#d1d3d4" stop-opacity="0"/></linearGradient><linearGradient id="linear-gradient-29" x1="41.5" y1="42.2" x2="41.5" y2="80.29" gradientUnits="userSpaceOnUse"><stop offset="0" stop-color="#ffd600"/><stop offset="0.48" stop-color="#ff9c38"/><stop offset="1" stop-color="#ff5147"/></linearGradient><linearGradient id="linear-gradient-30" x1="41.5" y1="44.69" x2="41.5" y2="64.18" xlink:href="#linear-gradient-29"/><linearGradient id="linear-gradient-31" x1="20.72" y1="6.89" x2="25.2" y2="6.89" xlink:href="#linear-gradient-19"/><linearGradient id="linear-gradient-32" x1="22.56" y1="8.97" x2="20.98" y2="5.39" xlink:href="#linear-gradient-19"/></defs><title>bbq</title><g class="cls-1"><g id="Layer_1" data-name="Layer 1"><circle class="cls-2" cx="32" cy="32" r="28"/><path class="cls-3" d="M44.27,35.14a1.71,1.71,0,0,0-2.32,0L37.77,39a1.47,1.47,0,0,1-2,0L19.31,24.36a2.35,2.35,0,0,0-3.29.17L4.47,37.1a28,28,0,0,0,51.69,9Z"/><path class="cls-4" d="M56.16,46.15l-11.89-11h0a.73.73,0,0,0-1.21.55v.2a4.72,4.72,0,0,0,1.24,3.18,3.31,3.31,0,0,1,.07,4.38l-2.59,3,5.82,8.8A28.14,28.14,0,0,0,56.16,46.15Z"/><path class="cls-5" d="M50.92,52.64l-15.56-14-16-14.27h0a1,1,0,0,0-1.62.75,9.88,9.88,0,0,1-1.92,5.85l-4.2,5.72a3.37,3.37,0,0,0,.52,4.56,14.58,14.58,0,0,1,2.32,2.51l8,11L32.4,60A27.89,27.89,0,0,0,50.92,52.64Z"/><path class="cls-6" d="M35.31,57.72l-.71-1.28a.21.21,0,0,0,.07-.28l-.56-1a.15.15,0,0,0,.07-.21l-.43-.77h0a.11.11,0,0,0,.07-.16L33,52.49a.05.05,0,0,0-.09,0L32,54a.11.11,0,0,0,.07.16h0l-.43.77a.15.15,0,0,0,.07.21l-.3.54-.26-.47a.26.26,0,0,0,.11-.36l-.74-1.33h0a.19.19,0,0,0,.12-.27l-1.45-2.61a.09.09,0,0,0-.16,0l-1.45,2.61a.19.19,0,0,0,.12.27h0l-.27.48L27,53.16a.26.26,0,0,0,.11-.36l-.74-1.33h0a.19.19,0,0,0,.12-.27L25,48.58a.09.09,0,0,0-.16,0L23.43,51.2a.19.19,0,0,0,.12.27h0l-.74,1.33a.26.26,0,0,0,.11.36l-.83,1.5L21.7,54h0a.19.19,0,0,0,.12-.27l-1.45-2.61a.09.09,0,0,0-.16,0l-1.45,2.61a.19.19,0,0,0,.12.27h0l-.57,1-.3-.54h0a.11.11,0,0,0,.07-.16l-.84-1.52a.05.05,0,0,0-.09,0l-.84,1.52a.11.11,0,0,0,.07.16h0l-.32.58a27.88,27.88,0,0,0,7.59,3.72l0,0a16.83,16.83,0,0,0,1.89,0l-.24.43a28,28,0,0,0,11.94.32l-2.11-1.36A.29.29,0,0,0,35.31,57.72Z"/><path class="cls-7" d="M49.49,53.53h0a.19.19,0,0,0,.12-.27l-1.45-2.61a.09.09,0,0,0-.16,0l-1.45,2.61a.19.19,0,0,0,.12.27h0l-.27.48-.47-.84a.26.26,0,0,0,.11-.36l-.74-1.33h0a.19.19,0,0,0,.12-.27L44,48.58a.09.09,0,0,0-.16,0L42.37,51.2a.19.19,0,0,0,.12.27h0l-.74,1.33a.26.26,0,0,0,.11.36L41,54.66l-.39-.7h0a.19.19,0,0,0,.12-.27l-1.45-2.61a.09.09,0,0,0-.16,0L37.7,53.69a.19.19,0,0,0,.12.27h0l-.57,1-.3-.54h0a.11.11,0,0,0,.07-.16l-.84-1.52a.05.05,0,0,0-.09,0l-.84,1.52a.11.11,0,0,0,.07.16h0l-.43.77a.15.15,0,0,0,.07.21l-.56,1a.21.21,0,0,0,.07.28L33.75,58a.29.29,0,0,0,.19.42,9.78,9.78,0,0,0,2,.25l-.63,1.13a27.86,27.86,0,0,0,14.35-6Z"/><path class="cls-8" d="M25.55,15.58C20.77,14,16.7,11.5,15.11,9.67c-.66.5-1.3,1-1.91,1.59C20.23,14.08,25.55,15.58,25.55,15.58Z"/><path class="cls-9" d="M8.85,16.25A72.94,72.94,0,0,0,18.72,18c-2.77-.39-5.23-1.38-6-2.19A7.06,7.06,0,0,0,10,14.73C9.58,15.22,9.21,15.73,8.85,16.25Z"/><path class="cls-10" d="M31.53,19s4.61.86,7.29.29,4.09.61,5.9-.19a3.2,3.2,0,0,1,3.88,1c.51.76,1.87,0,2.9.68s3.57.62,3.57.62S47.29,23.84,31.53,19Z"/><path class="cls-11" d="M32,13.36a11.24,11.24,0,0,0,4.07.22c1.54-.38,2.26.42,3.32-.12a1.53,1.53,0,0,1,2.12.69c.24.52,1.05,0,1.59.47a3.86,3.86,0,0,0,2,.43S40.56,16.71,32,13.36Z"/><path class="cls-12" d="M55.94,16.09s-5.17.85-7.57-.2a6.06,6.06,0,0,0,2.08-.7,2.2,2.2,0,0,1,2.44-.05c.53.52.79-.4,1.39.1A6.46,6.46,0,0,0,55.94,16.09Z"/><path class="cls-13" d="M24.7,9.18s3,1,4.37.73a4.47,4.47,0,0,1-1.18-.57A1.51,1.51,0,0,0,26.49,9c-.32.2-.44-.28-.8-.1A3.58,3.58,0,0,1,24.7,9.18Z"/><path class="cls-14" d="M23,18s3,1,4.37.73a4.47,4.47,0,0,1-1.18-.57,1.51,1.51,0,0,0-1.4-.29c-.32.2-.44-.28-.8-.1A3.58,3.58,0,0,1,23,18Z"/><path class="cls-15" d="M39.21,9.8a9.36,9.36,0,0,1-3.15-.75A3.27,3.27,0,0,0,37,9a1.1,1.1,0,0,1,1,.2c.16.22.38-.07.57.16A2.62,2.62,0,0,0,39.21,9.8Z"/><path class="cls-16" d="M19.14,11.54s0,.1,0,.14h-.05Z"/><path class="cls-17" d="M23.89,4.44l-.3.64L20.94,6.4c.87,2.75-.1,3.42-1.26,4.21-.4.27-.43.75-.53.92s0,.1,0,.14c-.56,2.92,3.44,3.81,3.44,3.81l.83-3,.14-.51h0a.67.67,0,0,1,.5-.48c.87-.2,1.95-.67,2.09-1.74a.6.6,0,0,1,.41-.49c.28-.09.61-.26.65-.55C27.38,7.16,23.89,4.44,23.89,4.44Z"/><path class="cls-18" d="M24.66,7.14c.86-.39,1.7,1.91,1.79,2.15l.08,0a1.13,1.13,0,0,0,.58-.37c-.35.29-.41.23-.67-.52s-1.57-2.1-1.23-2.19c.19,0,.2-.25.17-.43-.52-.52-1-.94-1.29-1.16l-.43.35-.07.14-.29.14c-.43.35-.8.65-.85.71L21.2,7.47c.31,1.87-.54,2.47-1.53,3.14a.91.91,0,0,0-.21.2l1.74,1.44s.87,1,.72.08.87-.65,1.43-.66a1.86,1.86,0,0,0,.39-.06.69.69,0,0,1,.28-.14,4.66,4.66,0,0,0,.81-.26l.08,0a.82.82,0,0,1-1-.27C23.44,10.33,23.75,7.55,24.66,7.14Z"/><path class="cls-16" d="M19.68,10.62c-.23.42-.43.75-.53.92a4.23,4.23,0,0,1,.34-.91Z"/><polygon class="cls-16" points="24.13 56.69 24.13 58.38 25.03 58.38 25.34 56.69 24.13 56.69"/><path class="cls-19" d="M17.16,31.22S15,32.77,17.51,37c3.19,5.34,6.62,9.69,6.62,19.66h2.06S28.49,42,24.14,31.22Z"/><path class="cls-20" d="M13.43,31.22s-.39.91.36,5.82c1,6.35.44,9.4.1,19.66h2.06s6.74-15.09,4.83-25.41Z"/><g class="cls-21"><path class="cls-22" d="M21.06,33.79h0l-7.74-1.58A31.56,31.56,0,0,0,13.78,37a44.91,44.91,0,0,1,.55,7c0-3.47,2.5-4.79,4.64-5.9S21.06,33.84,21.06,33.79Z"/></g><path class="cls-23" d="M33,28.66a3.2,3.2,0,0,0-1.61.09l-.66.6,2.85,1.46s.35.12.39-.2S33.76,28.86,33,28.66Z"/><path class="cls-24" d="M33,29.81l15.4,2.38a.23.23,0,0,1,.2.23h0a.23.23,0,0,1-.26.23L32.47,30.83"/><path class="cls-25" d="M22.5,15.49s2.39,9.83,9,13c0,0,1.07.3-.32,1.48S18.59,19,18.59,19"/><path class="cls-26" d="M22.55,15.49s-1.65-5.64-3.07-4.86c-4.16,2.28-7.12,3-6.09,23.24,0,0,13.22.7,12.26-2.12C24.18,27.41,22.55,15.49,22.55,15.49Z"/><path class="cls-27" d="M14.1,16.72c-.85,3.14-1.16,8.27-.7,17.15a64.6,64.6,0,0,0,7.66-.09c-.55-4.24,3.7-5.42,3.7-5.42l-6.9-16C16.18,12.53,15.19,14.54,14.1,16.72Z"/><polygon class="cls-16" points="14.22 56.69 14.22 58.38 15.13 58.38 15.44 56.69 14.22 56.69"/><path class="cls-17" d="M33.1,29.16c-.49-.31-1.88.11-1.88.11l-1.33.67a18.35,18.35,0,0,1,2,1.12c.14.07,1.8.36,1.9,0A2.43,2.43,0,0,0,33.1,29.16Z"/><path class="cls-26" d="M16,14a2.35,2.35,0,0,1,4.26-.49,21.32,21.32,0,0,1,1.75,4c2.58,7.67,7.32,11,9.16,11.57a.53.53,0,0,1,.33.26c.14.27.25.73-.43.93-1,.29-9.06-1.42-13.19-8.36C15.56,18,15.43,15.92,16,14Z"/><path class="cls-26" d="M16.72,59.65l-.94-.55a.75.75,0,0,1-.36-.81l.14-.63a.23.23,0,0,0-.23-.28H14.23v1.83a.73.73,0,0,0,.73.73h1.68A.16.16,0,0,0,16.72,59.65Z"/><path class="cls-26" d="M26.62,59.65l-.94-.55a.75.75,0,0,1-.36-.81l.14-.63a.23.23,0,0,0-.23-.28H24.13v2a.59.59,0,0,0,.59.59h1.82A.16.16,0,0,0,26.62,59.65Z"/><path class="cls-28" d="M42.82,32.34s-.94-.52.22-1.21a8.46,8.46,0,0,1,1.54-.8s-1.12-1.52-.78-1.45a10.14,10.14,0,0,1,1.73,1.24.36.36,0,0,1,.1.44C45.31,31.21,44.38,32.79,42.82,32.34Z"/><path class="cls-29" d="M39.06,29.23s-.78-.46-.84-.85.24-.64,0-.78-.6.18-.53.37c0,0-.65-.3-.65.21,0,.35.51.24.65.51l.52,1"/><path class="cls-30" d="M39.06,29.23s-.78-.46-.84-.85.24-.64,0-.78-.6.18-.53.37c0,0-.65-.3-.65.21,0,.35.51.24.65.51l.52,1"/><path class="cls-31" d="M41.56,31.86s.75.26.84-.79-.22-2.79-2.33-2.39S38.85,29,38,29c-.4,0,.86,2.2,3.06,2.77Z"/><path class="cls-32" d="M37.69,31.13a1.47,1.47,0,0,1,1.12-1.24,6.43,6.43,0,0,1,2.66,0c2.59.46,2.47,1.22,3.27,1.32s.93.55.93.55-.33,0-.36.18.08.28.21.38a6.62,6.62,0,0,1-4,.7c-1.32-.15-3.22-.43-3.7-1.16A1.09,1.09,0,0,1,37.69,31.13Z"/><path class="cls-33" d="M41.22,33s-.94-.52.22-1.21A8.46,8.46,0,0,1,43,31s-1.12-1.52-.78-1.45a10.14,10.14,0,0,1,1.73,1.24.36.36,0,0,1,.1.44C43.71,31.86,42.78,33.44,41.22,33Z"/><path class="cls-29" d="M37.11,30.08s-.78-.46-.84-.85.24-.64,0-.78-.6.18-.53.37c0,0-.65-.3-.65.21,0,.35.51.24.65.51l.52,1"/><path class="cls-34" d="M37.11,30.08s-.78-.46-.84-.85.24-.64,0-.78-.6.18-.53.37c0,0-.65-.3-.65.21,0,.35.51.24.65.51l.52,1"/><path class="cls-35" d="M39.6,32.72s.75.26.84-.79-.22-2.79-2.33-2.39-1.21.27-2.08.27c-.4,0,.86,2.2,3.06,2.77Z"/><path class="cls-36" d="M33,60H32.2a.29.29,0,0,1,0-.59H33a.25.25,0,0,0,.24-.19l4.68-18.31a.29.29,0,1,1,.57.15L33.8,59.35A.83.83,0,0,1,33,60Z"/><path class="cls-36" d="M50.52,60h-.79a.83.83,0,0,1-.81-.63L44.24,41a.29.29,0,1,1,.57-.15L49.49,59.2a.25.25,0,0,0,.24.19h.79a.29.29,0,0,1,0,.59Z"/><path class="cls-36" d="M41.36,59.08a.29.29,0,0,1-.29-.29V41.42a.29.29,0,0,1,.59,0V58.79A.29.29,0,0,1,41.36,59.08Z"/><path class="cls-37" d="M49.49,38.45c0,1.69-3.64,3.05-8.13,3.05s-8.13-1.37-8.13-3.05"/><path class="cls-38" d="M49.49,38.45c0,1.69-3.64,3.05-8.13,3.05s-8.13-1.37-8.13-3.05"/><path class="cls-39" d="M46.05,40.94a19.91,19.91,0,0,0-9.38,0,19.91,19.91,0,0,0,9.38,0Z"/><ellipse class="cls-36" cx="41.36" cy="38.45" rx="8.13" ry="0.3"/><path class="cls-40" d="M34.29,38.74a.12.12,0,0,1,0-.23l2.21-.56a.12.12,0,1,1,.06.23l-2.21.56Z"/><path class="cls-40" d="M36.28,38.74a.12.12,0,0,1,0-.23l2.21-.56a.12.12,0,1,1,.06.23l-2.21.56Z"/><path class="cls-40" d="M38.26,38.74a.12.12,0,0,1,0-.23l2.21-.56a.12.12,0,1,1,.06.23l-2.21.56Z"/><path class="cls-40" d="M40.25,38.74a.12.12,0,0,1,0-.23l2.21-.56a.12.12,0,1,1,.06.23l-2.21.56Z"/><path class="cls-40" d="M42.24,38.74a.12.12,0,0,1,0-.23l2.21-.56a.12.12,0,1,1,.06.23l-2.21.56Z"/><path class="cls-40" d="M44.23,38.74a.12.12,0,0,1,0-.23l2.21-.56a.12.12,0,1,1,.06.23l-2.21.56Z"/><path class="cls-40" d="M46.22,38.74a.12.12,0,0,1,0-.23l2.21-.56a.12.12,0,1,1,.06.23l-2.21.56Z"/><path class="cls-41" d="M43.6,49.77a13.29,13.29,0,0,1-2.13-3.14s-1,.46-.78,2.3a2,2,0,0,1-.54,1.59A1.52,1.52,0,0,0,40,48.89a7.14,7.14,0,0,0-1.34,1.67A6.65,6.65,0,0,0,38,54.31h0a3.49,3.49,0,0,0,6.59,1.11h0S46.12,52.82,43.6,49.77Z"/><path class="cls-42" d="M42.47,52.81a6.12,6.12,0,0,1-1-1.44s-.44.21-.36,1.06a.92.92,0,0,1-.25.73.7.7,0,0,0-.08-.76,3.29,3.29,0,0,0-.62.77,3.06,3.06,0,0,0-.29,1.73h0a1.6,1.6,0,0,0,3,.51h0A2.31,2.31,0,0,0,42.47,52.81Z"/><path class="cls-43" d="M43.84,60a1.5,1.5,0,0,0-.5-1.72,1.06,1.06,0,0,0-.6-.13h-5L37.23,60Z"/><path class="cls-44" d="M38.8,60a1.5,1.5,0,0,0-.5-1.72c-.67-.39-1.65.07-2.2,1a2.72,2.72,0,0,0-.28.7Z"/><path class="cls-43" d="M46.84,60a1.5,1.5,0,0,0-.5-1.72,1.06,1.06,0,0,0-.6-.13h-5L40.23,60Z"/><path class="cls-44" d="M41.79,60a1.5,1.5,0,0,0-.5-1.72c-.67-.39-1.65.07-2.2,1a2.72,2.72,0,0,0-.28.7Z"/><path class="cls-43" d="M45.85,58.14a1.5,1.5,0,0,0-.5-1.72,1.06,1.06,0,0,0-.6-.13h-5l-.47,1.85Z"/><path class="cls-44" d="M40.8,58.14a1.5,1.5,0,0,0-.5-1.72c-.67-.39-1.65.07-2.2,1a2.72,2.72,0,0,0-.28.7Z"/><path class="cls-45" d="M26.53,9.25s-1,.22-1.18.83c-.06.24-.21.26-.3.31a.12.12,0,0,0,0,.2c.37.2,1,.45,1.21,0C26.55,9.85,26.42,9.29,26.53,9.25Z"/><path class="cls-46" d="M20.72,9.78a2.81,2.81,0,0,0,1.12-1.89c.12-1.1.68-.87,1,0a.21.21,0,0,0,.35.08h0a.22.22,0,0,0,0-.23.86.86,0,0,1,.43-1.24c.92-.32,2.21-2,1.09-2.41S21.11,5.18,20.9,6,21,9.5,20.72,9.78Z"/><path class="cls-47" d="M21.73,5.06a2.14,2.14,0,0,0-.82.94c-.2.82.1,3.5-.19,3.78a2.81,2.81,0,0,0,1.12-1.89c.12-1.1.68-.87,1,0a.21.21,0,0,0,.35.08h0a.22.22,0,0,0,0-.23.86.86,0,0,1,.43-1.24c-.1,0-1.25.51-1.14.15s.54-.88-.66-.87C20.9,5.77,21.48,5.25,21.73,5.06Z"/></g></g></svg>