<svg xmlns="http://www.w3.org/2000/svg" xmlns:xlink="http://www.w3.org/1999/xlink" viewBox="0 0 64 64"><defs><style>.cls-1{isolation:isolate;}.cls-2{fill:url(#linear-gradient);}.cls-3{fill:url(#linear-gradient-2);}.cls-4{fill:#dfecf4;}.cls-5{mix-blend-mode:color-burn;}.cls-6{fill:url(#linear-gradient-3);}.cls-7{fill:#f9aa8f;}.cls-8{fill:url(#linear-gradient-4);}.cls-9{fill:#627dbd;}.cls-10{fill:url(#linear-gradient-5);}.cls-11{fill:url(#linear-gradient-6);}.cls-12{fill:#063247;}.cls-13{fill:url(#linear-gradient-7);}.cls-14{fill:url(#linear-gradient-8);}.cls-15{fill:url(#linear-gradient-9);}.cls-16{fill:#edf6f7;}.cls-17{fill:url(#linear-gradient-10);}.cls-18{fill:url(#linear-gradient-11);}.cls-19{fill:url(#linear-gradient-12);}.cls-20{fill:url(#linear-gradient-13);}.cls-21{fill:url(#linear-gradient-14);}.cls-22{fill:url(#linear-gradient-15);}.cls-23{fill:url(#linear-gradient-16);}.cls-24{fill:url(#linear-gradient-17);}.cls-25{fill:url(#linear-gradient-18);}.cls-26{fill:url(#linear-gradient-19);}.cls-27{fill:url(#linear-gradient-20);}.cls-28{fill:url(#linear-gradient-21);}.cls-29{fill:url(#linear-gradient-22);}.cls-30{fill:url(#linear-gradient-23);}.cls-31,.cls-32,.cls-33{fill-rule:evenodd;}.cls-31{fill:url(#linear-gradient-24);}.cls-32{fill:url(#linear-gradient-25);}.cls-33{fill:url(#linear-gradient-26);}.cls-34{fill:url(#linear-gradient-27);}.cls-35{fill:url(#linear-gradient-28);}.cls-36{fill:url(#linear-gradient-29);}.cls-37{fill:url(#linear-gradient-30);}</style><linearGradient id="linear-gradient" x1="32" y1="97.25" x2="32" y2="9.14" gradientUnits="userSpaceOnUse"><stop offset="0.02" stop-color="#97efe7"/><stop offset="0.52" stop-color="#3db6d3"/><stop offset="1" stop-color="#3d6fd3"/></linearGradient><linearGradient id="linear-gradient-2" y1="75.62" x2="32" y2="47.62" xlink:href="#linear-gradient"/><linearGradient id="linear-gradient-3" x1="12.29" y1="22.43" x2="27.82" y2="42.01" gradientUnits="userSpaceOnUse"><stop offset="0" stop-color="#dfecf4"/><stop offset="0.61" stop-color="#c2def1"/><stop offset="1" stop-color="#b4d8f0"/></linearGradient><linearGradient id="linear-gradient-4" x1="4.81" y1="42.55" x2="4.81" y2="23.87" gradientUnits="userSpaceOnUse"><stop offset="0" stop-color="#fff"/><stop offset="0.84" stop-color="#cddfec"/></linearGradient><linearGradient id="linear-gradient-5" x1="29.96" y1="30.83" x2="39.43" y2="30.83" gradientUnits="userSpaceOnUse"><stop offset="0" stop-color="#5c6cb1"/><stop offset="1" stop-color="#6c7bbb"/></linearGradient><linearGradient id="linear-gradient-6" x1="50.03" y1="10.49" x2="44.16" y2="32.87" gradientUnits="userSpaceOnUse"><stop offset="0" stop-color="#dfecf4"/><stop offset="0.3" stop-color="#d7e8f3"/><stop offset="0.77" stop-color="#c1def1"/><stop offset="1" stop-color="#b4d8f0"/></linearGradient><linearGradient id="linear-gradient-7" x1="35.69" y1="13.44" x2="25.19" y2="18.85" gradientUnits="userSpaceOnUse"><stop offset="0" stop-color="#f9aa8f"/><stop offset="1" stop-color="#f78e6b"/></linearGradient><linearGradient id="linear-gradient-8" x1="34.85" y1="17.01" x2="36.11" y2="-2.08" xlink:href="#linear-gradient-7"/><linearGradient id="linear-gradient-9" x1="35.74" y1="26.86" x2="42.05" y2="26.86" xlink:href="#linear-gradient-6"/><linearGradient id="linear-gradient-10" x1="58.66" y1="17.91" x2="58.66" y2="-0.76" xlink:href="#linear-gradient-4"/><linearGradient id="linear-gradient-11" x1="31.01" y1="21.16" x2="41.85" y2="11.48" gradientUnits="userSpaceOnUse"><stop offset="0" stop-color="#b3d0e3"/><stop offset="0.27" stop-color="#c3dae9"/><stop offset="0.71" stop-color="#d8e7f1"/><stop offset="1" stop-color="#dfecf4"/></linearGradient><linearGradient id="linear-gradient-12" x1="13.27" y1="34.12" x2="13.27" y2="7.18" gradientUnits="userSpaceOnUse"><stop offset="0" stop-color="#caf1d8"/><stop offset="0.51" stop-color="#7defa4"/><stop offset="1" stop-color="#2fbca4"/></linearGradient><linearGradient id="linear-gradient-13" x1="30.78" y1="28.15" x2="58.78" y2="57.82" xlink:href="#linear-gradient-12"/><linearGradient id="linear-gradient-14" x1="55.52" y1="72.4" x2="48.19" y2="31.23" xlink:href="#linear-gradient-12"/><linearGradient id="linear-gradient-15" x1="17.73" y1="30.5" x2="15.61" y2="19.25" xlink:href="#linear-gradient-12"/><linearGradient id="linear-gradient-16" x1="13.27" y1="11.58" x2="13.27" y2="-7.28" xlink:href="#linear-gradient-12"/><linearGradient id="linear-gradient-17" x1="9.71" y1="11.58" x2="9.71" y2="-7.28" xlink:href="#linear-gradient-12"/><linearGradient id="linear-gradient-18" x1="13.62" y1="11.58" x2="13.62" y2="-7.28" xlink:href="#linear-gradient-12"/><linearGradient id="linear-gradient-19" x1="8.58" y1="11.58" x2="8.58" y2="-7.28" xlink:href="#linear-gradient-12"/><linearGradient id="linear-gradient-20" x1="12.75" y1="11.58" x2="12.75" y2="-7.28" xlink:href="#linear-gradient-12"/><linearGradient id="linear-gradient-21" x1="17.95" y1="11.58" x2="17.95" y2="-7.28" xlink:href="#linear-gradient-12"/><linearGradient id="linear-gradient-22" x1="13.28" y1="24.42" x2="13.28" y2="5.61" xlink:href="#linear-gradient-12"/><linearGradient id="linear-gradient-23" x1="13.27" y1="24.42" x2="13.27" y2="5.61" xlink:href="#linear-gradient-12"/><linearGradient id="linear-gradient-24" x1="14.15" y1="30.58" x2="14.15" y2="18.06" xlink:href="#linear-gradient"/><linearGradient id="linear-gradient-25" x1="12.97" y1="30.58" x2="12.97" y2="18.06" xlink:href="#linear-gradient"/><linearGradient id="linear-gradient-26" x1="15.4" y1="30.58" x2="15.4" y2="18.06" xlink:href="#linear-gradient"/><linearGradient id="linear-gradient-27" x1="53.27" y1="34.88" x2="53.27" y2="15.13" xlink:href="#linear-gradient-12"/><linearGradient id="linear-gradient-28" x1="53.23" y1="34.88" x2="53.23" y2="15.13" xlink:href="#linear-gradient-12"/><linearGradient id="linear-gradient-29" x1="55.67" y1="34.87" x2="55.67" y2="15.12" xlink:href="#linear-gradient-12"/><linearGradient id="linear-gradient-30" x1="50.86" y1="34.87" x2="50.86" y2="15.12" xlink:href="#linear-gradient-12"/></defs><title>scientist</title><g class="cls-1"><g id="Layer_1" data-name="Layer 1"><circle class="cls-2" cx="32" cy="32" r="28"/><path class="cls-3" d="M32,46A137.4,137.4,0,0,0,8.87,47.78a28,28,0,0,0,46.25,0A137.4,137.4,0,0,0,32,46Z"/><path id="_Path_" data-name="&lt;Path&gt;" class="cls-4" d="M25.84,19.37S21.93,36.88,9.92,33.13L8.17,36.41a1.59,1.59,0,0,0,.39,2c3.08,2.54,12.74,9,19.38-3.84Z"/><g class="cls-5"><path class="cls-6" d="M25.68,38.08,27,27.41l-1.12-8a28.22,28.22,0,0,1-4.5,9.78h0c-1.44,2.14,1,10.19-5.77,10.82-3.06.28-4.89-.2-6-.81C12.95,41.61,19.94,45.17,25.68,38.08Z"/></g><path id="_Path_2" data-name="&lt;Path&gt;" class="cls-7" d="M9.92,33.13s-.44,0-1.93-1.67a1.64,1.64,0,0,0-2.26-.16l-2,1.62a.21.21,0,0,0,0,.36c.66.3,2.27.86,3.27-.15l1.68,2.2Z"/><path class="cls-8" d="M5.9,28.63H3.72a.25.25,0,0,0-.25.25v.34a.25.25,0,0,0,.25.25h0a.25.25,0,0,1,.25.25v7.2a.85.85,0,0,0,.82.88.87.87,0,0,0,.86-.89V29.72a.25.25,0,0,1,.25-.25h0a.25.25,0,0,0,.25-.25v-.34A.25.25,0,0,0,5.9,28.63Z"/><path id="_Path_3" data-name="&lt;Path&gt;" class="cls-7" d="M7.06,33.13a3.92,3.92,0,0,1-1.71,1,.21.21,0,0,1-.21-.33L6.2,32.49Z"/><path id="_Path_4" data-name="&lt;Path&gt;" class="cls-9" d="M29.31,17.08s2.22-1.15,6.21.24l6.86,33.35L28.78,49.23Z"/><path class="cls-10" d="M30,16.85a13.47,13.47,0,0,0,3.24,7.37c2.93,3.16,2.45,10.07-.83,11.12S30.55,38,33.44,39.07s1.24,2.22-.8,2.63S39.27,45,39.27,45l.17-8.66-3.92-19A9.51,9.51,0,0,0,30,16.85Z"/><path id="_Path_5" data-name="&lt;Path&gt;" class="cls-7" d="M56.72,11.8a5.76,5.76,0,0,0,2.19-2.24A.89.89,0,0,1,59.75,9h0a.78.78,0,0,0,.78-.78V7.64a.61.61,0,0,0-.27-.51c-.53-.36-1.81-.87-3.4.87l-1,2.45Z"/><path id="_Path_6" data-name="&lt;Path&gt;" class="cls-4" d="M37,17.75S47.1,22.37,56.89,8v4.64a11,11,0,0,1-1.52,5.57c-2.52,4.28-8.18,11.46-17.15,9.54Z"/><g class="cls-5"><path class="cls-11" d="M38.06,26.44l.16,1.3c9,1.92,14.64-5.26,17.15-9.54a11,11,0,0,0,1.52-5.57v-1.3C56.76,14,54.18,19.78,51.12,19c-3.23-.82-2,4.82-5.93,5.66s-3.79-6.21-3.79-6.21Z"/></g><path class="cls-12" d="M24.65,59A28,28,0,0,0,32,60l1,0c1.4-8,2.52-15.36,2.52-18.28H25.11S24.76,49.2,24.65,59Z"/><path class="cls-12" d="M34,59.92a27.85,27.85,0,0,0,8-1.77c.42-7.29.75-13.76.75-16.45H32.63S33.12,49.94,34,59.92Z"/><path class="cls-7" d="M38.76,9.36A10.49,10.49,0,0,0,36.6,7.23a4.19,4.19,0,0,0-6.28,5l.93,2.24a3.91,3.91,0,0,1,.21.69c.14.67.2,1.36-.84,1.53,0,0-.48,2.85,3.09,2.19,1.44-.26.79-2.49,1.81-2.93h0c1.39-.55,2.76-1.28,3.07-2.1a4,4,0,0,0-.25-2.12,1.42,1.42,0,0,1,.37-1.31A.75.75,0,0,0,38.76,9.36Z"/><path class="cls-13" d="M33.48,11.91a12.11,12.11,0,0,0-.87-1.38l-2,1.85V13l.62,1.51a3.9,3.9,0,0,1,.21.69c.14.67.2,1.36-.84,1.53a2.89,2.89,0,0,0,2-.8c.83-.83,2.19,2.13.67,3.06l.45-.06c1.44-.26.79-2.49,1.81-2.93h0L36,15.8C34.91,14.2,33.46,12,33.48,11.91Z"/><path class="cls-14" d="M38.34,11.75a1.42,1.42,0,0,1,.37-1.31,1,1,0,0,0,.18-.25h0s-.51.59-1-.26A4.17,4.17,0,0,0,36.07,8.3c-.08.1.45.58.81,1.55a1.25,1.25,0,0,1-1.3,1.73c-1,0-.43-1.57-.67-2.6s-3.09-.26-3.09-.26l2.49,3.64,2.15,3,.73-.37,1.46-1.85C38.6,12.7,38.45,12.24,38.34,11.75Z"/><path id="_Path_7" data-name="&lt;Path&gt;" class="cls-4" d="M35.29,17.25s2.88.71,3.41,1.35c3.08,3.7,4.93,25.89,5.38,31.89a2.22,2.22,0,0,1-1.27,2.18c-1.92.9-5.17,2.2-5.17.71C37.65,44.2,35.29,17.25,35.29,17.25Z"/><path class="cls-15" d="M40.39,22.71l-2.63-.33-2,.2c.09,1.16.2,2.46.31,3.86h0a4.36,4.36,0,0,0,3.38,2.42,3,3,0,0,1,2.62,2.51A81.41,81.41,0,0,0,40.39,22.71Z"/><path id="_Path_8" data-name="&lt;Path&gt;" class="cls-4" d="M25.84,19.37c.64-1.76,4.12-2.52,4.12-2.52s-.74,27.86.37,35.76c.32,2.26-3.53,1.67-5.72,1.15a1.79,1.79,0,0,1-1.38-1.84C23.54,45.79,24.84,22.1,25.84,19.37Z"/><path class="cls-16" d="M34.16,10.54a1.78,1.78,0,0,0-2.3-1.83h0c-1.69.57-1.4.06-1.37,0,.35-.55-1.2.49-1.46,2.19s2.57,4.27,2.52,5.14a6.63,6.63,0,0,0,.16-3.34c-.47-1.24,1.23-2,1.81,0s1.5,3.22,1,5.84C33.29,24.76,39.29,28,41.1,23s-2.56-12.32-2.56-12.32-1.09.88-1.19,1.28.34,2-.87,2.33-2.41-2.91-2.33-3.64Z"/><path class="cls-17" d="M59.75,4H57.57a.25.25,0,0,0-.25.25v.34a.25.25,0,0,0,.25.25h0a.25.25,0,0,1,.25.25v7.2a.85.85,0,0,0,.82.88.87.87,0,0,0,.86-.89V5.09a.25.25,0,0,1,.25-.25h0A.25.25,0,0,0,60,4.59V4.25A.25.25,0,0,0,59.75,4Z"/><path class="cls-18" d="M40.83,23.59c-2.11,3.42-4.71-1.54-2.54-4.09s.31-5.21-.42-6.61A1.55,1.55,0,0,1,38.1,11a2.91,2.91,0,0,0-.75.89c-.1.39.34,2-.87,2.33s-2.41-2.91-2.33-3.64v-.07a1.83,1.83,0,0,0,0-.25c0,.68-.32,1.77-.8,1.17s-2.41-.52-3.2.34-1.1-.21-1.17-.43c.2,1.68,2.56,3.9,2.52,4.69a6.63,6.63,0,0,0,.16-3.34c-.47-1.24,1.23-2,1.81,0s1.5,3.22,1,5.84C33.34,24.48,38.76,27.69,40.83,23.59Z"/><path class="cls-19" d="M15.92,4H10.61a3.43,3.43,0,0,0-3,1.71L5,10.31a3.43,3.43,0,0,0,0,3.43l2.66,4.6a3.43,3.43,0,0,0,3,1.71h5.31a3.43,3.43,0,0,0,3-1.71l2.66-4.6a3.43,3.43,0,0,0,0-3.43l-2.66-4.6A3.43,3.43,0,0,0,15.92,4Z"/><path class="cls-20" d="M55.35,45.68H51.18A2.69,2.69,0,0,0,48.86,47l-2.08,3.61a2.69,2.69,0,0,0,0,2.69l2.08,3.61a2.69,2.69,0,0,0,2.33,1.34h4.16a2.69,2.69,0,0,0,2.33-1.34l2.08-3.61a2.69,2.69,0,0,0,0-2.69L57.67,47A2.69,2.69,0,0,0,55.35,45.68Z"/><path class="cls-21" d="M56.31,45.89a2.65,2.65,0,0,0-1-.2H51.18A2.69,2.69,0,0,0,48.86,47l-2.08,3.61a2.69,2.69,0,0,0,0,2.69l1,1.79A28.13,28.13,0,0,0,56.31,45.89Z"/><path class="cls-22" d="M7.6,18.26l0,.07a3.42,3.42,0,0,0,3,1.71h5.31a3.42,3.42,0,0,0,3-1.71l2.66-4.6a3.43,3.43,0,0,0,0-3.43l-2-3.41A28.11,28.11,0,0,0,7.6,18.26Z"/><path class="cls-23" d="M13.12,16.77a9,9,0,0,1-2.27.43,3.75,3.75,0,0,0,1.42,1.28h0l.3.12h0l.29.07h0l.31,0,.31,0h0l.29-.07.05,0,.28-.11,0,0,.27-.15h0l.26-.19.05,0,.24-.22.05-.05.23-.26,0,0,.21-.27,0,0a9,9,0,0,1-2.26-.42A.51.51,0,0,0,13.12,16.77Z"/><path class="cls-24" d="M10.19,16q.1.23.2.44a.52.52,0,0,0,.5.28,8,8,0,0,0,1.25-.18.13.13,0,0,0,0-.25c-.35-.16-.7-.34-1-.54a10.39,10.39,0,0,1-3.54-3.22v0c-.05.11-.1.23-.14.34v0c0,.12-.08.23-.11.34l0,.06q0,.17-.07.33v.06a3.22,3.22,0,0,0,0,.33v0a2.82,2.82,0,0,0,0,.31v0a2.51,2.51,0,0,0,0,.3v.05a2.3,2.3,0,0,0,.09.28l0,0a2,2,0,0,0,.31.54l0,0,.2.22,0,0,.23.19,0,0,.25.15,0,0,.29.13.07,0,.3.1.08,0,.33.07h.06l.32,0H10q-.13-.25-.24-.52a.24.24,0,0,1,.33-.31h0A.24.24,0,0,1,10.19,16Z"/><path class="cls-25" d="M19.21,15a2.3,2.3,0,0,0,.09-.28V14.7a2.51,2.51,0,0,0,0-.3v0a2.78,2.78,0,0,0,0-.31s0,0,0,0a3.21,3.21,0,0,0,0-.33v-.06q0-.16-.07-.33l0-.06c0-.11-.07-.23-.11-.34v0c0-.11-.09-.22-.14-.34v0a8.11,8.11,0,0,1-.52.71.19.19,0,0,1-.33-.11c0-.06,0-.11,0-.16a.18.18,0,0,1,0-.13h0a1.32,1.32,0,0,0,0-1.64,10.45,10.45,0,0,0-2.94-2.47c-.3-.17-.6-.33-.9-.47.2-.07.42-.14.67-.21l.48.26a12.25,12.25,0,0,1,1.31.87,8.2,8.2,0,0,0-.61-1.61.43.43,0,0,0-.41-.23,8.77,8.77,0,0,0-2.4.49v0h0a11.33,11.33,0,0,0-1.91.88,9.86,9.86,0,0,0-3.43,3.16.28.28,0,0,0,0,.29,8.17,8.17,0,0,0,1.14,1.42A12.18,12.18,0,0,1,9,12c0-.15,0-.29,0-.44A.24.24,0,0,1,9,11.43H9a.24.24,0,0,1,.41.17q0,.21,0,.43A11.33,11.33,0,0,0,9.61,14a.46.46,0,0,0,.16.28,11.4,11.4,0,0,0,1.59,1.1,10,10,0,0,0,4.28,1.38.52.52,0,0,0,.5-.29,8.06,8.06,0,0,0,.48-1.21.12.12,0,0,0-.18-.13,12.14,12.14,0,0,1-1,.66l-.33.18a.24.24,0,0,1-.18,0h0a.23.23,0,0,1,0-.43l.31-.17a11.29,11.29,0,0,0,1.6-1.12.42.42,0,0,0,.14-.25A11.38,11.38,0,0,0,17.09,12q0-.26,0-.52a.24.24,0,0,1,.39-.19h0a.24.24,0,0,1,.09.17c0,.18,0,.35,0,.53a10.39,10.39,0,0,1-1,4.68h.05l.32,0H17l.33-.07.08,0,.31-.1.07,0L18,16.3l0,0,.26-.15,0,0,.23-.19,0,0,.2-.22,0,0a2,2,0,0,0,.31-.54Z"/><path class="cls-26" d="M7.32,9a2.29,2.29,0,0,0-.09.28v.05a2.51,2.51,0,0,0,0,.3v0a2.82,2.82,0,0,0,0,.31v0a3.22,3.22,0,0,0,0,.33v.06q0,.16.07.33l0,.06c0,.11.07.23.11.34v0c0,.11.09.23.14.34v0A9.07,9.07,0,0,1,9.2,9.67,9.06,9.06,0,0,1,10,7.35a3.5,3.5,0,0,0-2.07.79l0,0a2.28,2.28,0,0,0-.21.22l0,0A2,2,0,0,0,7.34,9Z"/><path class="cls-27" d="M11.12,8.3c.34-.2.69-.38,1-.53a.13.13,0,0,0,0-.25l-.59-.11A.24.24,0,0,1,11.39,7h0a.24.24,0,0,1,.23-.1,9.7,9.7,0,0,1,1.51.36.44.44,0,0,0,.27,0,9,9,0,0,1,2.29-.43v0l-.23-.3,0,0-.24-.27,0,0L14.89,6l0,0-.27-.19h0l-.27-.15,0,0L14,5.46l-.05,0-.29-.07h0l-.31,0-.25,0h-.07l-.21,0h0l-.24.08-.06,0-.2.09,0,0-.23.14,0,0-.2.14,0,0a3.92,3.92,0,0,0-.43.42l0,0a5,5,0,0,0-.4.53l0,0a7.64,7.64,0,0,0-.95,2.19A12.25,12.25,0,0,1,11.12,8.3Z"/><path class="cls-28" d="M19,11.53h0a4.7,4.7,0,0,0,.27-.74v0q0-.17.07-.34v0a3.22,3.22,0,0,0,0-.34h0a2.79,2.79,0,0,0,0-.33v0a2.51,2.51,0,0,0,0-.3V9.29A2.29,2.29,0,0,0,19.21,9l0,0a2,2,0,0,0-.31-.54l0,0-.2-.22,0,0-.23-.19,0,0-.26-.15,0,0-.29-.13-.06,0-.31-.1-.08,0L17,7.4h-.05l-.33,0h0a9,9,0,0,1,.77,2.24.28.28,0,0,0,.09.15A9,9,0,0,1,19,11.53Z"/><path class="cls-29" d="M13.07,10.38h0a.33.33,0,0,0,.41,0h0a.47.47,0,0,0,.18-.37V9.82a.27.27,0,0,0-.14-.24.56.56,0,0,0-.49,0,.27.27,0,0,0-.14.24V10A.47.47,0,0,0,13.07,10.38Z"/><path class="cls-30" d="M15,10.62H11.55a.19.19,0,0,0,0,.37l.84.18a.34.34,0,0,1,.26.29v0a2.94,2.94,0,0,1-.13,1.27l-.55,1.67a.24.24,0,0,0,.22.31h0a.24.24,0,0,0,.21-.14L13.11,13a.17.17,0,0,1,.31,0l.74,1.58a.24.24,0,0,0,.21.14h0a.24.24,0,0,0,.22-.31L14,12.76a2.94,2.94,0,0,1-.13-1.27v0a.34.34,0,0,1,.26-.29L15,11a.19.19,0,0,0,0-.37Z"/><path class="cls-31" d="M14.45,25.81H15a.31.31,0,0,0,.27-.15l.26-.46a.09.09,0,0,0-.12-.12l0,0-.3-.53a.18.18,0,0,0-.2-.1H13.68a.53.53,0,0,0-.55.22v0l-.31.54a.25.25,0,0,0,.09.34l.47.27a.25.25,0,0,0,.34-.09l.31-.54a.1.1,0,0,1,.18,0l.22.4,0,0A.09.09,0,0,0,14.45,25.81Zm-.64-1.27h0Zm-.08-.05h0Zm0,0h0Z"/><path class="cls-32" d="M13,27.1l.23-.4,0,0a.09.09,0,0,0,.12-.12l-.27-.46a.31.31,0,0,0-.27-.15h-.53a.09.09,0,0,0,0,.16l0,0-.3.53a.18.18,0,0,0,0,.23l.6,1v0a.53.53,0,0,0,.47.36h.64a.25.25,0,0,0,.25-.25v-.55a.25.25,0,0,0-.25-.25h-.63A.1.1,0,0,1,13,27.1Z"/><path class="cls-33" d="M16.34,26.59v0L16,26a.25.25,0,0,0-.34-.09l-.47.27a.25.25,0,0,0-.09.34l.32.55a.1.1,0,0,1-.09.15h-.46v0a.09.09,0,0,0-.16,0l-.27.46a.31.31,0,0,0,0,.31l.27.46a.09.09,0,0,0,.16,0v0h.61a.17.17,0,0,0,.19-.12l.6-1A.53.53,0,0,0,16.34,26.59Z"/><path class="cls-34" d="M55.08,49.48a.63.63,0,0,0-.31-.9,4.08,4.08,0,0,0-3,0,.63.63,0,0,0-.31.9l.77,1.31a.62.62,0,0,0,.68.29,1.34,1.34,0,0,1,.69,0,.63.63,0,0,0,.72-.28Z"/><circle class="cls-35" cx="53.23" cy="52.36" r="0.51"/><path class="cls-36" d="M54.85,55.36a.63.63,0,0,0,.94.18A4.08,4.08,0,0,0,57.31,53a.63.63,0,0,0-.62-.72H55.16a.62.62,0,0,0-.6.45,1.35,1.35,0,0,1-.35.59.63.63,0,0,0-.11.77Z"/><path class="cls-37" d="M51.68,55.36a.63.63,0,0,1-.94.18A4.08,4.08,0,0,1,49.22,53a.63.63,0,0,1,.62-.72h1.52a.62.62,0,0,1,.6.45,1.34,1.34,0,0,0,.35.59.63.63,0,0,1,.11.77Z"/></g></g></svg>