<svg xmlns="http://www.w3.org/2000/svg" xmlns:xlink="http://www.w3.org/1999/xlink" viewBox="0 0 64 64"><defs><style>.cls-1{isolation:isolate;}.cls-2{fill:url(#linear-gradient);}.cls-3{fill:url(#linear-gradient-2);}.cls-4{fill:url(#linear-gradient-3);}.cls-5{fill:url(#linear-gradient-4);}.cls-6{fill:url(#linear-gradient-5);}.cls-7{fill:url(#linear-gradient-6);}.cls-8{fill:url(#linear-gradient-7);}.cls-9{fill:url(#linear-gradient-8);}.cls-10{fill:url(#linear-gradient-9);}.cls-11{fill:url(#linear-gradient-10);}.cls-12{fill:url(#linear-gradient-11);}.cls-13{fill:url(#linear-gradient-12);}.cls-14{fill:url(#linear-gradient-13);}.cls-15{fill:url(#linear-gradient-14);}.cls-16{fill:url(#linear-gradient-15);}.cls-17{fill:url(#linear-gradient-16);}.cls-18{fill:url(#linear-gradient-17);}.cls-19{fill:url(#linear-gradient-68);}.cls-20{opacity:0.49;mix-blend-mode:color-burn;fill:url(#linear-gradient-69);}.cls-21{fill:url(#linear-gradient-70);}.cls-22{fill:url(#linear-gradient-71);}.cls-23{fill:url(#linear-gradient-72);}.cls-24{fill:url(#linear-gradient-73);}.cls-25{fill:url(#linear-gradient-74);}.cls-26{fill:url(#linear-gradient-75);}.cls-27{fill:url(#linear-gradient-76);}.cls-28{fill:url(#linear-gradient-77);}.cls-29{fill:#f9aa8f;}.cls-30{fill:url(#linear-gradient-78);}.cls-31{fill:#a9deed;}.cls-32{fill:#131735;}.cls-33{fill:url(#linear-gradient-79);}.cls-34{fill:url(#linear-gradient-80);}.cls-35{fill:#06192c;}.cls-36{fill:#0d3d61;}.cls-37{fill:#142621;}.cls-38{fill:url(#linear-gradient-81);}.cls-39{fill:url(#linear-gradient-82);}</style><linearGradient id="linear-gradient" x1="31.65" y1="97.25" x2="31.65" y2="9.14" gradientUnits="userSpaceOnUse"><stop offset="0" stop-color="#fff"/><stop offset="0.84" stop-color="#cddfec"/></linearGradient><linearGradient id="linear-gradient-2" x1="31.65" y1="79.75" x2="31.65" y2="31.24" gradientUnits="userSpaceOnUse"><stop offset="0" stop-color="#caf1d8"/><stop offset="0.51" stop-color="#7defa4"/><stop offset="1" stop-color="#2fbca4"/></linearGradient><linearGradient id="linear-gradient-3" x1="31.65" y1="63.25" x2="31.65" y2="-3.5" gradientUnits="userSpaceOnUse"><stop offset="0" stop-color="#d1efe7"/><stop offset="0.53" stop-color="#97efe7"/><stop offset="1" stop-color="#3ccbe3"/></linearGradient><linearGradient id="linear-gradient-4" x1="22.36" y1="29.11" x2="22.36" y2="-23.81" xlink:href="#linear-gradient-3"/><linearGradient id="linear-gradient-5" x1="15.14" y1="29.95" x2="15.14" y2="-22.06" xlink:href="#linear-gradient-3"/><linearGradient id="linear-gradient-6" x1="48.76" y1="34.85" x2="48.76" y2="-42.43" xlink:href="#linear-gradient-3"/><linearGradient id="linear-gradient-7" x1="423.93" y1="35.09" x2="423.93" y2="-43.58" gradientTransform="translate(-376.22)" xlink:href="#linear-gradient-3"/><linearGradient id="linear-gradient-8" x1="409.04" y1="35.09" x2="409.04" y2="-43.58" gradientTransform="translate(-376.22)" xlink:href="#linear-gradient-3"/><linearGradient id="linear-gradient-9" x1="406.92" y1="35.09" x2="406.92" y2="-43.58" gradientTransform="translate(-376.22)" xlink:href="#linear-gradient-3"/><linearGradient id="linear-gradient-10" x1="422.78" y1="35.09" x2="422.78" y2="-43.58" gradientTransform="translate(-376.22)" xlink:href="#linear-gradient-3"/><linearGradient id="linear-gradient-11" x1="19.25" y1="66" x2="19.25" y2="20.53" xlink:href="#linear-gradient-3"/><linearGradient id="linear-gradient-12" x1="32.25" y1="54.55" x2="32.25" y2="9.48" xlink:href="#linear-gradient-3"/><linearGradient id="linear-gradient-13" x1="399.06" y1="48.13" x2="399.06" y2="3.02" gradientTransform="translate(-376.22)" xlink:href="#linear-gradient-3"/><linearGradient id="linear-gradient-14" x1="401.12" y1="48.13" x2="401.12" y2="3.02" gradientTransform="translate(-376.22)" xlink:href="#linear-gradient-3"/><linearGradient id="linear-gradient-15" x1="403.17" y1="48.13" x2="403.17" y2="3.02" gradientTransform="translate(-376.22)" xlink:href="#linear-gradient-3"/><linearGradient id="linear-gradient-16" x1="405.22" y1="48.13" x2="405.22" y2="3.02" gradientTransform="translate(-376.22)" xlink:href="#linear-gradient-3"/><linearGradient id="linear-gradient-17" x1="407.27" y1="48.13" x2="407.27" y2="3.02" gradientTransform="translate(-376.22)" xlink:href="#linear-gradient-3"/><linearGradient id="linear-gradient-68" x1="420.22" y1="66" x2="420.22" y2="20.53" gradientTransform="translate(-376.22)" xlink:href="#linear-gradient-3"/><linearGradient id="linear-gradient-69" x1="387.17" y1="25.69" x2="387.17" y2="25.13" gradientTransform="translate(-376.22)" xlink:href="#linear-gradient-3"/><linearGradient id="linear-gradient-70" x1="385.35" y1="51.38" x2="385.35" y2="26.53" gradientTransform="translate(-376.22)" gradientUnits="userSpaceOnUse"><stop offset="0" stop-color="#7ff1a4"/><stop offset="0.52" stop-color="#2fbca4"/><stop offset="1" stop-color="#2f7da4"/></linearGradient><linearGradient id="linear-gradient-71" x1="-13333.7" y1="48.38" x2="-13333.7" y2="28.51" gradientTransform="matrix(-1, 0, 0, 1, -13324.87, 0)" xlink:href="#linear-gradient"/><linearGradient id="linear-gradient-72" x1="16495.3" y1="53.67" x2="16495.3" y2="35.29" gradientTransform="translate(-16481.43)" xlink:href="#linear-gradient-70"/><linearGradient id="linear-gradient-73" x1="16495.49" y1="53.44" x2="16495.49" y2="40.66" gradientTransform="translate(-16481.43)" xlink:href="#linear-gradient"/><linearGradient id="linear-gradient-74" x1="724.61" y1="49.45" x2="724.61" y2="24.59" gradientTransform="matrix(-1, 0, 0, 1, 780.22, 0)" xlink:href="#linear-gradient-70"/><linearGradient id="linear-gradient-75" x1="-13672.96" y1="46.45" x2="-13672.96" y2="26.58" gradientTransform="translate(13728.87)" xlink:href="#linear-gradient"/><linearGradient id="linear-gradient-76" x1="16834.56" y1="51.74" x2="16834.56" y2="33.35" gradientTransform="matrix(-1, 0, 0, 1, 16885.43, 0)" xlink:href="#linear-gradient-70"/><linearGradient id="linear-gradient-77" x1="16834.75" y1="51.5" x2="16834.75" y2="38.72" gradientTransform="matrix(-1, 0, 0, 1, 16885.43, 0)" xlink:href="#linear-gradient"/><linearGradient id="linear-gradient-78" x1="37.25" y1="18.33" x2="28.98" y2="4.41" gradientUnits="userSpaceOnUse"><stop offset="0" stop-color="#f78e6b"/><stop offset="1" stop-color="#f9aa8f"/></linearGradient><linearGradient id="linear-gradient-79" x1="32.45" y1="20.62" x2="35.25" y2="16.59" gradientUnits="userSpaceOnUse"><stop offset="0" stop-color="#9cd9e8"/><stop offset="1" stop-color="#75c4d9"/></linearGradient><linearGradient id="linear-gradient-80" x1="29.22" y1="25.49" x2="35.67" y2="16.21" xlink:href="#linear-gradient-79"/><linearGradient id="linear-gradient-81" x1="20.06" y1="27.41" x2="27.25" y2="34.92" gradientUnits="userSpaceOnUse"><stop offset="0" stop-color="#082d4e"/><stop offset="1" stop-color="#0b3d6b"/></linearGradient><linearGradient id="linear-gradient-82" x1="48.37" y1="11.15" x2="47.47" y2="37.31" xlink:href="#linear-gradient-81"/></defs><title>manenjoying nature</title><g class="cls-1"><g id="Layer_1" data-name="Layer 1"><circle class="cls-2" cx="31.65" cy="32" r="28"/><circle class="cls-3" cx="31.65" cy="32" r="28"/><path class="cls-4" d="M3.65,32A27.87,27.87,0,0,0,7,45.33H56.28A28,28,0,1,0,3.65,32Z"/><path class="cls-5" d="M31.11,16.82C24.47,14.6,18.9,11,17.3,8.68a4.34,4.34,0,0,0-.38-.48,28.08,28.08,0,0,0-3.3,2.4A177.1,177.1,0,0,0,31.11,16.82Z"/><path class="cls-6" d="M22.38,19.91c-3.55-.49-6.68-1.77-7.71-2.8s-3.43-1.13-4-1.65a5.47,5.47,0,0,0-1-.71A28.05,28.05,0,0,0,7.9,17.18,93.24,93.24,0,0,0,22.38,19.91Z"/><path class="cls-7" d="M57.38,20.93a4.1,4.1,0,0,0-1.76.36c-2.32,1-4.11-.48-7.54.24s-9.32-.38-9.32-.38a81.33,81.33,0,0,0,20,3.81A27.78,27.78,0,0,0,57.38,20.93Z"/><path class="cls-8" d="M39.37,14a14.37,14.37,0,0,0,5.2.28c2-.48,2.88.54,4.24-.15a2,2,0,0,1,2.7.89c.31.66,1.34,0,2,.59a4.94,4.94,0,0,0,2.51.54S50.31,18.26,39.37,14Z"/><path class="cls-9" d="M30,8.64s3.78,1.26,5.58.93a5.71,5.71,0,0,1-1.5-.73,1.93,1.93,0,0,0-1.79-.37c-.41.25-.57-.36-1-.13A4.58,4.58,0,0,1,30,8.64Z"/><path class="cls-10" d="M27.91,19.85s3.78,1.26,5.58.93A5.71,5.71,0,0,1,32,20a1.93,1.93,0,0,0-1.79-.37c-.41.25-.57-.36-1-.13A4.58,4.58,0,0,1,27.91,19.85Z"/><path class="cls-11" d="M48.58,9.43s-2.9-.23-4-1a4.18,4.18,0,0,0,1.22-.07,1.41,1.41,0,0,1,1.31.26c.2.29.48-.08.73.2A3.35,3.35,0,0,0,48.58,9.43Z"/><path class="cls-12" d="M34.14,38.63H17.64v-7H15.49V27a3,3,0,0,0-6,0v7.2H3.75A27.83,27.83,0,0,0,7,45.33H34.75Z"/><path class="cls-13" d="M59.65,32a28,28,0,0,0-1.41-8.77H56.53a5.38,5.38,0,0,0-5.38,5.38v3.21H45.31a1.07,1.07,0,0,0-1.07,1.07v5.19H36.86v-2a1,1,0,0,0-1-1h-2.1V15.87a.93.93,0,0,0-.93-.93H20.74a.93.93,0,0,0-.93.93V42H10.13V40.1H4.85A27.83,27.83,0,0,0,7,45.33H56.28A27.87,27.87,0,0,0,59.65,32Z"/><rect class="cls-14" x="22.25" y="17.46" width="1.18" height="1.18" rx="0.09" ry="0.09"/><rect class="cls-15" x="24.3" y="17.46" width="1.18" height="1.18" rx="0.09" ry="0.09"/><rect class="cls-16" x="26.36" y="17.46" width="1.18" height="1.18" rx="0.09" ry="0.09"/><rect class="cls-17" x="28.41" y="17.46" width="1.18" height="1.18" rx="0.09" ry="0.09"/><rect class="cls-18" x="30.46" y="17.46" width="1.18" height="1.18" rx="0.09" ry="0.09"/><rect class="cls-14" x="22.25" y="19.63" width="1.18" height="1.18" rx="0.09" ry="0.09"/><rect class="cls-15" x="24.3" y="19.63" width="1.18" height="1.18" rx="0.09" ry="0.09"/><rect class="cls-16" x="26.36" y="19.63" width="1.18" height="1.18" rx="0.09" ry="0.09"/><rect class="cls-17" x="28.41" y="19.63" width="1.18" height="1.18" rx="0.09" ry="0.09"/><rect class="cls-18" x="30.46" y="19.63" width="1.18" height="1.18" rx="0.09" ry="0.09"/><rect class="cls-14" x="22.25" y="21.79" width="1.18" height="1.18" rx="0.09" ry="0.09"/><rect class="cls-15" x="24.3" y="21.79" width="1.18" height="1.18" rx="0.09" ry="0.09"/><rect class="cls-16" x="26.36" y="21.79" width="1.18" height="1.18" rx="0.09" ry="0.09"/><rect class="cls-17" x="28.41" y="21.79" width="1.18" height="1.18" rx="0.09" ry="0.09"/><rect class="cls-18" x="30.46" y="21.79" width="1.18" height="1.18" rx="0.09" ry="0.09"/><rect class="cls-14" x="22.25" y="23.95" width="1.18" height="1.18" rx="0.09" ry="0.09"/><rect class="cls-15" x="24.3" y="23.95" width="1.18" height="1.18" rx="0.09" ry="0.09"/><rect class="cls-16" x="26.36" y="23.95" width="1.18" height="1.18" rx="0.09" ry="0.09"/><rect class="cls-17" x="28.41" y="23.95" width="1.18" height="1.18" rx="0.09" ry="0.09"/><rect class="cls-18" x="30.46" y="23.95" width="1.18" height="1.18" rx="0.09" ry="0.09"/><rect class="cls-14" x="22.25" y="26.11" width="1.18" height="1.18" rx="0.09" ry="0.09"/><rect class="cls-15" x="24.3" y="26.11" width="1.18" height="1.18" rx="0.09" ry="0.09"/><rect class="cls-16" x="26.36" y="26.11" width="1.18" height="1.18" rx="0.09" ry="0.09"/><rect class="cls-17" x="28.41" y="26.11" width="1.18" height="1.18" rx="0.09" ry="0.09"/><rect class="cls-18" x="30.46" y="26.11" width="1.18" height="1.18" rx="0.09" ry="0.09"/><rect class="cls-14" x="22.25" y="28.27" width="1.18" height="1.18" rx="0.09" ry="0.09"/><rect class="cls-15" x="24.3" y="28.27" width="1.18" height="1.18" rx="0.09" ry="0.09"/><rect class="cls-16" x="26.36" y="28.27" width="1.18" height="1.18" rx="0.09" ry="0.09"/><rect class="cls-17" x="28.41" y="28.27" width="1.18" height="1.18" rx="0.09" ry="0.09"/><rect class="cls-18" x="30.46" y="28.27" width="1.18" height="1.18" rx="0.09" ry="0.09"/><rect class="cls-14" x="22.25" y="30.43" width="1.18" height="1.18" rx="0.09" ry="0.09"/><rect class="cls-15" x="24.3" y="30.43" width="1.18" height="1.18" rx="0.09" ry="0.09"/><rect class="cls-16" x="26.36" y="30.43" width="1.18" height="1.18" rx="0.09" ry="0.09"/><rect class="cls-17" x="28.41" y="30.43" width="1.18" height="1.18" rx="0.09" ry="0.09"/><rect class="cls-18" x="30.46" y="30.43" width="1.18" height="1.18" rx="0.09" ry="0.09"/><rect class="cls-14" x="22.25" y="32.59" width="1.18" height="1.18" rx="0.09" ry="0.09"/><rect class="cls-15" x="24.3" y="32.59" width="1.18" height="1.18" rx="0.09" ry="0.09"/><rect class="cls-16" x="26.36" y="32.59" width="1.18" height="1.18" rx="0.09" ry="0.09"/><rect class="cls-17" x="28.41" y="32.59" width="1.18" height="1.18" rx="0.09" ry="0.09"/><rect class="cls-18" x="30.46" y="32.59" width="1.18" height="1.18" rx="0.09" ry="0.09"/><rect class="cls-14" x="22.25" y="34.75" width="1.18" height="1.18" rx="0.09" ry="0.09"/><rect class="cls-15" x="24.3" y="34.75" width="1.18" height="1.18" rx="0.09" ry="0.09"/><rect class="cls-16" x="26.36" y="34.75" width="1.18" height="1.18" rx="0.09" ry="0.09"/><rect class="cls-17" x="28.41" y="34.75" width="1.18" height="1.18" rx="0.09" ry="0.09"/><rect class="cls-18" x="30.46" y="34.75" width="1.18" height="1.18" rx="0.09" ry="0.09"/><rect class="cls-14" x="22.25" y="36.92" width="1.18" height="1.18" rx="0.09" ry="0.09"/><rect class="cls-15" x="24.3" y="36.92" width="1.18" height="1.18" rx="0.09" ry="0.09"/><rect class="cls-16" x="26.36" y="36.92" width="1.18" height="1.18" rx="0.09" ry="0.09"/><rect class="cls-17" x="28.41" y="36.92" width="1.18" height="1.18" rx="0.09" ry="0.09"/><rect class="cls-18" x="30.46" y="36.92" width="1.18" height="1.18" rx="0.09" ry="0.09"/><rect class="cls-14" x="22.25" y="39.08" width="1.18" height="1.18" rx="0.09" ry="0.09"/><rect class="cls-15" x="24.3" y="39.08" width="1.18" height="1.18" rx="0.09" ry="0.09"/><rect class="cls-16" x="26.36" y="39.08" width="1.18" height="1.18" rx="0.09" ry="0.09"/><rect class="cls-17" x="28.41" y="39.08" width="1.18" height="1.18" rx="0.09" ry="0.09"/><rect class="cls-18" x="30.46" y="39.08" width="1.18" height="1.18" rx="0.09" ry="0.09"/><path class="cls-19" d="M45.31,31.81a1.07,1.07,0,0,0-1.07,1.07v5.19H36.86v.27a4.69,4.69,0,0,0,4.69,4.77h3.18v-2h6.43V31.81Z"/><path class="cls-20" d="M10.7,25.39c-.07,0,.05.12.19.21h0l.11,0a.39.39,0,0,0,.2-.12A1.58,1.58,0,0,0,10.7,25.39Z"/><path class="cls-21" d="M4.39,38.61a2.64,2.64,0,0,1,1.92-2.54,1.11,1.11,0,0,0,.75-.76,2.64,2.64,0,0,1,5.16.5,2.68,2.68,0,0,1,0,.6,1.06,1.06,0,0,0,.47,1,2.64,2.64,0,0,1,.39,4.09,1.71,1.71,0,0,0-.4.55,1.88,1.88,0,0,1-1.73,1.15l-.24,0a1.89,1.89,0,0,0-1.23.24,2.64,2.64,0,0,1-4-2.26v0a.92.92,0,0,0-.28-.67A2.63,2.63,0,0,1,4.39,38.61Z"/><path class="cls-22" d="M7.11,38.61c0,.08,0,.17.08.25a.83.83,0,0,0,.32.4,2,2,0,0,0,.23.12l.4.19,0-.08c0-.09,0-.17-.07-.26l-.13-.51.15.51c0,.08,0,.17.08.25l0,.11,0,0h0a0,0,0,0,1,0,0h0l0,0a.83.83,0,0,0,.19.17,2,2,0,0,0,.23.12l.42.21,0-2.38,0,3.11.24-.12a.9.9,0,0,0,.27-.18.82.82,0,0,0,.17-.27c0-.05,0-.1,0-.16a.34.34,0,0,1,.1-.14.36.36,0,0,1,.16-.07l.16,0a.37.37,0,0,0,.22-.22c.06-.21.11-.43.16-.65,0,.22-.09.43-.14.65a.39.39,0,0,1-.23.24l-.16,0a.33.33,0,0,0-.14.07.3.3,0,0,0-.09.13s0,.11,0,.16a.86.86,0,0,1-.18.29,1,1,0,0,1-.27.2L9.17,41l.09,6.24h0a.14.14,0,0,1-.27,0l.1-7-.45-.24a2.06,2.06,0,0,1-.23-.13.86.86,0,0,1-.19-.19l0-.06h0l-.47-.25a2.06,2.06,0,0,1-.23-.13.87.87,0,0,1-.32-.43c0-.09,0-.17-.07-.26L7,38.1Z"/><path class="cls-23" d="M16.9,46.12a1.7,1.7,0,0,0-1.23-1.63.71.71,0,0,1-.48-.49,1.7,1.7,0,0,0-3.32.32,1.72,1.72,0,0,0,0,.38.68.68,0,0,1-.3.65A1.7,1.7,0,0,0,11.33,48a1.1,1.1,0,0,1,.25.35,1.21,1.21,0,0,0,1.11.74h.16a1.21,1.21,0,0,1,.79.15,1.7,1.7,0,0,0,2.57-1.45v0a.59.59,0,0,1,.18-.43A1.69,1.69,0,0,0,16.9,46.12Z"/><path class="cls-24" d="M15.16,47.15l0,.16a.54.54,0,0,1-.2.26l-.15.08-.26.12,0-.05,0-.16.09-.33-.1.33,0,.16,0,.07h0a0,0,0,0,0,0,0h0l0,0a.53.53,0,0,1-.12.11l-.15.08-.27.13,0-1.53,0,2-.15-.08a.58.58,0,0,1-.17-.12.53.53,0,0,1-.11-.17s0-.07,0-.1a.22.22,0,0,0-.07-.09.23.23,0,0,0-.1,0l-.1,0a.24.24,0,0,1-.14-.14c0-.14-.07-.28-.1-.42,0,.14.06.28.09.42a.25.25,0,0,0,.15.16l.1,0,.09,0a.2.2,0,0,1,.06.08s0,.07,0,.1a.56.56,0,0,0,.11.19.62.62,0,0,0,.18.13l.17.09-.06,4h0a.09.09,0,1,0,.18,0l-.07-4.48.29-.15.15-.08a.56.56,0,0,0,.12-.12l0,0h0l.3-.16.15-.08a.56.56,0,0,0,.2-.27l0-.16.09-.33Z"/><path class="cls-25" d="M60.35,36.67a2.64,2.64,0,0,0-1.92-2.54,1.11,1.11,0,0,1-.75-.76,2.64,2.64,0,0,0-5.16.5,2.68,2.68,0,0,0,0,.6,1.06,1.06,0,0,1-.47,1,2.64,2.64,0,0,0-.39,4.09,1.71,1.71,0,0,1,.4.55,1.88,1.88,0,0,0,1.73,1.15l.24,0a1.89,1.89,0,0,1,1.23.24,2.64,2.64,0,0,0,4-2.26v0a.92.92,0,0,1,.28-.67A2.63,2.63,0,0,0,60.35,36.67Z"/><path class="cls-26" d="M57.63,36.67c0,.08,0,.17-.08.25a.83.83,0,0,1-.32.4,2,2,0,0,1-.23.12l-.4.19,0-.08c0-.09,0-.17.07-.26l.13-.51-.15.51c0,.08,0,.17-.08.25l0,.11,0,0h0a0,0,0,0,0,0,0h0l0,0a.83.83,0,0,1-.19.17,2,2,0,0,1-.23.12l-.42.21,0-2.38,0,3.11-.24-.12a.9.9,0,0,1-.27-.18.82.82,0,0,1-.17-.27c0-.05,0-.1,0-.16a.34.34,0,0,0-.1-.14.36.36,0,0,0-.16-.07l-.16,0a.37.37,0,0,1-.22-.22c-.06-.21-.11-.43-.16-.65,0,.22.09.43.14.65a.39.39,0,0,0,.23.24l.16,0a.33.33,0,0,1,.14.07.3.3,0,0,1,.09.13s0,.11,0,.16a.86.86,0,0,0,.18.29,1,1,0,0,0,.27.2l.26.14-.09,6.24h0a.14.14,0,0,0,.27,0l-.1-7,.45-.24a2.06,2.06,0,0,0,.23-.13.86.86,0,0,0,.19-.19l0-.06h0l.47-.25a2.06,2.06,0,0,0,.23-.13.87.87,0,0,0,.32-.43c0-.09,0-.17.07-.26l.13-.51Z"/><path class="cls-27" d="M47.83,44.19a1.7,1.7,0,0,1,1.23-1.63.71.71,0,0,0,.48-.49,1.7,1.7,0,0,1,3.32.32,1.72,1.72,0,0,1,0,.38.68.68,0,0,0,.3.65,1.7,1.7,0,0,1,.25,2.63,1.1,1.1,0,0,0-.25.35,1.21,1.21,0,0,1-1.11.74h-.16a1.21,1.21,0,0,0-.79.15,1.7,1.7,0,0,1-2.57-1.45v0a.59.59,0,0,0-.18-.43A1.69,1.69,0,0,1,47.83,44.19Z"/><path class="cls-28" d="M49.58,45.21l0,.16a.54.54,0,0,0,.2.26l.15.08.26.12,0-.05,0-.16-.09-.33.1.33,0,.16,0,.07h0a0,0,0,0,1,0,0h0l0,0a.53.53,0,0,0,.12.11l.15.08.27.13,0-1.53,0,2,.15-.08a.58.58,0,0,0,.17-.12.53.53,0,0,0,.11-.17s0-.07,0-.1a.22.22,0,0,1,.07-.09.23.23,0,0,1,.1,0l.1,0a.24.24,0,0,0,.14-.14c0-.14.07-.28.1-.42,0,.14-.06.28-.09.42a.25.25,0,0,1-.15.16l-.1,0-.09,0a.2.2,0,0,0-.06.08s0,.07,0,.1a.56.56,0,0,1-.11.19.62.62,0,0,1-.18.13l-.17.09.06,4h0a.09.09,0,1,1-.18,0l.07-4.48-.29-.15-.15-.08a.56.56,0,0,1-.12-.12l0,0h0l-.3-.16-.15-.08a.56.56,0,0,1-.2-.27l0-.16-.09-.33Z"/><path class="cls-29" d="M37.55,9.48c-.66-1.35-3.13-3.29-4.22-3.31-4.78-.13-5.4,2.5-5.4,2.5L30,12.08h0s1.35,2.6,0,4.43l2.39,4,3.38-3.46a4.93,4.93,0,0,1-.94-2.14.87.87,0,0,1,.66-1,5.53,5.53,0,0,0,1.8-.68c.3-.22.16-.82,0-1.49-.06-.2-.13-.48-.19-.73a.84.84,0,0,1,.32-.9A.47.47,0,0,0,37.55,9.48Z"/><path class="cls-30" d="M37.27,10.24c-.12,0-.26,0-.36-.32-.23-.69-2.13-1.79-1.84-2.17a.79.79,0,0,0,0-.78L35,6.91,29.88,10.6l.24,1.76a5.46,5.46,0,0,1,.42,2.81,3.43,3.43,0,0,1,1.88-1.25c1.19-.26,1,.46,1,.46l.65-2.26s2.64-.16,1.11-.78-1.3-2.5-.37-2.66S36.75,11,36.75,11l.33.13V11A.85.85,0,0,1,37.27,10.24Z"/><path class="cls-31" d="M29.51,17.05l.72-1.78a.19.19,0,0,1,.3-.07l.8.7a3.23,3.23,0,0,1,.86,1.21l.41,1,.51-1.35a1.52,1.52,0,0,1,.47-.65l1.15-.92a.51.51,0,0,1,.77.16l.56,1.1-2.13,9.85-3.19.89"/><path class="cls-32" d="M34.15,6.09a1,1,0,0,1,.21,1.54c-.77.94-1.7,2.51-.21,3.43s3.07-.77,3.07-.77,1.2,2.72.64,3.38a9.8,9.8,0,0,1-3.53,1.83c-1,.29-1.84-5.51-2.54-5.34s-.68,1.52-.31,2-1.11.94-1.11.94-2-2.12-2-2.55S31.16,7.2,31.16,7.2"/><path class="cls-33" d="M32.6,18.12H33a.41.41,0,0,0,.37-.23l.16-.32a.3.3,0,0,1,.5-.06l.57.68-.25,2-1.41.53"/><path class="cls-34" d="M31.58,17.75l-.12-.25a.32.32,0,0,0-.59,0l-.49,1.31-.65,0,.4,3.27L32,26.86l.48-.14-.07-3.85a2.66,2.66,0,0,0-.24-1.07l-.28-.62a1,1,0,0,1,0-.7l.78-2.37-.31,0A.72.72,0,0,1,31.58,17.75Z"/><path id="_Path_" data-name="&lt;Path&gt;" class="cls-29" d="M9.39,29.35s-1.65-.48-2.2.49c-.44.77-2,.59-2.67.48a.83.83,0,0,0-.66.15c-.29.23-.36.6,1.49.91,2.88.49,2.35.3,3.1,0Z"/><polygon id="_Path_2" data-name="&lt;Path&gt;" class="cls-31" points="9.39 29.35 10.31 29.37 9.39 31.97 8.96 31.69 8.46 31.39 9.39 29.35"/><polygon id="_Path_3" data-name="&lt;Path&gt;" class="cls-31" points="52.83 9.96 54.13 9.47 55.83 11.41 53.46 12.74 52.83 9.96"/><rect id="_Path_4" data-name="&lt;Path&gt;" class="cls-31" x="27.26" y="24.51" width="9.47" height="23.39"/><path class="cls-35" d="M32.7,60A28,28,0,0,0,39,59c.61-9.42,1.24-18.37,1.24-18.37l-9.07,0C31.24,45.17,31.92,52.72,32.7,60Z"/><path class="cls-35" d="M23.78,58.87A27.92,27.92,0,0,0,30.23,60c1.52-5.94,2.88-10.83,2.88-10.83l1.43-9.54h-10C24.6,44.13,24.23,51.6,23.78,58.87Z"/><path class="cls-36" d="M55.15,12.62l-2-2.8S48.58,12,44.7,14.26a11.71,11.71,0,0,1-6.42,1.54h-.1c-1.7-.07-2.3-.73-3.32.13S33,23.7,32.7,26.94c-.25,3-1.11-2.55-1.93-7.1-.79-4.35-.89-3.92-1.79-3.06a2.71,2.71,0,0,1-1.13.57A6,6,0,0,0,24,21c-3.39,9.51-14,8.3-14,8.3L8.46,32.79a15.82,15.82,0,0,0,16.64-2.25c0,1.8-.14,3.35-.16,4.27a12.58,12.58,0,0,1-2.3,7.35,1.44,1.44,0,0,0,.3,2c2,1.45,5.86,3.69,7.47,1.09,1.89-3,2.08-10.48,2.08-10.48s1.78,10,4.26,11.09,5.24-1.82,6.49-3.27a1.21,1.21,0,0,0,.08-1.48,16,16,0,0,1-2.53-11.52C41.9,22,45.48,20.21,55.15,12.62Z"/><circle id="_Path_5" data-name="&lt;Path&gt;" class="cls-37" cx="32.48" cy="29.48" r="0.45"/><circle id="_Path_6" data-name="&lt;Path&gt;" class="cls-37" cx="32.48" cy="32.22" r="0.45"/><path id="_Path_7" data-name="&lt;Path&gt;" class="cls-29" d="M54.14,9.47s.53-.84,1.78,0a3.2,3.2,0,0,0,3.51-.07c.63-.53-.47,2.54-3.6,2Z"/><path id="_Path_8" data-name="&lt;Path&gt;" class="cls-36" d="M35.33,4.1c-.36-.46-2.65.75-5.12,2.7s-4.16,3.9-3.8,4.36,2.66-.75,5.11-2.7S35.7,4.56,35.33,4.1Z"/><path id="_Path_9" data-name="&lt;Path&gt;" class="cls-36" d="M32.78,6.34a.57.57,0,0,0,.06-1c-1.05-.7-2.87-1.6-3.69-.21-.64,1.08-2.4,1.18-1.91,2.58.81,2.35,2,1.72,2.91.7A9.59,9.59,0,0,1,32.78,6.34Z"/><path class="cls-38" d="M25.09,30.54V26.65s-1.62-1.62-2,1.95A6,6,0,0,1,20,33.36,17.66,17.66,0,0,0,25.09,30.54Z"/><path class="cls-39" d="M55.15,12.62l-.91-1.3c-.72.53-5.72,4.26-8.86,6.82C42,20.89,40.93,28.73,40.93,28.73h0C42.21,21.89,45.88,19.9,55.15,12.62Z"/></g></g></svg>