<svg xmlns="http://www.w3.org/2000/svg" xmlns:xlink="http://www.w3.org/1999/xlink" viewBox="0 0 64 64"><defs><style>.cls-1{isolation:isolate;}.cls-2{fill:url(#linear-gradient);}.cls-3{fill:url(#linear-gradient-2);}.cls-4{fill:url(#linear-gradient-3);}.cls-5{fill:url(#linear-gradient-4);}.cls-6{fill:url(#linear-gradient-5);}.cls-7{fill:url(#linear-gradient-6);}.cls-8{fill:url(#linear-gradient-7);}.cls-9{fill:url(#linear-gradient-8);}.cls-10{fill:url(#linear-gradient-9);}.cls-11{fill:url(#linear-gradient-10);}.cls-12{opacity:0.16;mix-blend-mode:color-burn;fill:url(#linear-gradient-11);}.cls-13{fill:url(#linear-gradient-12);}.cls-14{fill:url(#linear-gradient-13);}.cls-15{fill:url(#linear-gradient-14);}.cls-16{fill:url(#linear-gradient-15);}.cls-17{fill:url(#linear-gradient-16);}.cls-18{fill:url(#linear-gradient-17);}.cls-19{fill:url(#linear-gradient-18);}.cls-20{fill:url(#linear-gradient-19);}.cls-21{fill:url(#linear-gradient-20);}.cls-22{fill:url(#linear-gradient-21);}.cls-23{fill:url(#linear-gradient-22);}.cls-24{fill:url(#linear-gradient-23);}.cls-25{fill:url(#linear-gradient-24);}.cls-26{fill:url(#linear-gradient-25);}.cls-27{fill:url(#linear-gradient-26);}.cls-28{fill:#180075;}.cls-29{fill:url(#linear-gradient-27);}.cls-30{fill:url(#linear-gradient-28);}.cls-31{fill:url(#linear-gradient-29);}.cls-32{fill:url(#linear-gradient-30);}.cls-33{fill:url(#linear-gradient-31);}.cls-34{fill:#f9aa8f;}.cls-35{fill:url(#linear-gradient-32);}.cls-36{fill:url(#linear-gradient-33);}.cls-37{fill:url(#linear-gradient-34);}.cls-38{fill:url(#linear-gradient-35);}.cls-39{fill:url(#linear-gradient-36);}.cls-40{fill:url(#linear-gradient-37);}.cls-41{fill:url(#linear-gradient-38);}.cls-42{fill:url(#linear-gradient-39);}.cls-43{fill:url(#linear-gradient-40);}.cls-44{fill:url(#linear-gradient-41);}.cls-45{fill:url(#linear-gradient-42);}.cls-46{fill:url(#linear-gradient-43);}</style><linearGradient id="linear-gradient" x1="32" y1="97.25" x2="32" y2="9.14" gradientUnits="userSpaceOnUse"><stop offset="0.02" stop-color="#edd7ad"/><stop offset="0.52" stop-color="#ff9661"/><stop offset="1" stop-color="#e74a69"/></linearGradient><linearGradient id="linear-gradient-2" x1="42.18" y1="31.19" x2="29" y2="-45.69" xlink:href="#linear-gradient"/><linearGradient id="linear-gradient-3" x1="43.9" y1="31.85" x2="9.6" y2="-18.7" xlink:href="#linear-gradient"/><linearGradient id="linear-gradient-4" x1="50.28" y1="46.24" x2="17.6" y2="-0.22" xlink:href="#linear-gradient"/><linearGradient id="linear-gradient-5" x1="53.15" y1="48.58" x2="53.15" y2="22.08" xlink:href="#linear-gradient"/><linearGradient id="linear-gradient-6" x1="52.04" y1="34.46" x2="52.04" y2="22.58" xlink:href="#linear-gradient"/><linearGradient id="linear-gradient-7" x1="12.64" y1="30.83" x2="12.64" y2="-36.19" xlink:href="#linear-gradient"/><linearGradient id="linear-gradient-8" x1="12.64" y1="31.6" x2="12.64" y2="6" xlink:href="#linear-gradient"/><linearGradient id="linear-gradient-9" x1="7381.15" y1="23.94" x2="7381.15" y2="17.03" gradientTransform="translate(-7366.47)" xlink:href="#linear-gradient"/><linearGradient id="linear-gradient-10" x1="10.86" y1="34.49" x2="10.86" y2="23.66" xlink:href="#linear-gradient"/><linearGradient id="linear-gradient-11" x1="7384.5" y1="31.62" x2="7381.76" y2="31.09" gradientTransform="translate(-7366.47)" xlink:href="#linear-gradient"/><linearGradient id="linear-gradient-12" x1="6.56" y1="18.77" x2="6.56" y2="10.74" xlink:href="#linear-gradient"/><linearGradient id="linear-gradient-13" x1="7.95" y1="17.75" x2="7.95" y2="5.72" xlink:href="#linear-gradient"/><linearGradient id="linear-gradient-14" x1="31.71" y1="17.75" x2="31.71" y2="5.72" xlink:href="#linear-gradient"/><linearGradient id="linear-gradient-15" x1="37.5" y1="17.75" x2="37.5" y2="5.72" xlink:href="#linear-gradient"/><linearGradient id="linear-gradient-16" x1="12.68" y1="42.5" x2="12.68" y2="21.8" xlink:href="#linear-gradient"/><linearGradient id="linear-gradient-17" x1="7380.59" y1="25.43" x2="7380.59" y2="19.03" gradientTransform="translate(-7366.47)" xlink:href="#linear-gradient"/><linearGradient id="linear-gradient-18" x1="7381.58" y1="25.43" x2="7381.58" y2="19.03" gradientTransform="translate(-7366.47)" xlink:href="#linear-gradient"/><linearGradient id="linear-gradient-19" x1="7379.69" y1="25.43" x2="7379.69" y2="19.03" gradientTransform="translate(-7366.47)" xlink:href="#linear-gradient"/><linearGradient id="linear-gradient-20" x1="7382.48" y1="25.43" x2="7382.48" y2="19.03" gradientTransform="translate(-7366.47)" xlink:href="#linear-gradient"/><linearGradient id="linear-gradient-21" x1="7381.08" y1="24.96" x2="7381.08" y2="20.79" gradientTransform="translate(-7366.47)" xlink:href="#linear-gradient"/><linearGradient id="linear-gradient-22" x1="-355.6" y1="29.19" x2="-355.6" y2="16.05" gradientTransform="matrix(-1, 0, 0, 1, -302.01, 0)" xlink:href="#linear-gradient"/><linearGradient id="linear-gradient-23" x1="-354.83" y1="24.79" x2="-359.63" y2="23.16" gradientTransform="matrix(-1, 0, 0, 1, -302.01, 0)" xlink:href="#linear-gradient"/><linearGradient id="linear-gradient-24" x1="-347.82" y1="24.51" x2="-347.82" y2="11.38" gradientTransform="matrix(-1, 0, 0, 1, -302.01, 0)" xlink:href="#linear-gradient"/><linearGradient id="linear-gradient-25" x1="-347.05" y1="20.11" x2="-351.85" y2="18.48" gradientTransform="matrix(-1, 0, 0, 1, -302.01, 0)" xlink:href="#linear-gradient"/><linearGradient id="linear-gradient-26" x1="36.48" y1="70.25" x2="42" y2="45.8" gradientUnits="userSpaceOnUse"><stop offset="0" stop-color="#2459a2"/><stop offset="0.13" stop-color="#2c52a2"/><stop offset="0.54" stop-color="#423fa2"/><stop offset="0.8" stop-color="#322f80"/><stop offset="1" stop-color="#27256a"/></linearGradient><linearGradient id="linear-gradient-27" x1="48.24" y1="64.65" x2="40.47" y2="48.63" xlink:href="#linear-gradient-26"/><linearGradient id="linear-gradient-28" x1="36.13" y1="64.16" x2="36.13" y2="34.3" gradientUnits="userSpaceOnUse"><stop offset="0" stop-color="#182ebd"/><stop offset="0.58" stop-color="#0d1226"/></linearGradient><linearGradient id="linear-gradient-29" x1="45.62" y1="29.47" x2="38.88" y2="26.44" gradientUnits="userSpaceOnUse"><stop offset="0" stop-color="#fbc19e"/><stop offset="0.48" stop-color="#ffb699"/><stop offset="1" stop-color="#f47e6d"/></linearGradient><linearGradient id="linear-gradient-30" x1="15.62" y1="60.11" x2="15.62" y2="43.94" xlink:href="#linear-gradient-26"/><linearGradient id="linear-gradient-31" x1="20.8" y1="67.83" x2="20.8" y2="36.87" xlink:href="#linear-gradient-26"/><linearGradient id="linear-gradient-32" x1="32.72" y1="15.24" x2="20.32" y2="9.67" xlink:href="#linear-gradient-29"/><linearGradient id="linear-gradient-33" x1="29.95" y1="12.47" x2="19.44" y2="9" gradientUnits="userSpaceOnUse"><stop offset="0.01" stop-color="#b55b00"/><stop offset="0.42" stop-color="#b54c00"/><stop offset="1" stop-color="#8e3200"/></linearGradient><linearGradient id="linear-gradient-34" x1="17.36" y1="18.31" x2="20.45" y2="12.39" xlink:href="#linear-gradient-33"/><linearGradient id="linear-gradient-35" x1="-9.06" y1="40.99" x2="14.19" y2="28.29" xlink:href="#linear-gradient-26"/><linearGradient id="linear-gradient-36" x1="-8.08" y1="50.24" x2="15.73" y2="26.43" xlink:href="#linear-gradient-26"/><linearGradient id="linear-gradient-37" x1="48.48" y1="31.17" x2="7.07" y2="28.54" xlink:href="#linear-gradient-26"/><linearGradient id="linear-gradient-38" x1="-19.14" y1="42.25" x2="25.7" y2="28.18" xlink:href="#linear-gradient-26"/><linearGradient id="linear-gradient-39" x1="2.3" y1="31.56" x2="17.92" y2="31.56" xlink:href="#linear-gradient-26"/><linearGradient id="linear-gradient-40" x1="-4.45" y1="31.58" x2="5.87" y2="31.58" xlink:href="#linear-gradient-26"/><linearGradient id="linear-gradient-41" x1="14.2" y1="31.7" x2="8.62" y2="31.7" xlink:href="#linear-gradient-26"/><linearGradient id="linear-gradient-42" x1="2.12" y1="31.55" x2="9.98" y2="31.55" gradientUnits="userSpaceOnUse"><stop offset="0.01" stop-color="#ffc00f"/><stop offset="0.49" stop-color="#ff9c0f"/><stop offset="1" stop-color="#ff5d0f"/></linearGradient><linearGradient id="linear-gradient-43" x1="44.87" y1="11.54" x2="19.02" y2="29.37" xlink:href="#linear-gradient-26"/></defs><title>pilot</title><g class="cls-1"><g id="Layer_1" data-name="Layer 1"><circle class="cls-2" cx="32" cy="32" r="28"/><path class="cls-3" d="M60,32a27.87,27.87,0,0,0-5.59-16.79H26.75a2,2,0,0,0-2,2V35a1.82,1.82,0,0,0,1.82,1.82h33A28.14,28.14,0,0,0,60,32Z"/><path class="cls-4" d="M53.62,24.13a7.67,7.67,0,0,0-8.78,3,7.7,7.7,0,0,0-4-.09,7.67,7.67,0,0,0-13.2-.46,7.62,7.62,0,0,0-2.86-1.06v9.33a1.91,1.91,0,0,0,1.91,1.91h30a7.65,7.65,0,0,0,2.09-4.09A7.62,7.62,0,0,0,60,33c0-.33,0-.65,0-1a27.87,27.87,0,0,0-3.16-12.91A7.66,7.66,0,0,0,53.62,24.13Z"/><path class="cls-5" d="M59.91,34.16H41.44V32.29a3.57,3.57,0,0,0-3.57-3.57.91.91,0,0,0-.91.91v3.69H34.34V32.06H27.68V31.4H26.48V28.1H24.75v7.14a1.54,1.54,0,0,0,1.54,1.54H59.59Q59.81,35.49,59.91,34.16Z"/><path class="cls-6" d="M52.54,28.66l-1.71,1.12a7.72,7.72,0,0,1-1.29.68l-.55.23a4.62,4.62,0,0,0-2.46,2.38,2.64,2.64,0,0,0,2.41,3.72H59.59a27.91,27.91,0,0,0,.11-8.93h-4.4A5,5,0,0,0,52.54,28.66Z"/><path class="cls-7" d="M53.62,30.47h-3.5a.7.7,0,0,1-.37-.1,7.73,7.73,0,0,0,1.08-.59l1.1-.72h1.68a.71.71,0,0,1,.71.71h0A.71.71,0,0,1,53.62,30.47Z"/><path class="cls-8" d="M19.16,15.22H9.58A27.87,27.87,0,0,0,4,32a28.16,28.16,0,0,0,.42,4.79H19.16a2.13,2.13,0,0,0,2.13-2.13V17.35A2.13,2.13,0,0,0,19.16,15.22Z"/><path class="cls-9" d="M18.42,25.81A7.67,7.67,0,0,0,6.59,28.49H6.21a7.69,7.69,0,0,0-1.67-2,28,28,0,0,0-.13,10.32H21.29V25.48l-.57,0A7.66,7.66,0,0,0,18.42,25.81Z"/><path class="cls-10" d="M15.08,21.77l-.4.4-.4-.4.36-4.1a0,0,0,0,1,.09,0Z"/><path class="cls-11" d="M11.56,31.49,9.9,32.7a1.13,1.13,0,0,1-1.16.1L7,31.94a1.49,1.49,0,0,0-1.66.23h0a1,1,0,0,1-1.19.12L4,32.2a28.13,28.13,0,0,0,.41,4.58H17.28l.43-3.25-5-2.17A1.15,1.15,0,0,0,11.56,31.49Z"/><polygon class="cls-12" points="15.3 29.8 15.3 32.67 16.08 32.67 16.77 29.8 15.3 29.8"/><path class="cls-13" d="M6.35,20.81h.43a.48.48,0,0,0-.26-.42l-.19.42Z"/><path class="cls-14" d="M7.24,21.49h.08a.31.31,0,0,0,.22-.05.89.89,0,0,1,1.26.24.14.14,0,0,0,.12.06h0a.43.43,0,0,1,.43.43H6.55A.68.68,0,0,1,7.24,21.49Z"/><path class="cls-15" d="M33.2,20.32H33a.65.65,0,0,1-.45-.11,1.86,1.86,0,0,0-2.62.5.3.3,0,0,1-.25.13h0a.89.89,0,0,0-.89.89h5.82A1.42,1.42,0,0,0,33.2,20.32Z"/><path class="cls-16" d="M39,18.44h-.17a.65.65,0,0,1-.45-.11,1.86,1.86,0,0,0-2.62.5.3.3,0,0,1-.25.13h0a.89.89,0,0,0-.89.89h5.82A1.42,1.42,0,0,0,39,18.44Z"/><path class="cls-17" d="M20,32.68H19V32H17.68V29.8H15.76l-.51-5.14a.2.2,0,0,1,.2-.22.64.64,0,0,0,.62-.46l.51-1.8H12.64l.51,1.8a.64.64,0,0,0,.62.46.2.2,0,0,1,.2.22l-.81,8.16h-.86a2.69,2.69,0,0,0-1.9.79l-.6.6H4.09q.1,1.31.32,2.58H21.27V28.1H20Z"/><polygon class="cls-18" points="13.93 23.46 14.55 23.46 14.55 22.17 13.69 22.17 13.93 23.46"/><polygon class="cls-19" points="15.54 22.17 14.68 22.17 14.68 23.46 15.3 23.46 15.54 22.17"/><polygon class="cls-20" points="13.56 22.17 12.64 22.17 13.01 23.46 13.8 23.46 13.56 22.17"/><polygon class="cls-21" points="15.67 22.17 15.43 23.46 16.22 23.46 16.59 22.17 15.67 22.17"/><path class="cls-22" d="M12.87,21.6h3.48a.33.33,0,0,1,.33.33v.16a.08.08,0,0,1-.08.08h-4a.08.08,0,0,1-.08-.08v-.16A.33.33,0,0,1,12.87,21.6Z"/><path class="cls-23" d="M51.49,23.9a.18.18,0,0,1,.17-.12h.67a.9.9,0,0,1,.38.08l2.34,1a.22.22,0,0,0,.19,0l.19-.1a.19.19,0,0,1,.17,0l.06,0a.08.08,0,0,1,0,.13l-.4.39a.21.21,0,0,1-.22,0l-.84-.3-1.39-.47-1.25-.45A.18.18,0,0,1,51.49,23.9Z"/><path class="cls-24" d="M52.79,24.56l2-.87a.35.35,0,0,1,.25,0h0a.08.08,0,0,1,0,.13l-1.33,1.07"/><path class="cls-25" d="M43.71,19.22a.18.18,0,0,1,.17-.12h.67a.9.9,0,0,1,.38.08l2.34,1a.22.22,0,0,0,.19,0l.19-.1a.19.19,0,0,1,.17,0l.06,0a.08.08,0,0,1,0,.13l-.4.39a.21.21,0,0,1-.22,0l-.84-.3-1.39-.47-1.25-.45A.18.18,0,0,1,43.71,19.22Z"/><path class="cls-26" d="M45,19.89,47,19a.35.35,0,0,1,.25,0h0a.08.08,0,0,1,0,.13L46,20.21"/><path class="cls-27" d="M32.1,53.16V60a27.86,27.86,0,0,0,16.28-5.3,8.65,8.65,0,0,0-8.79-7.64H38.2A6.12,6.12,0,0,0,32.1,53.16Z"/><path class="cls-28" d="M48.43,55.64v-.15s0,.05,0,.08S48.43,55.61,48.43,55.64Z"/><path class="cls-29" d="M41.35,49.25a6.07,6.07,0,0,0-1.43,3.91v5.69a27.88,27.88,0,0,0,8.45-4.15,8.38,8.38,0,0,0-3.31-5.84A2.71,2.71,0,0,0,41.35,49.25Z"/><path class="cls-30" d="M38.35,54.8h-.09a.5.5,0,0,1-.5-.5V35.72a.64.64,0,0,0-.64-.64h-2a.64.64,0,0,0-.64.64V54.3a.5.5,0,0,1-.5.5h-.09a.5.5,0,0,1-.5-.5V35.15A1.15,1.15,0,0,1,34.57,34H37.7a1.15,1.15,0,0,1,1.15,1.15V54.3A.5.5,0,0,1,38.35,54.8Z"/><path class="cls-31" d="M38.28,26.59A10.57,10.57,0,0,1,41.71,25c1.57-.29-.74,1-.86,1.43s.71,2.26-2.46,2.83"/><path class="cls-32" d="M10.85,44.29s.11,2.85.32,6.42a28.1,28.1,0,0,0,8,6.2c.16-1.06.31-2.1.42-3.09a96,96,0,0,0,.68-15.46Z"/><path class="cls-33" d="M16.37,55.24a27.86,27.86,0,0,0,8.74,3.91c1.06-9.33,1.53-17.45,1.53-17.45L15.45,37C14.32,41,15.37,49.33,16.37,55.24Z"/><path class="cls-34" d="M25.33,9.59,24.18,5.16a1.17,1.17,0,0,0-.51-.57c-1.85-1-4.85,1.16-6,2.15a1.17,1.17,0,0,0-.41,1.1l.34,1.91a3.71,3.71,0,0,1-2,4l-.09,0,2.93,5.34,4.79-1s-2.21-4.59.62-5.61a1.09,1.09,0,0,0,.85-1.06v-.32a1,1,0,0,1,.41-.8l.05,0A.68.68,0,0,0,25.33,9.59Z"/><path class="cls-35" d="M24.27,7.06c.11,0,.24-.18.32-.3l-.28-1.09L20.15,7.86l-1.57,5.91,1.65,1.65,2.49-2a2,2,0,0,1,1-.81c.06-.16.57-1.53.26-1.46s-.87-.29-1.07-1.44,1-1.59,1.22-1.25a4,4,0,0,1,.45,2.35l.13-.06.08,0a1,1,0,0,1,.31-.35c-.11.09-.33-.1-.14-.48S24.1,7.07,24.27,7.06Z"/><path class="cls-36" d="M24.93,10.44s-1.25,1.19-1.84.57-1.56-3.37-.31-3.9S25.14,6,24.65,5s-3.47-1.23-5.48-.79S16,7.34,16.86,9.47s.53,2.15.53,2.15l3.24.5a1.22,1.22,0,0,0,.26-1.44c-.4-.9.83-1.34,1.06-.44s.43,4.05,1.42,5.54,3,1.6,2.72-.33A47.84,47.84,0,0,0,24.93,10.44Z"/><path class="cls-37" d="M23.09,11c-.59-.63-1.56-3.37-.31-3.9l.08,0c-.37.16-3.43,1.44-3,.76s.45-1.72-1.79-.9-.67-1.48-.65-1.5a4.29,4.29,0,0,0-.53,4.05c.86,2.14.53,2.15.53,2.15l3.24.5a1.22,1.22,0,0,0,.26-1.44c-.4-.9.83-1.34,1.06-.44s.43,4.05,1.42,5.54a2.76,2.76,0,0,0,.83.81l.36,0c1.48.11.09-2.72-.15-4a2.58,2.58,0,0,1,.53-2.13S23.68,11.63,23.09,11Z"/><path id="_Path_" data-name="&lt;Path&gt;" class="cls-38" d="M12.13,16.09s-9.48,8.81-8,17.57A12.46,12.46,0,0,0,11.66,43l1.86-5.69S11,34.73,11.16,32.45A36.74,36.74,0,0,1,13,25.54"/><path class="cls-39" d="M12.26,41.17l1.26-3.86S11,34.73,11.16,32.45A36.74,36.74,0,0,1,13,25.54l0-.44c-.59-3.15-1.44-5.16-2.69-3.68-3.41,4-1.09,3.45-3.74,5.71s-1.15-1.57-1.09-1.72a14.44,14.44,0,0,0-1.3,8.25,12.39,12.39,0,0,0,6.55,8.91Z"/><path class="cls-40" d="M28.88,42.48l-.51-2.86-.63-3.54L24.35,17.25q-.05-.25-.13-.49a5.51,5.51,0,0,1-.28-1.63v-.2a1.09,1.09,0,0,1,0-.18.85.85,0,0,0-.18-.67c-2.09-2.55-5.38-2.56-6.79-2.43a1.17,1.17,0,0,0-.89.56,16.65,16.65,0,0,1-2.9,3h0a9,9,0,0,0-3.61,9.07s1.56,10.63.16,19.11c-.51,3.13,3,3.59,7.15,3.1a65.82,65.82,0,0,0,11.2-2.65A1.16,1.16,0,0,0,28.88,42.48Z"/><path class="cls-41" d="M12,16.22a8.92,8.92,0,0,0-2.42,8s1.56,10.63.16,19.11c-.51,3.13,3,3.59,7.15,3.1a51.91,51.91,0,0,0,6.78-1.36c-6,1.46-4.36-3.66-.19-7.46s-3-4.66-3.16-8.6,6.33,1.75,6.33,1.75l-6.24-15C17.9,18.88,14.71,16.39,12,16.22Z"/><path id="_Path_2" data-name="&lt;Path&gt;" class="cls-42" d="M9.86,27.13l-.53-.26a2,2,0,0,0-2.52.75L5.06,30.55a2,2,0,0,0,0,2L7,35.53a2,2,0,0,0,2.18.83L10.32,36"/><path id="_Path_3" data-name="&lt;Path&gt;" class="cls-43" d="M9.86,27.13s-2.13.94-2.13,4.55S10.32,36,10.32,36,10.1,29.34,9.86,27.13Z"/><path class="cls-44" d="M10.29,35.17c-.06-1.55-.18-4.87-.33-6.94A5.89,5.89,0,0,0,9,31.68,4.73,4.73,0,0,0,10.29,35.17Z"/><circle id="_Path_4" data-name="&lt;Path&gt;" class="cls-45" cx="6.49" cy="31.55" r="0.77"/><path class="cls-46" d="M22.31,15s2,.2,7.46,8,8.23,2.71,8.66,3.33.61,1,.33,2.47c-.57,3.07-14.35,7.4-18-6.33C19.17,16.3,20.32,12.57,22.31,15Z"/></g></g></svg>