<svg id="Layer_1" data-name="Layer 1" xmlns="http://www.w3.org/2000/svg" xmlns:xlink="http://www.w3.org/1999/xlink" viewBox="0 0 64 64"><defs><style>.cls-1{fill:url(#linear-gradient);}.cls-2{fill:url(#linear-gradient-2);}.cls-3{fill:url(#linear-gradient-3);}.cls-4{fill:url(#linear-gradient-4);}.cls-5{fill:url(#linear-gradient-5);}.cls-6{fill:url(#linear-gradient-6);}.cls-7{fill:url(#linear-gradient-7);}.cls-8{fill:url(#linear-gradient-8);}.cls-9{fill:url(#linear-gradient-9);}.cls-10{fill:url(#linear-gradient-10);}.cls-11{fill:url(#linear-gradient-11);}.cls-12{fill:url(#linear-gradient-12);}.cls-13{fill:url(#linear-gradient-13);}.cls-14{fill:url(#linear-gradient-14);}.cls-15{fill:url(#linear-gradient-15);}.cls-16{fill:url(#linear-gradient-16);}.cls-17{fill:url(#linear-gradient-17);}.cls-18{fill:url(#linear-gradient-18);}.cls-19{fill:url(#linear-gradient-19);}.cls-20{fill:url(#linear-gradient-20);}.cls-21{fill:url(#linear-gradient-21);}.cls-22{fill:url(#linear-gradient-22);}.cls-23{fill:url(#linear-gradient-23);}.cls-24{fill:url(#linear-gradient-24);}.cls-25{fill:url(#linear-gradient-60);}.cls-26{fill:url(#linear-gradient-61);}.cls-27{fill:url(#linear-gradient-62);}.cls-28{fill:url(#linear-gradient-63);}.cls-29{fill:url(#linear-gradient-64);}.cls-30{fill:url(#linear-gradient-65);}.cls-31{fill:url(#linear-gradient-66);}.cls-32{fill:url(#linear-gradient-67);}.cls-33{fill:url(#linear-gradient-68);}.cls-34{fill:url(#linear-gradient-69);}.cls-35{fill:url(#linear-gradient-70);}.cls-36{fill:url(#linear-gradient-71);}.cls-37{fill:url(#linear-gradient-72);}.cls-38{fill:url(#linear-gradient-73);}.cls-39{fill:url(#linear-gradient-74);}.cls-40{fill:#f9aa8f;}.cls-41{fill:url(#linear-gradient-75);}.cls-42{fill:url(#linear-gradient-76);}.cls-43{fill:url(#linear-gradient-77);}.cls-44{fill:url(#linear-gradient-78);}.cls-45{fill:url(#linear-gradient-79);}.cls-46{fill:url(#linear-gradient-80);}.cls-47{fill:url(#linear-gradient-81);}.cls-48{fill:url(#linear-gradient-82);}.cls-49{fill:url(#linear-gradient-83);}.cls-50{fill:url(#linear-gradient-84);}.cls-51{fill:url(#linear-gradient-85);}.cls-52{fill:url(#linear-gradient-86);}.cls-53{fill:url(#linear-gradient-87);}.cls-54{fill:url(#linear-gradient-88);}.cls-55{fill:url(#linear-gradient-89);}.cls-56{fill:url(#linear-gradient-90);}.cls-57{fill:url(#linear-gradient-91);}.cls-58{fill:url(#linear-gradient-92);}.cls-59{fill:url(#linear-gradient-93);}.cls-60{fill:url(#linear-gradient-94);}.cls-61{fill:url(#linear-gradient-95);}.cls-62{fill:url(#linear-gradient-96);}.cls-63{fill:url(#linear-gradient-97);}.cls-64{fill:url(#linear-gradient-98);}.cls-65{fill:url(#linear-gradient-99);}.cls-66{fill:url(#linear-gradient-100);}.cls-67{fill:url(#linear-gradient-101);}.cls-68{fill:url(#linear-gradient-102);}.cls-69{fill:url(#linear-gradient-103);}.cls-70{fill:url(#linear-gradient-104);}.cls-71{fill:url(#linear-gradient-105);}.cls-72{fill:url(#linear-gradient-106);}.cls-73{fill:url(#linear-gradient-107);}</style><linearGradient id="linear-gradient" x1="32" y1="42.67" x2="32" y2="-0.16" gradientUnits="userSpaceOnUse"><stop offset="0.02" stop-color="#edd7ad"/><stop offset="0.52" stop-color="#dd8c93"/><stop offset="1" stop-color="#cb1e45"/></linearGradient><linearGradient id="linear-gradient-2" x1="49.47" y1="49.06" x2="49.47" y2="-11.24" gradientUnits="userSpaceOnUse"><stop offset="0.02" stop-color="#edd7ad"/><stop offset="0.52" stop-color="#ff9661"/><stop offset="1" stop-color="#e74a69"/></linearGradient><linearGradient id="linear-gradient-3" x1="2269.61" y1="33.76" x2="2269.61" y2="-11.25" gradientTransform="matrix(-1, 0, 0, 1, 2318, 0)" xlink:href="#linear-gradient-2"/><linearGradient id="linear-gradient-4" x1="2266.13" y1="33.76" x2="2266.13" y2="-11.25" gradientTransform="matrix(-1, 0, 0, 1, 2318, 0)" xlink:href="#linear-gradient-2"/><linearGradient id="linear-gradient-5" x1="2276.09" y1="33.76" x2="2276.09" y2="-11.25" gradientTransform="matrix(-1, 0, 0, 1, 2318, 0)" xlink:href="#linear-gradient-2"/><linearGradient id="linear-gradient-6" x1="2265.47" y1="33.76" x2="2265.47" y2="-11.25" gradientTransform="matrix(-1, 0, 0, 1, 2318, 0)" xlink:href="#linear-gradient-2"/><linearGradient id="linear-gradient-7" x1="49.47" y1="43.46" x2="49.47" y2="24.7" xlink:href="#linear-gradient-2"/><linearGradient id="linear-gradient-8" x1="2264" y1="39.36" x2="2264" y2="22.21" gradientTransform="matrix(-1, 0, 0, 1, 2318, 0)" xlink:href="#linear-gradient-2"/><linearGradient id="linear-gradient-9" x1="20.71" y1="49.06" x2="20.71" y2="-11.24" xlink:href="#linear-gradient-2"/><linearGradient id="linear-gradient-10" x1="11.39" y1="35.41" x2="11.39" y2="-3.72" xlink:href="#linear-gradient-2"/><linearGradient id="linear-gradient-11" x1="8.11" y1="32.5" x2="8.11" y2="5.72" xlink:href="#linear-gradient-2"/><linearGradient id="linear-gradient-12" x1="2288.93" y1="40.44" x2="2288.93" y2="-14.96" gradientTransform="matrix(-1, 0, 0, 1, 2318, 0)" xlink:href="#linear-gradient-2"/><linearGradient id="linear-gradient-13" x1="2286.83" y1="40.44" x2="2286.83" y2="-14.96" gradientTransform="matrix(-1, 0, 0, 1, 2318, 0)" xlink:href="#linear-gradient-2"/><linearGradient id="linear-gradient-14" x1="2292.83" y1="40.44" x2="2292.83" y2="-14.96" gradientTransform="matrix(-1, 0, 0, 1, 2318, 0)" xlink:href="#linear-gradient-2"/><linearGradient id="linear-gradient-15" x1="2300.94" y1="40.44" x2="2300.94" y2="-14.96" gradientTransform="matrix(-1, 0, 0, 1, 2318, 0)" xlink:href="#linear-gradient-2"/><linearGradient id="linear-gradient-16" x1="2302.15" y1="40.44" x2="2302.15" y2="-14.96" gradientTransform="matrix(-1, 0, 0, 1, 2318, 0)" xlink:href="#linear-gradient-2"/><linearGradient id="linear-gradient-17" x1="2284.21" y1="40.44" x2="2284.21" y2="-14.96" gradientTransform="matrix(-1, 0, 0, 1, 2318, 0)" xlink:href="#linear-gradient-2"/><linearGradient id="linear-gradient-18" x1="10.53" y1="38.94" x2="10.53" y2="20.63" xlink:href="#linear-gradient-2"/><linearGradient id="linear-gradient-19" x1="21" y1="45.94" x2="21" y2="15.07" xlink:href="#linear-gradient-2"/><linearGradient id="linear-gradient-20" x1="2252.08" y1="41.59" x2="2252.08" y2="13.52" gradientTransform="translate(-2241.83)" xlink:href="#linear-gradient-2"/><linearGradient id="linear-gradient-21" x1="2253.26" y1="41.59" x2="2253.26" y2="13.52" gradientTransform="translate(-2241.83)" xlink:href="#linear-gradient-2"/><linearGradient id="linear-gradient-22" x1="2254.43" y1="41.59" x2="2254.43" y2="13.52" gradientTransform="translate(-2241.83)" xlink:href="#linear-gradient-2"/><linearGradient id="linear-gradient-23" x1="2255.61" y1="41.59" x2="2255.61" y2="13.52" gradientTransform="translate(-2241.83)" xlink:href="#linear-gradient-2"/><linearGradient id="linear-gradient-24" x1="2256.78" y1="41.59" x2="2256.78" y2="13.52" gradientTransform="translate(-2241.83)" xlink:href="#linear-gradient-2"/><linearGradient id="linear-gradient-60" x1="2264.19" y1="39.36" x2="2264.19" y2="22.21" gradientTransform="translate(-2241.83)" xlink:href="#linear-gradient-2"/><linearGradient id="linear-gradient-61" x1="8.82" y1="32.85" x2="16.9" y2="61.85" gradientUnits="userSpaceOnUse"><stop offset="0" stop-color="#7ff1a4"/><stop offset="0.52" stop-color="#2fbca4"/><stop offset="1" stop-color="#2f7da4"/></linearGradient><linearGradient id="linear-gradient-62" x1="7.43" y1="34.58" x2="16.76" y2="52.97" xlink:href="#linear-gradient-61"/><linearGradient id="linear-gradient-63" x1="-814.62" y1="-323.91" x2="-826.54" y2="-308.62" gradientTransform="matrix(0.91, -0.41, 0.41, 0.91, 889.42, -10.01)" xlink:href="#linear-gradient-61"/><linearGradient id="linear-gradient-64" x1="8.44" y1="42.29" x2="13.05" y2="58.87" xlink:href="#linear-gradient-61"/><linearGradient id="linear-gradient-65" x1="8.06" y1="42.57" x2="13.93" y2="54.14" xlink:href="#linear-gradient-61"/><linearGradient id="linear-gradient-66" x1="10.86" y1="45.44" x2="8.35" y2="48.67" xlink:href="#linear-gradient-61"/><linearGradient id="linear-gradient-67" x1="12.69" y1="41.06" x2="17.64" y2="58.82" xlink:href="#linear-gradient-61"/><linearGradient id="linear-gradient-68" x1="15.37" y1="45.75" x2="16.3" y2="49.07" xlink:href="#linear-gradient-61"/><linearGradient id="linear-gradient-69" x1="11.93" y1="42.42" x2="17.15" y2="52.69" xlink:href="#linear-gradient-61"/><linearGradient id="linear-gradient-70" x1="18.49" y1="41.3" x2="10.51" y2="51.54" xlink:href="#linear-gradient-61"/><linearGradient id="linear-gradient-71" x1="13.54" y1="58.31" x2="13.54" y2="38.23" gradientUnits="userSpaceOnUse"><stop offset="0" stop-color="#fff"/><stop offset="1" stop-color="#d1d3d4"/></linearGradient><linearGradient id="linear-gradient-72" x1="38.24" y1="2.93" x2="38.24" y2="8.99" xlink:href="#linear-gradient-2"/><linearGradient id="linear-gradient-73" x1="2279.76" y1="13.5" x2="2279.76" y2="-0.84" gradientTransform="matrix(-1, 0, 0, 1, 2318, 0)" xlink:href="#linear-gradient-2"/><linearGradient id="linear-gradient-74" x1="48.08" y1="38.62" x2="48.08" y2="20.08" gradientUnits="userSpaceOnUse"><stop offset="0" stop-color="#232262"/><stop offset="1"/></linearGradient><linearGradient id="linear-gradient-75" x1="38.53" y1="-46.84" x2="38.53" y2="93.05" gradientUnits="userSpaceOnUse"><stop offset="0" stop-color="#ff7d63"/><stop offset="0.52" stop-color="#ff5763"/><stop offset="1" stop-color="#8b3044"/></linearGradient><linearGradient id="linear-gradient-76" x1="22.29" y1="1.65" x2="25.54" y2="14.48" xlink:href="#linear-gradient-74"/><linearGradient id="linear-gradient-77" x1="5.61" y1="72.12" x2="12.24" y2="61.75" xlink:href="#linear-gradient-75"/><linearGradient id="linear-gradient-78" x1="23.07" y1="59.45" x2="28.92" y2="45.97" xlink:href="#linear-gradient-74"/><linearGradient id="linear-gradient-79" x1="61.19" y1="66.96" x2="-7.39" y2="14.23" xlink:href="#linear-gradient-75"/><linearGradient id="linear-gradient-80" x1="50.23" y1="75.42" x2="15.73" y2="27.42" xlink:href="#linear-gradient-75"/><linearGradient id="linear-gradient-81" x1="62.21" y1="47.06" x2="42.89" y2="36.31" gradientUnits="userSpaceOnUse"><stop offset="0" stop-color="#fcfbff"/><stop offset="0.48" stop-color="#f5ede9"/><stop offset="1" stop-color="#a5adbe"/></linearGradient><linearGradient id="linear-gradient-82" x1="43.19" y1="32.68" x2="22.82" y2="14.57" gradientUnits="userSpaceOnUse"><stop offset="0" stop-color="#fbc19e"/><stop offset="0.48" stop-color="#ffb699"/><stop offset="1" stop-color="#f47e6d"/></linearGradient><linearGradient id="linear-gradient-83" x1="31.55" y1="10.38" x2="17.21" y2="15.21" xlink:href="#linear-gradient-74"/><linearGradient id="linear-gradient-84" x1="23.98" y1="28.09" x2="24.98" y2="19.26" xlink:href="#linear-gradient-74"/><linearGradient id="linear-gradient-85" x1="73.12" y1="63.35" x2="-9.36" y2="20.46" xlink:href="#linear-gradient-75"/><linearGradient id="linear-gradient-86" x1="32.81" y1="13.79" x2="29.15" y2="37.69" xlink:href="#linear-gradient-82"/><linearGradient id="linear-gradient-87" x1="50.79" y1="27.27" x2="43.24" y2="27.27" gradientUnits="userSpaceOnUse"><stop offset="0" stop-color="#ffce28"/><stop offset="0.5" stop-color="#ff9328"/><stop offset="1" stop-color="#b03400"/></linearGradient><linearGradient id="linear-gradient-88" x1="234.13" y1="1048.3" x2="226.59" y2="1048.3" gradientTransform="translate(-183.35 -1021.02)" xlink:href="#linear-gradient-87"/><linearGradient id="linear-gradient-89" x1="-117.59" y1="2024.2" x2="-125.14" y2="2024.2" gradientTransform="translate(168.38 -1996.93)" xlink:href="#linear-gradient-87"/><linearGradient id="linear-gradient-90" x1="-910.15" y1="2693.5" x2="-917.69" y2="2693.5" gradientTransform="translate(-2646.17 -886.33) rotate(-90)" xlink:href="#linear-gradient-87"/><linearGradient id="linear-gradient-91" x1="-1931.17" y1="2876.84" x2="-1938.72" y2="2876.84" gradientTransform="translate(-2829.51 -1907.36) rotate(-90)" xlink:href="#linear-gradient-87"/><linearGradient id="linear-gradient-92" x1="-2907.08" y1="2525.12" x2="-2914.62" y2="2525.12" gradientTransform="translate(-2477.79 -2883.26) rotate(-90)" xlink:href="#linear-gradient-87"/><linearGradient id="linear-gradient-93" x1="47.33" y1="29.44" x2="47.33" y2="20.18" xlink:href="#linear-gradient-75"/><linearGradient id="linear-gradient-94" x1="54.46" y1="31.65" x2="46.92" y2="31.65" xlink:href="#linear-gradient-87"/><linearGradient id="linear-gradient-95" x1="235.13" y1="1053.92" x2="227.59" y2="1053.92" gradientTransform="translate(-180.67 -1022.27)" xlink:href="#linear-gradient-87"/><linearGradient id="linear-gradient-96" x1="-119.54" y1="2029.57" x2="-127.09" y2="2029.57" gradientTransform="translate(174 -1997.92)" xlink:href="#linear-gradient-87"/><linearGradient id="linear-gradient-97" x1="-914.52" y1="2697.17" x2="-922.07" y2="2697.17" gradientTransform="translate(-2646.17 -886.33) rotate(-90)" xlink:href="#linear-gradient-87"/><linearGradient id="linear-gradient-98" x1="-1936.8" y1="2877.84" x2="-1944.34" y2="2877.84" gradientTransform="translate(-2826.84 -1908.61) rotate(-90)" xlink:href="#linear-gradient-87"/><linearGradient id="linear-gradient-99" x1="-2912.45" y1="2523.17" x2="-2919.99" y2="2523.17" gradientTransform="translate(-2472.16 -2884.26) rotate(-90)" xlink:href="#linear-gradient-87"/><linearGradient id="linear-gradient-100" x1="51" y1="33.81" x2="51" y2="24.55" xlink:href="#linear-gradient-75"/><linearGradient id="linear-gradient-101" x1="49.23" y1="32.07" x2="41.69" y2="32.07" xlink:href="#linear-gradient-87"/><linearGradient id="linear-gradient-102" x1="230.39" y1="1051.67" x2="222.85" y2="1051.67" gradientTransform="translate(-181.16 -1019.6)" xlink:href="#linear-gradient-87"/><linearGradient id="linear-gradient-103" x1="-122.53" y1="2025.26" x2="-130.07" y2="2025.26" gradientTransform="translate(171.76 -1993.18)" xlink:href="#linear-gradient-87"/><linearGradient id="linear-gradient-104" x1="-914.95" y1="2691.94" x2="-922.49" y2="2691.94" gradientTransform="translate(-2646.17 -886.33) rotate(-90)" xlink:href="#linear-gradient-87"/><linearGradient id="linear-gradient-105" x1="-1934.55" y1="2873.1" x2="-1942.09" y2="2873.1" gradientTransform="translate(-2827.32 -1905.94) rotate(-90)" xlink:href="#linear-gradient-87"/><linearGradient id="linear-gradient-106" x1="-2908.13" y1="2520.18" x2="-2915.68" y2="2520.18" gradientTransform="translate(-2474.41 -2879.52) rotate(-90)" xlink:href="#linear-gradient-87"/><linearGradient id="linear-gradient-107" x1="46" y1="34.24" x2="46" y2="24.98" xlink:href="#linear-gradient-75"/></defs><title>decorating</title><circle class="cls-1" cx="32" cy="32" r="28"/><path class="cls-2" d="M60,32a27.86,27.86,0,0,0-5-16H40.71a1.78,1.78,0,0,0-1.78,1.78V39.62h20A28,28,0,0,0,60,32Z"/><path class="cls-3" d="M57,25.78a18,18,0,0,1-5.33.22c-2-.41-3,.44-4.32-.14a2.34,2.34,0,0,0-2.84.74c-.37.55-1.37,0-2.12.49a6.24,6.24,0,0,1-2.61.45S45.47,29.35,57,25.78Z"/><path class="cls-4" d="M56.65,21.68a8.22,8.22,0,0,1-3,.16c-1.13-.28-1.65.31-2.43-.09a1.12,1.12,0,0,0-1.55.51c-.18.38-.77,0-1.16.34a2.83,2.83,0,0,1-1.44.31S50.39,24.13,56.65,21.68Z"/><path class="cls-5" d="M39.14,23.67s3.78.62,5.54-.15A4.43,4.43,0,0,1,43.16,23a1.61,1.61,0,0,0-1.78,0c-.39.38-.58-.29-1,.07A4.73,4.73,0,0,1,39.14,23.67Z"/><path class="cls-6" d="M51.38,19.08a6.85,6.85,0,0,0,2.3-.55,2.39,2.39,0,0,1-.7,0,.81.81,0,0,0-.75.15c-.12.16-.28,0-.42.12A1.92,1.92,0,0,1,51.38,19.08Z"/><path class="cls-7" d="M60,32a28.3,28.3,0,0,0-.16-3v4.72h-1.2a.55.55,0,0,0-.55.55v1.15H53.87v-3a.61.61,0,0,0-.61-.61H49.91V30A3.08,3.08,0,0,0,46.83,27H43.48v7.92H38.93v4.73h20A28,28,0,0,0,60,32Z"/><path class="cls-8" d="M53.25,31.88a.61.61,0,0,1,.61.61v3h4.22v.15a2.68,2.68,0,0,1-2.68,2.73H53.59V37.23H49.91V31.88Z"/><path class="cls-9" d="M35.64,16H9a28,28,0,0,0-4,23.65H37.42V17.75A1.78,1.78,0,0,0,35.64,16Z"/><path class="cls-10" d="M16.08,23.31C12.29,22,9.1,20,8.18,18.65a2.38,2.38,0,0,0-.49-.52c-.35.61-.68,1.24-1,1.88C12,22.15,16.08,23.31,16.08,23.31Z"/><path class="cls-11" d="M11.09,25.07a9.17,9.17,0,0,1-4.41-1.6,2.68,2.68,0,0,0-1.16-.56q-.2.59-.38,1.18A52.8,52.8,0,0,0,11.09,25.07Z"/><path class="cls-12" d="M20.46,25.78a18,18,0,0,0,5.33.22c2-.41,3,.44,4.32-.14a2.34,2.34,0,0,1,2.84.74c.37.55,1.37,0,2.12.49a6.24,6.24,0,0,0,2.61.45S32,29.35,20.46,25.78Z"/><path class="cls-13" d="M26.4,22.48a8.22,8.22,0,0,0,3,.16c1.13-.28,1.65.31,2.43-.09a1.12,1.12,0,0,1,1.55.51c.18.38.77,0,1.16.34a2.83,2.83,0,0,0,1.44.31S32.66,24.93,26.4,22.48Z"/><path class="cls-14" d="M27.87,19.32s-3.83-.13-5.4-1.23a4.43,4.43,0,0,0,1.59-.21,1.61,1.61,0,0,1,1.75.31c.31.45.62-.17,1,.27A4.73,4.73,0,0,0,27.87,19.32Z"/><path class="cls-15" d="M15.46,18.63a9.37,9.37,0,0,0,3.2.53,3.27,3.27,0,0,1-.86-.42,1.11,1.11,0,0,0-1-.21c-.23.14-.32-.21-.59-.08A2.62,2.62,0,0,1,15.46,18.63Z"/><path class="cls-16" d="M14.25,25a9.37,9.37,0,0,0,3.2.53,3.27,3.27,0,0,1-.86-.42,1.11,1.11,0,0,0-1-.21c-.23.14-.32-.21-.59-.08A2.62,2.62,0,0,1,14.25,25Z"/><path class="cls-17" d="M35,17.81a6.85,6.85,0,0,1-2.37-.11,2.39,2.39,0,0,0,.68-.17.81.81,0,0,1,.77,0c.15.14.26-.1.43,0A1.92,1.92,0,0,0,35,17.81Z"/><path class="cls-18" d="M16.71,35.78H7.27v-4H6V29.11a1.73,1.73,0,0,0-1.66-1.72,27.91,27.91,0,0,0,.67,12.23h12Z"/><path class="cls-19" d="M32.88,18.8h-.05a6.38,6.38,0,0,0-6.38,6.38v6.7H23.1a.61.61,0,0,0-.61.61v3H18.27V34.32a.55.55,0,0,0-.55-.55h-1.2V27.06a.53.53,0,0,0-.53-.53H9a.53.53,0,0,0-.53.53V37.72H4.59c.13.64.3,1.28.47,1.9H37.42V34.89H32.88Z"/><rect class="cls-20" x="9.91" y="27.38" width="0.68" height="0.68" rx="0.05" ry="0.05"/><rect class="cls-21" x="11.09" y="27.38" width="0.68" height="0.68" rx="0.05" ry="0.05"/><rect class="cls-22" x="12.26" y="27.38" width="0.68" height="0.68" rx="0.05" ry="0.05"/><rect class="cls-23" x="13.43" y="27.38" width="0.68" height="0.68" rx="0.05" ry="0.05"/><rect class="cls-24" x="14.61" y="27.38" width="0.68" height="0.68" rx="0.05" ry="0.05"/><rect class="cls-20" x="9.91" y="28.62" width="0.68" height="0.68" rx="0.05" ry="0.05"/><rect class="cls-21" x="11.09" y="28.62" width="0.68" height="0.68" rx="0.05" ry="0.05"/><rect class="cls-22" x="12.26" y="28.62" width="0.68" height="0.68" rx="0.05" ry="0.05"/><rect class="cls-23" x="13.43" y="28.62" width="0.68" height="0.68" rx="0.05" ry="0.05"/><rect class="cls-24" x="14.61" y="28.62" width="0.68" height="0.68" rx="0.05" ry="0.05"/><rect class="cls-20" x="9.91" y="29.86" width="0.68" height="0.68" rx="0.05" ry="0.05"/><rect class="cls-21" x="11.09" y="29.86" width="0.68" height="0.68" rx="0.05" ry="0.05"/><rect class="cls-22" x="12.26" y="29.86" width="0.68" height="0.68" rx="0.05" ry="0.05"/><rect class="cls-23" x="13.43" y="29.86" width="0.68" height="0.68" rx="0.05" ry="0.05"/><rect class="cls-24" x="14.61" y="29.86" width="0.68" height="0.68" rx="0.05" ry="0.05"/><rect class="cls-20" x="9.91" y="31.09" width="0.68" height="0.68" rx="0.05" ry="0.05"/><rect class="cls-21" x="11.09" y="31.09" width="0.68" height="0.68" rx="0.05" ry="0.05"/><rect class="cls-22" x="12.26" y="31.09" width="0.68" height="0.68" rx="0.05" ry="0.05"/><rect class="cls-23" x="13.43" y="31.09" width="0.68" height="0.68" rx="0.05" ry="0.05"/><rect class="cls-24" x="14.61" y="31.09" width="0.68" height="0.68" rx="0.05" ry="0.05"/><rect class="cls-20" x="9.91" y="32.33" width="0.68" height="0.68" rx="0.05" ry="0.05"/><rect class="cls-21" x="11.09" y="32.33" width="0.68" height="0.68" rx="0.05" ry="0.05"/><rect class="cls-22" x="12.26" y="32.33" width="0.68" height="0.68" rx="0.05" ry="0.05"/><rect class="cls-23" x="13.43" y="32.33" width="0.68" height="0.68" rx="0.05" ry="0.05"/><rect class="cls-24" x="14.61" y="32.33" width="0.68" height="0.68" rx="0.05" ry="0.05"/><rect class="cls-20" x="9.91" y="33.57" width="0.68" height="0.68" rx="0.05" ry="0.05"/><rect class="cls-21" x="11.09" y="33.57" width="0.68" height="0.68" rx="0.05" ry="0.05"/><rect class="cls-22" x="12.26" y="33.57" width="0.68" height="0.68" rx="0.05" ry="0.05"/><rect class="cls-23" x="13.43" y="33.57" width="0.68" height="0.68" rx="0.05" ry="0.05"/><rect class="cls-24" x="14.61" y="33.57" width="0.68" height="0.68" rx="0.05" ry="0.05"/><rect class="cls-20" x="9.91" y="34.8" width="0.68" height="0.68" rx="0.05" ry="0.05"/><rect class="cls-21" x="11.09" y="34.8" width="0.68" height="0.68" rx="0.05" ry="0.05"/><rect class="cls-22" x="12.26" y="34.8" width="0.68" height="0.68" rx="0.05" ry="0.05"/><rect class="cls-23" x="13.43" y="34.8" width="0.68" height="0.68" rx="0.05" ry="0.05"/><rect class="cls-24" x="14.61" y="34.8" width="0.68" height="0.68" rx="0.05" ry="0.05"/><rect class="cls-20" x="9.91" y="36.04" width="0.68" height="0.68" rx="0.05" ry="0.05"/><rect class="cls-21" x="11.09" y="36.04" width="0.68" height="0.68" rx="0.05" ry="0.05"/><rect class="cls-22" x="12.26" y="36.04" width="0.68" height="0.68" rx="0.05" ry="0.05"/><rect class="cls-23" x="13.43" y="36.04" width="0.68" height="0.68" rx="0.05" ry="0.05"/><rect class="cls-24" x="14.61" y="36.04" width="0.68" height="0.68" rx="0.05" ry="0.05"/><path class="cls-25" d="M23.1,31.88a.61.61,0,0,0-.61.61v3H18.27v.15a2.68,2.68,0,0,0,2.68,2.73h1.82V37.23h3.68V31.88Z"/><path class="cls-26" d="M13.13,39.46a.75.75,0,0,1-.14-.87l.21-.41a1,1,0,0,0,0-.87l-.34-.76a.66.66,0,0,1,0-.44l.17-.63a1.85,1.85,0,0,0-.1-1.25,1.2,1.2,0,0,0-1.75-.51h0a2.26,2.26,0,0,0-1,2.34l.18.86a.58.58,0,0,1-.44.68l-.65.15a1.07,1.07,0,0,0-.83,1.09l0,.39a2.55,2.55,0,0,0,.66,1.59l.2.22a1.79,1.79,0,0,1,.22,2.12h0A4.82,4.82,0,0,0,9.45,48l1.16,2.1.44.51L12.33,50l.79-1.33a3.9,3.9,0,0,0,.54-2.19,4.25,4.25,0,0,0-.38-1.54l-.21-.46A1.11,1.11,0,0,1,13.62,43a1.18,1.18,0,0,0,.68-.92,2.61,2.61,0,0,0-.75-2.2Z"/><path class="cls-27" d="M11.9,34.19a.48.48,0,0,0-.74-.47h0a2.26,2.26,0,0,0-1,2.34l.18.86a.58.58,0,0,1-.44.68l-.65.15a1.07,1.07,0,0,0-.83,1.09l0,.39a2.55,2.55,0,0,0,.66,1.59l.21.22a1.79,1.79,0,0,1,.22,2.12A4.82,4.82,0,0,0,9.45,48l1.16,2.1.44.51.69-.32.11-2.63-.36-2.45a2.5,2.5,0,0,1,.09-1.1,4,4,0,0,0-.41-3.29,1.36,1.36,0,0,1,.19-1.66h0a1.14,1.14,0,0,0,.32-.9L11.57,37a2.85,2.85,0,0,1,0-.67Z"/><path class="cls-28" d="M11.55,36.31a5.76,5.76,0,0,0-.09.94,9.16,9.16,0,0,0,.11.94,8,8,0,0,1,.1.92,4.37,4.37,0,0,1-.13.91l-.19.92-.16.8-.24-.43c-.12-.21-.23-.43-.37-.64a5,5,0,0,0-.45-.59l-.48-.56.45.58a5,5,0,0,1,.41.61c.12.21.22.44.33.66l.3.61a4.94,4.94,0,0,0-.13.84,3.71,3.71,0,0,0,.09,1l.22.92.06.25c-.09-.15-.17-.31-.26-.45A3.7,3.7,0,0,0,10.8,44l-.36-.41.33.43a3.65,3.65,0,0,1,.3.45c.09.16.16.32.24.48l.16.32.07.28a8.76,8.76,0,0,1,.18.91,6.59,6.59,0,0,1,.06.93c0,.31,0,.63,0,.94,0,.63,0,1.25,0,1.88.06-.62.1-1.25.15-1.87,0-.31,0-.62.06-.94a6.75,6.75,0,0,0,0-1c0-.08,0-.16,0-.24l.08-.43c0-.18.07-.36.11-.53a3.65,3.65,0,0,1,.17-.51l.21-.5-.24.49a3.7,3.7,0,0,0-.2.51c-.06.17-.09.35-.14.53l0,.17c0-.14-.05-.28-.09-.41l-.21-.92-.21-.92a3.45,3.45,0,0,1-.06-.41l.49-.49c.18-.17.34-.35.53-.51a5,5,0,0,1,.58-.44l.62-.4-.64.37a5,5,0,0,0-.61.42c-.19.15-.37.33-.56.49l-.42.37c0-.1,0-.2,0-.3a5.54,5.54,0,0,1,.13-.91l.18-.92.18-.92c0-.16.06-.3.09-.46a2.73,2.73,0,0,0,0-.48,8,8,0,0,0-.13-.94c0-.31-.12-.62-.14-.92a5.68,5.68,0,0,1,0-.93l.07-.94Z"/><path class="cls-29" d="M8.28,46.87a28.12,28.12,0,0,0,3.86,4.86l.11-1.41a2.76,2.76,0,0,0-1.17-2.48,1,1,0,0,1-.39-1.16l.05-.17a1.46,1.46,0,0,0,0-1l-.08-.21A.61.61,0,0,0,9.94,45L9.57,45a.33.33,0,0,1-.39-.25l-.11-.49a1.29,1.29,0,0,0-1.06-1H8A.69.69,0,0,0,7.2,44a1.06,1.06,0,0,0,.24.68l.24.29a.38.38,0,0,1,.09.24v.48a.58.58,0,0,0,.22.45l.2.16a.43.43,0,0,1,.13.49Z"/><path class="cls-30" d="M12.25,50.33a2.76,2.76,0,0,0-1.17-2.48,1,1,0,0,1-.39-1.16l.05-.17a1.46,1.46,0,0,0,0-1l-.08-.21A.61.61,0,0,0,9.94,45L9.57,45a.33.33,0,0,1-.39-.25l-.11-.49a1.29,1.29,0,0,0-1.06-1H8a.28.28,0,0,0-.27.42l.68,1.06a1.63,1.63,0,0,1,.17.34l.22.64a.65.65,0,0,0,.38.4.78.78,0,0,1,.49.82,2.29,2.29,0,0,0,.56,1.81,1.43,1.43,0,0,1,.31.55l.26.9c.44.51.89,1,1.36,1.47Z"/><path class="cls-31" d="M10.72,50.11a5,5,0,0,1-.12-.52l0-.16v-.21c0-.1,0-.21,0-.31a2.1,2.1,0,0,1,.05-.3l.07-.3-.09.3a2.11,2.11,0,0,0-.07.31c0,.1,0,.2,0,.3l0-.15-.1-.53a2.13,2.13,0,0,0-.18-.52,2.83,2.83,0,0,0-.26-.41v-.39c0-.14,0-.28,0-.42a2.84,2.84,0,0,1,.07-.41l.1-.41-.12.4a2.87,2.87,0,0,0-.09.41c0,.14,0,.28,0,.42l0,.28-.27-.38-.32-.44A2.5,2.5,0,0,1,9,46.24a4.58,4.58,0,0,1-.17-.5,5.24,5.24,0,0,0-.17-.52,3.29,3.29,0,0,0-.27-.47l-.29-.45.26.47a3.25,3.25,0,0,1,.24.48c.06.16.1.34.15.51a4.62,4.62,0,0,0,.15.52,1.56,1.56,0,0,0,.13.25l.16.22.31.44.31.44a3.17,3.17,0,0,1,.29.44l.07.16-.31-.1L9.46,48A2.86,2.86,0,0,0,9,47.94H9l0,0H9a2.83,2.83,0,0,1,.41.09l.4.14.37.14a2,2,0,0,1,.06.23l.11.53.11.53.05.23-.06-.08-.2-.24a2.12,2.12,0,0,0-.23-.22l-.14-.12,0,0,.1.09a2.09,2.09,0,0,1,.21.22l.18.25.15.2v0l.18.2Z"/><path class="cls-32" d="M15.74,41.1h0a1.59,1.59,0,0,0-1.17,1.35l-.07.61a.41.41,0,0,1-.44.36l-.47,0a.75.75,0,0,0-.8.55l-.07.26a1.79,1.79,0,0,0,.09,1.21l.09.2a1.26,1.26,0,0,1-.33,1.47,3.39,3.39,0,0,0-1.12,3.18l.17.93q.52.56,1.08,1.09l.23,0,.82-.71a2.74,2.74,0,0,0,.85-1.34,3,3,0,0,0,.09-1.11l0-.36a.78.78,0,0,1,.69-.86.83.83,0,0,0,.66-.46,1.84,1.84,0,0,0,0-1.64l-.19-.37a.53.53,0,0,1,.1-.61l.23-.23a.71.71,0,0,0,.21-.58l-.06-.58a.46.46,0,0,1,.07-.3l.25-.38a1.31,1.31,0,0,0,.21-.86A.84.84,0,0,0,15.74,41.1Z"/><path class="cls-33" d="M15.32,47.85a.83.83,0,0,0,.66-.46,1.84,1.84,0,0,0,0-1.64"/><path class="cls-34" d="M15.74,41.1h0a1.59,1.59,0,0,0-1.17,1.35l-.07.61a.41.41,0,0,1-.44.36l-.47,0a.75.75,0,0,0-.8.55l-.07.26a1.79,1.79,0,0,0,.09,1.21l.09.2a1.26,1.26,0,0,1-.33,1.47,3.39,3.39,0,0,0-1.11,3.18l.17.93q.45.48.92.93l.59-1.55.31-1.72a1.76,1.76,0,0,1,.3-.72,2.82,2.82,0,0,0,.46-2.29,1,1,0,0,1,.5-1.07.8.8,0,0,0,.42-.53l.19-.82a2,2,0,0,1,.16-.44l.69-1.38A.34.34,0,0,0,15.74,41.1Z"/><path class="cls-35" d="M14.07,46.62l.32-.58.32-.58.16-.29a1.92,1.92,0,0,0,.13-.32,5.64,5.64,0,0,0,.12-.66c0-.22.06-.44.11-.65a4,4,0,0,1,.23-.61l.26-.61-.3.59a4.06,4.06,0,0,0-.27.61,6.46,6.46,0,0,0-.14.65,5.62,5.62,0,0,1-.14.64,3.07,3.07,0,0,1-.29.58l-.33.57-.29.5-.07-.34c0-.17-.06-.34-.1-.51a3.53,3.53,0,0,0-.17-.49l-.2-.48.17.49a3.5,3.5,0,0,1,.14.5c0,.17.05.34.08.51l.06.48a3.48,3.48,0,0,0-.27.53,2.61,2.61,0,0,0-.15.66l-.06.66,0,.18c0-.12,0-.24-.07-.36a2.6,2.6,0,0,0-.12-.36l-.15-.35.13.36a2.57,2.57,0,0,1,.1.37c0,.12,0,.25.06.38l0,.25,0,.2a6.16,6.16,0,0,1-.08.65,4.63,4.63,0,0,1-.17.63l-.23.62-.38,1.06h0l.44-1,.25-.61a4.76,4.76,0,0,0,.19-.64c0-.06,0-.11,0-.17l.15-.27c.06-.11.12-.22.19-.33a2.57,2.57,0,0,1,.23-.3l.25-.29-.27.27a2.61,2.61,0,0,0-.25.29c-.08.1-.14.21-.21.32l-.07.1c0-.1,0-.2,0-.29l.07-.66.07-.66a2.45,2.45,0,0,1,0-.29l.43-.22.47-.23a3.49,3.49,0,0,1,.49-.17l.5-.13-.51.11a3.53,3.53,0,0,0-.5.14l-.48.2-.36.16c0-.07,0-.13.07-.2A3.9,3.9,0,0,1,14.07,46.62Z"/><path class="cls-36" d="M15.63,50H10.52A28.15,28.15,0,0,0,16,55a7.69,7.69,0,0,0,.54-2.6,11.83,11.83,0,0,0-.13-1.74A.81.81,0,0,0,15.63,50Z"/><path class="cls-37" d="M38,4.74a1.45,1.45,0,0,1-1,1.38,4,4,0,1,0,2.42,0,1.43,1.43,0,0,1-1-1.35L38,4.66Z"/><circle class="cls-38" cx="38.24" cy="9.96" r="4.04"/><path class="cls-39" d="M49.75,39.55l.37-3.06a1,1,0,0,0-1-1.13H47a1,1,0,0,0-1,1.13l.37,3.06A1.91,1.91,0,0,1,46,41c-1.26,1.5-2.1,4.29-2.1,7.49,0,4.78,1.89,8.66,4.22,8.66s4.22-3.88,4.22-8.66c0-3.2-.84-6-2.1-7.49A1.91,1.91,0,0,1,49.75,39.55Z"/><path class="cls-40" d="M44.53,56.3s1.38-.51,1.81-.24,1.24.87,1.73.79,3.27-.09,2.53.57-3.35,1.44-6.08.78"/><path class="cls-41" d="M33.63,24.45s5.36,3,5.49,13.83,1.23,16.19,5.41,18v1.89s-8.29-1.37-10-5.55-2-16.19-2-16.19"/><circle class="cls-42" cx="24" cy="8.4" r="4.4"/><path class="cls-43" d="M18.94,56.77,19,45.7A67.93,67.93,0,0,0,14.64,54,28,28,0,0,0,18.94,56.77Z"/><path class="cls-44" d="M32.48,50.36H18.65a34.19,34.19,0,0,0-1,5.71A27.85,27.85,0,0,0,31.21,60Z"/><path class="cls-45" d="M37.58,32.07c-.7-1.62-1.58-3.7-2.24-5.29-1.1-2.63-4.31-4.35-7-5.36-2.37-.9-1.76-.78-4.56-.09-3.43.85-7.64,5.47-7.08,9.38a58.83,58.83,0,0,0,1.92,5.83c.15.47.32.94.48,1.41a11.35,11.35,0,0,1,.09,6.88c-.25.83-.47,1.59-.62,2.1A10.87,10.87,0,0,0,20.87,57c.3.35.63.71,1,1.07a28,28,0,0,0,19.75.22c-2-5.16-4.58-11.53-7.12-17.45C33,37.13,38.9,35.13,37.58,32.07Z"/><path class="cls-46" d="M23.71,51.6c7.51,1.89,8.7-5.09,8.82-7.57a15.81,15.81,0,0,1,1.84-5.23c.45-1.53,1.93-2.79,2.78-4.09a2.26,2.26,0,0,1-1.63.9c-2,.2-5.1,0-8,.72s-4-.51-4.63-4.19A7.16,7.16,0,0,0,19.08,27s-.42,3.71-.86,8.27c.17.46.32.88.43,1.22s.32.94.48,1.41a11.35,11.35,0,0,1,.09,6.88c-.25.83-.47,1.59-.62,2.1a10.86,10.86,0,0,0,1.52,9.14C19.85,55.59,16.51,49.78,23.71,51.6Z"/><path class="cls-47" d="M37.73,33.43h0Z"/><path class="cls-40" d="M30.75,22.56c-.12-.16-2.2-.75-1.55-2.4.45-1.14.87-.61,1.63-.82,1.33-.37,1.77-6.72,1.57-7.74s.2.64.13-.29l-.41.26c-.33-.78-1.21.94-1.7.41a7.68,7.68,0,0,0-2.93-1.91,3,3,0,0,0-3.39,1h0a3,3,0,0,0-.22,3.28,3,3,0,0,1,.23.53c.06.2-.73-.32-.73-.32,4,4.47-1.5,7.63-1.5,7.63,1.61,2.74,3,8.21,8,9.35C34,32.48,32.42,24.74,30.75,22.56Z"/><path class="cls-48" d="M23.94,14.47a2.87,2.87,0,0,1,.16.4c0,.1-.15,0-.34-.09l-.08.13c3.41,4.28-1.81,7.26-1.81,7.26.93,1.58,1.78,4.08,3.3,6.12a2.75,2.75,0,0,1-.45-2.83c.83-1.44,1.68-1,1.48-3.42-.16-2,2.7-2.51,3.62-2.62l.17,0a2.16,2.16,0,0,1-2.31-2c-.2-2.11,3-2.94,2.92-1.65s.22,1.41.56,1.46.55-.52.55-.52-.7.13-.55-.33a13.5,13.5,0,0,0,0-2.49,5.88,5.88,0,0,0,1.27-.7,8.61,8.61,0,0,0,0-1.59l0-.19-.25.16c-.33-.78-1.21.94-1.7.41-.15-.17-.31-.32-.48-.46l-5.41,1.92Z"/><path class="cls-49" d="M32.82,11.08a.67.67,0,0,1,0,.59A3.68,3.68,0,0,1,29,13.36c-2.53-.25-2.64,2.13-2.59,3a.29.29,0,0,1-.29.31h0a.29.29,0,0,1-.29-.31c0-.38,0-1-.61-1-.85,0-.47,1.47-.47,1.47s-2.56-1-2.4-5S30.17,4.71,32.82,11.08Z"/><path class="cls-50" d="M24.71,16.84s-.37-1.51.47-1.47c.58,0,.64.62.61,1a.29.29,0,1,0,.59,0c0-.87.06-3.25,2.59-3h.19c-1.15-.11-2.13-.93-.78-1.91s1.28-2-2.92-.87c-3,.81-2.88,0-2.57-.52a3.53,3.53,0,0,0-.59,1.76C22.15,15.79,24.71,16.84,24.71,16.84Z"/><path class="cls-51" d="M19.38,24.17s-4.59,4.09-4.59,14.75c0,9.78,15.27,12.31,26.2,11.44V48.79S19.7,46.26,22.84,35.73C25.54,26.7,19.38,24.17,19.38,24.17Z"/><path class="cls-40" d="M41,48.79a5.66,5.66,0,0,0,2.57-2.09c.65-1.31,5.16.65,4.44,1a4.12,4.12,0,0,1-1.7.39s.21,2.74-5.31,2.22"/><path class="cls-52" d="M29.77,31.5l.08,0a2.25,2.25,0,0,0,1.41-.07c-.77.06,0-.73-.32-1.4s-2.59-.45-1.48.7C30,31.32,30,31.49,29.77,31.5Z"/><ellipse class="cls-53" cx="47.33" cy="27.27" rx="0.51" ry="2.3"/><ellipse class="cls-54" cx="47.33" cy="27.27" rx="0.51" ry="2.3" transform="translate(-7.3 27.32) rotate(-30)"/><ellipse class="cls-55" cx="47.33" cy="27.27" rx="0.51" ry="2.3" transform="matrix(0.5, -0.87, 0.87, 0.5, 0.04, 54.63)"/><ellipse class="cls-56" cx="47.33" cy="27.27" rx="2.3" ry="0.51"/><ellipse class="cls-57" cx="47.33" cy="27.27" rx="2.3" ry="0.51" transform="translate(-7.3 27.32) rotate(-30)"/><ellipse class="cls-58" cx="47.33" cy="27.27" rx="2.3" ry="0.51" transform="matrix(0.5, -0.87, 0.87, 0.5, 0.04, 54.63)"/><circle class="cls-59" cx="47.33" cy="27.27" r="0.82"/><ellipse class="cls-60" cx="51" cy="31.65" rx="0.51" ry="2.3"/><ellipse class="cls-61" cx="51" cy="31.65" rx="0.51" ry="2.3" transform="translate(-8.99 29.74) rotate(-30)"/><ellipse class="cls-62" cx="51" cy="31.65" rx="0.51" ry="2.3" transform="translate(-1.9 59.99) rotate(-60)"/><ellipse class="cls-63" cx="51" cy="31.65" rx="2.3" ry="0.51"/><ellipse class="cls-64" cx="51" cy="31.65" rx="2.3" ry="0.51" transform="translate(-8.99 29.74) rotate(-30)"/><ellipse class="cls-65" cx="51" cy="31.65" rx="2.3" ry="0.51" transform="matrix(0.5, -0.87, 0.87, 0.5, -1.9, 59.99)"/><circle class="cls-66" cx="51" cy="31.65" r="0.82"/><ellipse class="cls-67" cx="45.78" cy="32.07" rx="0.51" ry="2.3"/><ellipse class="cls-68" cx="45.78" cy="32.07" rx="0.51" ry="2.3" transform="translate(-9.9 27.18) rotate(-30)"/><ellipse class="cls-69" cx="45.78" cy="32.07" rx="0.51" ry="2.3" transform="translate(-4.89 55.68) rotate(-60)"/><ellipse class="cls-70" cx="45.78" cy="32.07" rx="2.3" ry="0.51"/><ellipse class="cls-71" cx="45.78" cy="32.07" rx="2.3" ry="0.51" transform="translate(-9.9 27.18) rotate(-30)"/><ellipse class="cls-72" cx="45.78" cy="32.07" rx="2.3" ry="0.51" transform="matrix(0.5, -0.87, 0.87, 0.5, -4.89, 55.68)"/><circle class="cls-73" cx="46" cy="32.07" r="0.82"/></svg>