<svg xmlns="http://www.w3.org/2000/svg" xmlns:xlink="http://www.w3.org/1999/xlink" viewBox="0 0 64 64"><defs><style>.cls-1{isolation:isolate;}.cls-2{fill:url(#linear-gradient);}.cls-3{fill:none;}.cls-4{fill:url(#linear-gradient-2);}.cls-5{fill:url(#linear-gradient-3);}.cls-6{fill:url(#linear-gradient-4);}.cls-7{fill:url(#linear-gradient-5);}.cls-8{fill:url(#linear-gradient-6);}.cls-9{fill:url(#linear-gradient-7);}.cls-10{fill:url(#linear-gradient-8);}.cls-11{fill:url(#linear-gradient-9);}.cls-12{fill:url(#linear-gradient-10);}.cls-13{fill:url(#linear-gradient-11);}.cls-14{fill:url(#linear-gradient-12);}.cls-15{fill:url(#linear-gradient-13);}.cls-16{fill:url(#linear-gradient-14);}.cls-17{fill:url(#linear-gradient-15);}.cls-18{fill:url(#linear-gradient-16);}.cls-19{fill:url(#linear-gradient-17);}.cls-20{fill:url(#linear-gradient-18);}.cls-21{fill:url(#linear-gradient-19);}.cls-22{fill:url(#linear-gradient-20);}.cls-23{fill:url(#linear-gradient-21);}.cls-24{fill:url(#linear-gradient-22);}.cls-25{fill:url(#linear-gradient-23);}.cls-26{fill:url(#linear-gradient-24);}.cls-27{fill:url(#linear-gradient-25);}.cls-28{fill:url(#linear-gradient-26);}.cls-29{fill:url(#linear-gradient-27);}.cls-30{fill:url(#linear-gradient-28);}.cls-31{fill:url(#linear-gradient-29);}.cls-32{fill:url(#linear-gradient-30);}.cls-33{fill:url(#linear-gradient-31);}.cls-34{fill:url(#linear-gradient-32);}.cls-35{fill:url(#linear-gradient-33);}.cls-36{fill:url(#linear-gradient-34);}.cls-37{fill:url(#linear-gradient-35);}.cls-38{fill:url(#linear-gradient-36);}.cls-39{fill:url(#linear-gradient-37);}.cls-40{fill:url(#linear-gradient-38);}.cls-41{fill:url(#linear-gradient-39);}.cls-42{fill:url(#linear-gradient-40);}.cls-43{fill:url(#linear-gradient-41);}.cls-44{fill:url(#linear-gradient-42);}.cls-45{fill:url(#linear-gradient-43);}.cls-46{fill:url(#linear-gradient-44);}.cls-47{fill:url(#linear-gradient-45);}.cls-48{fill:url(#linear-gradient-46);}.cls-49{fill:url(#linear-gradient-47);}.cls-50{fill:url(#linear-gradient-48);}.cls-51{fill:url(#linear-gradient-49);}.cls-52{fill:url(#linear-gradient-50);}.cls-53{fill:url(#linear-gradient-51);}.cls-54{fill:url(#linear-gradient-52);}.cls-55{fill:url(#linear-gradient-53);}.cls-56{fill:url(#linear-gradient-54);}.cls-57{fill:url(#linear-gradient-55);}.cls-58{fill:url(#linear-gradient-56);}.cls-59{fill:url(#linear-gradient-57);}.cls-60{fill:url(#linear-gradient-61);}.cls-61{fill:url(#linear-gradient-62);}.cls-62{fill:url(#linear-gradient-63);}.cls-63{fill:url(#linear-gradient-64);}.cls-64{fill:url(#linear-gradient-71);}.cls-65{fill:url(#linear-gradient-72);}.cls-66{fill:url(#linear-gradient-73);}.cls-67{fill:url(#linear-gradient-78);}.cls-68{fill:url(#linear-gradient-81);}.cls-69{fill:url(#linear-gradient-82);}.cls-70{fill:url(#linear-gradient-83);}.cls-71{fill:url(#linear-gradient-84);}.cls-72{fill:url(#linear-gradient-85);}.cls-73{fill:url(#linear-gradient-86);}.cls-74{fill:url(#linear-gradient-88);}.cls-75{fill:url(#linear-gradient-212);}.cls-76{fill:url(#linear-gradient-216);}.cls-77{fill:url(#linear-gradient-220);}.cls-78{fill:url(#linear-gradient-224);}.cls-79{fill:url(#linear-gradient-228);}.cls-80{fill:url(#linear-gradient-231);}.cls-81{fill:url(#linear-gradient-232);}.cls-82{fill:url(#linear-gradient-233);}.cls-83{fill:url(#linear-gradient-234);}.cls-84{fill:url(#linear-gradient-235);}.cls-85{opacity:0.49;mix-blend-mode:color-burn;fill:url(#linear-gradient-236);}.cls-86{fill:#aeb0b1;}.cls-87{fill:url(#linear-gradient-237);}.cls-88{fill:url(#linear-gradient-238);}.cls-89{fill:#f9aa8f;}.cls-90{fill:url(#linear-gradient-239);}.cls-91{fill:#974b00;}.cls-92{fill:url(#linear-gradient-240);}.cls-93{fill:#5b6d29;}.cls-94{fill:url(#linear-gradient-241);}.cls-95{fill:url(#linear-gradient-242);}.cls-96{fill:url(#linear-gradient-243);}.cls-97{fill:url(#linear-gradient-244);}.cls-98{fill:url(#linear-gradient-245);}.cls-99{fill:url(#linear-gradient-246);}.cls-100{fill:url(#linear-gradient-247);}.cls-101{fill:url(#linear-gradient-248);}.cls-102{fill:url(#linear-gradient-249);}.cls-103{fill:#d95d32;}.cls-104{fill:url(#linear-gradient-250);}.cls-105{fill:#4b5b27;}.cls-106{fill:url(#linear-gradient-251);}.cls-107{fill:url(#linear-gradient-252);}.cls-108{fill:url(#linear-gradient-253);}.cls-109{fill:url(#linear-gradient-254);}.cls-110{fill:url(#linear-gradient-255);}.cls-111{fill:url(#linear-gradient-256);}.cls-112{fill:#9d1500;}.cls-113{fill:url(#linear-gradient-257);}</style><linearGradient id="linear-gradient" x1="32" y1="64.5" x2="32" y2="39.94" gradientUnits="userSpaceOnUse"><stop offset="0" stop-color="#d1efe7"/><stop offset="0.53" stop-color="#97efe7"/><stop offset="1" stop-color="#3ccbe3"/></linearGradient><linearGradient id="linear-gradient-2" x1="37.49" y1="63.25" x2="37.49" y2="-3.5" xlink:href="#linear-gradient"/><linearGradient id="linear-gradient-3" x1="17.73" y1="63.25" x2="17.73" y2="-3.5" xlink:href="#linear-gradient"/><linearGradient id="linear-gradient-4" x1="12.08" y1="63.25" x2="12.08" y2="-3.5" xlink:href="#linear-gradient"/><linearGradient id="linear-gradient-5" x1="47.44" y1="63.25" x2="47.44" y2="-3.5" xlink:href="#linear-gradient"/><linearGradient id="linear-gradient-6" x1="20.33" y1="63.25" x2="20.33" y2="-3.5" xlink:href="#linear-gradient"/><linearGradient id="linear-gradient-7" x1="396.55" y1="35.09" x2="396.55" y2="-43.58" gradientTransform="translate(-376.22)" xlink:href="#linear-gradient"/><linearGradient id="linear-gradient-8" x1="14.2" y1="63.25" x2="14.2" y2="-3.5" xlink:href="#linear-gradient"/><linearGradient id="linear-gradient-9" x1="390.42" y1="35.09" x2="390.42" y2="-43.58" gradientTransform="translate(-376.22)" xlink:href="#linear-gradient"/><linearGradient id="linear-gradient-10" x1="48.85" y1="63.25" x2="48.85" y2="-3.5" xlink:href="#linear-gradient"/><linearGradient id="linear-gradient-11" x1="425.07" y1="35.09" x2="425.07" y2="-43.58" gradientTransform="translate(-376.22)" xlink:href="#linear-gradient"/><linearGradient id="linear-gradient-12" x1="47.49" y1="63.25" x2="47.49" y2="-3.5" xlink:href="#linear-gradient"/><linearGradient id="linear-gradient-13" x1="423.71" y1="35.09" x2="423.71" y2="-43.58" gradientTransform="translate(-376.22)" xlink:href="#linear-gradient"/><linearGradient id="linear-gradient-14" x1="33.16" y1="63.25" x2="33.16" y2="-3.5" xlink:href="#linear-gradient"/><linearGradient id="linear-gradient-15" x1="409.38" y1="35.09" x2="409.38" y2="-43.58" gradientTransform="translate(-376.22)" xlink:href="#linear-gradient"/><linearGradient id="linear-gradient-16" x1="46.71" y1="63.25" x2="46.71" y2="-3.5" xlink:href="#linear-gradient"/><linearGradient id="linear-gradient-17" x1="422.93" y1="35.09" x2="422.93" y2="-43.58" gradientTransform="translate(-376.22)" xlink:href="#linear-gradient"/><linearGradient id="linear-gradient-18" x1="12.12" y1="63.25" x2="12.12" y2="-3.5" xlink:href="#linear-gradient"/><linearGradient id="linear-gradient-19" x1="388.34" y1="43.85" x2="388.34" y2="3.89" gradientTransform="translate(-376.22)" xlink:href="#linear-gradient"/><linearGradient id="linear-gradient-20" x1="40.08" y1="63.25" x2="40.08" y2="-3.5" xlink:href="#linear-gradient"/><linearGradient id="linear-gradient-21" x1="416.29" y1="54.55" x2="416.29" y2="9.48" gradientTransform="translate(-376.22)" xlink:href="#linear-gradient"/><linearGradient id="linear-gradient-22" x1="28.48" y1="63.25" x2="28.48" y2="-3.5" xlink:href="#linear-gradient"/><linearGradient id="linear-gradient-23" x1="404.7" y1="35.09" x2="404.7" y2="-43.58" gradientTransform="translate(-376.22)" xlink:href="#linear-gradient"/><linearGradient id="linear-gradient-24" x1="404.7" y1="54.55" x2="404.7" y2="9.48" gradientTransform="translate(-376.22)" xlink:href="#linear-gradient"/><linearGradient id="linear-gradient-25" x1="21.38" y1="63.25" x2="21.38" y2="-3.5" xlink:href="#linear-gradient"/><linearGradient id="linear-gradient-26" x1="397.59" y1="35.09" x2="397.59" y2="-43.58" gradientTransform="translate(-376.22)" xlink:href="#linear-gradient"/><linearGradient id="linear-gradient-27" x1="397.59" y1="54.55" x2="397.59" y2="9.48" gradientTransform="translate(-376.22)" xlink:href="#linear-gradient"/><linearGradient id="linear-gradient-28" x1="56.31" y1="63.25" x2="56.31" y2="-3.5" xlink:href="#linear-gradient"/><linearGradient id="linear-gradient-29" x1="432.53" y1="35.09" x2="432.53" y2="-43.58" gradientTransform="translate(-376.22)" xlink:href="#linear-gradient"/><linearGradient id="linear-gradient-30" x1="432.53" y1="54.55" x2="432.53" y2="9.48" gradientTransform="translate(-376.22)" xlink:href="#linear-gradient"/><linearGradient id="linear-gradient-31" x1="28.5" y1="63.25" x2="28.5" y2="-3.5" xlink:href="#linear-gradient"/><linearGradient id="linear-gradient-32" x1="404.72" y1="35.09" x2="404.72" y2="-43.58" gradientTransform="translate(-376.22)" xlink:href="#linear-gradient"/><linearGradient id="linear-gradient-33" x1="404.72" y1="54.55" x2="404.72" y2="9.48" gradientTransform="translate(-376.22)" xlink:href="#linear-gradient"/><linearGradient id="linear-gradient-34" x1="30.37" y1="63.25" x2="30.37" y2="-3.5" xlink:href="#linear-gradient"/><linearGradient id="linear-gradient-35" x1="406.59" y1="35.09" x2="406.59" y2="-43.58" gradientTransform="translate(-376.22)" xlink:href="#linear-gradient"/><linearGradient id="linear-gradient-36" x1="406.59" y1="54.55" x2="406.59" y2="9.48" gradientTransform="translate(-376.22)" xlink:href="#linear-gradient"/><linearGradient id="linear-gradient-37" x1="32.91" y1="63.25" x2="32.91" y2="-3.5" xlink:href="#linear-gradient"/><linearGradient id="linear-gradient-38" x1="409.13" y1="35.09" x2="409.13" y2="-43.58" gradientTransform="translate(-376.22)" xlink:href="#linear-gradient"/><linearGradient id="linear-gradient-39" x1="409.13" y1="54.55" x2="409.13" y2="9.48" gradientTransform="translate(-376.22)" xlink:href="#linear-gradient"/><linearGradient id="linear-gradient-40" x1="20.15" y1="63.25" x2="20.15" y2="-3.5" xlink:href="#linear-gradient"/><linearGradient id="linear-gradient-41" x1="396.37" y1="43.85" x2="396.37" y2="3.89" gradientTransform="translate(-376.22)" xlink:href="#linear-gradient"/><linearGradient id="linear-gradient-42" x1="396.37" y1="54.55" x2="396.37" y2="9.48" gradientTransform="translate(-376.22)" xlink:href="#linear-gradient"/><linearGradient id="linear-gradient-43" x1="23.19" y1="63.25" x2="23.19" y2="-3.5" xlink:href="#linear-gradient"/><linearGradient id="linear-gradient-44" x1="399.41" y1="54.55" x2="399.41" y2="9.48" gradientTransform="translate(-376.22)" xlink:href="#linear-gradient"/><linearGradient id="linear-gradient-45" x1="399.41" y1="48.13" x2="399.41" y2="3.02" gradientTransform="translate(-376.22)" xlink:href="#linear-gradient"/><linearGradient id="linear-gradient-46" x1="25.24" y1="63.25" x2="25.24" y2="-3.5" xlink:href="#linear-gradient"/><linearGradient id="linear-gradient-47" x1="401.46" y1="54.55" x2="401.46" y2="9.48" gradientTransform="translate(-376.22)" xlink:href="#linear-gradient"/><linearGradient id="linear-gradient-48" x1="401.46" y1="48.13" x2="401.46" y2="3.02" gradientTransform="translate(-376.22)" xlink:href="#linear-gradient"/><linearGradient id="linear-gradient-49" x1="27.29" y1="63.25" x2="27.29" y2="-3.5" xlink:href="#linear-gradient"/><linearGradient id="linear-gradient-50" x1="403.51" y1="54.55" x2="403.51" y2="9.48" gradientTransform="translate(-376.22)" xlink:href="#linear-gradient"/><linearGradient id="linear-gradient-51" x1="403.51" y1="48.13" x2="403.51" y2="3.02" gradientTransform="translate(-376.22)" xlink:href="#linear-gradient"/><linearGradient id="linear-gradient-52" x1="29.35" y1="63.25" x2="29.35" y2="-3.5" xlink:href="#linear-gradient"/><linearGradient id="linear-gradient-53" x1="405.56" y1="54.55" x2="405.56" y2="9.48" gradientTransform="translate(-376.22)" xlink:href="#linear-gradient"/><linearGradient id="linear-gradient-54" x1="405.56" y1="48.13" x2="405.56" y2="3.02" gradientTransform="translate(-376.22)" xlink:href="#linear-gradient"/><linearGradient id="linear-gradient-55" x1="31.4" y1="63.25" x2="31.4" y2="-3.5" xlink:href="#linear-gradient"/><linearGradient id="linear-gradient-56" x1="407.62" y1="54.55" x2="407.62" y2="9.48" gradientTransform="translate(-376.22)" xlink:href="#linear-gradient"/><linearGradient id="linear-gradient-57" x1="407.62" y1="48.13" x2="407.62" y2="3.02" gradientTransform="translate(-376.22)" xlink:href="#linear-gradient"/><linearGradient id="linear-gradient-61" x1="22.66" y1="63.25" x2="22.66" y2="-3.5" xlink:href="#linear-gradient"/><linearGradient id="linear-gradient-62" x1="398.88" y1="35.09" x2="398.88" y2="-43.58" gradientTransform="translate(-376.22)" xlink:href="#linear-gradient"/><linearGradient id="linear-gradient-63" x1="398.88" y1="54.55" x2="398.88" y2="9.48" gradientTransform="translate(-376.22)" xlink:href="#linear-gradient"/><linearGradient id="linear-gradient-64" x1="398.88" y1="48.13" x2="398.88" y2="3.02" gradientTransform="translate(-376.22)" xlink:href="#linear-gradient"/><linearGradient id="linear-gradient-71" x1="29.03" y1="63.25" x2="29.03" y2="-3.5" xlink:href="#linear-gradient"/><linearGradient id="linear-gradient-72" x1="405.25" y1="54.55" x2="405.25" y2="9.48" gradientTransform="translate(-376.22)" xlink:href="#linear-gradient"/><linearGradient id="linear-gradient-73" x1="405.25" y1="48.13" x2="405.25" y2="3.02" gradientTransform="translate(-376.22)" xlink:href="#linear-gradient"/><linearGradient id="linear-gradient-78" x1="405.56" y1="35.09" x2="405.56" y2="-43.58" gradientTransform="translate(-376.22)" xlink:href="#linear-gradient"/><linearGradient id="linear-gradient-81" x1="31.71" y1="63.25" x2="31.71" y2="-3.5" xlink:href="#linear-gradient"/><linearGradient id="linear-gradient-82" x1="407.93" y1="54.55" x2="407.93" y2="9.48" gradientTransform="translate(-376.22)" xlink:href="#linear-gradient"/><linearGradient id="linear-gradient-83" x1="407.93" y1="48.13" x2="407.93" y2="3.02" gradientTransform="translate(-376.22)" xlink:href="#linear-gradient"/><linearGradient id="linear-gradient-84" x1="31.39" y1="63.25" x2="31.39" y2="-3.5" xlink:href="#linear-gradient"/><linearGradient id="linear-gradient-85" x1="407.61" y1="54.55" x2="407.61" y2="9.48" gradientTransform="translate(-376.22)" xlink:href="#linear-gradient"/><linearGradient id="linear-gradient-86" x1="407.61" y1="48.13" x2="407.61" y2="3.02" gradientTransform="translate(-376.22)" xlink:href="#linear-gradient"/><linearGradient id="linear-gradient-88" x1="407.62" y1="35.09" x2="407.62" y2="-43.58" gradientTransform="translate(-376.22)" xlink:href="#linear-gradient"/><linearGradient id="linear-gradient-212" x1="399.41" y1="43.85" x2="399.41" y2="3.89" gradientTransform="translate(-376.22)" xlink:href="#linear-gradient"/><linearGradient id="linear-gradient-216" x1="401.46" y1="43.85" x2="401.46" y2="3.89" gradientTransform="translate(-376.22)" xlink:href="#linear-gradient"/><linearGradient id="linear-gradient-220" x1="403.51" y1="43.85" x2="403.51" y2="3.89" gradientTransform="translate(-376.22)" xlink:href="#linear-gradient"/><linearGradient id="linear-gradient-224" x1="405.56" y1="43.85" x2="405.56" y2="3.89" gradientTransform="translate(-376.22)" xlink:href="#linear-gradient"/><linearGradient id="linear-gradient-228" x1="407.62" y1="43.85" x2="407.62" y2="3.89" gradientTransform="translate(-376.22)" xlink:href="#linear-gradient"/><linearGradient id="linear-gradient-231" x1="44.35" y1="63.25" x2="44.35" y2="-3.5" xlink:href="#linear-gradient"/><linearGradient id="linear-gradient-232" x1="420.57" y1="54.55" x2="420.57" y2="9.48" gradientTransform="translate(-376.22)" xlink:href="#linear-gradient"/><linearGradient id="linear-gradient-233" x1="420.57" y1="44.87" x2="420.57" y2="14.91" gradientTransform="translate(-376.22)" xlink:href="#linear-gradient"/><linearGradient id="linear-gradient-234" x1="11.29" y1="63.25" x2="11.29" y2="-3.5" xlink:href="#linear-gradient"/><linearGradient id="linear-gradient-235" x1="387.51" y1="43.85" x2="387.51" y2="3.89" gradientTransform="translate(-376.22)" xlink:href="#linear-gradient"/><linearGradient id="linear-gradient-236" x1="387.51" y1="25.69" x2="387.51" y2="25.13" gradientTransform="translate(-376.22)" xlink:href="#linear-gradient"/><linearGradient id="linear-gradient-237" x1="36.94" y1="72.61" x2="40.81" y2="43.23" gradientUnits="userSpaceOnUse"><stop offset="0.42" stop-color="#8cc474"/><stop offset="0.75" stop-color="#36b277"/></linearGradient><linearGradient id="linear-gradient-238" x1="50.11" y1="67.63" x2="43.11" y2="38.76" xlink:href="#linear-gradient-237"/><linearGradient id="linear-gradient-239" x1="692.86" y1="72.04" x2="687.1" y2="81.21" gradientTransform="matrix(-0.99, -0.17, -0.17, 0.99, 717.44, 59.04)" gradientUnits="userSpaceOnUse"><stop offset="0" stop-color="#fbc19e"/><stop offset="0.48" stop-color="#ffb699"/><stop offset="1" stop-color="#f47e6d"/></linearGradient><linearGradient id="linear-gradient-240" x1="22.29" y1="18.84" x2="21.17" y2="14.2" gradientUnits="userSpaceOnUse"><stop offset="0.03" stop-color="#974b00"/><stop offset="0.75" stop-color="#7d3a00"/></linearGradient><linearGradient id="linear-gradient-241" x1="33.37" y1="41.57" x2="23.97" y2="34.18" gradientUnits="userSpaceOnUse"><stop offset="0.27" stop-color="#4b5b27"/><stop offset="0.9" stop-color="#1d373e"/></linearGradient><linearGradient id="linear-gradient-242" x1="42.21" y1="37.87" x2="39.54" y2="35.38" gradientUnits="userSpaceOnUse"><stop offset="0" stop-color="#1a305d"/><stop offset="0.76" stop-color="#03153b"/></linearGradient><linearGradient id="linear-gradient-243" x1="42.89" y1="44.64" x2="43.49" y2="36.3" xlink:href="#linear-gradient-242"/><linearGradient id="linear-gradient-244" x1="46.85" y1="27.98" x2="45.77" y2="31.13" xlink:href="#linear-gradient-242"/><linearGradient id="linear-gradient-245" x1="43.23" y1="24.76" x2="44.89" y2="32.64" xlink:href="#linear-gradient-237"/><linearGradient id="linear-gradient-246" x1="46.63" y1="36.13" x2="40.13" y2="32.51" gradientTransform="matrix(1, 0, 0, 1, 0, 0)" xlink:href="#linear-gradient-239"/><linearGradient id="linear-gradient-247" x1="44.94" y1="37.73" x2="40.84" y2="31.39" gradientTransform="matrix(1, 0, 0, 1, 0, 0)" xlink:href="#linear-gradient-239"/><linearGradient id="linear-gradient-248" x1="41.46" y1="32.88" x2="40.68" y2="30.03" xlink:href="#linear-gradient-240"/><linearGradient id="linear-gradient-249" x1="10.89" y1="48.64" x2="20.45" y2="40.69" gradientUnits="userSpaceOnUse"><stop offset="0.4" stop-color="#d95d32"/><stop offset="0.81" stop-color="#bb1a28"/></linearGradient><linearGradient id="linear-gradient-250" x1="17.69" y1="40.55" x2="30.97" y2="46.9" xlink:href="#linear-gradient-249"/><linearGradient id="linear-gradient-251" x1="12.8" y1="27.4" x2="23.04" y2="41.04" xlink:href="#linear-gradient-241"/><linearGradient id="linear-gradient-252" x1="26.22" y1="20.7" x2="14.31" y2="42.14" xlink:href="#linear-gradient-241"/><linearGradient id="linear-gradient-253" x1="31.32" y1="23.21" x2="28.69" y2="39.68" xlink:href="#linear-gradient-241"/><linearGradient id="linear-gradient-254" x1="11.33" y1="34.66" x2="22.13" y2="7.3" xlink:href="#linear-gradient-241"/><linearGradient id="linear-gradient-255" x1="20.45" y1="21.59" x2="24.17" y2="17.48" xlink:href="#linear-gradient-241"/><linearGradient id="linear-gradient-256" x1="16.01" y1="31.68" x2="27.05" y2="19.48" xlink:href="#linear-gradient-241"/><linearGradient id="linear-gradient-257" x1="33.71" y1="32.28" x2="34.87" y2="37.79" xlink:href="#linear-gradient-237"/></defs><title>mother and son ice skating</title><g class="cls-1"><g id="Layer_1" data-name="Layer 1"><circle class="cls-2" cx="32" cy="32" r="28"/><path class="cls-3" d="M35.1,45.33H7.37a28,28,0,0,0,49.25,0Z"/><path class="cls-4" d="M26.7,14.94h6.5a.93.93,0,0,1,.93.93V35.1h2.1a1,1,0,0,1,1,1v2h7.38V32.88a1.07,1.07,0,0,1,1.07-1.07H51.5V28.61a5.35,5.35,0,0,1,2-4.17A90.57,90.57,0,0,1,39.1,21.15s5.89,1.1,9.32.38,5.22.78,7.54-.24a4.1,4.1,0,0,1,1.76-.36,27.94,27.94,0,0,0-2.46-4.51c-2.17.39-7.43.74-15.55-2.43a14.37,14.37,0,0,0,5.2.28c2-.48,2.88.54,4.24-.15a2,2,0,0,1,2.7.89c.31.66,1.34,0,2,.59A2.42,2.42,0,0,0,55,16a28.15,28.15,0,0,0-6.47-6.63,10.29,10.29,0,0,1-3.62-.92,4.18,4.18,0,0,0,1.22-.07,1.64,1.64,0,0,1,1.06.07A28,28,0,0,0,17.26,8.2a4.34,4.34,0,0,1,.38.48C18.84,10.44,22.27,12.89,26.7,14.94Zm4.93-6.61c.46-.23.62.38,1,.13a1.93,1.93,0,0,1,1.79.37,5.71,5.71,0,0,0,1.5.73c-1.8.33-5.58-.93-5.58-.93A4.58,4.58,0,0,0,31.63,8.33Z"/><path class="cls-5" d="M15,17.11a12.59,12.59,0,0,0,5.14,2.3V15.87a.93.93,0,0,1,.93-.93h4.42c-3.06-1-7.08-2.49-11.55-4.34a28.15,28.15,0,0,0-4,4.14,5.47,5.47,0,0,1,1,.71C11.59,16,14,16.07,15,17.11Z"/><path class="cls-6" d="M9.79,27a3,3,0,0,1,6,0v4.65H18v7h2.16v-19A94.06,94.06,0,0,1,8.25,17.18,27.86,27.86,0,0,0,4,32c0,.73,0,1.45.09,2.17h5.7Z"/><path class="cls-7" d="M47.65,8.78l-.41-.26a.59.59,0,0,1,.2.15A.24.24,0,0,0,47.65,8.78Z"/><path class="cls-8" d="M26.7,14.94c-4.43-2-7.86-4.49-9.06-6.26a4.34,4.34,0,0,0-.38-.48A28.08,28.08,0,0,0,14,10.6c4.47,1.85,8.49,3.3,11.55,4.34Z"/><path class="cls-9" d="M26.7,14.94c-4.43-2-7.86-4.49-9.06-6.26a4.34,4.34,0,0,0-.38-.48A28.08,28.08,0,0,0,14,10.6c4.47,1.85,8.49,3.3,11.55,4.34Z"/><path class="cls-10" d="M20.15,19.4A12.59,12.59,0,0,1,15,17.11c-1-1-3.43-1.13-4-1.65a5.47,5.47,0,0,0-1-.71,28.05,28.05,0,0,0-1.71,2.44A94.06,94.06,0,0,0,20.15,19.6Z"/><path class="cls-11" d="M20.15,19.4A12.59,12.59,0,0,1,15,17.11c-1-1-3.43-1.13-4-1.65a5.47,5.47,0,0,0-1-.71,28.05,28.05,0,0,0-1.71,2.44A94.06,94.06,0,0,0,20.15,19.6Z"/><path class="cls-12" d="M56,21.28c-2.32,1-4.11-.48-7.54.24s-9.32-.38-9.32-.38a90.57,90.57,0,0,0,14.42,3.28,5.33,5.33,0,0,1,3.36-1.21h1.71q-.39-1.17-.87-2.3A4.1,4.1,0,0,0,56,21.28Z"/><path class="cls-13" d="M56,21.28c-2.32,1-4.11-.48-7.54.24s-9.32-.38-9.32-.38a90.57,90.57,0,0,0,14.42,3.28,5.33,5.33,0,0,1,3.36-1.21h1.71q-.39-1.17-.87-2.3A4.1,4.1,0,0,0,56,21.28Z"/><path class="cls-14" d="M51.87,15a2,2,0,0,0-2.7-.89c-1.36.69-2.28-.33-4.24.15a14.37,14.37,0,0,1-5.2-.28c8.12,3.17,13.37,2.82,15.55,2.43L55,16a2.42,2.42,0,0,1-1.09-.43C53.21,15,52.18,15.66,51.87,15Z"/><path class="cls-15" d="M51.87,15a2,2,0,0,0-2.7-.89c-1.36.69-2.28-.33-4.24.15a14.37,14.37,0,0,1-5.2-.28c8.12,3.17,13.37,2.82,15.55,2.43L55,16a2.42,2.42,0,0,1-1.09-.43C53.21,15,52.18,15.66,51.87,15Z"/><path class="cls-16" d="M36,9.57a5.71,5.71,0,0,1-1.5-.73,1.93,1.93,0,0,0-1.79-.37c-.41.25-.57-.36-1-.13a4.58,4.58,0,0,1-1.26.31S34.15,9.9,36,9.57Z"/><path class="cls-17" d="M36,9.57a5.71,5.71,0,0,1-1.5-.73,1.93,1.93,0,0,0-1.79-.37c-.41.25-.57-.36-1-.13a4.58,4.58,0,0,1-1.26.31S34.15,9.9,36,9.57Z"/><path class="cls-18" d="M46.12,8.4a4.18,4.18,0,0,1-1.22.07,10.29,10.29,0,0,0,3.62.92c-.29-.21-.57-.42-.87-.62a.24.24,0,0,1-.21-.11.59.59,0,0,0-.2-.15l-.05,0A1.64,1.64,0,0,0,46.12,8.4Z"/><path class="cls-19" d="M46.12,8.4a4.18,4.18,0,0,1-1.22.07,10.29,10.29,0,0,0,3.62.92c-.29-.21-.57-.42-.87-.62a.24.24,0,0,1-.21-.11.59.59,0,0,0-.2-.15l-.05,0A1.64,1.64,0,0,0,46.12,8.4Z"/><path class="cls-20" d="M10.47,42h9.68V38.63H18v-7H15.84V27a3,3,0,0,0-6,0v7.2H4.09A27.89,27.89,0,0,0,5.2,40.1h5.28ZM11,25.39a1.58,1.58,0,0,1,.51.06.39.39,0,0,1-.2.12l-.11,0h0C11.1,25.5,11,25.41,11,25.39Z"/><path class="cls-21" d="M10.47,42h9.68V38.63H18v-7H15.84V27a3,3,0,0,0-6,0v7.2H4.09A27.89,27.89,0,0,0,5.2,40.1h5.28ZM11,25.39a1.58,1.58,0,0,1,.51.06.39.39,0,0,1-.2.12l-.11,0h0C11.1,25.5,11,25.41,11,25.39Z"/><path class="cls-22" d="M51.5,28.61V41.16H45.07v2H41.89a4.69,4.69,0,0,1-4.69-4.77V36.07a1,1,0,0,0-1-1h-2.1V15.87a.93.93,0,0,0-.93-.93H26.7a46.62,46.62,0,0,0,4.75,1.89s-2.28-.64-6-1.89H21.08a.93.93,0,0,0-.93.93V19.4a23.89,23.89,0,0,0,2.45.48v-.17a.09.09,0,0,1,.09-.09h1a.09.09,0,0,1,.09.09v1a.09.09,0,0,1-.09.09h-1a.09.09,0,0,1-.09-.09V19.9c-.3,0-1.18-.12-2.45-.3v19H34.48l.61,6.7H56.63A28.09,28.09,0,0,0,59.11,25c-1.66-.08-3.52-.24-5.59-.53A5.35,5.35,0,0,0,51.5,28.61ZM23.78,38a.09.09,0,0,1-.09.09h-1A.09.09,0,0,1,22.6,38V37a.09.09,0,0,1,.09-.09h1a.09.09,0,0,1,.09.09Zm0-2.16a.09.09,0,0,1-.09.09h-1a.09.09,0,0,1-.09-.09v-1a.09.09,0,0,1,.09-.09h1a.09.09,0,0,1,.09.09Zm0-2.16a.09.09,0,0,1-.09.09h-1a.09.09,0,0,1-.09-.09v-1a.09.09,0,0,1,.09-.09h1a.09.09,0,0,1,.09.09Zm0-2.16a.09.09,0,0,1-.09.09h-1a.09.09,0,0,1-.09-.09v-1a.09.09,0,0,1,.09-.09h1a.09.09,0,0,1,.09.09Zm0-2.16a.09.09,0,0,1-.09.09h-1a.09.09,0,0,1-.09-.09v-1a.09.09,0,0,1,.09-.09h1a.09.09,0,0,1,.09.09Zm0-2.16a.09.09,0,0,1-.09.09h-1a.09.09,0,0,1-.09-.09v-1a.09.09,0,0,1,.09-.09h1a.09.09,0,0,1,.09.09Zm0-2.16a.09.09,0,0,1-.09.09h-1A.09.09,0,0,1,22.6,25V24a.09.09,0,0,1,.09-.09h1a.09.09,0,0,1,.09.09Zm0-2.16a.09.09,0,0,1-.09.09h-1a.09.09,0,0,1-.09-.09v-1a.09.09,0,0,1,.09-.09h1a.09.09,0,0,1,.09.09Zm7-5.32a.09.09,0,0,1,.09-.09h1a.09.09,0,0,1,.09.09v1a.09.09,0,0,1-.09.09h-1a.09.09,0,0,1-.09-.09Zm-2.05,0a.09.09,0,0,1,.09-.09h1a.09.09,0,0,1,.09.09v1a.09.09,0,0,1-.09.09h-1a.09.09,0,0,1-.09-.09Zm-5,1a.09.09,0,0,1-.09.09h-1a.09.09,0,0,1-.09-.09v-1a.09.09,0,0,1,.09-.09h1a.09.09,0,0,1,.09.09ZM25.83,38a.09.09,0,0,1-.09.09h-1a.09.09,0,0,1-.09-.09V37a.09.09,0,0,1,.09-.09h1a.09.09,0,0,1,.09.09Zm0-2.16a.09.09,0,0,1-.09.09h-1a.09.09,0,0,1-.09-.09v-1a.09.09,0,0,1,.09-.09h1a.09.09,0,0,1,.09.09Zm0-2.16a.09.09,0,0,1-.09.09h-1a.09.09,0,0,1-.09-.09v-1a.09.09,0,0,1,.09-.09h1a.09.09,0,0,1,.09.09Zm0-2.16a.09.09,0,0,1-.09.09h-1a.09.09,0,0,1-.09-.09v-1a.09.09,0,0,1,.09-.09h1a.09.09,0,0,1,.09.09Zm0-2.16a.09.09,0,0,1-.09.09h-1a.09.09,0,0,1-.09-.09v-1a.09.09,0,0,1,.09-.09h1a.09.09,0,0,1,.09.09Zm0-2.16a.09.09,0,0,1-.09.09h-1a.09.09,0,0,1-.09-.09v-1a.09.09,0,0,1,.09-.09h1a.09.09,0,0,1,.09.09Zm0-2.16a.09.09,0,0,1-.09.09h-1a.09.09,0,0,1-.09-.09V24a.09.09,0,0,1,.09-.09h1a.09.09,0,0,1,.09.09Zm0-2.16a.09.09,0,0,1-.09.09h-1a.09.09,0,0,1-.09-.09v-1a.09.09,0,0,1,.09-.09h1a.09.09,0,0,1,.09.09Zm0-2.16a.09.09,0,0,1-.09.09h-1a.09.09,0,0,1-.09-.09v-1a.09.09,0,0,1,.09-.09h1a.09.09,0,0,1,.09.09Zm0-2.16a.09.09,0,0,1-.09.09h-1a.09.09,0,0,1-.09-.09v-1a.09.09,0,0,1,.09-.09h1a.09.09,0,0,1,.09.09ZM27.89,38a.09.09,0,0,1-.09.09h-1A.09.09,0,0,1,26.7,38V37a.09.09,0,0,1,.09-.09h1a.09.09,0,0,1,.09.09Zm0-2.16a.09.09,0,0,1-.09.09h-1a.09.09,0,0,1-.09-.09v-1a.09.09,0,0,1,.09-.09h1a.09.09,0,0,1,.09.09Zm0-2.16a.09.09,0,0,1-.09.09h-1a.09.09,0,0,1-.09-.09v-1a.09.09,0,0,1,.09-.09h1a.09.09,0,0,1,.09.09Zm0-2.16a.09.09,0,0,1-.09.09h-1a.09.09,0,0,1-.09-.09v-1a.09.09,0,0,1,.09-.09h1a.09.09,0,0,1,.09.09Zm0-2.16a.09.09,0,0,1-.09.09h-1a.09.09,0,0,1-.09-.09v-1a.09.09,0,0,1,.09-.09h1a.09.09,0,0,1,.09.09Zm0-2.16a.09.09,0,0,1-.09.09h-1a.09.09,0,0,1-.09-.09v-1a.09.09,0,0,1,.09-.09h1a.09.09,0,0,1,.09.09Zm0-2.16a.09.09,0,0,1-.09.09h-1A.09.09,0,0,1,26.7,25V24a.09.09,0,0,1,.09-.09h1a.09.09,0,0,1,.09.09Zm0-2.16a.09.09,0,0,1-.09.09h-1a.09.09,0,0,1-.09-.09v-1a.09.09,0,0,1,.09-.09h1a.09.09,0,0,1,.09.09Zm0-2.16a.09.09,0,0,1-.09.09h-1a.09.09,0,0,1-.09-.09v-1a.09.09,0,0,1,.09-.09h1a.09.09,0,0,1,.09.09Zm0-2.16a.09.09,0,0,1-.09.09h-1a.09.09,0,0,1-.09-.09v-1a.09.09,0,0,1,.09-.09h1a.09.09,0,0,1,.09.09ZM29.94,38a.09.09,0,0,1-.09.09h-1a.09.09,0,0,1-.09-.09V37a.09.09,0,0,1,.09-.09h1a.09.09,0,0,1,.09.09Zm0-2.16a.09.09,0,0,1-.09.09h-1a.09.09,0,0,1-.09-.09v-1a.09.09,0,0,1,.09-.09h1a.09.09,0,0,1,.09.09Zm0-2.16a.09.09,0,0,1-.09.09h-1a.09.09,0,0,1-.09-.09v-1a.09.09,0,0,1,.09-.09h1a.09.09,0,0,1,.09.09Zm0-2.16a.09.09,0,0,1-.09.09h-1a.09.09,0,0,1-.09-.09v-1a.09.09,0,0,1,.09-.09h1a.09.09,0,0,1,.09.09Zm0-2.16a.09.09,0,0,1-.09.09h-1a.09.09,0,0,1-.09-.09v-1a.09.09,0,0,1,.09-.09h1a.09.09,0,0,1,.09.09Zm0-2.16a.09.09,0,0,1-.09.09h-1a.09.09,0,0,1-.09-.09v-1a.09.09,0,0,1,.09-.09h1a.09.09,0,0,1,.09.09Zm0-2.16a.09.09,0,0,1-.09.09h-1a.09.09,0,0,1-.09-.09V24a.09.09,0,0,1,.09-.09h1a.09.09,0,0,1,.09.09Zm0-2.16a.09.09,0,0,1-.09.09h-1a.09.09,0,0,1-.09-.09v-1a.09.09,0,0,1,.09-.09h1a.09.09,0,0,1,.09.09ZM32,38a.09.09,0,0,1-.09.09h-1a.09.09,0,0,1-.09-.09V37a.09.09,0,0,1,.09-.09h1A.09.09,0,0,1,32,37Zm0-2.16a.09.09,0,0,1-.09.09h-1a.09.09,0,0,1-.09-.09v-1a.09.09,0,0,1,.09-.09h1a.09.09,0,0,1,.09.09Zm0-2.16a.09.09,0,0,1-.09.09h-1a.09.09,0,0,1-.09-.09v-1a.09.09,0,0,1,.09-.09h1a.09.09,0,0,1,.09.09Zm0-2.16a.09.09,0,0,1-.09.09h-1a.09.09,0,0,1-.09-.09v-1a.09.09,0,0,1,.09-.09h1a.09.09,0,0,1,.09.09Zm0-2.16a.09.09,0,0,1-.09.09h-1a.09.09,0,0,1-.09-.09v-1a.09.09,0,0,1,.09-.09h1a.09.09,0,0,1,.09.09Zm0-2.16a.09.09,0,0,1-.09.09h-1a.09.09,0,0,1-.09-.09v-1a.09.09,0,0,1,.09-.09h1a.09.09,0,0,1,.09.09ZM32,25a.09.09,0,0,1-.09.09h-1a.09.09,0,0,1-.09-.09V24a.09.09,0,0,1,.09-.09h1A.09.09,0,0,1,32,24Zm0-2.16a.09.09,0,0,1-.09.09h-1a.09.09,0,0,1-.09-.09v-1a.09.09,0,0,1,.09-.09h1a.09.09,0,0,1,.09.09Zm0-2.14a.09.09,0,0,1-.08.07h-1a.09.09,0,0,1-.09-.09v-.18l-.87-.2v.38a.09.09,0,0,1-.09.09h-1a.09.09,0,0,1-.09-.09V20l-.5-.16s.22,0,.5-.08v-.06a.09.09,0,0,1,.09-.09h.47l.2-.09c.46-.23.62.38,1,.13a1.29,1.29,0,0,1,.9,0h.46a.09.09,0,0,1,.09.09v.11a1.61,1.61,0,0,1,.34.22,5.71,5.71,0,0,0,1.5.73A6.26,6.26,0,0,1,32,20.74Z"/><path class="cls-23" d="M51.5,28.61V41.16H45.07v2H41.89a4.69,4.69,0,0,1-4.69-4.77V36.07a1,1,0,0,0-1-1h-2.1V15.87a.93.93,0,0,0-.93-.93H26.7a46.62,46.62,0,0,0,4.75,1.89s-2.28-.64-6-1.89H21.08a.93.93,0,0,0-.93.93V19.4a23.89,23.89,0,0,0,2.45.48v-.17a.09.09,0,0,1,.09-.09h1a.09.09,0,0,1,.09.09v1a.09.09,0,0,1-.09.09h-1a.09.09,0,0,1-.09-.09V19.9c-.3,0-1.18-.12-2.45-.3v19H34.48l.61,6.7H56.63A28.09,28.09,0,0,0,59.11,25c-1.66-.08-3.52-.24-5.59-.53A5.35,5.35,0,0,0,51.5,28.61ZM23.78,38a.09.09,0,0,1-.09.09h-1A.09.09,0,0,1,22.6,38V37a.09.09,0,0,1,.09-.09h1a.09.09,0,0,1,.09.09Zm0-2.16a.09.09,0,0,1-.09.09h-1a.09.09,0,0,1-.09-.09v-1a.09.09,0,0,1,.09-.09h1a.09.09,0,0,1,.09.09Zm0-2.16a.09.09,0,0,1-.09.09h-1a.09.09,0,0,1-.09-.09v-1a.09.09,0,0,1,.09-.09h1a.09.09,0,0,1,.09.09Zm0-2.16a.09.09,0,0,1-.09.09h-1a.09.09,0,0,1-.09-.09v-1a.09.09,0,0,1,.09-.09h1a.09.09,0,0,1,.09.09Zm0-2.16a.09.09,0,0,1-.09.09h-1a.09.09,0,0,1-.09-.09v-1a.09.09,0,0,1,.09-.09h1a.09.09,0,0,1,.09.09Zm0-2.16a.09.09,0,0,1-.09.09h-1a.09.09,0,0,1-.09-.09v-1a.09.09,0,0,1,.09-.09h1a.09.09,0,0,1,.09.09Zm0-2.16a.09.09,0,0,1-.09.09h-1A.09.09,0,0,1,22.6,25V24a.09.09,0,0,1,.09-.09h1a.09.09,0,0,1,.09.09Zm0-2.16a.09.09,0,0,1-.09.09h-1a.09.09,0,0,1-.09-.09v-1a.09.09,0,0,1,.09-.09h1a.09.09,0,0,1,.09.09Zm7-5.32a.09.09,0,0,1,.09-.09h1a.09.09,0,0,1,.09.09v1a.09.09,0,0,1-.09.09h-1a.09.09,0,0,1-.09-.09Zm-2.05,0a.09.09,0,0,1,.09-.09h1a.09.09,0,0,1,.09.09v1a.09.09,0,0,1-.09.09h-1a.09.09,0,0,1-.09-.09Zm-5,1a.09.09,0,0,1-.09.09h-1a.09.09,0,0,1-.09-.09v-1a.09.09,0,0,1,.09-.09h1a.09.09,0,0,1,.09.09ZM25.83,38a.09.09,0,0,1-.09.09h-1a.09.09,0,0,1-.09-.09V37a.09.09,0,0,1,.09-.09h1a.09.09,0,0,1,.09.09Zm0-2.16a.09.09,0,0,1-.09.09h-1a.09.09,0,0,1-.09-.09v-1a.09.09,0,0,1,.09-.09h1a.09.09,0,0,1,.09.09Zm0-2.16a.09.09,0,0,1-.09.09h-1a.09.09,0,0,1-.09-.09v-1a.09.09,0,0,1,.09-.09h1a.09.09,0,0,1,.09.09Zm0-2.16a.09.09,0,0,1-.09.09h-1a.09.09,0,0,1-.09-.09v-1a.09.09,0,0,1,.09-.09h1a.09.09,0,0,1,.09.09Zm0-2.16a.09.09,0,0,1-.09.09h-1a.09.09,0,0,1-.09-.09v-1a.09.09,0,0,1,.09-.09h1a.09.09,0,0,1,.09.09Zm0-2.16a.09.09,0,0,1-.09.09h-1a.09.09,0,0,1-.09-.09v-1a.09.09,0,0,1,.09-.09h1a.09.09,0,0,1,.09.09Zm0-2.16a.09.09,0,0,1-.09.09h-1a.09.09,0,0,1-.09-.09V24a.09.09,0,0,1,.09-.09h1a.09.09,0,0,1,.09.09Zm0-2.16a.09.09,0,0,1-.09.09h-1a.09.09,0,0,1-.09-.09v-1a.09.09,0,0,1,.09-.09h1a.09.09,0,0,1,.09.09Zm0-2.16a.09.09,0,0,1-.09.09h-1a.09.09,0,0,1-.09-.09v-1a.09.09,0,0,1,.09-.09h1a.09.09,0,0,1,.09.09Zm0-2.16a.09.09,0,0,1-.09.09h-1a.09.09,0,0,1-.09-.09v-1a.09.09,0,0,1,.09-.09h1a.09.09,0,0,1,.09.09ZM27.89,38a.09.09,0,0,1-.09.09h-1A.09.09,0,0,1,26.7,38V37a.09.09,0,0,1,.09-.09h1a.09.09,0,0,1,.09.09Zm0-2.16a.09.09,0,0,1-.09.09h-1a.09.09,0,0,1-.09-.09v-1a.09.09,0,0,1,.09-.09h1a.09.09,0,0,1,.09.09Zm0-2.16a.09.09,0,0,1-.09.09h-1a.09.09,0,0,1-.09-.09v-1a.09.09,0,0,1,.09-.09h1a.09.09,0,0,1,.09.09Zm0-2.16a.09.09,0,0,1-.09.09h-1a.09.09,0,0,1-.09-.09v-1a.09.09,0,0,1,.09-.09h1a.09.09,0,0,1,.09.09Zm0-2.16a.09.09,0,0,1-.09.09h-1a.09.09,0,0,1-.09-.09v-1a.09.09,0,0,1,.09-.09h1a.09.09,0,0,1,.09.09Zm0-2.16a.09.09,0,0,1-.09.09h-1a.09.09,0,0,1-.09-.09v-1a.09.09,0,0,1,.09-.09h1a.09.09,0,0,1,.09.09Zm0-2.16a.09.09,0,0,1-.09.09h-1A.09.09,0,0,1,26.7,25V24a.09.09,0,0,1,.09-.09h1a.09.09,0,0,1,.09.09Zm0-2.16a.09.09,0,0,1-.09.09h-1a.09.09,0,0,1-.09-.09v-1a.09.09,0,0,1,.09-.09h1a.09.09,0,0,1,.09.09Zm0-2.16a.09.09,0,0,1-.09.09h-1a.09.09,0,0,1-.09-.09v-1a.09.09,0,0,1,.09-.09h1a.09.09,0,0,1,.09.09Zm0-2.16a.09.09,0,0,1-.09.09h-1a.09.09,0,0,1-.09-.09v-1a.09.09,0,0,1,.09-.09h1a.09.09,0,0,1,.09.09ZM29.94,38a.09.09,0,0,1-.09.09h-1a.09.09,0,0,1-.09-.09V37a.09.09,0,0,1,.09-.09h1a.09.09,0,0,1,.09.09Zm0-2.16a.09.09,0,0,1-.09.09h-1a.09.09,0,0,1-.09-.09v-1a.09.09,0,0,1,.09-.09h1a.09.09,0,0,1,.09.09Zm0-2.16a.09.09,0,0,1-.09.09h-1a.09.09,0,0,1-.09-.09v-1a.09.09,0,0,1,.09-.09h1a.09.09,0,0,1,.09.09Zm0-2.16a.09.09,0,0,1-.09.09h-1a.09.09,0,0,1-.09-.09v-1a.09.09,0,0,1,.09-.09h1a.09.09,0,0,1,.09.09Zm0-2.16a.09.09,0,0,1-.09.09h-1a.09.09,0,0,1-.09-.09v-1a.09.09,0,0,1,.09-.09h1a.09.09,0,0,1,.09.09Zm0-2.16a.09.09,0,0,1-.09.09h-1a.09.09,0,0,1-.09-.09v-1a.09.09,0,0,1,.09-.09h1a.09.09,0,0,1,.09.09Zm0-2.16a.09.09,0,0,1-.09.09h-1a.09.09,0,0,1-.09-.09V24a.09.09,0,0,1,.09-.09h1a.09.09,0,0,1,.09.09Zm0-2.16a.09.09,0,0,1-.09.09h-1a.09.09,0,0,1-.09-.09v-1a.09.09,0,0,1,.09-.09h1a.09.09,0,0,1,.09.09ZM32,38a.09.09,0,0,1-.09.09h-1a.09.09,0,0,1-.09-.09V37a.09.09,0,0,1,.09-.09h1A.09.09,0,0,1,32,37Zm0-2.16a.09.09,0,0,1-.09.09h-1a.09.09,0,0,1-.09-.09v-1a.09.09,0,0,1,.09-.09h1a.09.09,0,0,1,.09.09Zm0-2.16a.09.09,0,0,1-.09.09h-1a.09.09,0,0,1-.09-.09v-1a.09.09,0,0,1,.09-.09h1a.09.09,0,0,1,.09.09Zm0-2.16a.09.09,0,0,1-.09.09h-1a.09.09,0,0,1-.09-.09v-1a.09.09,0,0,1,.09-.09h1a.09.09,0,0,1,.09.09Zm0-2.16a.09.09,0,0,1-.09.09h-1a.09.09,0,0,1-.09-.09v-1a.09.09,0,0,1,.09-.09h1a.09.09,0,0,1,.09.09Zm0-2.16a.09.09,0,0,1-.09.09h-1a.09.09,0,0,1-.09-.09v-1a.09.09,0,0,1,.09-.09h1a.09.09,0,0,1,.09.09ZM32,25a.09.09,0,0,1-.09.09h-1a.09.09,0,0,1-.09-.09V24a.09.09,0,0,1,.09-.09h1A.09.09,0,0,1,32,24Zm0-2.16a.09.09,0,0,1-.09.09h-1a.09.09,0,0,1-.09-.09v-1a.09.09,0,0,1,.09-.09h1a.09.09,0,0,1,.09.09Zm0-2.14a.09.09,0,0,1-.08.07h-1a.09.09,0,0,1-.09-.09v-.18l-.87-.2v.38a.09.09,0,0,1-.09.09h-1a.09.09,0,0,1-.09-.09V20l-.5-.16s.22,0,.5-.08v-.06a.09.09,0,0,1,.09-.09h.47l.2-.09c.46-.23.62.38,1,.13a1.29,1.29,0,0,1,.9,0h.46a.09.09,0,0,1,.09.09v.11a1.61,1.61,0,0,1,.34.22,5.71,5.71,0,0,0,1.5.73A6.26,6.26,0,0,1,32,20.74Z"/><path class="cls-24" d="M26.7,14.94h-1.2c3.67,1.24,6,1.89,6,1.89A46.62,46.62,0,0,1,26.7,14.94Z"/><path class="cls-25" d="M26.7,14.94h-1.2c3.67,1.24,6,1.89,6,1.89A46.62,46.62,0,0,1,26.7,14.94Z"/><path class="cls-26" d="M26.7,14.94h-1.2c3.67,1.24,6,1.89,6,1.89A46.62,46.62,0,0,1,26.7,14.94Z"/><path class="cls-27" d="M22.6,19.89a23.89,23.89,0,0,1-2.45-.48v.2c1.27.17,2.14.27,2.45.3Z"/><path class="cls-28" d="M22.6,19.89a23.89,23.89,0,0,1-2.45-.48v.2c1.27.17,2.14.27,2.45.3Z"/><path class="cls-29" d="M22.6,19.89a23.89,23.89,0,0,1-2.45-.48v.2c1.27.17,2.14.27,2.45.3Z"/><path class="cls-30" d="M53.52,24.43c2.07.28,3.93.45,5.59.53-.15-.59-.33-1.16-.52-1.73H56.88A5.33,5.33,0,0,0,53.52,24.43Z"/><path class="cls-31" d="M53.52,24.43c2.07.28,3.93.45,5.59.53-.15-.59-.33-1.16-.52-1.73H56.88A5.33,5.33,0,0,0,53.52,24.43Z"/><path class="cls-32" d="M53.52,24.43c2.07.28,3.93.45,5.59.53-.15-.59-.33-1.16-.52-1.73H56.88A5.33,5.33,0,0,0,53.52,24.43Z"/><path class="cls-33" d="M28.25,19.85l.5.16v-.23C28.48,19.83,28.25,19.85,28.25,19.85Z"/><path class="cls-34" d="M28.25,19.85l.5.16v-.23C28.48,19.83,28.25,19.85,28.25,19.85Z"/><path class="cls-35" d="M28.25,19.85l.5.16v-.23C28.48,19.83,28.25,19.85,28.25,19.85Z"/><path class="cls-36" d="M30.9,19.63h.54a1.29,1.29,0,0,0-.9,0c-.41.25-.57-.36-1-.13l-.2.09h.54a.09.09,0,0,1,.09.09v.62l.87.2v-.82A.09.09,0,0,1,30.9,19.63Z"/><path class="cls-37" d="M30.9,19.63h.54a1.29,1.29,0,0,0-.9,0c-.41.25-.57-.36-1-.13l-.2.09h.54a.09.09,0,0,1,.09.09v.62l.87.2v-.82A.09.09,0,0,1,30.9,19.63Z"/><path class="cls-38" d="M30.9,19.63h.54a1.29,1.29,0,0,0-.9,0c-.41.25-.57-.36-1-.13l-.2.09h.54a.09.09,0,0,1,.09.09v.62l.87.2v-.82A.09.09,0,0,1,30.9,19.63Z"/><path class="cls-39" d="M32,19.83v.89s0,0,0,0a6.26,6.26,0,0,0,1.86,0,5.71,5.71,0,0,1-1.5-.73A1.61,1.61,0,0,0,32,19.83Z"/><path class="cls-40" d="M32,19.83v.89s0,0,0,0a6.26,6.26,0,0,0,1.86,0,5.71,5.71,0,0,1-1.5-.73A1.61,1.61,0,0,0,32,19.83Z"/><path class="cls-41" d="M32,19.83v.89s0,0,0,0a6.26,6.26,0,0,0,1.86,0,5.71,5.71,0,0,1-1.5-.73A1.61,1.61,0,0,0,32,19.83Z"/><path class="cls-42" d="M34.48,38.63H20.15V42H10.47V40.1H5.2a27.83,27.83,0,0,0,2.18,5.23H35.1Zm-10.7,1.54a.09.09,0,0,1-.09.09h-1a.09.09,0,0,1-.09-.09v-1a.09.09,0,0,1,.09-.09h1a.09.09,0,0,1,.09.09Zm2.05,0a.09.09,0,0,1-.09.09h-1a.09.09,0,0,1-.09-.09v-1a.09.09,0,0,1,.09-.09h1a.09.09,0,0,1,.09.09Zm2.05,0a.09.09,0,0,1-.09.09h-1a.09.09,0,0,1-.09-.09v-1a.09.09,0,0,1,.09-.09h1a.09.09,0,0,1,.09.09Zm2.05,0a.09.09,0,0,1-.09.09h-1a.09.09,0,0,1-.09-.09v-1a.09.09,0,0,1,.09-.09h1a.09.09,0,0,1,.09.09Zm2.05,0a.09.09,0,0,1-.09.09h-1a.09.09,0,0,1-.09-.09v-1a.09.09,0,0,1,.09-.09h1a.09.09,0,0,1,.09.09Z"/><path class="cls-43" d="M34.48,38.63H20.15V42H10.47V40.1H5.2a27.83,27.83,0,0,0,2.18,5.23H35.1Zm-10.7,1.54a.09.09,0,0,1-.09.09h-1a.09.09,0,0,1-.09-.09v-1a.09.09,0,0,1,.09-.09h1a.09.09,0,0,1,.09.09Zm2.05,0a.09.09,0,0,1-.09.09h-1a.09.09,0,0,1-.09-.09v-1a.09.09,0,0,1,.09-.09h1a.09.09,0,0,1,.09.09Zm2.05,0a.09.09,0,0,1-.09.09h-1a.09.09,0,0,1-.09-.09v-1a.09.09,0,0,1,.09-.09h1a.09.09,0,0,1,.09.09Zm2.05,0a.09.09,0,0,1-.09.09h-1a.09.09,0,0,1-.09-.09v-1a.09.09,0,0,1,.09-.09h1a.09.09,0,0,1,.09.09Zm2.05,0a.09.09,0,0,1-.09.09h-1a.09.09,0,0,1-.09-.09v-1a.09.09,0,0,1,.09-.09h1a.09.09,0,0,1,.09.09Z"/><path class="cls-44" d="M34.48,38.63H20.15V42H10.47V40.1H5.2a27.83,27.83,0,0,0,2.18,5.23H35.1Zm-10.7,1.54a.09.09,0,0,1-.09.09h-1a.09.09,0,0,1-.09-.09v-1a.09.09,0,0,1,.09-.09h1a.09.09,0,0,1,.09.09Zm2.05,0a.09.09,0,0,1-.09.09h-1a.09.09,0,0,1-.09-.09v-1a.09.09,0,0,1,.09-.09h1a.09.09,0,0,1,.09.09Zm2.05,0a.09.09,0,0,1-.09.09h-1a.09.09,0,0,1-.09-.09v-1a.09.09,0,0,1,.09-.09h1a.09.09,0,0,1,.09.09Zm2.05,0a.09.09,0,0,1-.09.09h-1a.09.09,0,0,1-.09-.09v-1a.09.09,0,0,1,.09-.09h1a.09.09,0,0,1,.09.09Zm2.05,0a.09.09,0,0,1-.09.09h-1a.09.09,0,0,1-.09-.09v-1a.09.09,0,0,1,.09-.09h1a.09.09,0,0,1,.09.09Z"/><rect class="cls-45" x="22.6" y="17.46" width="1.18" height="1.18" rx="0.09" ry="0.09"/><rect class="cls-46" x="22.6" y="17.46" width="1.18" height="1.18" rx="0.09" ry="0.09"/><rect class="cls-47" x="22.6" y="17.46" width="1.18" height="1.18" rx="0.09" ry="0.09"/><rect class="cls-48" x="24.65" y="17.46" width="1.18" height="1.18" rx="0.09" ry="0.09"/><rect class="cls-49" x="24.65" y="17.46" width="1.18" height="1.18" rx="0.09" ry="0.09"/><rect class="cls-50" x="24.65" y="17.46" width="1.18" height="1.18" rx="0.09" ry="0.09"/><rect class="cls-51" x="26.7" y="17.46" width="1.18" height="1.18" rx="0.09" ry="0.09"/><rect class="cls-52" x="26.7" y="17.46" width="1.18" height="1.18" rx="0.09" ry="0.09"/><rect class="cls-53" x="26.7" y="17.46" width="1.18" height="1.18" rx="0.09" ry="0.09"/><rect class="cls-54" x="28.75" y="17.46" width="1.18" height="1.18" rx="0.09" ry="0.09"/><rect class="cls-55" x="28.75" y="17.46" width="1.18" height="1.18" rx="0.09" ry="0.09"/><rect class="cls-56" x="28.75" y="17.46" width="1.18" height="1.18" rx="0.09" ry="0.09"/><rect class="cls-57" x="30.81" y="17.46" width="1.18" height="1.18" rx="0.09" ry="0.09"/><rect class="cls-58" x="30.81" y="17.46" width="1.18" height="1.18" rx="0.09" ry="0.09"/><rect class="cls-59" x="30.81" y="17.46" width="1.18" height="1.18" rx="0.09" ry="0.09"/><path class="cls-45" d="M22.6,19.9v.82a.09.09,0,0,0,.09.09h1a.09.09,0,0,0,.09-.09v-1a.09.09,0,0,0-.09-.09h-1a.09.09,0,0,0-.09.09v.17l.13,0Z"/><path class="cls-46" d="M22.6,19.9v.82a.09.09,0,0,0,.09.09h1a.09.09,0,0,0,.09-.09v-1a.09.09,0,0,0-.09-.09h-1a.09.09,0,0,0-.09.09v.17l.13,0Z"/><path class="cls-47" d="M22.6,19.9v.82a.09.09,0,0,0,.09.09h1a.09.09,0,0,0,.09-.09v-1a.09.09,0,0,0-.09-.09h-1a.09.09,0,0,0-.09.09v.17l.13,0Z"/><path class="cls-60" d="M22.73,19.91l-.13,0h.13Z"/><path class="cls-61" d="M22.73,19.91l-.13,0h.13Z"/><path class="cls-62" d="M22.73,19.91l-.13,0h.13Z"/><path class="cls-63" d="M22.73,19.91l-.13,0h.13Z"/><rect class="cls-48" x="24.65" y="19.63" width="1.18" height="1.18" rx="0.09" ry="0.09"/><rect class="cls-49" x="24.65" y="19.63" width="1.18" height="1.18" rx="0.09" ry="0.09"/><rect class="cls-50" x="24.65" y="19.63" width="1.18" height="1.18" rx="0.09" ry="0.09"/><rect class="cls-51" x="26.7" y="19.63" width="1.18" height="1.18" rx="0.09" ry="0.09"/><rect class="cls-52" x="26.7" y="19.63" width="1.18" height="1.18" rx="0.09" ry="0.09"/><rect class="cls-53" x="26.7" y="19.63" width="1.18" height="1.18" rx="0.09" ry="0.09"/><path class="cls-64" d="M28.84,19.63a.09.09,0,0,0-.09.09v.06a4,4,0,0,0,.56-.15Z"/><path class="cls-65" d="M28.84,19.63a.09.09,0,0,0-.09.09v.06a4,4,0,0,0,.56-.15Z"/><path class="cls-66" d="M28.84,19.63a.09.09,0,0,0-.09.09v.06a4,4,0,0,0,.56-.15Z"/><path class="cls-54" d="M28.75,20.72a.09.09,0,0,0,.09.09h1a.09.09,0,0,0,.09-.09v-.38c-.47-.12-.88-.24-1.18-.33Z"/><path class="cls-55" d="M28.75,20.72a.09.09,0,0,0,.09.09h1a.09.09,0,0,0,.09-.09v-.38c-.47-.12-.88-.24-1.18-.33Z"/><path class="cls-56" d="M28.75,20.72a.09.09,0,0,0,.09.09h1a.09.09,0,0,0,.09-.09v-.38c-.47-.12-.88-.24-1.18-.33Z"/><path class="cls-54" d="M29.85,19.63h-.54a4,4,0,0,1-.56.15V20c.3.09.71.21,1.18.33v-.62A.09.09,0,0,0,29.85,19.63Z"/><path class="cls-67" d="M29.85,19.63h-.54a4,4,0,0,1-.56.15V20c.3.09.71.21,1.18.33v-.62A.09.09,0,0,0,29.85,19.63Z"/><path class="cls-55" d="M29.85,19.63h-.54a4,4,0,0,1-.56.15V20c.3.09.71.21,1.18.33v-.62A.09.09,0,0,0,29.85,19.63Z"/><path class="cls-56" d="M29.85,19.63h-.54a4,4,0,0,1-.56.15V20c.3.09.71.21,1.18.33v-.62A.09.09,0,0,0,29.85,19.63Z"/><path class="cls-68" d="M32,19.72a.09.09,0,0,0-.09-.09h-.46a2.43,2.43,0,0,1,.55.2Z"/><path class="cls-69" d="M32,19.72a.09.09,0,0,0-.09-.09h-.46a2.43,2.43,0,0,1,.55.2Z"/><path class="cls-70" d="M32,19.72a.09.09,0,0,0-.09-.09h-.46a2.43,2.43,0,0,1,.55.2Z"/><path class="cls-71" d="M30.81,20.72a.09.09,0,0,0,.09.09h1a.09.09,0,0,0,.08-.07c-.39-.05-.79-.12-1.17-.21Z"/><path class="cls-72" d="M30.81,20.72a.09.09,0,0,0,.09.09h1a.09.09,0,0,0,.08-.07c-.39-.05-.79-.12-1.17-.21Z"/><path class="cls-73" d="M30.81,20.72a.09.09,0,0,0,.09.09h1a.09.09,0,0,0,.08-.07c-.39-.05-.79-.12-1.17-.21Z"/><path class="cls-57" d="M32,19.83a2.43,2.43,0,0,0-.55-.2H30.9a.09.09,0,0,0-.09.09v.82c.39.08.78.15,1.17.21,0,0,0,0,0,0Z"/><path class="cls-74" d="M32,19.83a2.43,2.43,0,0,0-.55-.2H30.9a.09.09,0,0,0-.09.09v.82c.39.08.78.15,1.17.21,0,0,0,0,0,0Z"/><path class="cls-58" d="M32,19.83a2.43,2.43,0,0,0-.55-.2H30.9a.09.09,0,0,0-.09.09v.82c.39.08.78.15,1.17.21,0,0,0,0,0,0Z"/><path class="cls-59" d="M32,19.83a2.43,2.43,0,0,0-.55-.2H30.9a.09.09,0,0,0-.09.09v.82c.39.08.78.15,1.17.21,0,0,0,0,0,0Z"/><rect class="cls-45" x="22.6" y="21.79" width="1.18" height="1.18" rx="0.09" ry="0.09"/><rect class="cls-46" x="22.6" y="21.79" width="1.18" height="1.18" rx="0.09" ry="0.09"/><rect class="cls-47" x="22.6" y="21.79" width="1.18" height="1.18" rx="0.09" ry="0.09"/><rect class="cls-48" x="24.65" y="21.79" width="1.18" height="1.18" rx="0.09" ry="0.09"/><rect class="cls-49" x="24.65" y="21.79" width="1.18" height="1.18" rx="0.09" ry="0.09"/><rect class="cls-50" x="24.65" y="21.79" width="1.18" height="1.18" rx="0.09" ry="0.09"/><rect class="cls-51" x="26.7" y="21.79" width="1.18" height="1.18" rx="0.09" ry="0.09"/><rect class="cls-52" x="26.7" y="21.79" width="1.18" height="1.18" rx="0.09" ry="0.09"/><rect class="cls-53" x="26.7" y="21.79" width="1.18" height="1.18" rx="0.09" ry="0.09"/><rect class="cls-54" x="28.75" y="21.79" width="1.18" height="1.18" rx="0.09" ry="0.09"/><rect class="cls-55" x="28.75" y="21.79" width="1.18" height="1.18" rx="0.09" ry="0.09"/><rect class="cls-56" x="28.75" y="21.79" width="1.18" height="1.18" rx="0.09" ry="0.09"/><rect class="cls-57" x="30.81" y="21.79" width="1.18" height="1.18" rx="0.09" ry="0.09"/><rect class="cls-58" x="30.81" y="21.79" width="1.18" height="1.18" rx="0.09" ry="0.09"/><rect class="cls-59" x="30.81" y="21.79" width="1.18" height="1.18" rx="0.09" ry="0.09"/><rect class="cls-45" x="22.6" y="23.95" width="1.18" height="1.18" rx="0.09" ry="0.09"/><rect class="cls-46" x="22.6" y="23.95" width="1.18" height="1.18" rx="0.09" ry="0.09"/><rect class="cls-47" x="22.6" y="23.95" width="1.18" height="1.18" rx="0.09" ry="0.09"/><rect class="cls-48" x="24.65" y="23.95" width="1.18" height="1.18" rx="0.09" ry="0.09"/><rect class="cls-49" x="24.65" y="23.95" width="1.18" height="1.18" rx="0.09" ry="0.09"/><rect class="cls-50" x="24.65" y="23.95" width="1.18" height="1.18" rx="0.09" ry="0.09"/><rect class="cls-51" x="26.7" y="23.95" width="1.18" height="1.18" rx="0.09" ry="0.09"/><rect class="cls-52" x="26.7" y="23.95" width="1.18" height="1.18" rx="0.09" ry="0.09"/><rect class="cls-53" x="26.7" y="23.95" width="1.18" height="1.18" rx="0.09" ry="0.09"/><rect class="cls-54" x="28.75" y="23.95" width="1.18" height="1.18" rx="0.09" ry="0.09"/><rect class="cls-55" x="28.75" y="23.95" width="1.18" height="1.18" rx="0.09" ry="0.09"/><rect class="cls-56" x="28.75" y="23.95" width="1.18" height="1.18" rx="0.09" ry="0.09"/><rect class="cls-57" x="30.81" y="23.95" width="1.18" height="1.18" rx="0.09" ry="0.09"/><rect class="cls-58" x="30.81" y="23.95" width="1.18" height="1.18" rx="0.09" ry="0.09"/><rect class="cls-59" x="30.81" y="23.95" width="1.18" height="1.18" rx="0.09" ry="0.09"/><rect class="cls-45" x="22.6" y="26.11" width="1.18" height="1.18" rx="0.09" ry="0.09"/><rect class="cls-46" x="22.6" y="26.11" width="1.18" height="1.18" rx="0.09" ry="0.09"/><rect class="cls-47" x="22.6" y="26.11" width="1.18" height="1.18" rx="0.09" ry="0.09"/><rect class="cls-48" x="24.65" y="26.11" width="1.18" height="1.18" rx="0.09" ry="0.09"/><rect class="cls-49" x="24.65" y="26.11" width="1.18" height="1.18" rx="0.09" ry="0.09"/><rect class="cls-50" x="24.65" y="26.11" width="1.18" height="1.18" rx="0.09" ry="0.09"/><rect class="cls-51" x="26.7" y="26.11" width="1.18" height="1.18" rx="0.09" ry="0.09"/><rect class="cls-52" x="26.7" y="26.11" width="1.18" height="1.18" rx="0.09" ry="0.09"/><rect class="cls-53" x="26.7" y="26.11" width="1.18" height="1.18" rx="0.09" ry="0.09"/><rect class="cls-54" x="28.75" y="26.11" width="1.18" height="1.18" rx="0.09" ry="0.09"/><rect class="cls-55" x="28.75" y="26.11" width="1.18" height="1.18" rx="0.09" ry="0.09"/><rect class="cls-56" x="28.75" y="26.11" width="1.18" height="1.18" rx="0.09" ry="0.09"/><rect class="cls-57" x="30.81" y="26.11" width="1.18" height="1.18" rx="0.09" ry="0.09"/><rect class="cls-58" x="30.81" y="26.11" width="1.18" height="1.18" rx="0.09" ry="0.09"/><rect class="cls-59" x="30.81" y="26.11" width="1.18" height="1.18" rx="0.09" ry="0.09"/><rect class="cls-45" x="22.6" y="28.27" width="1.18" height="1.18" rx="0.09" ry="0.09"/><rect class="cls-46" x="22.6" y="28.27" width="1.18" height="1.18" rx="0.09" ry="0.09"/><rect class="cls-47" x="22.6" y="28.27" width="1.18" height="1.18" rx="0.09" ry="0.09"/><rect class="cls-48" x="24.65" y="28.27" width="1.18" height="1.18" rx="0.09" ry="0.09"/><rect class="cls-49" x="24.65" y="28.27" width="1.18" height="1.18" rx="0.09" ry="0.09"/><rect class="cls-50" x="24.65" y="28.27" width="1.18" height="1.18" rx="0.09" ry="0.09"/><rect class="cls-51" x="26.7" y="28.27" width="1.18" height="1.18" rx="0.09" ry="0.09"/><rect class="cls-52" x="26.7" y="28.27" width="1.18" height="1.18" rx="0.09" ry="0.09"/><rect class="cls-53" x="26.7" y="28.27" width="1.18" height="1.18" rx="0.09" ry="0.09"/><rect class="cls-54" x="28.75" y="28.27" width="1.18" height="1.18" rx="0.09" ry="0.09"/><rect class="cls-55" x="28.75" y="28.27" width="1.18" height="1.18" rx="0.09" ry="0.09"/><rect class="cls-56" x="28.75" y="28.27" width="1.18" height="1.18" rx="0.09" ry="0.09"/><rect class="cls-57" x="30.81" y="28.27" width="1.18" height="1.18" rx="0.09" ry="0.09"/><rect class="cls-58" x="30.81" y="28.27" width="1.18" height="1.18" rx="0.09" ry="0.09"/><rect class="cls-59" x="30.81" y="28.27" width="1.18" height="1.18" rx="0.09" ry="0.09"/><rect class="cls-45" x="22.6" y="30.43" width="1.18" height="1.18" rx="0.09" ry="0.09"/><rect class="cls-46" x="22.6" y="30.43" width="1.18" height="1.18" rx="0.09" ry="0.09"/><rect class="cls-47" x="22.6" y="30.43" width="1.18" height="1.18" rx="0.09" ry="0.09"/><rect class="cls-48" x="24.65" y="30.43" width="1.18" height="1.18" rx="0.09" ry="0.09"/><rect class="cls-49" x="24.65" y="30.43" width="1.18" height="1.18" rx="0.09" ry="0.09"/><rect class="cls-50" x="24.65" y="30.43" width="1.18" height="1.18" rx="0.09" ry="0.09"/><rect class="cls-51" x="26.7" y="30.43" width="1.18" height="1.18" rx="0.09" ry="0.09"/><rect class="cls-52" x="26.7" y="30.43" width="1.18" height="1.18" rx="0.09" ry="0.09"/><rect class="cls-53" x="26.7" y="30.43" width="1.18" height="1.18" rx="0.09" ry="0.09"/><rect class="cls-54" x="28.75" y="30.43" width="1.18" height="1.18" rx="0.09" ry="0.09"/><rect class="cls-55" x="28.75" y="30.43" width="1.18" height="1.18" rx="0.09" ry="0.09"/><rect class="cls-56" x="28.75" y="30.43" width="1.18" height="1.18" rx="0.09" ry="0.09"/><rect class="cls-57" x="30.81" y="30.43" width="1.18" height="1.18" rx="0.09" ry="0.09"/><rect class="cls-58" x="30.81" y="30.43" width="1.18" height="1.18" rx="0.09" ry="0.09"/><rect class="cls-59" x="30.81" y="30.43" width="1.18" height="1.18" rx="0.09" ry="0.09"/><rect class="cls-45" x="22.6" y="32.59" width="1.18" height="1.18" rx="0.09" ry="0.09"/><rect class="cls-46" x="22.6" y="32.59" width="1.18" height="1.18" rx="0.09" ry="0.09"/><rect class="cls-47" x="22.6" y="32.59" width="1.18" height="1.18" rx="0.09" ry="0.09"/><rect class="cls-48" x="24.65" y="32.59" width="1.18" height="1.18" rx="0.09" ry="0.09"/><rect class="cls-49" x="24.65" y="32.59" width="1.18" height="1.18" rx="0.09" ry="0.09"/><rect class="cls-50" x="24.65" y="32.59" width="1.18" height="1.18" rx="0.09" ry="0.09"/><rect class="cls-51" x="26.7" y="32.59" width="1.18" height="1.18" rx="0.09" ry="0.09"/><rect class="cls-52" x="26.7" y="32.59" width="1.18" height="1.18" rx="0.09" ry="0.09"/><rect class="cls-53" x="26.7" y="32.59" width="1.18" height="1.18" rx="0.09" ry="0.09"/><rect class="cls-54" x="28.75" y="32.59" width="1.18" height="1.18" rx="0.09" ry="0.09"/><rect class="cls-55" x="28.75" y="32.59" width="1.18" height="1.18" rx="0.09" ry="0.09"/><rect class="cls-56" x="28.75" y="32.59" width="1.18" height="1.18" rx="0.09" ry="0.09"/><rect class="cls-57" x="30.81" y="32.59" width="1.18" height="1.18" rx="0.09" ry="0.09"/><rect class="cls-58" x="30.81" y="32.59" width="1.18" height="1.18" rx="0.09" ry="0.09"/><rect class="cls-59" x="30.81" y="32.59" width="1.18" height="1.18" rx="0.09" ry="0.09"/><rect class="cls-45" x="22.6" y="34.75" width="1.18" height="1.18" rx="0.09" ry="0.09"/><rect class="cls-46" x="22.6" y="34.75" width="1.18" height="1.18" rx="0.09" ry="0.09"/><rect class="cls-47" x="22.6" y="34.75" width="1.18" height="1.18" rx="0.09" ry="0.09"/><rect class="cls-48" x="24.65" y="34.75" width="1.18" height="1.18" rx="0.09" ry="0.09"/><rect class="cls-49" x="24.65" y="34.75" width="1.18" height="1.18" rx="0.09" ry="0.09"/><rect class="cls-50" x="24.65" y="34.75" width="1.18" height="1.18" rx="0.09" ry="0.09"/><rect class="cls-51" x="26.7" y="34.75" width="1.18" height="1.18" rx="0.09" ry="0.09"/><rect class="cls-52" x="26.7" y="34.75" width="1.18" height="1.18" rx="0.09" ry="0.09"/><rect class="cls-53" x="26.7" y="34.75" width="1.18" height="1.18" rx="0.09" ry="0.09"/><rect class="cls-54" x="28.75" y="34.75" width="1.18" height="1.18" rx="0.09" ry="0.09"/><rect class="cls-55" x="28.75" y="34.75" width="1.18" height="1.18" rx="0.09" ry="0.09"/><rect class="cls-56" x="28.75" y="34.75" width="1.18" height="1.18" rx="0.09" ry="0.09"/><rect class="cls-57" x="30.81" y="34.75" width="1.18" height="1.18" rx="0.09" ry="0.09"/><rect class="cls-58" x="30.81" y="34.75" width="1.18" height="1.18" rx="0.09" ry="0.09"/><rect class="cls-59" x="30.81" y="34.75" width="1.18" height="1.18" rx="0.09" ry="0.09"/><rect class="cls-45" x="22.6" y="36.92" width="1.18" height="1.18" rx="0.09" ry="0.09"/><rect class="cls-46" x="22.6" y="36.92" width="1.18" height="1.18" rx="0.09" ry="0.09"/><rect class="cls-47" x="22.6" y="36.92" width="1.18" height="1.18" rx="0.09" ry="0.09"/><rect class="cls-48" x="24.65" y="36.92" width="1.18" height="1.18" rx="0.09" ry="0.09"/><rect class="cls-49" x="24.65" y="36.92" width="1.18" height="1.18" rx="0.09" ry="0.09"/><rect class="cls-50" x="24.65" y="36.92" width="1.18" height="1.18" rx="0.09" ry="0.09"/><rect class="cls-51" x="26.7" y="36.92" width="1.18" height="1.18" rx="0.09" ry="0.09"/><rect class="cls-52" x="26.7" y="36.92" width="1.18" height="1.18" rx="0.09" ry="0.09"/><rect class="cls-53" x="26.7" y="36.92" width="1.18" height="1.18" rx="0.09" ry="0.09"/><rect class="cls-54" x="28.75" y="36.92" width="1.18" height="1.18" rx="0.09" ry="0.09"/><rect class="cls-55" x="28.75" y="36.92" width="1.18" height="1.18" rx="0.09" ry="0.09"/><rect class="cls-56" x="28.75" y="36.92" width="1.18" height="1.18" rx="0.09" ry="0.09"/><rect class="cls-57" x="30.81" y="36.92" width="1.18" height="1.18" rx="0.09" ry="0.09"/><rect class="cls-58" x="30.81" y="36.92" width="1.18" height="1.18" rx="0.09" ry="0.09"/><rect class="cls-59" x="30.81" y="36.92" width="1.18" height="1.18" rx="0.09" ry="0.09"/><rect class="cls-45" x="22.6" y="39.08" width="1.18" height="1.18" rx="0.09" ry="0.09"/><rect class="cls-75" x="22.6" y="39.08" width="1.18" height="1.18" rx="0.09" ry="0.09"/><rect class="cls-46" x="22.6" y="39.08" width="1.18" height="1.18" rx="0.09" ry="0.09"/><rect class="cls-47" x="22.6" y="39.08" width="1.18" height="1.18" rx="0.09" ry="0.09"/><rect class="cls-48" x="24.65" y="39.08" width="1.18" height="1.18" rx="0.09" ry="0.09"/><rect class="cls-76" x="24.65" y="39.08" width="1.18" height="1.18" rx="0.09" ry="0.09"/><rect class="cls-49" x="24.65" y="39.08" width="1.18" height="1.18" rx="0.09" ry="0.09"/><rect class="cls-50" x="24.65" y="39.08" width="1.18" height="1.18" rx="0.09" ry="0.09"/><rect class="cls-51" x="26.7" y="39.08" width="1.18" height="1.18" rx="0.09" ry="0.09"/><rect class="cls-77" x="26.7" y="39.08" width="1.18" height="1.18" rx="0.09" ry="0.09"/><rect class="cls-52" x="26.7" y="39.08" width="1.18" height="1.18" rx="0.09" ry="0.09"/><rect class="cls-53" x="26.7" y="39.08" width="1.18" height="1.18" rx="0.09" ry="0.09"/><rect class="cls-54" x="28.75" y="39.08" width="1.18" height="1.18" rx="0.09" ry="0.09"/><rect class="cls-78" x="28.75" y="39.08" width="1.18" height="1.18" rx="0.09" ry="0.09"/><rect class="cls-55" x="28.75" y="39.08" width="1.18" height="1.18" rx="0.09" ry="0.09"/><rect class="cls-56" x="28.75" y="39.08" width="1.18" height="1.18" rx="0.09" ry="0.09"/><rect class="cls-57" x="30.81" y="39.08" width="1.18" height="1.18" rx="0.09" ry="0.09"/><rect class="cls-79" x="30.81" y="39.08" width="1.18" height="1.18" rx="0.09" ry="0.09"/><rect class="cls-58" x="30.81" y="39.08" width="1.18" height="1.18" rx="0.09" ry="0.09"/><rect class="cls-59" x="30.81" y="39.08" width="1.18" height="1.18" rx="0.09" ry="0.09"/><path class="cls-80" d="M41.89,43.12h3.18v-2H51.5V31.81H45.65a1.07,1.07,0,0,0-1.07,1.07v5.19H37.21v.27A4.69,4.69,0,0,0,41.89,43.12Z"/><path class="cls-81" d="M41.89,43.12h3.18v-2H51.5V31.81H45.65a1.07,1.07,0,0,0-1.07,1.07v5.19H37.21v.27A4.69,4.69,0,0,0,41.89,43.12Z"/><path class="cls-82" d="M41.89,43.12h3.18v-2H51.5V31.81H45.65a1.07,1.07,0,0,0-1.07,1.07v5.19H37.21v.27A4.69,4.69,0,0,0,41.89,43.12Z"/><path class="cls-83" d="M11.24,25.6h0l.11,0a.39.39,0,0,0,.2-.12,1.58,1.58,0,0,0-.51-.06C11,25.41,11.1,25.5,11.24,25.6Z"/><path class="cls-84" d="M11.24,25.6h0l.11,0a.39.39,0,0,0,.2-.12,1.58,1.58,0,0,0-.51-.06C11,25.41,11.1,25.5,11.24,25.6Z"/><path class="cls-85" d="M11.24,25.6h0l.11,0a.39.39,0,0,0,.2-.12,1.58,1.58,0,0,0-.51-.06C11,25.41,11.1,25.5,11.24,25.6Z"/><g id="_Group_" data-name="&lt;Group&gt;"><path class="cls-86" d="M35.73,58.45a3.5,3.5,0,0,1-1.42-.25.16.16,0,0,1,.14-.3,6,6,0,0,0,3.13,0,.16.16,0,0,1,.08.32A8.48,8.48,0,0,1,35.73,58.45Z"/></g><g id="_Group_2" data-name="&lt;Group&gt;"><path class="cls-86" d="M35,58.39l-.07,0a.16.16,0,0,1-.08-.22l.31-.64a.16.16,0,0,1,.3.14l-.31.64A.16.16,0,0,1,35,58.39Z"/></g><g id="_Group_3" data-name="&lt;Group&gt;"><path class="cls-86" d="M36.68,58.31a.16.16,0,0,1-.16-.13l-.15-.7a.16.16,0,1,1,.32-.07l.15.7a.16.16,0,0,1-.12.19Z"/></g><g id="_Group_4" data-name="&lt;Group&gt;"><path class="cls-86" d="M48.74,58.38a3.5,3.5,0,0,1-1.42-.25.16.16,0,0,1,.14-.3,6,6,0,0,0,3.13,0,.16.16,0,1,1,.08.32A8.48,8.48,0,0,1,48.74,58.38Z"/></g><g id="_Group_5" data-name="&lt;Group&gt;"><path class="cls-86" d="M48,58.32l-.07,0a.16.16,0,0,1-.08-.22l.31-.64a.16.16,0,0,1,.3.14l-.31.64A.16.16,0,0,1,48,58.32Z"/></g><g id="_Group_6" data-name="&lt;Group&gt;"><path class="cls-86" d="M49.7,58.24a.16.16,0,0,1-.16-.13l-.15-.7a.16.16,0,1,1,.32-.07l.15.7a.16.16,0,0,1-.12.19Z"/></g><path class="cls-87" d="M40,43.23s-5.43,5.16-4,11.4h1.35S39.66,48,43.2,45.72s-.87-4.34-.87-4.34"/><path class="cls-88" d="M41.56,42.75s.8,8.58,6.08,11.88h1.68S45.77,49,46.37,46.86a12.6,12.6,0,0,0,.35-4.29"/><path class="cls-89" d="M32.17,35s1.14-.37,1.19,0,1,.28,1.36.09.39,1.92-2.55,1.74"/><path class="cls-89" d="M28.32,15.36l.14,3.92a.45.45,0,0,1-.22.4h0a.74.74,0,0,0-.33.44c-.14.51-.51,1.5-1.31,1.3a1.73,1.73,0,0,0-2.11,1.35l-3.27-1.33s.66-5.29,3.11-6.38A3.68,3.68,0,0,1,28.32,15.36Z"/><path class="cls-90" d="M27.22,18.2c-1.76-.59-2.56,2.48-1.15,3.11l.15.06a1.55,1.55,0,0,0-1,.29c-1.45,0-3.78-.13-3.78-.13l-.06-1.13c.32-1.56,1.14-4.43,2.82-5.28l3.18.05.77.09.13.1.08,2.13-.4.17a8.11,8.11,0,0,0,.08,1.6c0,.18.27.22.34.23a.45.45,0,0,1-.17.2.74.74,0,0,0-.33.44S28.22,18.53,27.22,18.2Z"/><path class="cls-91" d="M29.06,15a2.48,2.48,0,0,1-.44,1.58A2.25,2.25,0,0,1,27,17.62c-3.13.3-2.48,3.23-1.44,4.57s-7.54-.1-7.54-.1a10.86,10.86,0,0,1,1.58-7.71C21.49,11.27,28.78,11.55,29.06,15Z"/><path class="cls-92" d="M27,17.62s-3.53,0-2.48-1,2-1.8-2.49-1.35-1.62-1.81-1.51-1.9a3.53,3.53,0,0,0-.92,1A10.86,10.86,0,0,0,18,22.09s8.58,1.44,7.54.1S23.89,17.92,27,17.62Z"/><path class="cls-93" d="M24.15,20.27a.43.43,0,0,1-.21-.2,1.13,1.13,0,0,0-1-.61h0a1.12,1.12,0,0,0-1.14-.9h-.12a.42.42,0,0,1-.38-.14,1.13,1.13,0,0,0-.89-.39l-.19,0a.41.41,0,0,1-.4-.15,1.14,1.14,0,0,0-1.23-.36.42.42,0,0,1-.39-.08,1.14,1.14,0,0,0-1.28-.09.42.42,0,0,1-.41,0,1.14,1.14,0,0,0-1.23.13.4.4,0,0,1-.29.1h-.15a1.11,1.11,0,1,0,.06,2.22,1.13,1.13,0,0,0,.81-.38,1.13,1.13,0,0,0,1-.27A1.14,1.14,0,0,0,18,19.3a1.14,1.14,0,0,0,1.36.31,1.13,1.13,0,0,0,1.06.65,1.14,1.14,0,0,0,.36-.07,1.13,1.13,0,0,0,1,.6h0a1.12,1.12,0,0,0,.78.85,1.13,1.13,0,0,0,2.2-.39A1.11,1.11,0,0,0,24.15,20.27Z"/><path id="_Path_" data-name="&lt;Path&gt;" class="cls-94" d="M17.74,28.36c3.43,1.81,5.83,8.52,13.36,5.42l.13,3.92s-12.1,3.63-14.92-5.64C14.69,26.76,16.83,27.88,17.74,28.36Z"/><path id="_Path_2" data-name="&lt;Path&gt;" class="cls-93" d="M29.43,34.33a5.45,5.45,0,0,0,2-.86c.59-.55,1.46,0,1.19,1.14s.58.8.05,1.71,0,1.12-1.74,1.42A4.39,4.39,0,0,0,29.43,34.33Z"/><path id="_Path_3" data-name="&lt;Path&gt;" class="cls-95" d="M34.53,34.92a3.69,3.69,0,0,0,3.23,1.34c2.29-.08,4.92,0,5.18-.85S41.85,32.77,41,33.13a11.58,11.58,0,0,1-4,.53c-1.66,0-2.24.16-2.63.82Z"/><path id="_Path_4" data-name="&lt;Path&gt;" class="cls-96" d="M39.55,36.21s2.78,2.35-.08,7.13c-1.39,2.31,7.21,4,7.49.44.59-7.36-.4-7.85-.77-10.13-.18-1.14-2.22.71-3.8.74S39.32,33.44,39.55,36.21Z"/><path id="_Path_5" data-name="&lt;Path&gt;" class="cls-97" d="M44.48,28.13s8.46,5.36,1.92,7.07-6-1.7-4.76-1.95c7.62-1.53,2.13-1.37,2.4-4.35Z"/><path class="cls-98" d="M43.21,28.9s.58.94,1.22,1,.66-1.5.16-2.08-1.52-.5-1.38.08"/><path class="cls-99" d="M41.18,33.88a1.91,1.91,0,0,0,.51,1.79c.78.61,2.08-2.87,2.08-2.87l-.06-.57-2.83.43"/><path class="cls-89" d="M41.72,29.42a2.36,2.36,0,0,0-3,2.1h0s-.35,1.33.16,1.71c.17.12.41.06.55.2a2.36,2.36,0,0,0,1.06.59,2.74,2.74,0,0,0,3.18-1.8A2.47,2.47,0,0,0,41.72,29.42Z"/><path class="cls-100" d="M41.74,34a2.67,2.67,0,0,0,2-1.79A2.2,2.2,0,0,0,42.8,30l-1-.24-1.58-.18a2.37,2.37,0,0,0-1.4,1.6,2.21,2.21,0,0,0,0,.27l.29.5a2.27,2.27,0,0,0,.07,1,.24.24,0,0,1-.2.38c.17.11.39.05.54.19l.07.06s-.72-1.52.78-1.27S42.92,33.61,41.74,34Z"/><path class="cls-101" d="M39.74,31.12s1.78-1,2.07.64a.25.25,0,0,0,.27.22h0a.25.25,0,0,0,.22-.25.43.43,0,0,1,.31-.49c.29-.06.59.3.64.71a.33.33,0,0,0,.48.27h0a3.82,3.82,0,0,0-.29-3.57c-1.42-2-4.69-.59-6,1.57"/><path class="cls-102" d="M21.92,39.18s-1.72.78-3.57,1.75a6.46,6.46,0,0,0-3.15-3.7,3.87,3.87,0,0,0-3.29.13s-2.44,3.59-1.54,6.74c0,.11.07.23.12.34a4.56,4.56,0,0,0,4.46,2.69,7.76,7.76,0,0,0,2.39-.41l.09,0a39.43,39.43,0,0,0-3.22,6.94c.55.45,1.12.87,1.7,1.28C26.61,42.68,21.92,39.18,21.92,39.18Z"/><path class="cls-103" d="M33.28,40.66a2.36,2.36,0,0,0-.48-.91h0l-.2-.23c-1-1-2.26-1.89-7.64-2.32-2.31-.19-5.38-.29-9.52-.29l-.23.33c-.87,1.27-3.78,5.9-2.11,8.51a3.52,3.52,0,0,0,1.86,1.38,9.17,9.17,0,0,0,3.09.44,17.22,17.22,0,0,0,9-2.7,3.33,3.33,0,0,1,1.87-.43c2.08.16.63,2-2.48,12.08-.18.57,1.2.11,1.2.11C34.72,47.71,34,42.6,33.28,40.66Z"/><path class="cls-104" d="M26.09,40.05a11.08,11.08,0,0,0,.36-2.72l-1.5-.15c-2.31-.19-5.38-.29-9.52-.29l-.12.17-.11.16h0c-.87,1.27-3.78,5.9-2.11,8.51h0a8.88,8.88,0,0,0,4.54.42c.22-.05.46-.13.73-.22C21,45.07,25.23,43.45,26.09,40.05Z"/><path id="_Path_6" data-name="&lt;Path&gt;" class="cls-105" d="M25.28,37.47c-.47,3.84-1.81,5.35-7.24,7-3.16.94-10.88.26-8.33-5.76a9.08,9.08,0,0,1,1.48-2.35A18.84,18.84,0,0,0,14.37,31a14.54,14.54,0,0,0,.91-7.22A3.05,3.05,0,0,1,16.13,21c2.07-2,7.11-1.22,8.59.4,2,2.14,2.17,4.3,1.14,7.31C22.64,38.07,25.44,36.16,25.28,37.47Z"/><path class="cls-106" d="M22.95,21.56l-5.87,1.12-1.76,1.46A14.61,14.61,0,0,1,14.37,31a18.84,18.84,0,0,1-3.18,5.34,9.08,9.08,0,0,0-1.48,2.35c-2.55,6,5.16,6.7,8.33,5.76.57-.17,1.09-.34,1.57-.51-1.49.47-4.84.68-4.24-1.61.64-2.45,5.68-1.41,6.08-3.65s-5-5.88-2.37-8.24c2.14-1.92,5.07-.29,6.09.38l.16-.52Z"/><path id="_Path_7" data-name="&lt;Path&gt;" class="cls-105" d="M23.62,20.61c3.43,1.81,8.28,10.48,15.8,7.38l.13,3.92S24.2,36.17,22.19,26C21.12,20.57,22.71,20.13,23.62,20.61Z"/><path class="cls-107" d="M26.05,22.56l-.6-.56a2.75,2.75,0,0,0-.61-.37l1.21.93Z"/><path class="cls-108" d="M39.53,31.27l-.08-.18s-5.85,1.69-10.33,0-6.16-4.85-5.76-8c.2-1.57.87-1.71,1.49-1.45L23.4,20.52c-.92-.3-2.2.45-1.21,5.49,2,10.16,17.36,5.9,17.36,5.9Z"/><path id="_Path_8" data-name="&lt;Path&gt;" class="cls-105" d="M23,25.12S18.25,31,14.85,29.54,11.26,19.29,14,18.34c5.14-1.78,9.52,1.83,11.08,3.31C27.8,24.24,24.12,23.84,23,25.12Z"/><path class="cls-109" d="M17.08,19.16a3.56,3.56,0,0,1,3.46-.52,9.06,9.06,0,0,0-6.56-.3c-2.73.94-2.54,9.71.86,11.2A3.78,3.78,0,0,0,18,29.31c-1.17.44-2.58-.46-1.4-1.67s4.2-2.08,1.64-3.16S14.76,21,17.08,19.16Z"/><polygon class="cls-110" points="22.31 19.54 22.31 19.53 22.31 19.54 22.31 19.54"/><path class="cls-111" d="M18.34,29.13l-.08,0h0Z"/><path class="cls-89" d="M40.56,28.36a2.43,2.43,0,0,1,2.19-.66c1.62.12,2.44.65,1.76,1.18S41,30.77,40,30.61"/><path id="_Path_9" data-name="&lt;Path&gt;" class="cls-93" d="M37.76,28.5a5.13,5.13,0,0,0,2-.81c.59-.55,1.46,0,1.19,1.14s.58.8.05,1.71,0,1.12-1.74,1.42A4.46,4.46,0,0,0,37.76,28.5Z"/><path class="cls-112" d="M27.81,58.24c-.43-.33-.31-.86-.11-1.27a.7.7,0,0,0-.14-.83,1,1,0,0,1-.13-.15c-1.13-1.57-1.33,1.91-2.08,2.52a.64.64,0,0,0-.25.63,28,28,0,0,0,4.59.76.33.33,0,0,0,0-.13C29.57,59.14,29.07,59.22,27.81,58.24Z"/><path class="cls-113" d="M35.58,34.32s-.32-.39-1.44-.23-2.08,1-.8,1.29.84.06,1,.29,1.31.13,1.43-.45A1,1,0,0,0,35.58,34.32Z"/><path class="cls-112" d="M35.87,54.6s.52,1.58.1,1.89-1.41.54-1.33.95,2.42.08,2.47,0,.23-2.27.36-2.56S36.5,54.16,35.87,54.6Z"/><path class="cls-112" d="M49.31,54.63H47.63l1,.94c1.3,1.23-.5,1.3-.82,1.66s2,.59,2.13-.25A3.47,3.47,0,0,0,49.31,54.63Z"/></g></g></svg>