<svg xmlns="http://www.w3.org/2000/svg" xmlns:xlink="http://www.w3.org/1999/xlink" viewBox="0 0 64 64"><defs><style>.cls-1{isolation:isolate;}.cls-2{fill:url(#linear-gradient);}.cls-3{fill:url(#linear-gradient-2);}.cls-4{fill:url(#linear-gradient-3);}.cls-5{fill:url(#linear-gradient-4);}.cls-6{fill:url(#linear-gradient-5);}.cls-7{fill:url(#linear-gradient-6);}.cls-8{fill:url(#linear-gradient-7);}.cls-9{fill:url(#linear-gradient-8);}.cls-10{fill:url(#linear-gradient-9);}.cls-11{fill:url(#linear-gradient-10);}.cls-12{fill:url(#linear-gradient-11);}.cls-13{fill:url(#linear-gradient-12);}.cls-14{fill:url(#linear-gradient-13);}.cls-15{fill:url(#linear-gradient-14);}.cls-16{fill:url(#linear-gradient-15);}.cls-17{fill:url(#linear-gradient-16);}.cls-18{fill:url(#linear-gradient-17);}.cls-19{fill:url(#linear-gradient-18);}.cls-20{fill:url(#linear-gradient-19);}.cls-21{fill:url(#linear-gradient-20);}.cls-22{fill:url(#linear-gradient-21);}.cls-23{fill:url(#linear-gradient-22);}.cls-24{fill:url(#linear-gradient-23);}.cls-25{fill:url(#linear-gradient-24);}.cls-26{fill:url(#linear-gradient-25);}.cls-27{fill:url(#linear-gradient-26);}.cls-28{fill:url(#linear-gradient-27);}.cls-29{fill:url(#linear-gradient-28);}.cls-30{fill:url(#linear-gradient-29);}.cls-31{fill:url(#linear-gradient-30);}.cls-32{fill:url(#linear-gradient-31);}.cls-33{fill:url(#linear-gradient-32);}.cls-34{fill:url(#linear-gradient-33);}.cls-35{fill:url(#linear-gradient-34);}.cls-36{fill:url(#linear-gradient-35);}.cls-37{fill:url(#linear-gradient-36);}.cls-38{fill:url(#linear-gradient-37);}.cls-39{fill:url(#linear-gradient-38);}.cls-40{fill:url(#linear-gradient-39);}.cls-41{fill:url(#linear-gradient-40);}.cls-42{fill:url(#linear-gradient-41);}.cls-43{fill:url(#linear-gradient-42);}.cls-44{fill:url(#linear-gradient-43);}.cls-45{fill:url(#linear-gradient-44);}.cls-46{fill:url(#linear-gradient-45);}.cls-47{fill:url(#linear-gradient-46);}.cls-48{fill:url(#linear-gradient-47);}.cls-49{fill:url(#linear-gradient-48);}.cls-50{fill:url(#linear-gradient-49);}.cls-51{fill:url(#linear-gradient-50);}.cls-52{fill:url(#linear-gradient-51);}.cls-53{fill:url(#linear-gradient-52);}.cls-54{fill:url(#linear-gradient-53);}.cls-55{fill:url(#linear-gradient-54);}.cls-56{fill:url(#linear-gradient-55);}.cls-57{fill:url(#linear-gradient-56);}.cls-58{fill:url(#linear-gradient-57);}.cls-59{fill:url(#linear-gradient-58);}.cls-60{fill:url(#linear-gradient-59);}.cls-61{fill:url(#linear-gradient-60);}.cls-62{fill:url(#linear-gradient-61);}.cls-63{fill:url(#linear-gradient-62);}.cls-64{fill:url(#linear-gradient-63);}.cls-65{fill:url(#linear-gradient-64);}.cls-66{fill:url(#linear-gradient-65);}.cls-67{fill:url(#linear-gradient-66);}.cls-68{fill:url(#linear-gradient-67);}.cls-69{opacity:0.49;mix-blend-mode:color-burn;fill:url(#linear-gradient-68);}.cls-70{fill:url(#linear-gradient-69);}.cls-71{fill:url(#linear-gradient-70);}.cls-72{fill:url(#linear-gradient-71);}.cls-73{fill:url(#linear-gradient-72);}.cls-74{fill:url(#linear-gradient-73);}.cls-75{fill:url(#linear-gradient-74);}.cls-76{fill:#917252;}.cls-77{fill:url(#linear-gradient-75);}.cls-78{fill:url(#linear-gradient-76);}.cls-79{fill:#f9aa8f;}.cls-80{fill:url(#linear-gradient-77);}.cls-81{fill:url(#linear-gradient-78);}.cls-82{fill:url(#linear-gradient-79);}.cls-83{fill:url(#linear-gradient-80);}.cls-84{fill:#e8cd2d;}.cls-85{fill:#4b71ea;}.cls-86{fill:url(#linear-gradient-81);}.cls-87{fill:#303030;}.cls-88{fill:url(#linear-gradient-82);}.cls-89{fill:url(#linear-gradient-83);}</style><linearGradient id="linear-gradient" x1="32" y1="97.25" x2="32" y2="9.14" gradientUnits="userSpaceOnUse"><stop offset="0" stop-color="#d1efe7"/><stop offset="0.53" stop-color="#97efe7"/><stop offset="1" stop-color="#3ccbe3"/></linearGradient><linearGradient id="linear-gradient-2" y1="61.83" x2="32" y2="-43.55" xlink:href="#linear-gradient"/><linearGradient id="linear-gradient-3" x1="41.29" y1="29.11" x2="41.29" y2="-23.81" xlink:href="#linear-gradient"/><linearGradient id="linear-gradient-4" x1="48.51" y1="29.95" x2="48.51" y2="-22.06" xlink:href="#linear-gradient"/><linearGradient id="linear-gradient-5" x1="14.9" y1="34.85" x2="14.9" y2="-42.44" xlink:href="#linear-gradient"/><linearGradient id="linear-gradient-6" x1="1374.28" y1="35.09" x2="1374.28" y2="-43.58" gradientTransform="matrix(-1, 0, 0, 1, 1390.22, 0)" xlink:href="#linear-gradient"/><linearGradient id="linear-gradient-7" x1="1359.38" y1="35.09" x2="1359.38" y2="-43.57" gradientTransform="matrix(-1, 0, 0, 1, 1390.22, 0)" xlink:href="#linear-gradient"/><linearGradient id="linear-gradient-8" x1="1357.26" y1="35.09" x2="1357.26" y2="-43.57" gradientTransform="matrix(-1, 0, 0, 1, 1390.22, 0)" xlink:href="#linear-gradient"/><linearGradient id="linear-gradient-9" x1="1373.13" y1="35.09" x2="1373.13" y2="-43.57" gradientTransform="matrix(-1, 0, 0, 1, 1390.22, 0)" xlink:href="#linear-gradient"/><linearGradient id="linear-gradient-10" x1="44.41" y1="44.15" x2="44.41" y2="12.12" xlink:href="#linear-gradient"/><linearGradient id="linear-gradient-11" x1="31.4" y1="54.55" x2="31.4" y2="9.48" xlink:href="#linear-gradient"/><linearGradient id="linear-gradient-12" x1="1349.41" y1="48.77" x2="1349.41" y2="-0.28" gradientTransform="matrix(1, 0, 0, -1, -1308.6, 36.11)" xlink:href="#linear-gradient"/><linearGradient id="linear-gradient-13" x1="1351.46" y1="48.77" x2="1351.46" y2="-0.28" gradientTransform="matrix(1, 0, 0, -1, -1312.7, 36.11)" xlink:href="#linear-gradient"/><linearGradient id="linear-gradient-14" x1="1353.51" y1="48.77" x2="1353.51" y2="-0.28" gradientTransform="matrix(1, 0, 0, -1, -1316.81, 36.11)" xlink:href="#linear-gradient"/><linearGradient id="linear-gradient-15" x1="1355.56" y1="48.77" x2="1355.56" y2="-0.28" gradientTransform="matrix(1, 0, 0, -1, -1320.91, 36.11)" xlink:href="#linear-gradient"/><linearGradient id="linear-gradient-16" x1="1357.62" y1="48.77" x2="1357.62" y2="-0.28" gradientTransform="matrix(1, 0, 0, -1, -1325.01, 36.11)" xlink:href="#linear-gradient"/><linearGradient id="linear-gradient-17" x1="1349.41" y1="48.78" x2="1349.41" y2="-0.28" gradientTransform="matrix(1, 0, 0, -1, -1308.6, 40.44)" xlink:href="#linear-gradient"/><linearGradient id="linear-gradient-18" x1="1351.46" y1="48.78" x2="1351.46" y2="-0.28" gradientTransform="matrix(1, 0, 0, -1, -1312.7, 40.44)" xlink:href="#linear-gradient"/><linearGradient id="linear-gradient-19" x1="1353.51" y1="48.78" x2="1353.51" y2="-0.28" gradientTransform="matrix(1, 0, 0, -1, -1316.81, 40.44)" xlink:href="#linear-gradient"/><linearGradient id="linear-gradient-20" x1="1355.56" y1="48.78" x2="1355.56" y2="-0.28" gradientTransform="matrix(1, 0, 0, -1, -1320.91, 40.44)" xlink:href="#linear-gradient"/><linearGradient id="linear-gradient-21" x1="1357.62" y1="48.78" x2="1357.62" y2="-0.28" gradientTransform="matrix(1, 0, 0, -1, -1325.01, 40.44)" xlink:href="#linear-gradient"/><linearGradient id="linear-gradient-22" x1="1349.41" y1="48.77" x2="1349.41" y2="-0.28" gradientTransform="matrix(1, 0, 0, -1, -1308.6, 44.76)" xlink:href="#linear-gradient"/><linearGradient id="linear-gradient-23" x1="1351.46" y1="48.77" x2="1351.46" y2="-0.28" gradientTransform="matrix(1, 0, 0, -1, -1312.7, 44.76)" xlink:href="#linear-gradient"/><linearGradient id="linear-gradient-24" x1="1353.51" y1="48.77" x2="1353.51" y2="-0.28" gradientTransform="matrix(1, 0, 0, -1, -1316.81, 44.76)" xlink:href="#linear-gradient"/><linearGradient id="linear-gradient-25" x1="1355.56" y1="48.77" x2="1355.56" y2="-0.28" gradientTransform="matrix(1, 0, 0, -1, -1320.91, 44.76)" xlink:href="#linear-gradient"/><linearGradient id="linear-gradient-26" x1="1357.62" y1="48.77" x2="1357.62" y2="-0.28" gradientTransform="matrix(1, 0, 0, -1, -1325.01, 44.76)" xlink:href="#linear-gradient"/><linearGradient id="linear-gradient-27" x1="1349.41" y1="48.78" x2="1349.41" y2="-0.28" gradientTransform="matrix(1, 0, 0, -1, -1308.6, 49.08)" xlink:href="#linear-gradient"/><linearGradient id="linear-gradient-28" x1="1351.46" y1="48.78" x2="1351.46" y2="-0.28" gradientTransform="matrix(1, 0, 0, -1, -1312.7, 49.08)" xlink:href="#linear-gradient"/><linearGradient id="linear-gradient-29" x1="1353.51" y1="48.78" x2="1353.51" y2="-0.28" gradientTransform="matrix(1, 0, 0, -1, -1316.81, 49.08)" xlink:href="#linear-gradient"/><linearGradient id="linear-gradient-30" x1="1355.56" y1="48.78" x2="1355.56" y2="-0.28" gradientTransform="matrix(1, 0, 0, -1, -1320.91, 49.08)" xlink:href="#linear-gradient"/><linearGradient id="linear-gradient-31" x1="1357.62" y1="48.78" x2="1357.62" y2="-0.28" gradientTransform="matrix(1, 0, 0, -1, -1325.01, 49.08)" xlink:href="#linear-gradient"/><linearGradient id="linear-gradient-32" x1="1349.41" y1="48.78" x2="1349.41" y2="-0.28" gradientTransform="matrix(1, 0, 0, -1, -1308.6, 53.4)" xlink:href="#linear-gradient"/><linearGradient id="linear-gradient-33" x1="1351.46" y1="48.78" x2="1351.46" y2="-0.28" gradientTransform="matrix(1, 0, 0, -1, -1312.7, 53.4)" xlink:href="#linear-gradient"/><linearGradient id="linear-gradient-34" x1="1353.51" y1="48.78" x2="1353.51" y2="-0.28" gradientTransform="matrix(1, 0, 0, -1, -1316.81, 53.4)" xlink:href="#linear-gradient"/><linearGradient id="linear-gradient-35" x1="1355.56" y1="48.78" x2="1355.56" y2="-0.28" gradientTransform="matrix(1, 0, 0, -1, -1320.91, 53.4)" xlink:href="#linear-gradient"/><linearGradient id="linear-gradient-36" x1="1357.62" y1="48.78" x2="1357.62" y2="-0.28" gradientTransform="matrix(1, 0, 0, -1, -1325.01, 53.4)" xlink:href="#linear-gradient"/><linearGradient id="linear-gradient-37" x1="1349.41" y1="48.78" x2="1349.41" y2="-0.28" gradientTransform="matrix(1, 0, 0, -1, -1308.6, 57.73)" xlink:href="#linear-gradient"/><linearGradient id="linear-gradient-38" x1="1351.46" y1="48.78" x2="1351.46" y2="-0.28" gradientTransform="matrix(1, 0, 0, -1, -1312.7, 57.73)" xlink:href="#linear-gradient"/><linearGradient id="linear-gradient-39" x1="1353.51" y1="48.78" x2="1353.51" y2="-0.28" gradientTransform="matrix(1, 0, 0, -1, -1316.81, 57.73)" xlink:href="#linear-gradient"/><linearGradient id="linear-gradient-40" x1="1355.56" y1="48.78" x2="1355.56" y2="-0.28" gradientTransform="matrix(1, 0, 0, -1, -1320.91, 57.73)" xlink:href="#linear-gradient"/><linearGradient id="linear-gradient-41" x1="1357.62" y1="48.78" x2="1357.62" y2="-0.28" gradientTransform="matrix(1, 0, 0, -1, -1325.01, 57.73)" xlink:href="#linear-gradient"/><linearGradient id="linear-gradient-42" x1="1349.41" y1="48.78" x2="1349.41" y2="-0.28" gradientTransform="matrix(1, 0, 0, -1, -1308.6, 62.05)" xlink:href="#linear-gradient"/><linearGradient id="linear-gradient-43" x1="1351.46" y1="48.78" x2="1351.46" y2="-0.28" gradientTransform="matrix(1, 0, 0, -1, -1312.7, 62.05)" xlink:href="#linear-gradient"/><linearGradient id="linear-gradient-44" x1="1353.51" y1="48.78" x2="1353.51" y2="-0.28" gradientTransform="matrix(1, 0, 0, -1, -1316.81, 62.05)" xlink:href="#linear-gradient"/><linearGradient id="linear-gradient-45" x1="1355.56" y1="48.78" x2="1355.56" y2="-0.28" gradientTransform="matrix(1, 0, 0, -1, -1320.91, 62.05)" xlink:href="#linear-gradient"/><linearGradient id="linear-gradient-46" x1="1357.62" y1="48.78" x2="1357.62" y2="-0.28" gradientTransform="matrix(1, 0, 0, -1, -1325.01, 62.05)" xlink:href="#linear-gradient"/><linearGradient id="linear-gradient-47" x1="1349.41" y1="48.78" x2="1349.41" y2="-0.28" gradientTransform="matrix(1, 0, 0, -1, -1308.6, 66.37)" xlink:href="#linear-gradient"/><linearGradient id="linear-gradient-48" x1="1351.46" y1="48.78" x2="1351.46" y2="-0.28" gradientTransform="matrix(1, 0, 0, -1, -1312.7, 66.37)" xlink:href="#linear-gradient"/><linearGradient id="linear-gradient-49" x1="1353.51" y1="48.78" x2="1353.51" y2="-0.28" gradientTransform="matrix(1, 0, 0, -1, -1316.81, 66.37)" xlink:href="#linear-gradient"/><linearGradient id="linear-gradient-50" x1="1355.56" y1="48.78" x2="1355.56" y2="-0.28" gradientTransform="matrix(1, 0, 0, -1, -1320.91, 66.37)" xlink:href="#linear-gradient"/><linearGradient id="linear-gradient-51" x1="1357.62" y1="48.78" x2="1357.62" y2="-0.28" gradientTransform="matrix(1, 0, 0, -1, -1325.01, 66.37)" xlink:href="#linear-gradient"/><linearGradient id="linear-gradient-52" x1="1349.41" y1="48.78" x2="1349.41" y2="-0.28" gradientTransform="matrix(1, 0, 0, -1, -1308.6, 70.69)" xlink:href="#linear-gradient"/><linearGradient id="linear-gradient-53" x1="1351.46" y1="48.78" x2="1351.46" y2="-0.28" gradientTransform="matrix(1, 0, 0, -1, -1312.7, 70.69)" xlink:href="#linear-gradient"/><linearGradient id="linear-gradient-54" x1="1353.51" y1="48.78" x2="1353.51" y2="-0.28" gradientTransform="matrix(1, 0, 0, -1, -1316.81, 70.69)" xlink:href="#linear-gradient"/><linearGradient id="linear-gradient-55" x1="1355.56" y1="48.78" x2="1355.56" y2="-0.28" gradientTransform="matrix(1, 0, 0, -1, -1320.91, 70.69)" xlink:href="#linear-gradient"/><linearGradient id="linear-gradient-56" x1="1357.62" y1="48.78" x2="1357.62" y2="-0.28" gradientTransform="matrix(1, 0, 0, -1, -1325.01, 70.69)" xlink:href="#linear-gradient"/><linearGradient id="linear-gradient-57" x1="1349.41" y1="48.78" x2="1349.41" y2="-0.28" gradientTransform="matrix(1, 0, 0, -1, -1308.6, 75.01)" xlink:href="#linear-gradient"/><linearGradient id="linear-gradient-58" x1="1351.46" y1="48.78" x2="1351.46" y2="-0.28" gradientTransform="matrix(1, 0, 0, -1, -1312.7, 75.01)" xlink:href="#linear-gradient"/><linearGradient id="linear-gradient-59" x1="1353.51" y1="48.78" x2="1353.51" y2="-0.28" gradientTransform="matrix(1, 0, 0, -1, -1316.81, 75.01)" xlink:href="#linear-gradient"/><linearGradient id="linear-gradient-60" x1="1355.56" y1="48.78" x2="1355.56" y2="-0.28" gradientTransform="matrix(1, 0, 0, -1, -1320.91, 75.01)" xlink:href="#linear-gradient"/><linearGradient id="linear-gradient-61" x1="1357.62" y1="48.78" x2="1357.62" y2="-0.28" gradientTransform="matrix(1, 0, 0, -1, -1325.01, 75.01)" xlink:href="#linear-gradient"/><linearGradient id="linear-gradient-62" x1="1349.41" y1="48.78" x2="1349.41" y2="-0.28" gradientTransform="matrix(1, 0, 0, -1, -1308.6, 79.34)" xlink:href="#linear-gradient"/><linearGradient id="linear-gradient-63" x1="1351.46" y1="48.78" x2="1351.46" y2="-0.28" gradientTransform="matrix(1, 0, 0, -1, -1312.7, 79.34)" xlink:href="#linear-gradient"/><linearGradient id="linear-gradient-64" x1="1353.51" y1="48.78" x2="1353.51" y2="-0.28" gradientTransform="matrix(1, 0, 0, -1, -1316.81, 79.34)" xlink:href="#linear-gradient"/><linearGradient id="linear-gradient-65" x1="1355.56" y1="48.78" x2="1355.56" y2="-0.28" gradientTransform="matrix(1, 0, 0, -1, -1320.91, 79.34)" xlink:href="#linear-gradient"/><linearGradient id="linear-gradient-66" x1="1357.62" y1="48.78" x2="1357.62" y2="-0.28" gradientTransform="matrix(1, 0, 0, -1, -1325.01, 79.34)" xlink:href="#linear-gradient"/><linearGradient id="linear-gradient-67" x1="1370.57" y1="44.87" x2="1370.57" y2="14.91" gradientTransform="matrix(-1, 0, 0, 1, 1390.22, 0)" xlink:href="#linear-gradient"/><linearGradient id="linear-gradient-68" x1="1337.51" y1="25.69" x2="1337.51" y2="25.13" gradientTransform="matrix(-1, 0, 0, 1, 1390.22, 0)" xlink:href="#linear-gradient"/><linearGradient id="linear-gradient-69" x1="1336.95" y1="57.52" x2="1336.95" y2="30.5" gradientTransform="matrix(-1, 0, 0, 1, 1390.22, 0)" gradientUnits="userSpaceOnUse"><stop offset="0" stop-color="#7ff1a4"/><stop offset="0.52" stop-color="#2fbca4"/><stop offset="1" stop-color="#2f7da4"/></linearGradient><linearGradient id="linear-gradient-70" x1="-14199.28" y1="55.99" x2="-14199.28" y2="34.39" gradientTransform="translate(14252.87)" gradientUnits="userSpaceOnUse"><stop offset="0" stop-color="#fff"/><stop offset="0.84" stop-color="#cddfec"/></linearGradient><linearGradient id="linear-gradient-71" x1="17450.78" y1="56.49" x2="17450.78" y2="37.99" gradientTransform="matrix(-1, 0, 0, 1, 17495.43, 0)" xlink:href="#linear-gradient-69"/><linearGradient id="linear-gradient-72" x1="17450.97" y1="56.25" x2="17450.97" y2="43.39" gradientTransform="matrix(-1, 0, 0, 1, 17495.43, 0)" xlink:href="#linear-gradient-70"/><linearGradient id="linear-gradient-73" x1="25.79" y1="59.26" x2="42.97" y2="7.33" gradientTransform="matrix(1, 0, 0, 1, 0, 0)" xlink:href="#linear-gradient-69"/><linearGradient id="linear-gradient-74" x1="34.13" y1="54.5" x2="34.13" y2="22.24" gradientTransform="matrix(1, 0, 0, 1, 0, 0)" xlink:href="#linear-gradient-69"/><linearGradient id="linear-gradient-75" x1="28.13" y1="58.54" x2="28.52" y2="46.9" gradientUnits="userSpaceOnUse"><stop offset="0.27" stop-color="#8f3c00"/><stop offset="1" stop-color="#601a00"/></linearGradient><linearGradient id="linear-gradient-76" x1="4.08" y1="37.48" x2="23.05" y2="37.48" gradientUnits="userSpaceOnUse"><stop offset="0" stop-color="#4b71ea"/><stop offset="1" stop-color="#2c0fa5"/></linearGradient><linearGradient id="linear-gradient-77" x1="11.88" y1="17.78" x2="30.61" y2="21.18" gradientUnits="userSpaceOnUse"><stop offset="0" stop-color="#fbc19e"/><stop offset="0.48" stop-color="#ffb699"/><stop offset="1" stop-color="#f47e6d"/></linearGradient><linearGradient id="linear-gradient-78" x1="16.03" y1="33.88" x2="25.87" y2="18.54" xlink:href="#linear-gradient-76"/><linearGradient id="linear-gradient-79" x1="15.67" y1="61.53" x2="35.42" y2="9.9" gradientUnits="userSpaceOnUse"><stop offset="0.01" stop-color="#ffc00f"/><stop offset="0.49" stop-color="#ff9c0f"/><stop offset="1" stop-color="#ff5d0f"/></linearGradient><linearGradient id="linear-gradient-80" x1="0.85" y1="75.2" x2="37.39" y2="18.17" xlink:href="#linear-gradient-79"/><linearGradient id="linear-gradient-81" x1="33.31" y1="32.92" x2="44.67" y2="25.24" xlink:href="#linear-gradient-76"/><linearGradient id="linear-gradient-82" x1="30.66" y1="0.95" x2="10.12" y2="27.13" xlink:href="#linear-gradient-79"/><linearGradient id="linear-gradient-83" x1="15.95" y1="22.63" x2="26.58" y2="4.36" xlink:href="#linear-gradient-79"/></defs><title>architect</title><g class="cls-1"><g id="Layer_1" data-name="Layer 1"><circle class="cls-2" cx="32" cy="32" r="28"/><path class="cls-3" d="M4,32A27.88,27.88,0,0,0,7.37,45.33H56.63A28,28,0,1,0,4,32Z"/><path class="cls-4" d="M46.36,8.68C44.75,11,39.18,14.6,32.54,16.82A177.11,177.11,0,0,0,50,10.6a28.06,28.06,0,0,0-3.3-2.4A4.33,4.33,0,0,0,46.36,8.68Z"/><path class="cls-5" d="M54,14.74a5.47,5.47,0,0,0-1,.71c-.61.52-3,.62-4,1.65s-4.16,2.31-7.71,2.8a93.24,93.24,0,0,0,14.48-2.73A28,28,0,0,0,54,14.74Z"/><path class="cls-6" d="M24.9,21.15s-5.89,1.1-9.32.38-5.22.78-7.54-.24a4.1,4.1,0,0,0-1.76-.36,27.78,27.78,0,0,0-1.39,4A81.33,81.33,0,0,0,24.9,21.15Z"/><path class="cls-7" d="M24.29,14a14.37,14.37,0,0,1-5.2.28c-2-.48-2.88.54-4.24-.15a2,2,0,0,0-2.7.89c-.31.66-1.34,0-2,.59a4.94,4.94,0,0,1-2.51.54S13.34,18.26,24.29,14Z"/><path class="cls-8" d="M33.63,8.64S29.85,9.9,28,9.57a5.71,5.71,0,0,0,1.5-.73,1.93,1.93,0,0,1,1.79-.37c.41.25.57-.36,1-.13A4.58,4.58,0,0,0,33.63,8.64Z"/><path class="cls-9" d="M35.75,19.85s-3.78,1.26-5.58.93a5.71,5.71,0,0,0,1.5-.73,1.93,1.93,0,0,1,1.79-.37c.41.25.57-.36,1-.13A4.58,4.58,0,0,0,35.75,19.85Z"/><path class="cls-10" d="M15.08,9.43s2.9-.23,4-1a4.18,4.18,0,0,1-1.22-.07,1.41,1.41,0,0,0-1.31.26c-.2.29-.48-.08-.73.2A3.35,3.35,0,0,1,15.08,9.43Z"/><path class="cls-11" d="M59.91,34.17h-5.7V27a3,3,0,1,0-6,0v4.65H46v7H29.52l-.61,6.7H56.63A27.83,27.83,0,0,0,59.91,34.17Z"/><path class="cls-12" d="M58.8,40.1H53.53V42H43.85V15.87a.93.93,0,0,0-.93-.93H30.8a.93.93,0,0,0-.93.93V35.1h-2.1a1,1,0,0,0-1,1v2H19.42V32.88a1.07,1.07,0,0,0-1.07-1.07H12.5V28.61a5.38,5.38,0,0,0-5.38-5.38H5.41a28,28,0,0,0,2,22.11H56.63A27.82,27.82,0,0,0,58.8,40.1Z"/><rect class="cls-13" x="40.22" y="17.47" width="1.18" height="1.18" rx="0.09" ry="0.09" transform="translate(81.62 36.11) rotate(180)"/><rect class="cls-14" x="38.17" y="17.47" width="1.18" height="1.18" rx="0.09" ry="0.09" transform="translate(77.52 36.11) rotate(180)"/><rect class="cls-15" x="36.11" y="17.47" width="1.18" height="1.18" rx="0.09" ry="0.09" transform="translate(73.41 36.11) rotate(180)"/><rect class="cls-16" x="34.06" y="17.47" width="1.18" height="1.18" rx="0.09" ry="0.09" transform="translate(69.31 36.11) rotate(180)"/><rect class="cls-17" x="32.01" y="17.47" width="1.18" height="1.18" rx="0.09" ry="0.09" transform="translate(65.21 36.11) rotate(180)"/><rect class="cls-18" x="40.22" y="19.63" width="1.18" height="1.18" rx="0.09" ry="0.09" transform="translate(81.62 40.44) rotate(180)"/><rect class="cls-19" x="38.17" y="19.63" width="1.18" height="1.18" rx="0.09" ry="0.09" transform="translate(77.52 40.44) rotate(180)"/><rect class="cls-20" x="36.11" y="19.63" width="1.18" height="1.18" rx="0.09" ry="0.09" transform="translate(73.41 40.44) rotate(180)"/><rect class="cls-21" x="34.06" y="19.63" width="1.18" height="1.18" rx="0.09" ry="0.09" transform="translate(69.31 40.44) rotate(180)"/><rect class="cls-22" x="32.01" y="19.63" width="1.18" height="1.18" rx="0.09" ry="0.09" transform="translate(65.21 40.44) rotate(180)"/><rect class="cls-23" x="40.22" y="21.79" width="1.18" height="1.18" rx="0.09" ry="0.09" transform="translate(81.62 44.76) rotate(180)"/><rect class="cls-24" x="38.17" y="21.79" width="1.18" height="1.18" rx="0.09" ry="0.09" transform="translate(77.52 44.76) rotate(180)"/><rect class="cls-25" x="36.11" y="21.79" width="1.18" height="1.18" rx="0.09" ry="0.09" transform="translate(73.41 44.76) rotate(180)"/><rect class="cls-26" x="34.06" y="21.79" width="1.18" height="1.18" rx="0.09" ry="0.09" transform="translate(69.31 44.76) rotate(180)"/><rect class="cls-27" x="32.01" y="21.79" width="1.18" height="1.18" rx="0.09" ry="0.09" transform="translate(65.21 44.76) rotate(180)"/><rect class="cls-28" x="40.22" y="23.95" width="1.18" height="1.18" rx="0.09" ry="0.09" transform="translate(81.62 49.08) rotate(180)"/><rect class="cls-29" x="38.17" y="23.95" width="1.18" height="1.18" rx="0.09" ry="0.09" transform="translate(77.52 49.08) rotate(180)"/><rect class="cls-30" x="36.11" y="23.95" width="1.18" height="1.18" rx="0.09" ry="0.09" transform="translate(73.41 49.08) rotate(180)"/><rect class="cls-31" x="34.06" y="23.95" width="1.18" height="1.18" rx="0.09" ry="0.09" transform="translate(69.31 49.08) rotate(180)"/><rect class="cls-32" x="32.01" y="23.95" width="1.18" height="1.18" rx="0.09" ry="0.09" transform="translate(65.21 49.08) rotate(180)"/><rect class="cls-33" x="40.22" y="26.11" width="1.18" height="1.18" rx="0.09" ry="0.09" transform="translate(81.62 53.4) rotate(180)"/><rect class="cls-34" x="38.17" y="26.11" width="1.18" height="1.18" rx="0.09" ry="0.09" transform="translate(77.52 53.4) rotate(180)"/><rect class="cls-35" x="36.11" y="26.11" width="1.18" height="1.18" rx="0.09" ry="0.09" transform="translate(73.41 53.4) rotate(180)"/><rect class="cls-36" x="34.06" y="26.11" width="1.18" height="1.18" rx="0.09" ry="0.09" transform="translate(69.31 53.4) rotate(180)"/><rect class="cls-37" x="32.01" y="26.11" width="1.18" height="1.18" rx="0.09" ry="0.09" transform="translate(65.21 53.4) rotate(180)"/><rect class="cls-38" x="40.22" y="28.27" width="1.18" height="1.18" rx="0.09" ry="0.09" transform="translate(81.62 57.73) rotate(180)"/><rect class="cls-39" x="38.17" y="28.27" width="1.18" height="1.18" rx="0.09" ry="0.09" transform="translate(77.52 57.73) rotate(180)"/><rect class="cls-40" x="36.11" y="28.27" width="1.18" height="1.18" rx="0.09" ry="0.09" transform="translate(73.41 57.73) rotate(180)"/><rect class="cls-41" x="34.06" y="28.27" width="1.18" height="1.18" rx="0.09" ry="0.09" transform="translate(69.31 57.73) rotate(180)"/><rect class="cls-42" x="32.01" y="28.27" width="1.18" height="1.18" rx="0.09" ry="0.09" transform="translate(65.21 57.73) rotate(180)"/><rect class="cls-43" x="40.22" y="30.43" width="1.18" height="1.18" rx="0.09" ry="0.09" transform="translate(81.62 62.05) rotate(180)"/><rect class="cls-44" x="38.17" y="30.43" width="1.18" height="1.18" rx="0.09" ry="0.09" transform="translate(77.52 62.05) rotate(180)"/><rect class="cls-45" x="36.11" y="30.43" width="1.18" height="1.18" rx="0.09" ry="0.09" transform="translate(73.41 62.05) rotate(180)"/><rect class="cls-46" x="34.06" y="30.43" width="1.18" height="1.18" rx="0.09" ry="0.09" transform="translate(69.31 62.05) rotate(180)"/><rect class="cls-47" x="32.01" y="30.43" width="1.18" height="1.18" rx="0.09" ry="0.09" transform="translate(65.21 62.05) rotate(180)"/><rect class="cls-48" x="40.22" y="32.59" width="1.18" height="1.18" rx="0.09" ry="0.09" transform="translate(81.62 66.37) rotate(180)"/><rect class="cls-49" x="38.17" y="32.59" width="1.18" height="1.18" rx="0.09" ry="0.09" transform="translate(77.52 66.37) rotate(180)"/><rect class="cls-50" x="36.11" y="32.59" width="1.18" height="1.18" rx="0.09" ry="0.09" transform="translate(73.41 66.37) rotate(180)"/><rect class="cls-51" x="34.06" y="32.59" width="1.18" height="1.18" rx="0.09" ry="0.09" transform="translate(69.31 66.37) rotate(180)"/><rect class="cls-52" x="32.01" y="32.59" width="1.18" height="1.18" rx="0.09" ry="0.09" transform="translate(65.21 66.37) rotate(180)"/><rect class="cls-53" x="40.22" y="34.75" width="1.18" height="1.18" rx="0.09" ry="0.09" transform="translate(81.62 70.69) rotate(180)"/><rect class="cls-54" x="38.17" y="34.75" width="1.18" height="1.18" rx="0.09" ry="0.09" transform="translate(77.52 70.69) rotate(180)"/><rect class="cls-55" x="36.11" y="34.75" width="1.18" height="1.18" rx="0.09" ry="0.09" transform="translate(73.41 70.69) rotate(180)"/><rect class="cls-56" x="34.06" y="34.75" width="1.18" height="1.18" rx="0.09" ry="0.09" transform="translate(69.31 70.69) rotate(180)"/><rect class="cls-57" x="32.01" y="34.75" width="1.18" height="1.18" rx="0.09" ry="0.09" transform="translate(65.21 70.69) rotate(180)"/><rect class="cls-58" x="40.22" y="36.92" width="1.18" height="1.18" rx="0.09" ry="0.09" transform="translate(81.62 75.01) rotate(180)"/><rect class="cls-59" x="38.17" y="36.92" width="1.18" height="1.18" rx="0.09" ry="0.09" transform="translate(77.52 75.01) rotate(180)"/><rect class="cls-60" x="36.11" y="36.92" width="1.18" height="1.18" rx="0.09" ry="0.09" transform="translate(73.41 75.01) rotate(180)"/><rect class="cls-61" x="34.06" y="36.92" width="1.18" height="1.18" rx="0.09" ry="0.09" transform="translate(69.31 75.01) rotate(180)"/><rect class="cls-62" x="32.01" y="36.92" width="1.18" height="1.18" rx="0.09" ry="0.09" transform="translate(65.21 75.01) rotate(180)"/><rect class="cls-63" x="40.22" y="39.08" width="1.18" height="1.18" rx="0.09" ry="0.09" transform="translate(81.62 79.34) rotate(180)"/><rect class="cls-64" x="38.17" y="39.08" width="1.18" height="1.18" rx="0.09" ry="0.09" transform="translate(77.52 79.34) rotate(180)"/><rect class="cls-65" x="36.11" y="39.08" width="1.18" height="1.18" rx="0.09" ry="0.09" transform="translate(73.41 79.34) rotate(180)"/><rect class="cls-66" x="34.06" y="39.08" width="1.18" height="1.18" rx="0.09" ry="0.09" transform="translate(69.31 79.34) rotate(180)"/><rect class="cls-67" x="32.01" y="39.08" width="1.18" height="1.18" rx="0.09" ry="0.09" transform="translate(65.21 79.34) rotate(180)"/><path class="cls-68" d="M18.35,31.81a1.07,1.07,0,0,1,1.07,1.07v5.19h7.38v.27a4.69,4.69,0,0,1-4.69,4.77H18.93v-2H12.5V31.81Z"/><path class="cls-69" d="M53,25.39c.07,0-.05.12-.19.21h0l-.11,0a.39.39,0,0,1-.2-.12A1.58,1.58,0,0,1,53,25.39Z"/><path class="cls-70" d="M58.41,43.63a2.87,2.87,0,0,0-2.08-2.76,1.2,1.2,0,0,1-.81-.82,2.87,2.87,0,0,0-5.6.55,2.9,2.9,0,0,0,0,.65,1.15,1.15,0,0,1-.51,1.1A2.87,2.87,0,0,0,49,46.8a1.86,1.86,0,0,1,.43.6,2,2,0,0,0,1.88,1.25l.26,0a2.05,2.05,0,0,1,1.33.26,2.87,2.87,0,0,0,4.35-2.46v0a1,1,0,0,1,.3-.73A2.86,2.86,0,0,0,58.41,43.63Z"/><path class="cls-71" d="M55.46,45.37c0,.09-.05.18-.08.27a.91.91,0,0,1-.34.43,2.22,2.22,0,0,1-.25.13l-.43.21,0-.08c0-.09.05-.19.08-.28l.15-.55-.16.55c0,.09-.05.18-.08.27l-.05.12,0,0h0a0,0,0,0,0,0,.05h0l0,.05a.9.9,0,0,1-.21.19,2.22,2.22,0,0,1-.25.13l-.46.22,0-2.59,0,3.38L53,47.77a1,1,0,0,1-.29-.2.89.89,0,0,1-.19-.29c0-.06,0-.11-.05-.17a.37.37,0,0,0-.11-.15.39.39,0,0,0-.17-.08l-.17,0a.4.4,0,0,1-.24-.24c-.06-.23-.12-.47-.17-.7.05.24.1.47.16.71a.43.43,0,0,0,.25.26l.18.05a.36.36,0,0,1,.15.07.33.33,0,0,1,.1.14c0,.05,0,.12,0,.17a.94.94,0,0,0,.19.32,1,1,0,0,0,.3.22l.29.16-.1,6.78h0a.15.15,0,0,0,.3,0l-.11-7.58.49-.26a2.25,2.25,0,0,0,.25-.14.94.94,0,0,0,.21-.2l0-.06h0l.51-.27a2.24,2.24,0,0,0,.25-.14.94.94,0,0,0,.34-.46c0-.09.05-.18.08-.28l.15-.55Z"/><path class="cls-72" d="M41.59,48.9a1.71,1.71,0,0,1,1.24-1.64.72.72,0,0,0,.48-.49,1.71,1.71,0,0,1,3.34.33,1.73,1.73,0,0,1,0,.39.68.68,0,0,0,.3.66,1.71,1.71,0,0,1,.25,2.65,1.11,1.11,0,0,0-.26.36,1.21,1.21,0,0,1-1.12.74h-.16a1.22,1.22,0,0,0-.79.15,1.71,1.71,0,0,1-2.59-1.46v0a.6.6,0,0,0-.18-.43A1.7,1.7,0,0,1,41.59,48.9Z"/><path class="cls-73" d="M43.35,49.93l.05.16a.54.54,0,0,0,.2.26l.15.08.26.13,0-.05,0-.17L43.86,50l.1.33.05.16,0,.07h0a0,0,0,0,1,0,0h0l0,0a.53.53,0,0,0,.12.11l.15.08.27.13,0-1.54,0,2,.15-.08a.58.58,0,0,0,.17-.12.53.53,0,0,0,.11-.18s0-.07,0-.1a.22.22,0,0,1,.07-.09.23.23,0,0,1,.1,0l.1,0a.24.24,0,0,0,.14-.14c0-.14.07-.28.1-.42,0,.14-.06.28-.09.42a.25.25,0,0,1-.15.16l-.1,0-.09,0a.2.2,0,0,0-.06.08s0,.07,0,.1a.56.56,0,0,1-.11.19.62.62,0,0,1-.18.13l-.17.09.06,4h0a.09.09,0,1,1-.18,0L44.63,51l-.29-.15-.15-.09a.56.56,0,0,1-.12-.12l0,0h0l-.3-.16-.15-.09a.56.56,0,0,1-.2-.28l0-.17-.09-.33Z"/><path class="cls-74" d="M48.29,25.93a44.32,44.32,0,0,0,.36-6.68A1,1,0,0,0,47,18.47c-2.23,1.69-6.58,4.3-10.44,2.63-5.48-2.37-11.45,1.71-11.45,1.71l-.74,21.1S35,37,38.56,39.57s7.21-2.37,7.21-2.37"/><path class="cls-75" d="M24.42,43.91S35,37,38.56,39.57c1.92,1.39,3.89.55,5.29-.49V20.45c-2.17,1.05-4.8,1.71-7.25.65a10.38,10.38,0,0,0-6.74-.33V35.1h-2.1a1,1,0,0,0-1,1v2H24.62Z"/><g id="_Group_" data-name="&lt;Group&gt;"><polygon id="_Path_" data-name="&lt;Path&gt;" class="cls-76" points="26.55 13.71 26.54 13.71 26.55 13.71 26.55 13.71"/><path class="cls-77" d="M22,57.65a5.37,5.37,0,0,1,1.64,1.08A28,28,0,0,0,32,60l1.12,0c.74-5.69,1.52-11.12,1.52-11.12S22.17,43.17,22,57.65Z"/><path id="_Path_2" data-name="&lt;Path&gt;" class="cls-78" d="M17.72,23.8S7.19,30.39,4.36,41.45c-2.13,8.3,8.52,9.72,8.52,9.72l1.34-2.88s-5.51-.89-1.94-6.35,13.42-4.54,10.1-12.62C20.29,24.24,17.72,23.8,17.72,23.8Z"/><path id="_Path_3" data-name="&lt;Path&gt;" class="cls-79" d="M11.4,50.48l-.14.13A1.75,1.75,0,0,0,11,52.95h0a1.75,1.75,0,0,0,2.6.26L14.8,52.1A1.75,1.75,0,0,0,15.15,50l-.62-1.3A1.5,1.5,0,0,0,13.44,48c-.68-.17-1.56-.17-1.45,1A1.74,1.74,0,0,1,11.4,50.48Z"/><path class="cls-79" d="M25.63,21.48a.71.71,0,0,1,.5-.87l.58-.16a1.23,1.23,0,0,0,.81-1.35l-.31-2a1.21,1.21,0,0,1,.63-1.27,1.23,1.23,0,0,0,.52-1.69l-3-4.75-6.17,2.52a2.69,2.69,0,0,0-.94,4.24,8.57,8.57,0,0,1,1.65,3.08c.3,3.33-3.2,5.36-3.2,5.36l-.13,2,3.27,9.58,4.52-5.92,4.17-6.38A2.93,2.93,0,0,1,25.63,21.48Z"/><path class="cls-80" d="M25.93,23.88c-1.84.61-3,.1-2.88-1.33s3.49-2.05,3.49-2.05h0c-1.22.29-1.76-1.39-.93-2.54s-.54-3.33.38-3.46c.68-.1,1.05,1.62,1.2,2.52a1.21,1.21,0,0,1,.64-1.17l.09-.06c-.16.09-.44.19-.42-.18S26.37,14,27.1,13.43a1.79,1.79,0,0,0,.45-.54l-1-1.6-4,2L19.5,18l-.05.1a5.73,5.73,0,0,1,.43,1.16c.3,3.33-3.2,5.36-3.2,5.36l-.13,2L17,27.86l5.46.44S27.77,23.27,25.93,23.88Z"/><path class="cls-81" d="M17.75,23.8a3.87,3.87,0,0,0,.92-1.45.87.87,0,0,1,.73-.55,19.15,19.15,0,0,1,5.45.06c.37.1.68.2.93.28a2.32,2.32,0,0,1,1.29,1,1.56,1.56,0,0,0,.48.51c.66.46-4.91,3.88-4.91,3.88l-5,.84-1.46-.83-.11-1.81"/><path class="cls-82" d="M36.11,41.84h0l-.53-3.76L33.72,26.65C29.36,21.44,25.47,23.46,23,26a5.52,5.52,0,0,1-4.3,1.17,1.83,1.83,0,0,1-1.34-2.71l.39-.68c-1.33.69-2.76,1-3.51,2.25s-.75,3.38-.75,4.88l-.72,27.65a1,1,0,0,0,.86,1c3.53.58,16.74,1.94,21.19-8.81a22.45,22.45,0,0,0,1.38-7.63C36.23,42.74,36.11,42.29,36.11,41.84Z"/><path class="cls-83" d="M29.87,26.65S25.23,37.88,19.17,37.8,13.73,31.61,17.7,30a11.81,11.81,0,0,0,5.59-4.3h0L23,26a5.52,5.52,0,0,1-4.3,1.17,1.83,1.83,0,0,1-1.34-2.71l.39-.68c-1.33.69-2.76,1-3.51,2.25s-.75,3.38-.75,4.88l-.72,27.65a1,1,0,0,0,.86,1c2.85.46,12,1.44,17.78-3.86-3.63,3.29-7.18-1.93-6.17-6.59s10.88-4.45,10.88-4.45h0Z"/><path class="cls-84" d="M13.14,44.52c4.66.18,9.72.27,15,.27,2.72,0,5.38,0,8-.07,0-.5.07-1,.1-1.55s-.1-.88-.1-1.33h0l-.53-3.76,0-.24c-2.39,0-4.86.06-7.37.06-5.23,0-10.23-.1-14.84-.27Z"/><path id="_Path_4" data-name="&lt;Path&gt;" class="cls-85" d="M48.54,31.85s-1.82,13.48-9.38,13.48-9.67-9.74-9.67-15.82a11.3,11.3,0,0,1,.15-1.89c.68-4,3.45-2.81,5.1.3a15.44,15.44,0,0,1,.85,2c.78,2.14,2.42,6.23,5,7.4a1.82,1.82,0,0,0,.76.18c3.24,0,5.75-8.64,5.75-8.64Z"/><path id="_Path_5" data-name="&lt;Path&gt;" class="cls-86" d="M40.56,37.35c-1.39-.26-4.31-.47-5.72,2l-5.2-11.76c.68-4,3.54-2.85,5.1.3a15.86,15.86,0,0,1,.85,2C36.34,32.18,38,36.18,40.56,37.35Z"/></g><path id="_Path_6" data-name="&lt;Path&gt;" class="cls-87" d="M18.51,16.61a6.3,6.3,0,0,1,1.23,2.76.34.34,0,0,0,.31.31c1,.08,4.06-.68,4.06-4.52,0-2.17.41-2.45,1.06-2.16s.21-1.2.31-2l1.82-.13L20,10.34Z"/><path id="_Path_7" data-name="&lt;Path&gt;" class="cls-88" d="M19.16,17.13a29.71,29.71,0,0,0,7.92-4.66,1.26,1.26,0,0,0,.22-1.63c-1.06-1.63-3.67-4.64-7.5-2.31-3.65,2.21-3,5.89-2.38,7.81A1.31,1.31,0,0,0,19.16,17.13Z"/><path class="cls-89" d="M25.49,11.46C25.17,10,22.53,7.82,20,9a5.35,5.35,0,0,0-2.57,2.07,7.27,7.27,0,0,0,0,5.26,1.31,1.31,0,0,0,1.74.81,29.71,29.71,0,0,0,7.92-4.66l.07-.07C26.86,12.62,25.78,12.81,25.49,11.46Z"/><path class="cls-79" d="M48.54,31.85s-.53-1.64-2-1.31a9.69,9.69,0,0,1,.43-3.27c.49-1,.9-.65,1.35-1.35s1.35-1.8,1.55-.65S49.15,31.47,48.54,31.85Z"/></g></g></svg>