<svg id="Layer_1" data-name="Layer 1" xmlns="http://www.w3.org/2000/svg" xmlns:xlink="http://www.w3.org/1999/xlink" viewBox="0 0 64 64"><defs><style>.cls-1{fill:url(#linear-gradient);}.cls-2{fill:url(#linear-gradient-2);}.cls-3{fill:url(#linear-gradient-3);}.cls-4{fill:url(#linear-gradient-4);}.cls-5{fill:url(#linear-gradient-5);}.cls-6{fill:url(#linear-gradient-6);}.cls-7{fill:url(#linear-gradient-7);}.cls-8{fill:url(#linear-gradient-8);}.cls-9{fill:url(#linear-gradient-9);}.cls-10{fill:url(#linear-gradient-10);}.cls-11{fill:url(#linear-gradient-11);}.cls-12{fill:url(#linear-gradient-12);}.cls-13{fill:url(#linear-gradient-13);}.cls-14{fill:url(#linear-gradient-14);}.cls-15{fill:url(#linear-gradient-15);}.cls-16{fill:url(#linear-gradient-16);}.cls-17{fill:url(#linear-gradient-17);}.cls-18{fill:url(#linear-gradient-18);}.cls-19{fill:url(#linear-gradient-19);}.cls-20{fill:url(#linear-gradient-20);}.cls-21{fill:url(#linear-gradient-21);}.cls-22{fill:url(#linear-gradient-22);}.cls-23{fill:url(#linear-gradient-23);}.cls-24{fill:url(#linear-gradient-24);}.cls-25{fill:url(#linear-gradient-26);}.cls-26{fill:url(#linear-gradient-27);}.cls-27{fill:url(#linear-gradient-28);}.cls-28{fill:url(#linear-gradient-29);}.cls-29{fill:url(#linear-gradient-30);}.cls-30{fill:url(#linear-gradient-31);}.cls-31{fill:url(#linear-gradient-32);}.cls-32{fill:#f9aa8f;}.cls-33{fill:url(#linear-gradient-33);}.cls-34{fill:url(#linear-gradient-34);}.cls-35{fill:#e5c1db;}.cls-36{fill:url(#linear-gradient-35);}.cls-37{fill:#858cc4;}.cls-38{fill:url(#linear-gradient-36);}.cls-39{fill:#9399cc;}.cls-40{fill:url(#linear-gradient-37);}.cls-41{fill:#25110b;}.cls-42{fill:url(#linear-gradient-38);}.cls-43{fill:url(#linear-gradient-39);}.cls-44{fill:#44180d;}.cls-45{fill:url(#linear-gradient-40);}.cls-46{fill:url(#linear-gradient-41);}.cls-47{fill:url(#linear-gradient-42);}</style><linearGradient id="linear-gradient" x1="32" y1="97.25" x2="32" y2="9.14" gradientUnits="userSpaceOnUse"><stop offset="0.02" stop-color="#edd7ad"/><stop offset="0.52" stop-color="#ff9661"/><stop offset="1" stop-color="#e74a69"/></linearGradient><linearGradient id="linear-gradient-2" x1="16.2" y1="36.58" x2="16.2" y2="15.58" xlink:href="#linear-gradient"/><linearGradient id="linear-gradient-3" x1="33.96" y1="47.17" x2="33.96" y2="4.78" xlink:href="#linear-gradient"/><linearGradient id="linear-gradient-4" x1="-360.48" y1="34.67" x2="-360.48" y2="25.87" gradientTransform="translate(376)" xlink:href="#linear-gradient"/><linearGradient id="linear-gradient-5" x1="-359.27" y1="34.67" x2="-359.27" y2="25.87" gradientTransform="translate(376)" xlink:href="#linear-gradient"/><linearGradient id="linear-gradient-6" x1="-361.58" y1="34.67" x2="-361.58" y2="25.87" gradientTransform="translate(376)" xlink:href="#linear-gradient"/><linearGradient id="linear-gradient-7" x1="-358.17" y1="34.67" x2="-358.17" y2="25.87" gradientTransform="translate(376)" xlink:href="#linear-gradient"/><linearGradient id="linear-gradient-8" x1="16.12" y1="37.71" x2="16.12" y2="25.28" xlink:href="#linear-gradient"/><linearGradient id="linear-gradient-9" x1="-357.48" y1="54.41" x2="-357.48" y2="39.44" gradientTransform="translate(376)" xlink:href="#linear-gradient"/><linearGradient id="linear-gradient-10" x1="18.71" y1="57.1" x2="18.71" y2="46.75" xlink:href="#linear-gradient"/><linearGradient id="linear-gradient-11" x1="13.53" y1="54.09" x2="13.53" y2="47.82" xlink:href="#linear-gradient"/><linearGradient id="linear-gradient-12" x1="-345.65" y1="54.41" x2="-345.65" y2="39.44" gradientTransform="translate(376)" xlink:href="#linear-gradient"/><linearGradient id="linear-gradient-13" x1="-345.46" y1="58.3" x2="-345.46" y2="45.69" gradientTransform="translate(376)" xlink:href="#linear-gradient"/><linearGradient id="linear-gradient-14" x1="3033.81" y1="55.58" x2="3033.81" y2="45.95" gradientTransform="matrix(-1, 0, 0, 1, 3058.56, 0)" xlink:href="#linear-gradient"/><linearGradient id="linear-gradient-15" x1="3033.94" y1="58.08" x2="3033.94" y2="49.97" gradientTransform="matrix(-1, 0, 0, 1, 3058.56, 0)" xlink:href="#linear-gradient"/><linearGradient id="linear-gradient-16" x1="-333.82" y1="54.41" x2="-333.82" y2="39.44" gradientTransform="translate(376)" xlink:href="#linear-gradient"/><linearGradient id="linear-gradient-17" x1="-333.63" y1="58.3" x2="-333.63" y2="45.69" gradientTransform="translate(376)" xlink:href="#linear-gradient"/><linearGradient id="linear-gradient-18" x1="3021.98" y1="55.58" x2="3021.98" y2="45.95" gradientTransform="matrix(-1, 0, 0, 1, 3058.56, 0)" xlink:href="#linear-gradient"/><linearGradient id="linear-gradient-19" x1="3022.11" y1="58.08" x2="3022.11" y2="49.97" gradientTransform="matrix(-1, 0, 0, 1, 3058.56, 0)" xlink:href="#linear-gradient"/><linearGradient id="linear-gradient-20" x1="52.91" y1="52.43" x2="52.91" y2="41.95" xlink:href="#linear-gradient"/><linearGradient id="linear-gradient-21" x1="48.33" y1="55.38" x2="48.33" y2="46.19" xlink:href="#linear-gradient"/><linearGradient id="linear-gradient-22" x1="47.94" y1="54.83" x2="47.94" y2="53.05" xlink:href="#linear-gradient"/><linearGradient id="linear-gradient-23" x1="48.41" y1="54.79" x2="48.41" y2="52.87" xlink:href="#linear-gradient"/><linearGradient id="linear-gradient-24" x1="-326.14" y1="48.38" x2="-326.14" y2="19.33" gradientTransform="translate(376)" xlink:href="#linear-gradient"/><linearGradient id="linear-gradient-26" x1="43.58" y1="51.19" x2="43.58" y2="5.21" xlink:href="#linear-gradient"/><linearGradient id="linear-gradient-27" x1="50.33" y1="48.71" x2="50.33" y2="7.94" xlink:href="#linear-gradient"/><linearGradient id="linear-gradient-28" x1="15.79" y1="64.99" x2="15.79" y2="-0.72" xlink:href="#linear-gradient"/><linearGradient id="linear-gradient-29" x1="-316" y1="65" x2="-316" y2="-0.73" gradientTransform="matrix(-1, 0, 0, 1, -297.78, 0)" xlink:href="#linear-gradient"/><linearGradient id="linear-gradient-30" x1="-316.63" y1="65" x2="-316.63" y2="-0.73" gradientTransform="matrix(-1, 0, 0, 1, -297.78, 0)" xlink:href="#linear-gradient"/><linearGradient id="linear-gradient-31" x1="-333.01" y1="37.29" x2="-333.01" y2="-41.38" gradientTransform="matrix(-1, 0, 0, 1, -297.78, 0)" xlink:href="#linear-gradient"/><linearGradient id="linear-gradient-32" x1="-317.15" y1="65" x2="-317.15" y2="-0.73" gradientTransform="matrix(-1, 0, 0, 1, -297.78, 0)" xlink:href="#linear-gradient"/><linearGradient id="linear-gradient-33" x1="47.82" y1="17.28" x2="27.39" y2="24.25" gradientUnits="userSpaceOnUse"><stop offset="0" stop-color="#f9aa8f"/><stop offset="1" stop-color="#f78e6b"/></linearGradient><linearGradient id="linear-gradient-34" x1="36.46" y1="34.34" x2="28.08" y2="17.12" xlink:href="#linear-gradient-33"/><linearGradient id="linear-gradient-35" x1="28.43" y1="29.23" x2="38.88" y2="16.07" gradientUnits="userSpaceOnUse"><stop offset="0" stop-color="#e5c1db"/><stop offset="1" stop-color="#e5a3d3"/></linearGradient><linearGradient id="linear-gradient-36" x1="31.09" y1="47.3" x2="41.48" y2="47.3" gradientUnits="userSpaceOnUse"><stop offset="0" stop-color="#787ebc"/><stop offset="0.23" stop-color="#8389c2"/><stop offset="0.62" stop-color="#8f95ca"/><stop offset="1" stop-color="#9399cc"/></linearGradient><linearGradient id="linear-gradient-37" x1="37.85" y1="44.95" x2="38.9" y2="44.95" gradientUnits="userSpaceOnUse"><stop offset="0" stop-color="#8388c2"/><stop offset="0.13" stop-color="#8b90c7"/><stop offset="0.37" stop-color="#9197cb"/><stop offset="1" stop-color="#9399cc"/></linearGradient><linearGradient id="linear-gradient-38" x1="39.74" y1="19.64" x2="21.83" y2="11.16" xlink:href="#linear-gradient-33"/><linearGradient id="linear-gradient-39" x1="41.79" y1="13.87" x2="28.86" y2="6.47" xlink:href="#linear-gradient-33"/><linearGradient id="linear-gradient-40" x1="29.36" y1="7.86" x2="34.1" y2="15" gradientUnits="userSpaceOnUse"><stop offset="0" stop-color="#2c1015"/><stop offset="0.41" stop-color="#311016"/><stop offset="0.86" stop-color="#3e1118"/><stop offset="0.99" stop-color="#431119"/></linearGradient><linearGradient id="linear-gradient-41" x1="23.34" y1="27.63" x2="22.26" y2="5.05" xlink:href="#linear-gradient-33"/><linearGradient id="linear-gradient-42" x1="23.15" y1="53.03" x2="27.08" y2="53.03" xlink:href="#linear-gradient-36"/></defs><title>yoga</title><circle class="cls-1" cx="32" cy="32" r="28"/><path class="cls-2" d="M16.69,31.71l-.49.49-.49-.49.44-5a.05.05,0,0,1,.1,0Z"/><path class="cls-3" d="M59.59,36.78v-.46a7.88,7.88,0,0,0-7.88-7.88H48.86a.92.92,0,0,0-.92.92v5.51a1.67,1.67,0,0,1-1.67,1.67H39.62a21.06,21.06,0,0,0-16.93,8.53H21.54v-.83H20.49a.61.61,0,0,1-.61-.61v-.95a1.14,1.14,0,0,0-1.14-1.14,1.33,1.33,0,0,1-1.32-1.2l-.5-5a.36.36,0,0,1,.34-.38.78.78,0,0,0,.65-.56l.58-2a.14.14,0,0,0-.13-.17H13.89a.14.14,0,0,0-.13.17l.52,1.81a1.41,1.41,0,0,0,.91.8.25.25,0,0,1,.16.26l-1,9.87a.14.14,0,0,1-.14.12h-.87a3.43,3.43,0,0,0-2.42,1l-.66.66a.14.14,0,0,1-.1,0H8.33A28,28,0,0,0,59.59,36.78Z"/><polygon class="cls-4" points="15.28 33.78 16.05 33.78 16.05 32.2 14.99 32.2 15.28 33.78"/><polygon class="cls-5" points="17.26 32.2 16.2 32.2 16.2 33.78 16.97 33.78 17.26 32.2"/><polygon class="cls-6" points="14.84 32.2 13.71 32.2 14.16 33.78 15.13 33.78 14.84 32.2"/><polygon class="cls-7" points="17.41 32.2 17.12 33.78 18.09 33.78 18.54 32.2 17.41 32.2"/><path class="cls-8" d="M14,31.51h4.26a.4.4,0,0,1,.4.4v.2a.09.09,0,0,1-.09.09H13.68a.09.09,0,0,1-.09-.09v-.2a.4.4,0,0,1,.4-.4Z"/><path class="cls-9" d="M21.52,51.08a1.68,1.68,0,0,0-1.22-1.61.7.7,0,0,1-.48-.48,1.68,1.68,0,0,0-3.27.32,1.7,1.7,0,0,0,0,.38.67.67,0,0,1-.3.64,1.68,1.68,0,0,0-.25,2.6,1.09,1.09,0,0,1,.25.35,1.19,1.19,0,0,0,1.1.73h.15a1.2,1.2,0,0,1,.78.15,1.68,1.68,0,0,0,2.54-1.43h0a.58.58,0,0,1,.18-.42A1.67,1.67,0,0,0,21.52,51.08Z"/><path class="cls-10" d="M19.75,52.26a.53.53,0,0,1-.08.14.52.52,0,0,1-.12.11l-.15.08-.25.12,0,0,0-.16.09-.32-.1.32,0,.16,0,.07h0a0,0,0,0,0,0,0h0l0,0a.52.52,0,0,1-.12.11l-.15.08-.27.13,0-1.51,0,2-.15-.08a.57.57,0,0,1-.17-.12.52.52,0,0,1-.11-.17s0-.06,0-.1A.22.22,0,0,0,18,53a.23.23,0,0,0-.1,0l-.1,0a.23.23,0,0,1-.14-.14l-.1-.41c0,.14.06.28.09.41a.25.25,0,0,0,.14.15l.1,0L18,53a.19.19,0,0,1,.06.08s0,.07,0,.1a.55.55,0,0,0,.11.18.61.61,0,0,0,.17.13l.17.09,0,2.87.14.08,0-3.42.28-.15.15-.08a.55.55,0,0,0,.12-.12l0,0h0l.3-.16.15-.08a.55.55,0,0,0,.2-.27l0-.16.09-.32-.1.32Z"/><path class="cls-11" d="M14.36,53a.43.43,0,0,1-.19-.41,1.08,1.08,0,0,0-1-1.22,1.07,1.07,0,0,0-1,.48,28.16,28.16,0,0,0,2.59,2.28,1,1,0,0,0,0-.23A1.08,1.08,0,0,0,14.36,53Z"/><path class="cls-12" d="M33.35,51.08a1.68,1.68,0,0,0-1.22-1.61.7.7,0,0,1-.48-.48,1.68,1.68,0,0,0-3.27.32,1.7,1.7,0,0,0,0,.38.67.67,0,0,1-.3.64,1.68,1.68,0,0,0-.25,2.6,1.09,1.09,0,0,1,.25.35,1.19,1.19,0,0,0,1.1.73h.15a1.2,1.2,0,0,1,.78.15,1.68,1.68,0,0,0,2.54-1.43h0a.58.58,0,0,1,.18-.42A1.67,1.67,0,0,0,33.35,51.08Z"/><path class="cls-13" d="M31.63,52.1l0,.16a.53.53,0,0,1-.2.25l-.15.08-.25.12,0,0,0-.16.09-.32-.1.32,0,.16,0,.07h0a0,0,0,0,0,0,0h0l0,0a.52.52,0,0,1-.12.11l-.15.08-.27.13,0-1.51,0,2-.15-.08a.57.57,0,0,1-.17-.12.52.52,0,0,1-.11-.17s0-.06,0-.1A.22.22,0,0,0,29.8,53a.23.23,0,0,0-.1,0l-.1,0a.23.23,0,0,1-.14-.14l-.1-.41c0,.14.06.28.09.41a.25.25,0,0,0,.14.15l.1,0,.09,0a.19.19,0,0,1,.06.08s0,.07,0,.1a.55.55,0,0,0,.11.18.61.61,0,0,0,.17.13l.17.09-.06,4h0a.09.09,0,1,0,.17,0l-.06-4.43.28-.15.15-.08a.55.55,0,0,0,.12-.12l0,0h0l.3-.16.15-.08a.55.55,0,0,0,.2-.27l0-.16.09-.32Z"/><path class="cls-14" d="M22.81,53.44a1.08,1.08,0,0,1,.78-1,.45.45,0,0,0,.31-.31A1.08,1.08,0,0,1,26,52.3a1.09,1.09,0,0,1,0,.24.43.43,0,0,0,.19.41,1.08,1.08,0,0,1,.16,1.67.7.7,0,0,0-.16.23.77.77,0,0,1-.71.47h-.1a.77.77,0,0,0-.5.1,1.08,1.08,0,0,1-1.63-.92h0a.38.38,0,0,0-.11-.27A1.07,1.07,0,0,1,22.81,53.44Z"/><path class="cls-15" d="M23.92,54.09l0,.1a.34.34,0,0,0,.05.09l.08.07.09,0,.16.08v0l0-.1-.06-.21.06.21,0,.1,0,0h0a0,0,0,0,1,0,0h0v0l.08.07.09,0,.17.08v-1l0,1.27.1,0a.37.37,0,0,0,.11-.08.33.33,0,0,0,.07-.11l0-.06a.14.14,0,0,1,0-.06l.06,0,.07,0a.15.15,0,0,0,.09-.09l.07-.26-.06.27a.16.16,0,0,1-.09.1l-.07,0-.06,0,0,.05,0,.07a.35.35,0,0,1-.07.12.39.39,0,0,1-.11.08l-.11.06,0,2.55h0a.06.06,0,0,1-.11,0l0-2.85-.18-.1-.09-.05-.08-.08v0h0l-.19-.1-.09-.05L24,54.29a.35.35,0,0,1-.05-.1l0-.1-.06-.21Z"/><path class="cls-16" d="M45.19,51.08A1.68,1.68,0,0,0,44,49.47a.7.7,0,0,1-.48-.48,1.68,1.68,0,0,0-3.27.32,1.7,1.7,0,0,0,0,.38.67.67,0,0,1-.3.64,1.68,1.68,0,0,0-.25,2.6,1.09,1.09,0,0,1,.25.35A1.19,1.19,0,0,0,41,54h.15a1.2,1.2,0,0,1,.78.15,1.68,1.68,0,0,0,2.54-1.43h0a.58.58,0,0,1,.18-.42A1.67,1.67,0,0,0,45.19,51.08Z"/><path class="cls-17" d="M43.46,52.1l0,.16a.53.53,0,0,1-.2.25l-.15.08-.25.12,0,0,0-.16.09-.32-.1.32,0,.16,0,.07h0a0,0,0,0,0,0,0h0l0,0a.52.52,0,0,1-.12.11l-.15.08-.27.13,0-1.51,0,2L42,53.5a.57.57,0,0,1-.17-.12.52.52,0,0,1-.11-.17s0-.06,0-.1a.22.22,0,0,0-.07-.09.23.23,0,0,0-.1,0l-.1,0a.23.23,0,0,1-.14-.14l-.1-.41c0,.14.06.28.09.41a.25.25,0,0,0,.14.15l.1,0,.09,0a.19.19,0,0,1,.06.08s0,.07,0,.1a.55.55,0,0,0,.11.18.61.61,0,0,0,.17.13l.17.09-.06,4h0a.09.09,0,0,0,.17,0l-.06-4.43.28-.15.15-.08a.55.55,0,0,0,.12-.12l0,0h0l.3-.16.15-.08a.55.55,0,0,0,.2-.27l0-.16.09-.32Z"/><path class="cls-18" d="M34.65,53.44a1.08,1.08,0,0,1,.78-1,.45.45,0,0,0,.31-.31,1.08,1.08,0,0,1,2.11.21,1.09,1.09,0,0,1,0,.24A.43.43,0,0,0,38,53a1.08,1.08,0,0,1,.16,1.67.7.7,0,0,0-.16.23.77.77,0,0,1-.71.47h-.1a.77.77,0,0,0-.5.1,1.08,1.08,0,0,1-1.63-.92h0a.38.38,0,0,0-.11-.27A1.07,1.07,0,0,1,34.65,53.44Z"/><path class="cls-19" d="M35.75,54.09l0,.1a.34.34,0,0,0,.05.09l.08.07.09,0,.16.08v0l0-.1-.06-.21.06.21,0,.1,0,0h0a0,0,0,0,1,0,0h0v0l.08.07.09,0,.17.08v-1l0,1.27.1,0a.37.37,0,0,0,.11-.08.33.33,0,0,0,.07-.11l0-.06a.14.14,0,0,1,0-.06l.06,0,.07,0a.15.15,0,0,0,.09-.09l.07-.26-.06.27a.16.16,0,0,1-.09.1l-.07,0-.06,0,0,.05,0,.07a.35.35,0,0,1-.07.12.39.39,0,0,1-.11.08l-.11.06,0,2.55h0a.06.06,0,0,1-.11,0l0-2.85-.18-.1-.09-.05-.08-.08v0h0l-.19-.1-.09-.05-.08-.08a.35.35,0,0,1-.05-.1l0-.1-.06-.21Z"/><path class="cls-20" d="M54.81,48.22a1.65,1.65,0,0,0-1.21-.43,1.68,1.68,0,0,0-1.54,1.89.67.67,0,0,1-.3.64,1.67,1.67,0,0,0-.61,2.08A28.14,28.14,0,0,0,54.81,48.22Z"/><path class="cls-21" d="M49.86,53a.43.43,0,0,1-.19-.41,1.09,1.09,0,0,0,0-.24,1.08,1.08,0,0,0-2.11-.21.45.45,0,0,1-.31.31,1.08,1.08,0,0,0-.46,1.81.38.38,0,0,1,.11.27h0a1.06,1.06,0,0,0,.5.88,28.1,28.1,0,0,0,2.76-2.08A1.08,1.08,0,0,0,49.86,53Z"/><path class="cls-22" d="M48.22,54.66l-.09,0-.08-.07v0h0a0,0,0,0,0,0,0h0l0,0,0-.1-.06-.21.06.21,0,.1v0l-.16-.08-.09,0-.08-.07a.34.34,0,0,1-.05-.09l0-.1-.06-.21.06.21,0,.1a.35.35,0,0,0,.05.1l.08.08.09.05.19.1h0v0l.08.08.09.05.12.06,0,0Z"/><path class="cls-23" d="M48.41,53.77v.92l0,0Z"/><path class="cls-24" d="M47.94,33.33h3.55a.29.29,0,0,0,.29-.29h0a.29.29,0,0,0-.29-.29H47.94Z"/><path class="cls-24" d="M47.94,35h3.55a.29.29,0,0,0,.29-.29h0a.29.29,0,0,0-.29-.29H47.94Z"/><path class="cls-25" d="M49.37,10a4.26,4.26,0,0,0-.74.82C47,13.23,41.46,16.8,34.82,19a177.16,177.16,0,0,0,17.53-6.24A28.16,28.16,0,0,0,49.37,10Z"/><path class="cls-26" d="M55.8,17.26c-.12.08-.27.2-.5.4-.61.52-3,.62-4,1.65s-4.16,2.31-7.71,2.8a93.35,93.35,0,0,0,13.57-2.48Q56.52,18.41,55.8,17.26Z"/><path class="cls-27" d="M27.17,23.35s-5.89,1.1-9.32.38-5.22.78-7.54-.24a4.09,4.09,0,0,0-5,1.29,1,1,0,0,1-.5.36c-.17.69-.32,1.38-.44,2.09C9.42,27.24,17,26.49,27.17,23.35Z"/><path class="cls-28" d="M26.56,16.18a14.37,14.37,0,0,1-5.2.28c-2-.48-2.88.54-4.24-.15a2,2,0,0,0-2.7.89c-.31.66-1.34,0-2,.59a4.94,4.94,0,0,1-2.51.54S15.62,20.45,26.56,16.18Z"/><path class="cls-29" d="M21.64,19.91s-3.78,1.26-5.58.93a5.71,5.71,0,0,0,1.5-.73,1.93,1.93,0,0,1,1.79-.37c.41.25.57-.36,1-.13A4.58,4.58,0,0,0,21.64,19.91Z"/><path class="cls-30" d="M38,22s-3.78,1.26-5.58.93a5.71,5.71,0,0,0,1.5-.73,1.93,1.93,0,0,1,1.79-.37c.41.25.57-.36,1-.13A4.58,4.58,0,0,0,38,22Z"/><path class="cls-31" d="M17.35,11.63s2.9-.23,4-1a4.18,4.18,0,0,1-1.22-.07,1.41,1.41,0,0,0-1.31.26c-.2.29-.48-.08-.73.2A3.35,3.35,0,0,1,17.35,11.63Z"/><path class="cls-32" d="M37.4,17.3s13.91,2.33,19.76-5.79l1.15.92s-5.44,10.78-20.59,9.4"/><path class="cls-33" d="M41,20.18A8.81,8.81,0,0,0,39.2,17.5h0c-1-.08-1.59-.17-1.75-.2l0,1.17,0,.64,2.14,2.83a22.68,22.68,0,0,0,10.26-2C46,21.7,41.33,21.26,41,20.18Z"/><path class="cls-32" d="M29.2,28.23h0a13,13,0,0,1,1.5,5.26v.82l8.51-.73s-.7-3.83.1-5.35-6.56-2-6.56-2"/><path class="cls-34" d="M32.74,26.22l-3.54,2a13,13,0,0,1,1.5,5.26v.82l2-.17.84-1.57s-2.54.79-1.37-2.3,7-1.85,7-1.85l-.39-1C37.23,26.52,32.74,26.22,32.74,26.22Z"/><path class="cls-35" d="M29.36,16.33l-1.73.4-.46,4.09a10.44,10.44,0,0,0,1.57,6.78l.84,1.31s7.58-3.11,9.62-.5l1.43-2.73a3.59,3.59,0,0,0,.06-3.23l-2.91-5.1-1-.27"/><path class="cls-36" d="M39.2,28.42l1.43-2.73A3.59,3.59,0,0,0,41,23.88c-.2,1.15-.14,1.14-.78,1.48s-2.34-.91-5.32-.42-5.72,1.26-5.18-2.57-1.54-5.64-1.54-5.64L27.49,18l-.32,2.83a10.44,10.44,0,0,0,1.57,6.78l.84,1.31S37.16,25.8,39.2,28.42Z"/><path class="cls-37" d="M37.3,35l2.3.16a9.46,9.46,0,0,1-.1-1.4c-2.85-2.85-9.09-.14-9.09-.14-.06.78,0,1.14,0,1.14l-1,6.19Z"/><path class="cls-38" d="M31.33,51.41c1.65,1.91,2.8,5,3.6,8.43a27.83,27.83,0,0,0,6.54-1.49c.16-14.46-2-23.6-2-23.6C28.89,36,31.33,51.41,31.33,51.41Z"/><path id="_Path_" data-name="&lt;Path&gt;" class="cls-39" d="M37,46.26s1.61-.18,2.13-2.9a40.15,40.15,0,0,0,0-5.85L36,43.1Z"/><path id="_Path_2" data-name="&lt;Path&gt;" class="cls-40" d="M37.85,45.89a3,3,0,0,0,.31-1.66s.74-.65.74.29A1.28,1.28,0,0,1,37.85,45.89Z"/><path class="cls-39" d="M30.37,34.76c-.2,2.61-2.35,5.34-3.15,6.85q-.36.57-.67,1.18h0a17.23,17.23,0,0,0-1.89,7,42.79,42.79,0,0,1-1.5,8.81A28,28,0,0,0,32,60l1,0a66.87,66.87,0,0,0,6.55-25.22C36.65,31.9,30.37,34.76,30.37,34.76Z"/><path id="_Path_3" data-name="&lt;Path&gt;" class="cls-41" d="M37.13,5.63,38,14.55a.41.41,0,0,1-.53.43L34,13.9l-.17-6.21.49-2.25,1.76-.28Z"/><path class="cls-32" d="M37.29,6.58c-3-3-5.49.86-5.49.86V13.6s5.22.66,5.69-.94l.47-1.1a4.9,4.9,0,0,0-.1-4.14A3.29,3.29,0,0,0,37.29,6.58Z"/><path class="cls-32" d="M36.83,17.09a2.68,2.68,0,0,1-1.46-2c0-.84.25-1.46.8-1.56l-3.92-1.11s-.37,3.5-2.89,3.9c0,0,2.43,4.87,5.24,4.7.08,0,1.73,0,1.82,0C39.16,21.28,36.83,17.09,36.83,17.09Z"/><path class="cls-42" d="M34.94,15c0-1.11.62-1.35.87-1.39l-4,.54a3.3,3.3,0,0,1-2.43,2.19s2.2,4.39,4.82,4.68c-1.12-.3-.92-1.42.4-2S35,16.38,34.94,15Z"/><path class="cls-43" d="M33.13,9.8l.9,3.93a9.07,9.07,0,0,0,2.32-.24c-1.07.22-1-.6-1.05-2s.6-1.47,1.28-1.77.83.23.71,1.07.08.71.3.68a.4.4,0,0,0,.3-.26s-.39,0-.26-.54-.11-1.4.18-1.43A1.44,1.44,0,0,0,38.34,9a4.68,4.68,0,0,0-.47-1.58l-.08-.14-.42,0Z"/><path class="cls-44" d="M38.9,7.47c-.06-.88-1.76-2-2.78-2.55a8.06,8.06,0,0,0-.76-.41h0c-1.32-.61-3.1-1-4.36.66A17.06,17.06,0,0,0,28.43,10a3.7,3.7,0,0,0,2,4.61l3.75,1.63a.53.53,0,0,0,.75-.51c-.06-1.3-.15-3.85-.12-5.91C36.31,9.37,39,8.38,38.9,7.47Z"/><path class="cls-45" d="M30.45,14.66l3.75,1.63a.53.53,0,0,0,.75-.51c-.06-1.3-.15-3.85-.12-5.91a5.93,5.93,0,0,1-2.87.3c-1.26-.3-1.74.47-.18,2s-1.38,3.45-2.94,1.14A3.69,3.69,0,0,0,30.45,14.66Z"/><path class="cls-32" d="M27.75,16.7S14.57,18.09,7,9.59L5.59,10S9.26,20,26.83,21.75a2.44,2.44,0,0,0,1.73-.47A2.1,2.1,0,0,0,29.28,19C28.74,16.57,27.75,16.7,27.75,16.7Z"/><path class="cls-32" d="M7.78,13.39S3.85,9.85,4.66,7,6.33,4.26,6.6,4.57a16,16,0,0,1,.63,3s.41-1.11.54-.79-.28,3.41.46,4"/><path class="cls-32" d="M56.62,12.21a2.62,2.62,0,0,1,.52-2.46c1-1.27.6.42.6.42s.81-2.34,1.44-2,.21,3.43-1.81,5.75"/><path class="cls-46" d="M29.28,19c-.55-2.39-1.53-2.26-1.53-2.26s-.4,0-1.1.07h0c1.13,2.91-.14,4.35-7.26,3.31a15.39,15.39,0,0,1-2.87-.72h0a37.25,37.25,0,0,0,10.29,2.37,2.44,2.44,0,0,0,1.73-.47A2.1,2.1,0,0,0,29.28,19Z"/><path class="cls-47" d="M25.13,46.54a17,17,0,0,0-.48,3.22,42.79,42.79,0,0,1-1.5,8.81,27.8,27.8,0,0,0,3.77,1,4.92,4.92,0,0,0-.26-3.35A15.19,15.19,0,0,1,25.13,46.54Z"/></svg>