<svg id="Layer_1" data-name="Layer 1" xmlns="http://www.w3.org/2000/svg" xmlns:xlink="http://www.w3.org/1999/xlink" viewBox="0 0 64 64"><defs><style>.cls-1{fill:url(#linear-gradient);}.cls-2{fill:url(#linear-gradient-2);}.cls-3{fill:url(#linear-gradient-3);}.cls-4{fill:url(#linear-gradient-4);}.cls-5{fill:url(#linear-gradient-5);}.cls-6{fill:url(#linear-gradient-6);}.cls-7{fill:url(#linear-gradient-7);}.cls-8{fill:url(#linear-gradient-8);}.cls-9{fill:url(#linear-gradient-9);}.cls-10{fill:url(#linear-gradient-10);}.cls-11{fill:url(#linear-gradient-11);}.cls-12{fill:url(#linear-gradient-12);}.cls-13{fill:url(#linear-gradient-13);}.cls-14{fill:url(#linear-gradient-14);}.cls-15{fill:url(#linear-gradient-15);}.cls-16{fill:url(#linear-gradient-16);}.cls-17{fill:url(#linear-gradient-17);}.cls-18{fill:url(#linear-gradient-18);}.cls-19{fill:url(#linear-gradient-19);}.cls-20{fill:url(#linear-gradient-20);}.cls-21{fill:url(#linear-gradient-21);}.cls-22{fill:url(#linear-gradient-22);}.cls-23{fill:url(#linear-gradient-23);}.cls-24{fill:#544a3c;}.cls-25{fill:url(#linear-gradient-24);}.cls-26{fill:url(#linear-gradient-25);}.cls-27{fill:url(#linear-gradient-26);}.cls-28{fill:url(#linear-gradient-27);}.cls-29{fill:#99866e;}.cls-30{fill:url(#linear-gradient-28);}.cls-31{fill:url(#linear-gradient-29);}.cls-32{fill:url(#linear-gradient-30);}.cls-33{fill:#f9aa8f;}.cls-34{fill:url(#linear-gradient-31);}.cls-35{fill:url(#linear-gradient-32);}.cls-36{fill:url(#linear-gradient-33);}.cls-37{fill:url(#linear-gradient-34);}.cls-38{fill:url(#linear-gradient-35);}.cls-39{fill:url(#linear-gradient-36);}</style><linearGradient id="linear-gradient" x1="32" y1="97.25" x2="32" y2="9.14" gradientUnits="userSpaceOnUse"><stop offset="0" stop-color="#caf1d8"/><stop offset="0.51" stop-color="#7defa4"/><stop offset="1" stop-color="#2fbca4"/></linearGradient><linearGradient id="linear-gradient-2" x1="34.7" y1="66.08" x2="34.7" y2="-25.09" xlink:href="#linear-gradient"/><linearGradient id="linear-gradient-3" x1="21.16" y1="49.18" x2="6.67" y2="21.94" xlink:href="#linear-gradient"/><linearGradient id="linear-gradient-4" x1="37.76" y1="45.35" x2="32.12" y2="16.21" xlink:href="#linear-gradient"/><linearGradient id="linear-gradient-5" x1="44.02" y1="65.95" x2="44.02" y2="29.77" xlink:href="#linear-gradient"/><linearGradient id="linear-gradient-6" x1="54.13" y1="50.74" x2="54.13" y2="46.24" xlink:href="#linear-gradient"/><linearGradient id="linear-gradient-7" x1="29.25" y1="67.15" x2="29.25" y2="28.89" xlink:href="#linear-gradient"/><linearGradient id="linear-gradient-8" x1="44.63" y1="24.01" x2="44.63" y2="-12.25" xlink:href="#linear-gradient"/><linearGradient id="linear-gradient-9" x1="50.22" y1="24.35" x2="50.22" y2="-8.58" xlink:href="#linear-gradient"/><linearGradient id="linear-gradient-10" x1="1501.51" y1="29.88" x2="1501.51" y2="-31.66" gradientTransform="matrix(-1, 0, 0, 1, 1522.22, 0)" xlink:href="#linear-gradient"/><linearGradient id="linear-gradient-11" x1="1496.75" y1="29.88" x2="1496.75" y2="-31.66" gradientTransform="matrix(-1, 0, 0, 1, 1522.22, 0)" xlink:href="#linear-gradient"/><linearGradient id="linear-gradient-12" x1="1510.38" y1="29.88" x2="1510.38" y2="-31.66" gradientTransform="matrix(-1, 0, 0, 1, 1522.22, 0)" xlink:href="#linear-gradient"/><linearGradient id="linear-gradient-13" x1="1485.1" y1="29.88" x2="1485.1" y2="-31.66" gradientTransform="matrix(-1, 0, 0, 1, 1522.22, 0)" xlink:href="#linear-gradient"/><linearGradient id="linear-gradient-14" x1="1483.44" y1="29.88" x2="1483.44" y2="-31.66" gradientTransform="matrix(-1, 0, 0, 1, 1522.22, 0)" xlink:href="#linear-gradient"/><linearGradient id="linear-gradient-15" x1="1495.85" y1="29.88" x2="1495.85" y2="-31.66" gradientTransform="matrix(-1, 0, 0, 1, 1522.22, 0)" gradientUnits="userSpaceOnUse"><stop offset="0" stop-color="#fff"/><stop offset="0.84" stop-color="#cddfec"/></linearGradient><linearGradient id="linear-gradient-16" x1="3.97" y1="1.16" x2="9.43" y2="17.38" gradientUnits="userSpaceOnUse"><stop offset="0" stop-color="#fcfbff"/><stop offset="0.48" stop-color="#f5ede9"/><stop offset="1" stop-color="#a5adbe"/></linearGradient><linearGradient id="linear-gradient-17" x1="23.25" y1="13.53" x2="21.09" y2="33.39" gradientTransform="translate(26.52 -6.55) rotate(45)" gradientUnits="userSpaceOnUse"><stop offset="0.01" stop-color="#bc8127"/><stop offset="0.38" stop-color="#996027"/><stop offset="0.94" stop-color="#5e3920"/></linearGradient><linearGradient id="linear-gradient-18" x1="-3.21" y1="21.09" x2="27.31" y2="18.23" gradientTransform="matrix(1, 0, 0, 1, 0, 0)" xlink:href="#linear-gradient-17"/><linearGradient id="linear-gradient-19" x1="33.87" y1="63.48" x2="26.11" y2="46.04" gradientUnits="userSpaceOnUse"><stop offset="0.01" stop-color="#bc8127"/><stop offset="0.48" stop-color="#996027"/><stop offset="1" stop-color="#5e3920"/></linearGradient><linearGradient id="linear-gradient-20" x1="26.9" y1="68.51" x2="19.56" y2="44.76" gradientTransform="matrix(1, 0, 0, 1, 0, 0)" xlink:href="#linear-gradient-17"/><linearGradient id="linear-gradient-21" x1="23.04" y1="3.14" x2="23.04" y2="57.68" gradientUnits="userSpaceOnUse"><stop offset="0" stop-color="#cf9b5b"/><stop offset="0.52" stop-color="#99866e"/><stop offset="1" stop-color="#424049"/></linearGradient><linearGradient id="linear-gradient-22" x1="15.42" y1="26.49" x2="26.96" y2="20.59" xlink:href="#linear-gradient-21"/><linearGradient id="linear-gradient-23" x1="18.74" y1="3.86" x2="26.48" y2="52.59" xlink:href="#linear-gradient-21"/><linearGradient id="linear-gradient-24" x1="27.45" y1="6.13" x2="27.45" y2="55.6" xlink:href="#linear-gradient-21"/><linearGradient id="linear-gradient-25" x1="49.72" y1="25.3" x2="29.16" y2="33.3" xlink:href="#linear-gradient-16"/><linearGradient id="linear-gradient-26" x1="18.17" y1="49.56" x2="41.78" y2="23.53" xlink:href="#linear-gradient-16"/><linearGradient id="linear-gradient-27" x1="39.19" y1="31.22" x2="26.58" y2="29.74" gradientUnits="userSpaceOnUse"><stop offset="0.49" stop-color="#5f1d00"/><stop offset="0.97" stop-color="#390e00"/></linearGradient><linearGradient id="linear-gradient-28" x1="19.23" y1="-3.24" x2="19.23" y2="67.39" xlink:href="#linear-gradient-21"/><linearGradient id="linear-gradient-29" x1="15.14" y1="27.1" x2="16.57" y2="32" xlink:href="#linear-gradient-27"/><linearGradient id="linear-gradient-30" x1="27.13" y1="30.56" x2="37.43" y2="30.56" xlink:href="#linear-gradient-16"/><linearGradient id="linear-gradient-31" x1="33.96" y1="20.66" x2="19.87" y2="11.76" gradientUnits="userSpaceOnUse"><stop offset="0" stop-color="#fbc19e"/><stop offset="0.48" stop-color="#ffb699"/><stop offset="1" stop-color="#f47e6d"/></linearGradient><linearGradient id="linear-gradient-32" x1="28.5" y1="23.25" x2="20.82" y2="7.45" gradientUnits="userSpaceOnUse"><stop offset="0.03" stop-color="#4a2c18"/><stop offset="1" stop-color="#2b1915"/></linearGradient><linearGradient id="linear-gradient-33" x1="-135.83" y1="214.4" x2="-134.69" y2="197.86" gradientTransform="translate(181.27 -174.03) rotate(7.46)" xlink:href="#linear-gradient-21"/><linearGradient id="linear-gradient-34" x1="17.12" y1="20.32" x2="22.17" y2="7.97" xlink:href="#linear-gradient-21"/><linearGradient id="linear-gradient-35" x1="23.75" y1="-1.45" x2="23.34" y2="15.1" gradientTransform="matrix(1, 0, 0, 1, 0, 0)" xlink:href="#linear-gradient-17"/><linearGradient id="linear-gradient-36" x1="22.64" y1="18.12" x2="23.91" y2="-0.72" gradientTransform="matrix(1, 0, 0, 1, 0, 0)" xlink:href="#linear-gradient-17"/></defs><title>hunter</title><circle class="cls-1" cx="32" cy="32" r="28"/><path class="cls-2" d="M59.94,30.27c0-.05,0-.1,0-.16,0-.55-.09-1.1-.16-1.64h0l-4.7-5.12a2.59,2.59,0,0,0-3.63-.18L33.26,39.33a1.62,1.62,0,0,1-2.17,0l-4.61-4.25a1.89,1.89,0,0,0-2.56,0L9.39,48.51a28.18,28.18,0,0,0,3.13,3.59l.14.13q.5.47,1,.92l.17.15q.54.46,1.11.9l.09.07a28,28,0,0,0,2.62,1.77l.16.09q.57.34,1.16.65l.34.17,1.05.51.38.17,1.11.46.33.13a27.77,27.77,0,0,0,3,.92l.42.1,1.09.24.54.1,1,.16.56.07,1.09.1.5,0c.53,0,1.06,0,1.6,0A28,28,0,0,0,60,32C60,31.42,60,30.84,59.94,30.27Z"/><path class="cls-3" d="M23.9,39.39a5.2,5.2,0,0,0,1.36-3.51v-.22a.8.8,0,0,0-1.33-.6h0L9.39,48.51a28.1,28.1,0,0,0,10.79,8.87l6.5-9.83-2.85-3.33A3.65,3.65,0,0,1,23.9,39.39Z"/><path class="cls-4" d="M55.36,30.43A10.89,10.89,0,0,1,53.24,24a1.08,1.08,0,0,0-1.79-.82h0L33.74,38.9l-17.8,16a28,28,0,0,0,35.23-2.54l5.69-7.86c.13-.18.29-.35.43-.52a27.8,27.8,0,0,0,2.38-7.72Z"/><path class="cls-5" d="M51.88,51.72l-.53-1a.32.32,0,0,0,.14-.44l-.91-1.63h0a.23.23,0,0,0,.15-.33L49,45.16a.11.11,0,0,0-.19,0L47,48.36a.23.23,0,0,0,.15.33h0l-.91,1.63a.32.32,0,0,0,.14.44l-.57,1-.33-.59h0a.23.23,0,0,0,.15-.33l-1.77-3.19a.11.11,0,0,0-.19,0l-1.77,3.19a.23.23,0,0,0,.15.33h0l-.91,1.63a.32.32,0,0,0,.14.44l-.32.57-.37-.66a.19.19,0,0,0,.08-.26L40.12,52h0a.13.13,0,0,0,.09-.19l-1-1.85a.06.06,0,0,0-.11,0L38,51.8a.13.13,0,0,0,.09.19h0l-.53.95a.19.19,0,0,0,.08.26L37,54.43a.26.26,0,0,0,.08.34l-.87,1.57a.35.35,0,0,0,.23.52,12,12,0,0,0,3.14.3l-.86,1.54a.6.6,0,0,0,0,.49A28,28,0,0,0,51.88,51.72Z"/><path class="cls-6" d="M54.73,48.34l-.07-.13a.11.11,0,0,0-.19,0l-.94,1.69C53.95,49.4,54.35,48.87,54.73,48.34Z"/><path class="cls-7" d="M40.68,55.11a.26.26,0,0,0,.08-.34l-.69-1.24a.19.19,0,0,0,.08-.26l-.53-.95h0a.13.13,0,0,0,.09-.19l-1-1.85a.06.06,0,0,0-.11,0l-1,1.85a.13.13,0,0,0,.09.19h0l-.36.65-.69-1.24h0a.23.23,0,0,0,.15-.33l-1.77-3.19a.11.11,0,0,0-.19,0L33,51.4a.23.23,0,0,0,.15.33h0l-.48.86-1-1.83a.32.32,0,0,0,.14-.44l-.91-1.63h0a.23.23,0,0,0,.15-.33l-1.77-3.19a.11.11,0,0,0-.19,0l-1.77,3.19a.23.23,0,0,0,.15.33h0l-.91,1.63a.32.32,0,0,0,.14.44l-.57,1-.33-.59h0a.23.23,0,0,0,.15-.33l-1.77-3.19a.11.11,0,0,0-.19,0l-1.77,3.19a.23.23,0,0,0,.15.33h0l-.91,1.63a.32.32,0,0,0,.14.44l-.32.57-.37-.66a.19.19,0,0,0,.08-.26L20.4,52h0a.13.13,0,0,0,.09-.19l-1-1.85a.06.06,0,0,0-.11,0l-1,1.85a.13.13,0,0,0,.09.19h0l-.53.95a.19.19,0,0,0,.08.26l-.69,1.24a.26.26,0,0,0,.08.34l-.45.8a27.94,27.94,0,0,0,2.78,1.57h.17l0,.06A27.81,27.81,0,0,0,28,59.72l.62-.12a.61.61,0,0,0,.4-.89l-.61-1.11a20.61,20.61,0,0,0,2.31-.05l-.94,1.69a.6.6,0,0,0,.08.69c.7.05,1.4.09,2.11.09a28,28,0,0,0,7.71-1.08l-.79-1.42a12,12,0,0,0,2.4-.3.35.35,0,0,0,.23-.52Z"/><path class="cls-8" d="M48.89,9.67C47.3,11.5,43.23,14,38.45,15.58c0,0,5.32-1.5,12.36-4.33C50.2,10.7,49.56,10.18,48.89,9.67Z"/><path class="cls-9" d="M54,14.73a7.06,7.06,0,0,0-2.71,1.08c-.8.81-3.26,1.8-6,2.19a72.94,72.94,0,0,0,9.87-1.75C54.79,15.73,54.42,15.22,54,14.73Z"/><path class="cls-10" d="M32.47,19s-4.61.86-7.29.29-4.09.61-5.9-.19a3.2,3.2,0,0,0-3.88,1c-.51.76-1.87,0-2.9.68s-3.57.62-3.57.62S16.71,23.84,32.47,19Z"/><path class="cls-11" d="M32,13.36a11.24,11.24,0,0,1-4.07.22c-1.54-.38-2.26.42-3.32-.12a1.53,1.53,0,0,0-2.12.69c-.24.52-1.05,0-1.59.47a3.86,3.86,0,0,1-2,.43S23.44,16.71,32,13.36Z"/><path class="cls-12" d="M8.06,16.09s5.17.85,7.57-.2a6.06,6.06,0,0,1-2.08-.7,2.2,2.2,0,0,0-2.44-.05c-.53.52-.79-.4-1.39.1A6.46,6.46,0,0,1,8.06,16.09Z"/><path class="cls-13" d="M39.3,9.18s-3,1-4.37.73a4.47,4.47,0,0,0,1.18-.57A1.51,1.51,0,0,1,37.51,9c.32.2.44-.28.8-.1A3.58,3.58,0,0,0,39.3,9.18Z"/><path class="cls-14" d="M41,18s-3,1-4.37.73a4.47,4.47,0,0,0,1.18-.57,1.51,1.51,0,0,1,1.4-.29c.32.2.44-.28.8-.1A3.58,3.58,0,0,0,41,18Z"/><path class="cls-15" d="M24.79,9.8a9.36,9.36,0,0,0,3.15-.75A3.27,3.27,0,0,1,27,9a1.1,1.1,0,0,0-1,.2c-.16.22-.38-.07-.57.16A2.62,2.62,0,0,1,24.79,9.8Z"/><path id="_Path_" data-name="&lt;Path&gt;" class="cls-16" d="M11.09,16.33,6.33,11a.27.27,0,0,0-.47.22l.55,3.19a.21.21,0,0,0,.39.08l.1-.15a.35.35,0,0,1,.53-.05l3.36,3.67S11.45,18.61,11.09,16.33Z"/><path id="_Rectangle_" data-name="&lt;Rectangle&gt;" class="cls-17" d="M21.58,12.34h1.27a0,0,0,0,1,0,0v32.8a0,0,0,0,1,0,0H19.49a0,0,0,0,1,0,0V14.44a2.09,2.09,0,0,1,2.09-2.09Z" transform="translate(-14.12 23.39) rotate(-45)"/><path class="cls-18" d="M11.7,19.66c-.17,1.16-.19,1.74.41,2.4l1.3,1.3,2.35-.78L16,21.19,10.77,16l-.9.9S11.88,18.5,11.7,19.66Z"/><path class="cls-19" d="M19.23,45.6c1.32,1.32,2.44,6.57,3.33,12.77A27.94,27.94,0,0,0,32,60c.42,0,.83,0,1.24,0a164.12,164.12,0,0,0,.55-17Z"/><path class="cls-20" d="M14.42,53.79a27.88,27.88,0,0,0,12.16,5.68,59.28,59.28,0,0,0,1.53-12.73l-12-3.58A58.45,58.45,0,0,0,14.42,53.79Z"/><path class="cls-21" d="M25.39,18.66l-6.95-.4s-7.62,2.9-6.14,6.93,6.28,5.62,3.8,18.12c0,0,11.81,9.88,17.69-.3C33.79,43,35.87,23.66,25.39,18.66Z"/><path class="cls-22" d="M26.69,26.91c-1.53-2.42.76-5.3.76-5.3l-5.13-3.12-3.88-.22a18.62,18.62,0,0,0-2.68,1.33l.73.83S28.47,29.72,26.69,26.91Z"/><path class="cls-23" d="M17,30.4c.17-1.58,1.68-4.84,4.35-3.89S27.45,31,27.45,31l1.51.17-2.43-3.5L14.88,20.42l-.74.32c-1.41,1.18-2.47,2.71-1.83,4.45,1.48,4,6.28,5.62,3.8,18.12a21.48,21.48,0,0,0,8.1,4.06c-5.77-1.53-4.27-6.85,1.21-5.92,5.81,1,8.53-2.17,8.54-2.18,0-.65,0-1.35,0-2.11C33,36.89,16.88,31.94,17,30.4Z"/><path id="_Path_2" data-name="&lt;Path&gt;" class="cls-24" d="M33,34a3.14,3.14,0,0,1-2,.36c-1-1.28-5.16-5.85-6.5-7-.56-.49-1.15-1-1.75-1.44a41.91,41.91,0,0,0-8.57-5,.36.36,0,0,1-.1-.59,3.71,3.71,0,0,1,1.16-.79,1,1,0,0,1,.89,0,48.66,48.66,0,0,1,7.75,5Q25,25.35,26,26.28A102.38,102.38,0,0,1,33,34Z"/><path class="cls-25" d="M25.39,18.66S40.66,25.41,36.9,34.72s-19.49-2.88-19.49-2.88a4,4,0,0,1,3.57-1c2.11.47,13,3.75,12.39.9S31.85,22.62,25.39,18.66Z"/><path id="_Rectangle_2" data-name="&lt;Rectangle&gt;" class="cls-26" d="M34.4,26.91h4.18a.58.58,0,0,1,.58.58v4.89a2.1,2.1,0,0,1-2.1,2.1H34.4a.58.58,0,0,1-.58-.58V27.48A.58.58,0,0,1,34.4,26.91Z"/><path class="cls-27" d="M34.4,26.91a.58.58,0,0,0-.58.58v6.41a.58.58,0,0,0,.58.58H36a1,1,0,0,0,1-1V29a2.14,2.14,0,0,1,.63-1.51l.57-.57Z"/><path class="cls-28" d="M29.41,29.85a12.69,12.69,0,0,1,3.92-1.06c1.78-.08,2.63,0,2.54.78S34.21,33.69,31,31.79"/><polygon id="_Path_3" data-name="&lt;Path&gt;" class="cls-29" points="12.3 37.94 12.31 37.94 12.3 37.94 12.3 37.94"/><path class="cls-30" d="M13.8,21s-6.6,5.5-6.2,12.91,18.17,5,23.28-2.15c0,0-.06-1.84-1.6-1.94,0,0-14.29,5.67-12.2,0S13.8,21,13.8,21Z"/><path class="cls-31" d="M19.45,30.7a.1.1,0,0,0,0-.18C18.66,30,16.6,28.88,15.18,29c-1.81.19-2.71,2.25-1.76,3.17s2.09.16,2.57.13,2.78,0,2.78,0S18.85,30.89,19.45,30.7Z"/><path class="cls-32" d="M34.15,33.45h-.32a2,2,0,0,1-2-2V29.69a2,2,0,0,1,2-2h.32a.48.48,0,0,1,0,1h-.32a1.06,1.06,0,0,0-1.06,1.06v1.75a1.06,1.06,0,0,0,1.06,1.06h.32a.48.48,0,0,1,0,1Z"/><path class="cls-33" d="M26.89,8.93a8.06,8.06,0,0,1,.4,4.1.38.38,0,0,1-.37.29h-.6s.14,2.14-.92,2.38-3.19,1.57,0,3-.57,4-3.36,2.57a8.24,8.24,0,0,1-3.58-3S20,18,19.73,15.9,17.37,7.68,21,6.6a5.39,5.39,0,0,1,4,.07A3.81,3.81,0,0,1,26.89,8.93Z"/><path class="cls-34" d="M26.9,10.2a.45.45,0,0,0,.29-.19c-.09-.41-.2-.78-.3-1.08a4,4,0,0,0-.5-1c-2,.25-5.38.68-5.43.65s-1.23,3.61-1.23,3.61l-.53.9c.21,1.17.47,2.21.54,2.82a2,2,0,0,1-1,2.26,1.91,1.91,0,0,1,1.47.11c.7.31,2.43,3.17,2.47,3.23h0l.81-3.75.28-.34c-.29-.75.63-1.36,1.35-1.61l1.08-1.3s-.23-1.18-.61-1-1.27-.08-1.27-1.33,1.8-1.3,2-.94a7.44,7.44,0,0,1,0,2.12h.6a.38.38,0,0,0,.18,0s-.57.15-.28-.44S26.7,10.22,26.9,10.2Z"/><path class="cls-35" d="M26.84,13.33s-1.24-.06-1.58.35c-.89,1.06-1.78-.59-1.57-2.35s2.45-1.41,3.38-1.77S25.39,7.3,25.39,7.3l-4.63,1-2.7,3.25s-.54,2.07,1.68,4.57c0,0,.35-1.82,1.43-1.85s-.59,5.31,1.5,7.27S28,22.64,28,20C28,17.79,26.88,15.38,26.84,13.33Z"/><path id="_Path_4" data-name="&lt;Path&gt;" class="cls-36" d="M17.77,11.05s.38,3.8,3.14,4.16,2.95-5.64,2.95-5.64A7.47,7.47,0,0,0,17.77,11.05Z"/><path class="cls-37" d="M21.94,9.45l-3.57,1.14a6,6,0,0,0-.6.46s.38,3.8,3.14,4.16a1.87,1.87,0,0,0,1.88-1.1c-.77,1.11-2.32-.29-2-2s3-1.86,3-1.86h0c0-.44.05-.73.05-.73A7.81,7.81,0,0,0,21.94,9.45Z"/><path class="cls-38" d="M29,7.4l-2.67-.92a1.12,1.12,0,0,1-.66-.61h0A3.19,3.19,0,0,0,22.81,4H22a4.14,4.14,0,0,0-4.14,3.68l-.35,3.2a.55.55,0,0,0,.72.58l4.16-1.4A6.34,6.34,0,0,1,25,9.78a6,6,0,0,0,4.22-1.31A.62.62,0,0,0,29,7.4Z"/><path class="cls-39" d="M28.47,8.14,25.8,7.22a1.12,1.12,0,0,1-.66-.61,3.19,3.19,0,0,0-2.88-1.86h-.78a4.13,4.13,0,0,0-3,1.3,4.12,4.12,0,0,0-.55,1.65l-.35,3.2a.55.55,0,0,0,.72.58l4.16-1.4A6.34,6.34,0,0,1,25,9.78,6,6,0,0,0,28.88,8.7.61.61,0,0,0,28.47,8.14Z"/></svg>