<svg id="Layer_1" data-name="Layer 1" xmlns="http://www.w3.org/2000/svg" xmlns:xlink="http://www.w3.org/1999/xlink" viewBox="0 0 64 64"><defs><style>.cls-1{fill:url(#linear-gradient);}.cls-2{fill:url(#linear-gradient-2);}.cls-3{fill:url(#linear-gradient-3);}.cls-4{fill:url(#linear-gradient-4);}.cls-5{fill:url(#linear-gradient-5);}.cls-6{fill:url(#linear-gradient-6);}.cls-7{fill:url(#linear-gradient-7);}.cls-8{fill:url(#linear-gradient-8);}.cls-9{fill:url(#linear-gradient-9);}.cls-10{fill:url(#linear-gradient-10);}.cls-11{fill:url(#linear-gradient-11);}.cls-12{fill:url(#linear-gradient-12);}.cls-13{fill:url(#linear-gradient-13);}.cls-14{fill:url(#linear-gradient-14);}.cls-15{fill:url(#linear-gradient-15);}.cls-16{fill:url(#linear-gradient-16);}.cls-17{fill:url(#linear-gradient-17);}.cls-18{fill:url(#linear-gradient-18);}.cls-19{fill:url(#linear-gradient-19);}.cls-20{fill:#f9aa8f;}.cls-21{fill:url(#linear-gradient-20);}.cls-22{fill:url(#linear-gradient-21);}.cls-23{fill:url(#linear-gradient-22);}.cls-24{fill:url(#linear-gradient-23);}.cls-25{fill:url(#linear-gradient-24);}.cls-26{fill:url(#linear-gradient-25);}.cls-27{fill:#f6dc92;}.cls-28{fill:#acb6dc;}.cls-29{fill:url(#linear-gradient-26);}.cls-30{fill:#dd4531;}.cls-31{fill:url(#linear-gradient-27);}.cls-32{fill:url(#linear-gradient-28);}.cls-33{fill:url(#linear-gradient-29);}.cls-34{fill:url(#linear-gradient-30);}</style><linearGradient id="linear-gradient" x1="32" y1="49.33" x2="32" y2="-13.95" gradientUnits="userSpaceOnUse"><stop offset="0.02" stop-color="#97efe7"/><stop offset="0.52" stop-color="#3db6d3"/><stop offset="1" stop-color="#3d6fd3"/></linearGradient><linearGradient id="linear-gradient-2" x1="30.32" y1="19.2" x2="30.32" y2="-9.5" gradientUnits="userSpaceOnUse"><stop offset="0" stop-color="#d1efe7"/><stop offset="0.53" stop-color="#97efe7"/><stop offset="1" stop-color="#3ccbe3"/></linearGradient><linearGradient id="linear-gradient-3" x1="48.86" y1="46.12" x2="32.9" y2="16.11" xlink:href="#linear-gradient-2"/><linearGradient id="linear-gradient-4" x1="30.66" y1="44.52" x2="24.15" y2="10.85" xlink:href="#linear-gradient-2"/><linearGradient id="linear-gradient-5" x1="10.02" y1="33.58" x2="10.02" y2="34.92" gradientUnits="userSpaceOnUse"><stop offset="0.27" stop-color="#8f3c00"/><stop offset="1" stop-color="#601a00"/></linearGradient><linearGradient id="linear-gradient-6" x1="14.58" y1="33.92" x2="14.58" y2="43.36" xlink:href="#linear-gradient-5"/><linearGradient id="linear-gradient-7" x1="7.35" y1="45.06" x2="7.35" y2="52.55" xlink:href="#linear-gradient-5"/><linearGradient id="linear-gradient-8" x1="12.37" y1="28.33" x2="12.37" y2="38" xlink:href="#linear-gradient-5"/><linearGradient id="linear-gradient-9" x1="5.62" y1="45.04" x2="5.62" y2="52.52" xlink:href="#linear-gradient-5"/><linearGradient id="linear-gradient-10" x1="26.65" y1="69.39" x2="26.65" y2="59.92" gradientUnits="userSpaceOnUse"><stop offset="0" stop-color="#caf1d8"/><stop offset="0.51" stop-color="#7defa4"/><stop offset="1" stop-color="#2fbca4"/></linearGradient><linearGradient id="linear-gradient-11" x1="41.67" y1="69.04" x2="41.67" y2="59.72" xlink:href="#linear-gradient-10"/><linearGradient id="linear-gradient-12" x1="19.37" y1="24.01" x2="19.37" y2="-12.25" xlink:href="#linear-gradient"/><linearGradient id="linear-gradient-13" x1="13.78" y1="24.35" x2="13.78" y2="-8.58" xlink:href="#linear-gradient"/><linearGradient id="linear-gradient-14" x1="983.51" y1="29.88" x2="983.51" y2="-31.66" gradientTransform="translate(-940.22)" xlink:href="#linear-gradient"/><linearGradient id="linear-gradient-15" x1="978.75" y1="29.88" x2="978.75" y2="-31.66" gradientTransform="translate(-940.22)" xlink:href="#linear-gradient"/><linearGradient id="linear-gradient-16" x1="992.38" y1="29.88" x2="992.38" y2="-31.66" gradientTransform="translate(-940.22)" xlink:href="#linear-gradient"/><linearGradient id="linear-gradient-17" x1="967.1" y1="29.88" x2="967.1" y2="-31.66" gradientTransform="translate(-940.22)" xlink:href="#linear-gradient"/><linearGradient id="linear-gradient-18" x1="965.44" y1="29.88" x2="965.44" y2="-31.66" gradientTransform="translate(-940.22)" xlink:href="#linear-gradient"/><linearGradient id="linear-gradient-19" x1="977.85" y1="29.88" x2="977.85" y2="-31.66" gradientTransform="translate(-940.22)" gradientUnits="userSpaceOnUse"><stop offset="0" stop-color="#fff"/><stop offset="0.84" stop-color="#cddfec"/></linearGradient><linearGradient id="linear-gradient-20" x1="37.89" y1="49.04" x2="51.06" y2="49.04" gradientUnits="userSpaceOnUse"><stop offset="0.11" stop-color="#c89974"/><stop offset="1" stop-color="#ae8667"/></linearGradient><linearGradient id="linear-gradient-21" x1="41.07" y1="32.23" x2="33.41" y2="27" gradientUnits="userSpaceOnUse"><stop offset="0" stop-color="#9aa5d3"/><stop offset="1" stop-color="#acb6dc"/></linearGradient><linearGradient id="linear-gradient-22" x1="47.16" y1="36.45" x2="48.7" y2="40.02" gradientUnits="userSpaceOnUse"><stop offset="0" stop-color="#ae8667"/><stop offset="0.48" stop-color="#b88d6c"/><stop offset="1" stop-color="#c89974"/></linearGradient><linearGradient id="linear-gradient-23" x1="44.75" y1="47.14" x2="62.97" y2="44.66" xlink:href="#linear-gradient-20"/><linearGradient id="linear-gradient-24" x1="59.56" y1="18.45" x2="49.71" y2="27.91" gradientUnits="userSpaceOnUse"><stop offset="0" stop-color="#acb6dc"/><stop offset="1" stop-color="#acb6dc"/></linearGradient><linearGradient id="linear-gradient-25" x1="38.63" y1="30.23" x2="68.38" y2="26.18" gradientUnits="userSpaceOnUse"><stop offset="0" stop-color="#acb6dc"/><stop offset="1" stop-color="#8d9dd6"/></linearGradient><linearGradient id="linear-gradient-26" x1="36.72" y1="19.13" x2="40.32" y2="3.87" gradientUnits="userSpaceOnUse"><stop offset="0" stop-color="#f78e6b"/><stop offset="1" stop-color="#f9aa8f"/></linearGradient><linearGradient id="linear-gradient-27" x1="30.38" y1="35" x2="30.38" y2="30.96" gradientTransform="matrix(1, 0, 0, 1, 0, 0)" xlink:href="#linear-gradient-19"/><linearGradient id="linear-gradient-28" x1="44.48" y1="17.19" x2="35.41" y2="10.33" gradientUnits="userSpaceOnUse"><stop offset="0" stop-color="#bb2d25"/><stop offset="1" stop-color="#db4337"/></linearGradient><linearGradient id="linear-gradient-29" x1="18.47" y1="55.29" x2="18.3" y2="40.6" gradientUnits="userSpaceOnUse"><stop offset="0"/><stop offset="1" stop-color="#6b3500"/></linearGradient><linearGradient id="linear-gradient-30" x1="17.89" y1="36.25" x2="17.89" y2="60.48" xlink:href="#linear-gradient-29"/></defs><title>sawing wood</title><circle class="cls-1" cx="32" cy="32" r="28"/><path class="cls-2" d="M44.27,35.14a1.71,1.71,0,0,0-2.32,0L37.77,39a1.47,1.47,0,0,1-2,0L19.31,24.36a2.35,2.35,0,0,0-3.29.17L4.47,37.1a28,28,0,0,0,51.69,9Z"/><path class="cls-3" d="M56.16,46.15l-11.89-11h0a.73.73,0,0,0-1.21.55v.2a4.72,4.72,0,0,0,1.24,3.18,3.31,3.31,0,0,1,.07,4.38l-2.59,3,5.82,8.8A28.14,28.14,0,0,0,56.16,46.15Z"/><path class="cls-4" d="M50.92,52.64l-15.56-14-16-14.27h0a1,1,0,0,0-1.62.75,9.88,9.88,0,0,1-1.92,5.85l-4.2,5.72a3.37,3.37,0,0,0,.52,4.56,14.58,14.58,0,0,1,2.32,2.51l8,11L32.4,60A27.89,27.89,0,0,0,50.92,52.64Z"/><path class="cls-5" d="M13.82,38.52a2.83,2.83,0,0,0-1.6-.36H4.69a27.78,27.78,0,0,0,1.61,5h8.86C15.65,41.16,15.18,39.3,13.82,38.52Z"/><path class="cls-6" d="M21.84,38.52a2.83,2.83,0,0,0-1.6-.36H6.75L5.8,41.89q.23.62.5,1.23H23.18C23.67,41.16,23.19,39.3,21.84,38.52Z"/><path class="cls-7" d="M8.34,38.52a3.47,3.47,0,0,0-3.51.28A27.78,27.78,0,0,0,6.3,43.12H9.68C10.17,41.16,9.7,39.3,8.34,38.52Z"/><path class="cls-8" d="M19.18,33.55a2.83,2.83,0,0,0-1.6-.36H4.09L4,33.41a28,28,0,0,0,.65,4.75H20.52C21,36.19,20.54,34.34,19.18,33.55Z"/><path class="cls-9" d="M5.69,33.55A2.84,2.84,0,0,0,4,33.21a28,28,0,0,0,.66,4.94H7C7.52,36.19,7,34.34,5.69,33.55Z"/><path class="cls-10" d="M35.31,57.72l-.71-1.28a.21.21,0,0,0,.07-.28l-.56-1a.15.15,0,0,0,.07-.21l-.43-.77h0a.11.11,0,0,0,.07-.16L33,52.49a.05.05,0,0,0-.09,0L32,54a.11.11,0,0,0,.07.16h0l-.43.77a.15.15,0,0,0,.07.21l-.3.54-.26-.47a.26.26,0,0,0,.11-.36l-.74-1.33h0a.19.19,0,0,0,.12-.27l-1.45-2.61a.09.09,0,0,0-.16,0l-1.45,2.61a.19.19,0,0,0,.12.27h0l-.27.48L27,53.16a.26.26,0,0,0,.11-.36l-.74-1.33h0a.19.19,0,0,0,.12-.27L25,48.58a.09.09,0,0,0-.16,0L23.43,51.2a.19.19,0,0,0,.12.27h0l-.74,1.33a.26.26,0,0,0,.11.36l-.83,1.5L21.7,54h0a.19.19,0,0,0,.12-.27l-1.45-2.61a.09.09,0,0,0-.16,0l-1.45,2.61a.19.19,0,0,0,.12.27h0l-.57,1-.3-.54h0a.11.11,0,0,0,.07-.16l-.84-1.52a.05.05,0,0,0-.09,0l-.84,1.52a.11.11,0,0,0,.07.16h0l-.32.58a27.88,27.88,0,0,0,7.59,3.72l0,0a16.83,16.83,0,0,0,1.89,0l-.24.43a28,28,0,0,0,11.94.32l-2.11-1.36A.29.29,0,0,0,35.31,57.72Z"/><path class="cls-11" d="M49.49,53.53h0a.19.19,0,0,0,.12-.27l-1.45-2.61a.09.09,0,0,0-.16,0l-1.45,2.61a.19.19,0,0,0,.12.27h0l-.27.48-.47-.84a.26.26,0,0,0,.11-.36l-.74-1.33h0a.19.19,0,0,0,.12-.27L44,48.58a.09.09,0,0,0-.16,0L42.37,51.2a.19.19,0,0,0,.12.27h0l-.74,1.33a.26.26,0,0,0,.11.36L41,54.66l-.39-.7h0a.19.19,0,0,0,.12-.27l-1.45-2.61a.09.09,0,0,0-.16,0L37.7,53.69a.19.19,0,0,0,.12.27h0l-.57,1-.3-.54h0a.11.11,0,0,0,.07-.16l-.84-1.52a.05.05,0,0,0-.09,0l-.84,1.52a.11.11,0,0,0,.07.16h0l-.43.77a.15.15,0,0,0,.07.21l-.56,1a.21.21,0,0,0,.07.28L33.75,58a.29.29,0,0,0,.19.42,9.78,9.78,0,0,0,2,.25l-.63,1.13a27.86,27.86,0,0,0,14.35-6Z"/><path class="cls-12" d="M25.55,15.58C20.77,14,16.7,11.5,15.11,9.67c-.66.5-1.3,1-1.91,1.59C20.23,14.08,25.55,15.58,25.55,15.58Z"/><path class="cls-13" d="M8.85,16.25A72.94,72.94,0,0,0,18.72,18c-2.77-.39-5.23-1.38-6-2.19A7.06,7.06,0,0,0,10,14.73C9.58,15.22,9.21,15.73,8.85,16.25Z"/><path class="cls-14" d="M31.53,19s4.61.86,7.29.29,4.09.61,5.9-.19a3.2,3.2,0,0,1,3.88,1c.51.76,1.87,0,2.9.68s3.57.62,3.57.62S47.29,23.84,31.53,19Z"/><path class="cls-15" d="M32,13.36a11.24,11.24,0,0,0,4.07.22c1.54-.38,2.26.42,3.32-.12a1.53,1.53,0,0,1,2.12.69c.24.52,1.05,0,1.59.47a3.86,3.86,0,0,0,2,.43S40.56,16.71,32,13.36Z"/><path class="cls-16" d="M55.94,16.09s-5.17.85-7.57-.2a6.06,6.06,0,0,0,2.08-.7,2.2,2.2,0,0,1,2.44-.05c.53.52.79-.4,1.39.1A6.46,6.46,0,0,0,55.94,16.09Z"/><path class="cls-17" d="M24.7,9.18s3,1,4.37.73a4.47,4.47,0,0,1-1.18-.57A1.51,1.51,0,0,0,26.49,9c-.32.2-.44-.28-.8-.1A3.58,3.58,0,0,1,24.7,9.18Z"/><path class="cls-18" d="M23,18s3,1,4.37.73a4.47,4.47,0,0,1-1.18-.57,1.51,1.51,0,0,0-1.4-.29c-.32.2-.44-.28-.8-.1A3.58,3.58,0,0,1,23,18Z"/><path class="cls-19" d="M39.21,9.8a9.36,9.36,0,0,1-3.15-.75A3.27,3.27,0,0,0,37,9a1.1,1.1,0,0,1,1,.2c.16.22.38-.07.57.16A2.62,2.62,0,0,0,39.21,9.8Z"/><path class="cls-20" d="M16.45,31.48s-2.24,1.12-.78,1.77a3.43,3.43,0,0,0,2.55-.15A2.71,2.71,0,0,1,19.88,33a1.16,1.16,0,0,0,.28,0,2.87,2.87,0,0,0,1-.25L21,31.34"/><path class="cls-21" d="M37.89,59.38a27.78,27.78,0,0,0,5.66-1.87c1.86-7.62,4.63-16.76,7.51-18.31L39.89,38.7A100.87,100.87,0,0,0,37.89,59.38Z"/><path id="_Path_" data-name="&lt;Path&gt;" class="cls-20" d="M19.77,30.84s-2.87,0-3.8,1l3.8.6Z"/><path id="_Path_2" data-name="&lt;Path&gt;" class="cls-22" d="M40,17.07c-5.5,1.39-4.75,13.78-20.25,13.78V32.4s15,2.54,19.53-3.89l4.33-5.45S41.61,16.67,40,17.07Z"/><path class="cls-23" d="M54.84,36.71,46,37.61a34.53,34.53,0,0,0,1.7,17.58,28.15,28.15,0,0,0,6.83-6.56A37.56,37.56,0,0,1,54.84,36.71Z"/><path class="cls-24" d="M54.52,48.64a45.68,45.68,0,0,1-.26-7.55H52.88l-7.33,2s6.58.19,7,7.92A28.14,28.14,0,0,0,54.52,48.64Z"/><path id="_Path_3" data-name="&lt;Path&gt;" class="cls-25" d="M56.69,40.24a2.1,2.1,0,0,1-1.84,2.24c-4.66.57-16,1.63-15.54-1.55,1.88-14.08-.22-22.9-.22-22.9l7.59-3.35c5,.69,7.53,8.84,8.84,16.09.26,1.47.48,2.91.65,4.24C56.43,37.12,56.59,38.95,56.69,40.24Z"/><path class="cls-26" d="M46.68,14.68l-2.15.95-.2.09L39.59,21s6.7-.06,8.55,4.7-6.07,8.78-6.07,8.78l.59,3.43s9.55-.5,9.33,2-6.1,3.14-6.43,3.18a77.84,77.84,0,0,0,9.3-.64,2.1,2.1,0,0,0,1.84-2.24V38.39l0-.17v-.14l0-.18,0-.15,0-.18,0-.17,0-.18,0-.17,0-.18,0-.17,0-.18,0-.2,0-.17,0-.21,0-.16,0-.29V35.4l0-.39c-.09-.67-.18-1.36-.29-2.07l-.08-.54c-.09-.54-.18-1.09-.28-1.64l-.13-.68-.13-.69-.07-.34C53.79,22.29,51.26,15.32,46.68,14.68Z"/><path class="cls-27" d="M44.14,31.31H41v1.1h1.57a.46.46,0,0,1,.46.46v1.28a.46.46,0,0,1-.53.46L41,34.39v.87l3,.45a.92.92,0,0,0,1.06-.91V32.23A.92.92,0,0,0,44.14,31.31Z"/><path id="_Path_4" data-name="&lt;Path&gt;" class="cls-28" d="M49.93,16.33c4.2,3.18,16.41,13.81-2.68,17.54l-1-1.77s7.83-4.16,2.27-9.45a4.33,4.33,0,0,1-.45-5.81h0A1.18,1.18,0,0,1,49.93,16.33Z"/><path class="cls-20" d="M43.16,12.58l-.12-1h0l-.55-4.29s-2-1.59-5.53,1.35c-.8.67-1.49,3.59-1.19,5,.09.43.43.43.72.36a.36.36,0,0,1,.42.2c.13.28.33.71.45,1,.25.61.5,1.15.86,1.13a2.14,2.14,0,0,0,.42-.06h0c2.25-.49,2.74,0,2.4.41a3.41,3.41,0,0,1-1,.37c1.9,8.41,6.66-2.39,6.66-2.39A2.55,2.55,0,0,1,43.16,12.58Z"/><path class="cls-29" d="M37.79,8.05c-.27.18-.55.39-.84.64a3.87,3.87,0,0,0-.87,1.71s.72-.39.76-.18-.49,2-.25,2.77-.19,1.06-.19,1.06h0l.07,0h.14l.68-.09s-.83-3,.71-2.87,1.16,3.26.2,3.3.75,1.4.75,1.4L40.39,15s-.76-2-.26-3.1,1.06-2,1.06-2L40.12,8.78Z"/><path class="cls-20" d="M46.31,32.1s-.2-.89-1.86-.77a.23.23,0,0,0-.14.41h0a.3.3,0,0,1-.18.51l-1.41.1a.69.69,0,0,0-.51,1.1c.54.73,1.85,1.41,5,.42Z"/><path class="cls-30" d="M36.49,14s1.19-.37,1.72.33,1.88.11,1.73-.43A6.59,6.59,0,0,1,40,10.87c.45-.92-.84-2.69-2.16-1.91s-1.58,1.09-1.7.84A2.38,2.38,0,0,1,38,6.91c2.23-.52,5.54-.44,5.19,1.53a15.7,15.7,0,0,0-.08,4.14l-.29-.05a.54.54,0,0,1-.44-.57c0-.4,0-.95-.41-1.12-.65-.3-1.76.24-1.5,1.92s4.51,6.18,1.85,7.5-8,1.42-6.93-1.63A14.93,14.93,0,0,0,36.49,14Z"/><path class="cls-31" d="M19.77,32.4v1.28a1.09,1.09,0,0,0,.89,1.07l18.42,3.4A1.62,1.62,0,0,0,41,36.56V31.31H20.86A1.09,1.09,0,0,0,19.77,32.4Z"/><path class="cls-32" d="M42.38,20.25c2.66-1.32-1.59-5.82-1.85-7.5s.85-2.21,1.5-1.92c.39.18.43.72.41,1.12a.54.54,0,0,0,.44.57l.29.05a15.7,15.7,0,0,1,.08-4.14c.24-1.33-1.2-1.8-2.84-1.8.53,0,1.43.18.79,1-.88,1.09-2.33.08-1.71,1.55h0A1.59,1.59,0,0,1,40,10.87a6.58,6.58,0,0,0-.08,3.07c.16.54-1.2,1.12-1.73.43S36.49,14,36.49,14a1.9,1.9,0,0,1,1.73,2.31c-.24,2.19,1.7,1.5,1.64,2.91a1.78,1.78,0,0,1-1.66,1.87h.1L39.85,21A8.92,8.92,0,0,0,42.38,20.25Z"/><path class="cls-33" d="M8.52,47.25h19.8a2.07,2.07,0,0,0,2.07-2.07h0a2.07,2.07,0,0,0-2.07-2.07H6.3A27.92,27.92,0,0,0,8.52,47.25Z"/><path class="cls-34" d="M8.52,47.25A28,28,0,0,0,27.25,59.59V47.25H8.52Z"/></svg>